<?xml version="1.0" encoding="utf-8"?>
<!-- Generator: Adobe Illustrator 21.0.2, SVG Export Plug-In . SVG Version: 6.00 Build 0)  -->
<svg version="1.1" id="Layer_1" xmlns="http://www.w3.org/2000/svg" xmlns:xlink="http://www.w3.org/1999/xlink" x="0px" y="0px"
	 viewBox="0 0 98 74" style="enable-background:new 0 0 98 74;" xml:space="preserve">
<style type="text/css">
	.st0{fill:#A1202F;}
</style>
<path class="st0" d="M90,14H7c-3.8,0-7-3.1-7-7v0c0-3.8,3.1-7,7-7h83c3.8,0,7,3.1,7,7v0C97,10.9,93.9,14,90,14z"/>
<path class="st0" d="M91,74H8c-3.8,0-7-3.1-7-7v0c0-3.8,3.1-7,7-7h83c3.8,0,7,3.1,7,7v0C98,70.9,94.9,74,91,74z"/>
<path class="st0" d="M90,44H7c-3.8,0-7-3.1-7-7v0c0-3.8,3.1-7,7-7h83c3.8,0,7,3.1,7,7v0C97,40.9,93.9,44,90,44z"/>
</svg>
