<?xml version="1.0" encoding="utf-8"?>
<!-- Generator: Adobe Illustrator 21.0.2, SVG Export Plug-In . SVG Version: 6.00 Build 0)  -->
<svg version="1.1" xmlns="http://www.w3.org/2000/svg" xmlns:xlink="http://www.w3.org/1999/xlink" x="0px" y="0px"
	 viewBox="0 0 297.5 440.3" style="enable-background:new 0 0 297.5 440.3;" xml:space="preserve">
<style type="text/css">
	.st0{display:none;}
	.st1{display:inline;}
	.st2{fill:none;stroke:#981B1E;stroke-width:9;stroke-miterlimit:10;}
	.st3{fill:#FFFFFF;}
	.st4{fill:none;stroke:#000000;stroke-width:3;stroke-miterlimit:10;}
	.st5{fill:#475A84;}
	.st6{fill:#FFFFFF;stroke:#000000;stroke-width:2;stroke-miterlimit:10;}
	.st7{fill:none;stroke:#000000;stroke-width:0.75;stroke-linecap:round;stroke-miterlimit:10;}
	.st8{fill:#BF1E2E;stroke:#BF1E2E;stroke-width:2;stroke-miterlimit:10;}
	.st9{fill:none;stroke:#000000;stroke-width:2;stroke-miterlimit:10;}
	.st10{fill:none;stroke:#000000;stroke-width:8;stroke-linecap:round;stroke-miterlimit:10;}
	.st11{fill:none;stroke:#000000;stroke-width:13;stroke-linecap:round;stroke-miterlimit:10;}
	.st12{display:inline;fill:none;stroke:#000000;stroke-width:3;stroke-miterlimit:10;}
	.st13{fill:#981B1E;}
	.st14{fill:#CCCCCC;stroke:#000000;stroke-width:2;stroke-miterlimit:10;}
	.st15{fill:#BF1E2E;}
	.st16{fill:none;stroke:#BF1E2E;stroke-width:13;stroke-linecap:round;stroke-miterlimit:10;}
	.st17{fill:none;stroke:#BF1E2E;stroke-width:4;stroke-linecap:round;stroke-miterlimit:10;}
	.st18{fill:none;stroke:#FFFFFF;stroke-miterlimit:10;}
	.st19{fill:none;stroke:#981B1E;stroke-width:11;stroke-miterlimit:10;}
	.st20{fill:#CCCCCC;}
	.st21{fill:#C1272D;}
</style>
<g id="Layer_1" class="st0">
	<g id="Recreation" class="st1">
		<g id="Red_Circle">
		</g>
		<g id="Blue_THings">
			<g id="Layer_7">
			</g>
		</g>
		<g id="Black_Circle">
		</g>
		<g id="Layer_8">
		</g>
		<g id="Typography">
		</g>
		<g id="Red_Bits">
			<g id="Layer_10">
			</g>
			<g id="Layer_11">
			</g>
			<g id="Layer_12">
			</g>
		</g>
	</g>
</g>
<g id="editable">
</g>
<g id="flat">
	<g>
		<g>
			<path class="st13" d="M20.4,213.8c13.1-58.9,65.7-103,128.4-103s115.3,44.1,128.4,103h9.2c-13.2-63.9-69.9-112-137.6-112
				s-124.4,48.1-137.6,112H20.4z"/>
			<path class="st13" d="M277.1,270.8c-13.1,58.9-65.7,103-128.4,103s-115.3-44.1-128.4-103h-9.2c13.2,63.9,69.9,112,137.6,112
				s124.4-48.1,137.6-112H277.1z"/>
		</g>
		<g id="lighthouse_2_">
			<polyline class="st20" points="134.3,21.3 134.3,51.3 163.3,51.3 163.3,21.3 			"/>
			<path d="M162.3,21.3V27c-2.1-0.5-4.1-0.9-6-1.1v-5.6h-2v5.4c-4.2-0.4-7.9-0.3-11,0v-5.4h-2v5.6c-2.7,0.3-4.8,0.8-6,1.1v-5.7h-2
				v31h31v-31H162.3z M143.3,40.3c3.1-0.3,6.8-0.4,11,0v4.3h-11V40.3z M143.3,38.3V34c3.1-0.3,6.8-0.4,11,0v4.3
				C150.1,37.9,146.4,38,143.3,38.3z M135.3,35.4c1-0.3,3.1-0.8,6-1.2v4.3c-2.7,0.3-4.8,0.8-6,1.1V35.4z M156.3,34.2
				c1.9,0.3,3.9,0.6,6,1.2v4.3c-2.1-0.5-4.1-0.9-6-1.1V34.2z M162.3,29.1v4.3c-2.1-0.5-4.1-0.9-6-1.1v-4.3
				C158.2,28.2,160.2,28.6,162.3,29.1z M154.3,27.7V32c-4.2-0.4-7.9-0.3-11,0v-4.3C146.3,27.4,150.1,27.3,154.3,27.7z M141.3,27.9
				v4.3c-2.7,0.3-4.8,0.8-6,1.1V29C136.3,28.8,138.4,28.3,141.3,27.9z M135.3,50.3v-8.6c1-0.3,3.1-0.8,6-1.2v6.1h15v-6.1
				c1.9,0.3,3.9,0.6,6,1.2v8.5H135.3z"/>
			<polyline class="st3" points="123.4,150.6 128.8,58.3 168.8,58.3 174,149.8 			"/>
			<g id="Window_10_">
				<rect x="133.9" y="96.3" width="3" height="11"/>
			</g>
			<g id="Window_9_">
				<rect x="160.3" y="127.3" width="3" height="11"/>
			</g>
			<g>
				<path class="st15" d="M131.2,59.5c-2.8,0-5.4-1.8-6.2-4.6c-1.1-3.4,0.9-7.1,4.3-8.1c12.7-3.9,25.7-3.9,38.8,0
					c3.4,1,5.4,4.6,4.4,8.1c-1,3.4-4.6,5.4-8.1,4.4c-10.8-3.2-21-3.2-31.3,0C132.5,59.4,131.8,59.5,131.2,59.5z"/>
			</g>
			<g>
				<path d="M126,64.1c-1.8,0-3.5-1.2-3.9-3.1c-0.5-2.1,0.8-4.3,3-4.8c15.4-3.7,31.3-3.7,47.2,0c2.2,0.5,3.5,2.6,3,4.8
					c-0.5,2.2-2.6,3.5-4.8,3c-14.8-3.4-29.4-3.4-43.6,0C126.7,64.1,126.3,64.1,126,64.1z"/>
			</g>
			<path class="st15" d="M166.7,19.6c-0.9-0.2-1.8-0.4-2.7-0.6c-2.5-4.6-6.8-9.1-13.4-9.9V8c1.3-0.5,2.3-1.7,2.3-3.1
				c0-1.9-1.8-3.4-4-3.4s-4,1.5-4,3.4c0,1.4,0.9,2.5,2.3,3.1v1.2c-6.8,0.6-11,5-13.8,9.9c-0.9,0.2-1.8,0.4-2.7,0.6
				c-1.1,0.3-1.7,1.3-1.5,2.4c0.2,0.9,1,1.5,1.9,1.5c0.2,0,0.3,0,0.5-0.1c11.1-2.6,22.6-2.6,34.2,0c1.1,0.2,2.1-0.4,2.4-1.5
				C168.5,21,167.8,19.9,166.7,19.6z"/>
			<g>
				<path d="M173,149.9l2-0.1l-3.2-54.6c-0.7-0.1-1.3-0.2-2-0.3L173,149.9z"/>
				<path d="M128.8,74.8l0.9-15.5h38.1l0.9,15.3c0.7,0.1,1.3,0.1,2,0.2l-1-17.6h-41.9l-1,17.8C127.5,75,128.1,74.9,128.8,74.8z"/>
				<path d="M127.6,95.1c-0.7,0.1-1.3,0.2-2,0.3l-3.2,55l2,0.1L127.6,95.1z"/>
			</g>
		</g>
		<g>
			<g>
				<path class="st5" d="M54.2,106.1c0.2,0.1,0.8,0.5,1.7,1.2c0.4,0.3,0.8,0.7,1.1,1.2c-0.4,0.3-0.6,0.4-1,0.7
					c-1.3-0.4-2.5-0.5-3.5-0.3c-1,0.2-2,0.6-2.9,1.3c-1.1,0.9-1.8,2-1.8,3.2c-0.1,1.7,0.6,3.5,2,5.3c0.8,1,1.5,1.7,2,2
					c0.8,0.5,1.6,0.9,2.3,1c0.6,0.1,1.1,0.1,1.8-0.1c0.8-0.2,1.5-0.5,2.2-1c0.7-0.6,1.3-1.3,1.7-2.3s0.6-2.1,0.6-3.4
					c0.2-0.2,0.6-0.5,1-0.8c0.1,0.3,0.3,0.5,0.4,0.9c0.1,0.1,0.3,0.6,0.6,1.4c0,0.1,0.1,0.2,0.1,0.4c0.1,0.2,0.1,0.3,0.2,0.6
					c-0.2,0.6-0.6,1.2-1.3,1.9c-0.6,0.7-1.5,1.4-2.6,2.3c-0.8,0.6-1.6,1.2-2.5,1.6c-0.8,0.4-1.6,0.7-2.4,0.8
					c-1.1,0.2-2.1,0.2-2.9,0.1c-0.9-0.1-1.6-0.4-2.4-0.8c-0.7-0.4-1.4-1-2-1.7c-1.5-1.8-2.1-3.8-1.7-6.1c0.4-2.3,1.8-4.4,4-6.1
					c0.9-0.7,1.8-1.3,2.7-1.8C52.5,106.8,53.4,106.4,54.2,106.1z"/>
				<path class="st5" d="M64.4,116.3c0.1-0.1,0.4-0.4,0.8-0.7c0.2-0.2,0.3-0.3,0.3-0.4c0-0.1-0.1-0.4-0.4-0.8
					c-0.2-0.3-0.3-0.4-0.5-0.7c-0.2-0.3-0.3-0.5-0.5-0.8c-0.2-0.3-0.3-0.5-0.5-0.8c0-0.1-0.1-0.1-0.1-0.2c-0.1-0.2-0.2-0.3-0.3-0.5
					c0-0.1-0.1-0.1-0.1-0.2c-0.9-1.4-1.4-2.1-2.3-3.6c-0.1-0.1-0.1-0.2-0.2-0.3c-0.8-1.2-1.3-1.9-1.6-2.2c-0.2-0.1-0.4-0.2-0.6-0.2
					c-0.2,0-0.7,0.2-1.4,0.5c-0.1-0.1-0.1-0.1-0.1-0.2c-0.1-0.1-0.1-0.2-0.2-0.4c0.3-0.3,0.5-0.5,0.8-0.8c0.2-0.2,0.3-0.3,0.5-0.5
					c0.4-0.4,0.8-0.9,1.3-1.6c0.1-0.1,0.2-0.3,0.2-0.4c0.3-0.1,0.4-0.2,0.7-0.4c1.5,2.4,2.3,3.6,3.8,5.9c0.4-0.9,0.8-1.6,1.2-2.2
					c0.4-0.5,1-1,1.6-1.4c0.6-0.3,1.1-0.6,1.7-0.6c0.5-0.1,1,0,1.4,0.1c0.4,0.1,0.8,0.4,1.1,0.7c0.2,0.2,0.5,0.7,1,1.5
					c0.1,0.3,0.2,0.4,0.4,0.7c0.3,0.6,0.5,0.9,0.8,1.4c0.5,0.8,0.7,1.3,1.1,2.1c0.1,0,0.1,0.1,0.2,0.1c0.1,0,0.3-0.1,0.7-0.2
					c0.2-0.1,0.4-0.1,0.5-0.2c0.1,0.1,0.2,0.1,0.2,0.2c0,0,0,0.1,0,0.1c0,0.1,0.1,0.2,0.2,0.3c-0.1,0.1-0.1,0.1-0.2,0.2
					c-0.1,0.1-0.3,0.2-0.7,0.3c-0.6,0.3-1.1,0.6-1.6,0.8c-0.3,0.2-0.6,0.4-1,0.7c-0.3,0.2-0.7,0.4-1.2,0.7c-0.1,0-0.2,0.1-0.2,0.1
					c-0.1-0.1-0.1-0.1-0.1-0.2c0,0-0.1-0.1-0.1-0.1c0-0.1-0.1-0.1-0.1-0.3c0.1-0.2,0.3-0.3,0.5-0.5s0.5-0.4,0.6-0.4
					c0-0.1-0.1-0.2-0.1-0.3c-0.3-0.6-0.5-0.9-0.8-1.5c-0.6-1-0.9-1.5-1.5-2.5c-0.4-0.7-0.8-1.2-1-1.4c-0.2-0.2-0.6-0.3-0.9-0.3
					c-0.4,0-0.8,0.1-1.2,0.4c-0.5,0.3-0.9,0.7-1.2,1.1c-0.3,0.5-0.5,0.9-0.7,1.4c0.4,0.7,0.7,1,1.1,1.7c0.6,1,1.1,1.7,1.3,2.2
					c0.2,0.3,0.3,0.5,0.3,0.5c0.3,0.5,0.5,0.7,0.7,0.9c0.1,0.1,0.2,0.1,0.4,0.1c0.2-0.1,0.5-0.3,0.7-0.4c0.2-0.1,0.4-0.2,0.4-0.2
					c0.1,0,0.2,0.3,0.2,0.3c0.1,0.1,0.1,0.2,0.2,0.4c-0.5,0.3-0.7,0.4-1.2,0.7c-0.5,0.3-0.9,0.5-1.2,0.7c-0.6,0.4-0.9,0.6-1.4,1
					c-0.4,0.3-0.6,0.4-1,0.7c-0.1,0-0.3-0.2-0.5-0.3C64.5,116.4,64.5,116.3,64.4,116.3z"/>
				<path class="st5" d="M85.6,102.6c0.1,0,0.2,0,0.3,0c0.1,0,0.2,0.1,0.2,0.1c0,0,0,0,0,0c0.1,0.7,0.1,1.3-0.1,1.6
					c-0.2,0.4-0.5,0.7-0.9,0.9c-0.4,0.2-0.9,0.3-1.3,0.2s-0.9-0.3-1.4-0.8c-0.1,0.7-0.3,1.3-0.7,1.9c-0.4,0.6-1.1,1-1.9,1.5
					c-0.8,0.4-1.4,0.5-1.9,0.4c-0.5-0.1-0.9-0.4-1.2-0.9c-0.1-0.2-0.2-0.5-0.2-0.8c0-0.3,0-0.6,0.1-1c0.1-0.4,0.4-0.8,0.8-1.4
					c0.1-0.1,0.3-0.4,0.7-0.8c0.9-1,1.4-1.5,2.3-2.5c-0.1-0.3-0.2-0.6-0.4-0.8c-0.5-0.9-0.9-1.5-1.3-1.7c-0.3-0.1-0.6-0.1-1,0.1
					c-0.4,0.2-0.7,0.4-1,0.7c-0.3,0.3-0.4,0.6-0.4,0.9c0,0.2,0,0.5,0.2,1c0.1,0.3,0.2,0.5,0.1,0.6c0,0.2-0.2,0.4-0.4,0.7
					s-0.4,0.5-0.5,0.6c-0.3,0.4-0.6,0.7-0.8,0.8c-0.1,0-0.3-0.1-0.3-0.3c-0.2-0.4-0.3-0.8-0.3-1.2c0.1-0.5,0.3-1.2,0.6-1.8
					c0.4-0.7,0.7-1.2,1.1-1.6c0.6-0.5,1.3-1.1,2.3-1.5c0.6-0.3,1.2-0.5,1.8-0.5s1,0.2,1.4,0.5s0.8,1,1.3,2.1
					c0.3,0.7,0.5,1.1,0.8,1.8c0.3,0.5,0.4,0.8,0.6,1.3c0.1,0.1,0.1,0.2,0.2,0.3c0.1,0.3,0.3,0.5,0.4,0.6c0.1,0.1,0.3,0.1,0.4,0
					c0.1,0,0.1-0.1,0.2-0.2c0-0.3,0.1-0.4,0.1-0.7C85.5,102.7,85.5,102.7,85.6,102.6z M80.7,101.9c-0.4,0.3-0.7,0.8-1.1,1.4
					c-0.4,0.6-0.6,1.1-0.6,1.5c0,0.3,0,0.6,0.2,1c0.2,0.3,0.4,0.5,0.7,0.6s0.6,0.1,0.8,0c0.4-0.2,0.7-0.5,0.9-0.9
					c0.2-0.5,0.3-0.9,0.3-1.1s-0.2-0.7-0.7-1.6C81,102.5,80.9,102.2,80.7,101.9z"/>
				<path class="st5" d="M87.3,103.6c0.2-0.2,0.3-0.3,0.5-0.4c0.4-0.2,0.6-0.4,0.6-0.5c0.1-0.1,0.1-0.2,0.1-0.3c0-0.2-0.1-0.5-0.4-1
					c-0.2-0.4-0.2-0.6-0.4-0.9c-0.1-0.3-0.2-0.5-0.3-0.8c-0.2-0.4-0.3-0.7-0.5-1.1c-0.1-0.3-0.2-0.4-0.3-0.7
					c-0.2-0.5-0.4-0.8-0.6-1.1c-0.1-0.1-0.2-0.2-0.4-0.2c-0.3,0-0.7,0-1.3,0.1c-0.1-0.2-0.1-0.3-0.2-0.5c0.1-0.1,0.2-0.1,0.2-0.2
					c0.1,0,0.4-0.3,0.9-0.6c0.4-0.3,0.6-0.6,0.7-0.7c0,0,0.1-0.1,0.1-0.2c0.1-0.1,0.1-0.2,0.2-0.4c0.2-0.3,0.3-0.6,0.5-1.2
					c0.3-0.1,0.4-0.2,0.6-0.3c0.2,0.5,0.3,0.7,0.5,1.2c0,0.1,0.1,0.2,0.1,0.3c0,0.1,0.1,0.2,0.2,0.5c0.4-0.8,0.9-1.4,1.3-1.8
					c0.6-0.6,1.2-1,1.9-1.2c0.8-0.3,1.5-0.4,2.2-0.2c0.7,0.1,1.2,0.4,1.6,0.8c0.3,0.4,0.8,1.3,1.3,2.6c0.5,1.5,0.8,2.2,1.3,3.6
					c0.1,0.2,0.2,0.3,0.2,0.4c0.1,0,0.3,0,0.7-0.1c0.2,0,0.4-0.1,0.6-0.1c0.1,0.1,0.2,0.2,0.2,0.3c0,0.1,0.1,0.2,0.1,0.4
					c-0.9,0.3-1.4,0.4-2.3,0.7c-0.3,0.1-0.4,0.2-0.7,0.3c-0.2,0.1-0.3,0.1-0.5,0.2c-0.6,0.3-0.9,0.4-1.5,0.7
					c-0.2,0.1-0.2,0.1-0.4,0.2c0-0.1-0.1-0.2-0.1-0.2c-0.1-0.1-0.2-0.4-0.1-0.4c0,0,0.3-0.2,0.8-0.4c0.1-0.1,0.2-0.1,0.3-0.2
					c0.1-0.1,0.2-0.2,0.2-0.3c0-0.1,0-0.4-0.2-0.7c-0.2-0.6-0.4-1.1-0.6-1.4c-0.2-0.5-0.3-0.8-0.5-1.3c-0.6-1.5-1.1-2.5-1.4-2.8
					c-0.5-0.4-1.1-0.5-1.7-0.3c-0.4,0.2-0.9,0.5-1.3,0.9S89,95,88.6,95.7c0,0.1,0,0.1,0.1,0.2c0.1,0.3,0.2,0.4,0.3,0.7
					c0.1,0.3,0.2,0.4,0.3,0.7c0.3,0.7,0.5,1,0.8,1.7c0,0.1,0.1,0.2,0.1,0.3c0.5,1.2,0.8,1.8,1,1.9c0.2,0.1,0.6,0.1,1.3,0
					c0.1,0.1,0.1,0.2,0.1,0.3c0,0.1,0.1,0.2,0.1,0.4c-0.2,0.1-0.4,0.2-0.6,0.3c-0.2,0.1-0.4,0.1-0.8,0.2c-0.5,0.2-0.7,0.3-1.2,0.5
					c-0.6,0.3-1.4,0.7-2.5,1.2c-0.1-0.1-0.1-0.1-0.1-0.2C87.4,103.9,87.4,103.7,87.3,103.6z"/>
				<path class="st5" d="M97.6,90.5c0.8-0.7,1.4-1.3,1.7-1.8s0.6-1.2,0.8-2.2c0.3-0.1,0.4-0.1,0.7-0.2c0.1,0.2,0.2,0.4,0.3,0.6
					c0.1,0.4,0.2,0.7,0.3,0.9c0.1,0.3,0.1,0.4,0.2,0.7c0,0,0,0.1,0.1,0.3c0.1,0,0.2,0,0.3-0.1c0,0,0.4-0.1,1.1-0.4
					c0.1,0,0.4-0.1,0.9-0.3c0.1,0.2,0.2,0.4,0.2,0.5c0.1,0.2,0.1,0.5,0.1,0.6c-0.1,0.1-0.5,0.2-0.6,0.3c-0.1,0-0.2,0-0.4,0.1
					c-0.3,0.1-0.4,0.1-0.6,0.2c-0.1,0-0.1,0-0.2,0.1c-0.2,0.1-0.3,0.1-0.6,0.2c0.5,1.7,0.8,2.6,1.3,4.3c0.3,0.8,0.4,1.3,0.5,1.5
					c0.1,0.2,0.3,0.4,0.5,0.5c0.1,0.1,0.4,0,0.6-0.1c0.2-0.1,0.4-0.1,0.4-0.2c0.1-0.1,0.2-0.2,0.4-0.5c0-0.1,0.1-0.1,0.2-0.2
					c0.2,0.1,0.4,0.2,0.6,0.3c0,0,0.1,0.1,0.1,0.1c-0.1,0.5-0.4,0.9-0.8,1.3c-0.4,0.4-0.9,0.7-1.5,0.8c-0.7,0.2-1.4,0.2-2-0.1
					c-0.6-0.3-1-0.9-1.4-1.8c-0.2-0.8-0.4-1.2-0.6-2c-0.4-1.3-0.6-1.9-1.1-3.2c-0.2,0-0.2,0.1-0.4,0.1c-0.3,0.1-0.5,0.2-0.9,0.3
					c-0.1,0-0.1,0-0.2,0c-0.1,0-0.1-0.1-0.1-0.2C97.7,91,97.7,90.8,97.6,90.5z"/>
				<path class="st5" d="M107.5,96.1c0.1-0.1,0.2-0.2,0.3-0.3c0.4-0.2,0.7-0.5,1-0.8c0-0.2-0.1-0.8-0.4-1.9
					c-0.5-1.9-0.9-3.2-1.2-3.8c-0.1-0.1-0.2-0.2-0.3-0.3c-0.2-0.1-0.5,0-0.9,0c-0.2,0-0.3,0-0.4-0.2c-0.1-0.2-0.1-0.2-0.2-0.4
					c0.6-0.2,1.1-0.6,1.5-1c0.4-0.4,0.7-0.9,0.9-1.2c0.1-0.2,0.2-0.4,0.2-0.5c0.3-0.1,0.5-0.2,0.9-0.3c0.1,0.2,0.1,0.3,0.2,0.4
					c0,0.1,0,0.2,0.1,0.3c0.1,0.3,0.1,0.5,0.2,0.7c0,0.1,0.1,0.4,0.3,0.9c0.2-0.6,0.4-1,0.5-1.3c0.1-0.1,0.2-0.3,0.5-0.7
					c0.2-0.3,0.5-0.4,0.9-0.5c0.4-0.1,0.9-0.1,1.2,0.1c0.4,0.2,0.6,0.5,0.7,0.8s0,0.7-0.1,1.1c-0.2,0.3-0.5,0.6-0.9,0.7
					c-0.4,0.1-0.8,0-1.2-0.1c-0.3-0.1-0.5-0.1-0.6-0.1c0,0,0,0-0.1,0c-0.2,0.1-0.3,0.3-0.4,0.6c-0.1,0.4-0.1,0.9,0,1.3
					c0,0.1,0.1,0.2,0.1,0.3c0.2,0.6,0.5,2,1.1,3.9c0.1,0.2,0.2,0.4,0.4,0.5c0.1,0.1,0.3,0.1,0.5,0.1c0.2,0,0.4,0,0.8-0.1
					c0.4-0.1,0.6-0.1,0.7,0s0.2,0.1,0.2,0.3c0,0.1,0,0.2,0,0.4c-0.4,0.1-0.7,0.2-1.1,0.3c-0.9,0.2-1.4,0.3-2.3,0.5
					c-0.6,0.2-1.1,0.3-1.5,0.5c-0.1,0-0.1,0-0.2,0.1c-0.1,0-0.5,0.1-1.2,0.4c-0.1-0.1-0.1-0.2-0.1-0.3
					C107.5,96.3,107.5,96.2,107.5,96.1z"/>
				<path class="st5" d="M114.1,85.2c0.3-0.1,0.5-0.2,0.7-0.2c0.1,0,0.2,0,0.3-0.1c0.8-0.1,1.4-0.2,1.9-0.3c0.3-0.1,0.4-0.1,0.6-0.1
					c0.7-0.2,1.1-0.3,1.8-0.5c0.1,0,0.1,0.1,0.2,0.1c0,0.3,0.1,0.6,0.1,0.7c0,0-0.2,0.1-0.3,0.1c-0.2,0.1-0.3,0.1-0.4,0.1
					c-0.1,0-0.2,0.1-0.3,0.1c-0.1,0-0.2,0.1-0.2,0.2c0.1,0.2,0.2,0.3,0.2,0.4c0.3,0.4,0.5,0.6,0.8,1c0.7,1,1.3,1.9,2,2.7
					c0.4,0.5,0.6,0.7,0.9,1.2c0-0.1,0.2-0.9,0.5-2.5c0.4-1.8,0.6-2.8,0.6-3.1c0-0.1,0-0.2,0-0.3c0-0.1-0.1-0.2-0.1-0.4
					c-0.2-0.1-0.4-0.1-0.5-0.2s-0.4,0-0.8,0c-0.2,0-0.2,0-0.4,0c0-0.1,0-0.1-0.1-0.2c0-0.1,0-0.1,0-0.2c0-0.1,0-0.3,0-0.3
					c0.1-0.1,0.4-0.1,0.5-0.1c0.4,0,0.6-0.1,1-0.1c0.3,0,0.4-0.1,0.7-0.1c0.3,0,0.8-0.2,1.5-0.4c0.4-0.1,0.8-0.2,1-0.2
					c0,0.2,0.1,0.3,0.1,0.4c0,0,0,0.1,0,0.2c-0.1,0.1-0.3,0.2-0.5,0.2c-0.3,0.1-0.6,0.2-0.8,0.3c-0.1,0.1-0.2,0.2-0.2,0.3
					c-0.1,0.3-0.3,1-0.5,2.1c-0.2,1-0.3,1.4-0.5,2.4c-0.5,2-0.7,3-1.2,5c-0.3,1.3-0.5,2-0.8,3.3c-0.2,0.6-0.4,1.2-0.7,1.7
					c-0.1,0.2-0.3,0.4-0.4,0.5c-0.3,0.2-0.6,0.3-1,0.4c0,0-0.3,0-0.6,0.1c-0.3,0-0.6-0.1-0.9-0.3c-0.2-0.1-0.3-0.3-0.4-0.5
					c-0.1-0.4,0-0.9,0.3-1.3c0.3-0.3,0.5-0.4,0.6-0.5c0.3-0.1,0.8,0,1.3,0.3c0.3,0.1,0.4,0.2,0.6,0.2c0.1,0,0.2-0.1,0.3-0.3
					c0.4-1.4,0.7-2.4,0.8-3c-1.2-1.7-1.8-2.6-3.1-4.3c-1.2-1.7-2.2-2.9-2.8-3.5c-0.3-0.3-0.5-0.5-0.6-0.6c-0.1,0-0.3-0.1-0.5-0.1
					c-0.1,0-0.3,0-0.4-0.1C114.2,85.6,114.2,85.4,114.1,85.2z"/>
				<path class="st5" d="M134.8,91.4c0-0.3-0.1-0.5-0.1-0.8c0.2-0.1,0.4-0.2,0.8-0.3c0.5-0.2,1-0.3,1.1-0.5c0.1-0.2,0.2-0.6,0.1-1
					c-0.1-0.6-0.1-0.8-0.1-1.4c-0.1-1.1-0.1-1.6-0.2-2.7c0-0.3,0-0.4-0.1-0.6c-0.1-1.6-0.1-2.4-0.1-2.4c-0.1-0.6-0.1-0.9-0.2-1.6
					c0-0.3,0-0.4,0-0.6c-0.1-0.5-0.1-0.8-0.2-1.3c0-0.2,0-0.3-0.1-0.5c0-0.1-0.1-0.2-0.1-0.4c-0.4-0.1-1-0.2-1.8-0.1
					c-0.2,0-0.3,0-0.5,0c-0.1-0.4-0.1-0.6-0.1-1c1.5-0.1,2.3-0.1,3.8-0.2c0.5,0,0.8,0,0.9,0c0.5,0,1.3-0.1,2.5-0.3
					c0.6-0.1,1-0.1,1.2-0.1c0,0.1,0,0.3,0,0.4c0,0.1,0,0.3,0,0.5c-0.3,0.1-0.7,0.3-1.2,0.4c-0.4,0.1-0.8,0.2-1.1,0.4
					c0,0.2,0,0.5,0,0.9c0,0.3,0.1,0.6,0.1,0.8c0.1,1.2,0.1,2.3,0.2,3.1c0.1,1.2,0.1,1.9,0.2,3.1c0,0.6,0,0.9,0,1.6
					c0.1,0.9,0.1,1.4,0.2,2.3c0,0.2,0,0.3,0,0.4c0,0.1,0,0.2,0.1,0.3c0.5,0.1,0.9,0.1,1.3,0.1c0.1,0,0.3,0,0.7,0.1
					c0,0.2,0.1,0.4,0.1,0.6c0,0.1,0,0.2,0,0.4c-0.1,0-0.2,0-0.2,0c-0.2,0-0.4,0-0.4,0c-0.1,0-0.2,0-0.3,0c-0.1,0-0.6,0-1.6-0.1
					c-0.8,0-1.3,0.1-2.1,0.1c-0.4,0-1,0.1-1.8,0.3C135.3,91.3,134.9,91.4,134.8,91.4z"/>
				<path class="st5" d="M144.4,87.5c0.2-0.1,0.4-0.1,0.5-0.1c0.1,0,0.1,0,0.3,0c0,0,0.1,0.1,0.1,0.1c0.5,0.7,0.8,1.2,0.9,1.3
					c0.3,0.3,0.6,0.6,0.8,0.8c0.2,0.1,0.5,0.2,0.9,0.4c0.3,0.1,0.5,0.1,0.8,0.1c0.5,0,0.9-0.2,1.3-0.5c0.4-0.3,0.5-0.7,0.5-1
					c0-0.3-0.1-0.5-0.2-0.6s-0.4-0.4-0.8-0.5c-0.2-0.1-0.7-0.2-1.5-0.4s-1.3-0.3-1.5-0.4c-0.4-0.1-0.7-0.3-1-0.6
					c-0.3-0.2-0.5-0.5-0.7-0.8c-0.2-0.4-0.4-0.8-0.4-1.1c0-0.6,0.1-1.1,0.2-1.5c0.2-0.4,0.4-0.7,0.8-1c0.2-0.2,0.6-0.4,1.1-0.6
					c0.5-0.2,1-0.3,1.6-0.3c0.8,0,1.5,0,2.1,0.1s1.1,0.3,1.5,0.5c0,0.2,0.1,0.6,0.2,1.2c0.1,0.7,0.1,1,0.1,1.2c0,0.1,0,0.1,0,0.2
					c-0.2,0.1-0.4,0.1-0.5,0.1c-0.1,0-0.2,0-0.4,0c-0.1-0.1-0.2-0.3-0.3-0.5c-0.4-0.7-0.8-1.2-1.2-1.5c-0.4-0.3-0.9-0.4-1.5-0.4
					c-0.6,0-1.1,0.2-1.5,0.5c-0.3,0.2-0.4,0.5-0.4,0.9c0,0.3,0.2,0.5,0.5,0.8c0.3,0.3,0.8,0.5,1.5,0.6c1.1,0.2,1.9,0.4,2.4,0.7
					c0.7,0.3,1.3,0.7,1.6,1.2c0.3,0.5,0.4,1,0.4,1.6c0,0.9-0.4,1.7-1.1,2.3c-0.7,0.6-1.7,0.9-3.1,0.9c-0.2,0-0.6,0-1.4-0.1
					c-0.3,0-0.7-0.1-1.2-0.2c-0.1,0-0.4-0.1-0.9-0.3c-0.1,0-0.2-0.1-0.2-0.2s-0.1-0.4-0.2-1C144.5,88.2,144.4,87.6,144.4,87.5z"/>
				<path class="st5" d="M153.7,90.2c0.2-0.1,0.4-0.2,0.7-0.2c0.6,0,0.9-0.1,1-0.2c0.2-0.2,0.3-0.6,0.3-1.2c0-1.3,0.1-2,0.1-3.3
					c0-0.3,0-0.5,0-0.8c0-0.9,0.1-1.4,0.1-2.4c0-1.1,0-1.6,0.1-2.7c0-0.2,0-0.3,0-0.5c0-0.6,0-1.3-0.1-1.4c-0.1-0.2-0.6-0.3-1-0.3
					c-0.2,0-0.5,0-0.6-0.1c-0.1-0.1,0-0.3,0-0.4c0-0.1,0-0.1,0-0.2c0.7-0.1,1.4-0.2,2.2-0.4c0.8-0.2,1.3-0.4,1.7-0.7
					c0.1,0,0.2,0,0.4,0c0.1,0,0.2,0,0.3,0c-0.1,2.7-0.2,4.6-0.2,5.6c0,0.3,0,0.5-0.1,0.7c0,0,0,0,0,0.1c0,0.1,0,0.1,0,0.2
					c-0.1,2.1-0.2,3.1-0.3,5.2c0,0.7,0,1-0.1,1.7c0,0.1,0,0.2,0,0.3c0,0.3,0,0.6,0.1,0.7c0.1,0.1,0.3,0.2,0.6,0.2
					c0.2,0,0.5,0.1,1,0.2c0,0.2,0,0.3,0,0.4c0,0.1,0,0.2,0,0.3c-0.4,0-0.6-0.1-0.9-0.1c-0.5-0.1-1.2-0.1-2-0.2c-0.2,0-0.3,0-0.4,0
					c-0.5,0-1.1,0-2,0c-0.3,0-0.5,0-0.9,0C153.7,90.5,153.7,90.4,153.7,90.2z"/>
				<path class="st5" d="M171.3,89.9c0.1,0.1,0.2,0.1,0.3,0.2c0.1,0.1,0.1,0.1,0.1,0.2c0,0,0,0,0,0.1c-0.3,0.7-0.6,1.1-1,1.3
					c-0.3,0.2-0.7,0.3-1.2,0.2c-0.5-0.1-0.9-0.2-1.2-0.5c-0.3-0.3-0.6-0.8-0.8-1.4c-0.4,0.6-0.9,0.9-1.6,1.2
					c-0.7,0.2-1.4,0.3-2.3,0.2c-0.8-0.1-1.4-0.3-1.8-0.7c-0.4-0.4-0.5-0.8-0.5-1.4c0-0.3,0.1-0.5,0.2-0.8c0.1-0.3,0.3-0.5,0.6-0.7
					c0.3-0.2,0.7-0.5,1.3-0.8c0.1,0,0.4-0.1,1-0.3c1.3-0.4,1.9-0.5,3.2-0.9c0.1-0.3,0.1-0.6,0.1-0.9c0.1-1.1,0.1-1.8-0.2-2.2
					c-0.1-0.3-0.4-0.4-0.8-0.4c-0.4,0-0.8,0-1.2,0.1c-0.4,0.1-0.6,0.3-0.8,0.5c-0.1,0.2-0.3,0.5-0.4,0.9c-0.1,0.3-0.2,0.5-0.2,0.6
					c-0.1,0.1-0.4,0.3-0.7,0.3c-0.3,0.1-0.6,0.2-0.7,0.2c-0.5,0.2-0.8,0.2-1.1,0.2c-0.1-0.1-0.2-0.2-0.1-0.4c0-0.4,0.2-0.8,0.4-1.1
					c0.3-0.4,0.8-0.8,1.5-1.2s1.2-0.6,1.8-0.7c0.7-0.2,1.6-0.2,2.7-0.1c0.7,0.1,1.2,0.3,1.7,0.5c0.5,0.3,0.7,0.7,0.9,1.1
					c0.1,0.5,0.1,1.3,0,2.5c-0.1,0.8-0.2,1.2-0.3,1.9c-0.1,0.6-0.1,0.8-0.2,1.4c0,0.1,0,0.2,0,0.4c0,0.3,0,0.6,0,0.7
					c0.1,0.1,0.2,0.2,0.3,0.2c0.1,0,0.2,0,0.2,0c0.2-0.2,0.3-0.3,0.4-0.5C171.1,90,171.2,89.9,171.3,89.9z M167.6,86.7
					c-0.5,0.1-1,0.3-1.7,0.6c-0.6,0.3-1.1,0.6-1.3,0.9c-0.2,0.2-0.3,0.6-0.3,0.9c0,0.3,0,0.6,0.2,0.9c0.2,0.2,0.4,0.4,0.7,0.4
					c0.4,0,0.8,0,1.2-0.3c0.5-0.3,0.7-0.5,0.8-0.7c0.1-0.2,0.2-0.7,0.3-1.7C167.6,87.4,167.6,87.1,167.6,86.7z"/>
				<path class="st5" d="M172.2,91.7c0.2-0.1,0.4-0.1,0.6-0.1c0.4,0,0.7,0,0.8-0.1c0.1-0.1,0.2-0.1,0.3-0.2c0.1-0.1,0.2-0.5,0.2-1
					c0.1-0.4,0.1-0.6,0.2-1c0.1-0.3,0.1-0.5,0.1-0.8c0.1-0.5,0.1-0.7,0.2-1.2c0-0.3,0.1-0.4,0.1-0.7c0.1-0.5,0.1-0.9,0.1-1.2
					c0-0.1-0.1-0.3-0.3-0.4c-0.2-0.2-0.6-0.4-1.1-0.6c0-0.2,0-0.3,0.1-0.6c0.1,0,0.2,0,0.3,0c0.1,0,0.5,0,1-0.1
					c0.5-0.1,0.8-0.1,0.9-0.2c0,0,0.1,0,0.2-0.1c0.1,0,0.2-0.1,0.4-0.2c0.3-0.1,0.6-0.4,1-0.7c0.3,0,0.4,0,0.7,0.1
					c-0.1,0.5-0.2,0.8-0.3,1.3c0,0.1-0.1,0.2-0.1,0.3c0,0.1,0,0.2-0.1,0.5c0.8-0.4,1.5-0.7,2.1-0.8c0.8-0.1,1.5-0.2,2.2,0
					c0.8,0.2,1.4,0.5,1.9,1c0.5,0.5,0.8,1,0.9,1.5c0.1,0.5,0,1.5-0.4,2.9c-0.4,1.5-0.5,2.2-0.9,3.7c0,0.2-0.1,0.4,0,0.5
					c0,0.1,0.3,0.2,0.6,0.3c0.2,0.1,0.3,0.1,0.5,0.2c0,0.1,0.1,0.2,0,0.4c0,0.1-0.1,0.2-0.1,0.4c-0.9-0.3-1.4-0.4-2.3-0.7
					c-0.3-0.1-0.4-0.1-0.7-0.1c-0.2,0-0.3-0.1-0.5-0.1c-0.6-0.1-0.9-0.1-1.6-0.2c-0.2,0-0.2,0-0.4-0.1c0-0.1,0-0.2,0-0.2
					c0-0.1,0.1-0.4,0.1-0.4c0,0,0.4,0,0.8,0c0.1,0,0.3,0,0.4,0c0.2,0,0.3-0.1,0.3-0.1c0.1-0.1,0.2-0.4,0.3-0.7
					c0.1-0.6,0.2-1.1,0.3-1.5c0.1-0.5,0.2-0.8,0.3-1.3c0.3-1.6,0.4-2.7,0.3-3.1c-0.2-0.6-0.6-1-1.2-1.1c-0.5-0.1-1-0.1-1.5,0.1
					c-0.5,0.1-1.1,0.4-1.7,0.7c0,0.1,0,0.1-0.1,0.2c0,0.3-0.1,0.4-0.1,0.7c-0.1,0.3-0.1,0.5-0.2,0.8c-0.1,0.7-0.2,1.1-0.3,1.9
					c0,0.1,0,0.2-0.1,0.3c-0.2,1.3-0.3,2-0.2,2.2c0.1,0.2,0.4,0.4,1.1,0.8c0,0.1,0,0.2,0,0.3c0,0.1-0.1,0.2-0.2,0.4
					c-0.2,0-0.4-0.1-0.6-0.1c-0.2,0-0.4-0.1-0.8-0.2c-0.5-0.1-0.8-0.1-1.3-0.2c-0.6-0.1-1.5-0.2-2.7-0.3c0-0.1,0-0.2,0-0.2
					C172.1,92,172.2,91.9,172.2,91.7z"/>
				<path class="st5" d="M190.3,86.8c0.5-0.2,0.9-0.2,1.3-0.3s1,0,1.7,0.2c0.3,0.1,0.4,0.1,0.7,0.2c0.9,0.3,1.7,0.8,2.3,1.6
					c0-0.1,0.1-0.2,0.1-0.3c0.1-0.3,0.1-0.5,0.2-0.8c0.2-0.5,0.2-0.7,0.4-1.2c0.4-1.3,0.5-2.1,0.4-2.5c-0.1-0.2-0.3-0.4-0.6-0.5
					c-0.3-0.1-0.6-0.2-0.7-0.4c0.1-0.2,0.1-0.3,0.2-0.5c0.2,0,0.4,0,0.6,0.1c0.3,0.1,0.8,0.1,1.6,0.2c0.2,0,0.3,0,0.5,0.1
					c0.5,0.1,0.8,0.1,1.3,0.1c0.3,0,0.4,0.1,0.5,0.1c0,0,0.1,0,0.2,0.1c0,0.2,0,0.3,0,0.4c0,0.1,0,0.1-0.1,0.2c0,0.1,0,0.1-0.1,0.2
					c-0.1,0.2-0.2,0.8-0.5,1.7c-0.1,0.2-0.1,0.4-0.2,0.6c0,0.1-0.1,0.2-0.1,0.3c-0.1,0.2-0.1,0.3-0.2,0.6c-0.1,0.5-0.2,0.7-0.3,1.2
					c-0.1,0.3-0.1,0.4-0.2,0.7c-0.1,0.3-0.3,0.8-0.5,1.4c0,0.1-0.1,0.2-0.1,0.3c-0.1,0.2-0.1,0.2-0.1,0.4c0,0.1-0.1,0.2-0.1,0.3
					c0,0.1-0.1,0.3-0.1,0.5c-0.1,0.2-0.1,0.4-0.2,0.6c0,0.1-0.1,0.1-0.1,0.2c-0.1,0.2-0.2,0.5-0.3,0.9c-0.1,0.4-0.2,0.7-0.3,1.1
					c0,0.1-0.1,0.2-0.1,0.4c-0.1,0.3-0.2,0.5-0.3,0.8c-0.1,0.3-0.3,0.8-0.3,1c0,0.1,0.4,0.3,1,0.5c0.2,0.1,0.4,0.1,0.4,0.2
					c0,0.1,0,0.2,0,0.3c0,0.1-0.1,0.2-0.2,0.3c-0.3,0-0.7-0.1-1-0.2c-1.1-0.2-1.9-0.3-2.4-0.2c-0.3,0.1-0.4,0.1-0.5,0
					c-0.1,0-0.2-0.1-0.3-0.1c0-0.1,0.1-0.2,0.1-0.3c0.2-0.5,0.2-0.8,0.3-1c-0.1,0-0.3,0.1-0.5,0.1c-0.6,0.1-1.1,0.2-1.6,0.2
					c-0.5,0-1-0.1-1.5-0.2c-1-0.3-1.7-0.7-2.2-1.2c-0.7-0.8-1.2-1.5-1.3-2.4s-0.1-1.7,0.1-2.6C187.4,88.6,188.5,87.5,190.3,86.8z
					 M191.9,95.3c0.2,0.1,0.3,0.1,0.4,0.1c0.3,0.1,0.5,0.1,0.9,0.1c0.3,0,0.7-0.1,1.1-0.2c0.1-0.2,0.1-0.4,0.2-0.5
					c0.7-2.4,1.1-3.8,1.2-4.3c0.1-0.7,0-1.3-0.3-1.7c-0.3-0.5-0.8-0.8-1.4-1c-0.4-0.1-0.7-0.1-1.1-0.1c-0.4,0-0.7,0.1-0.9,0.3
					c-0.4,0.3-0.7,0.6-1,1c-0.4,0.5-0.6,1.1-0.8,1.6c-0.3,1.2-0.3,2.2,0.1,3C190.5,94.4,191.1,94.9,191.9,95.3z"/>
				<path class="st5" d="M210.8,86.2c0.3,0.1,0.5,0.2,0.8,0.3c0,0.1,0,0.2,0.1,0.2c0.1,0.4,0.2,0.7,0.3,0.9c0.1,0.1,0.7,0.3,1.7,0.7
					c0.6,0.3,1.2,0.5,1.7,0.7c0.1,0,0.2,0,0.3,0.1c0.6,0.2,0.9,0.4,1.5,0.6c1.1,0.5,1.6,0.7,2.7,1.3c1.5,0.7,2.2,1,3.7,1.8
					c0.3,0.1,0.4,0.2,0.7,0.3c0.1,0,0.3-0.1,0.6-0.3c0.1,0,0.2-0.1,0.3-0.2c0.2,0.1,0.3,0.2,0.5,0.3c0.1,0,0.2,0.1,0.4,0.2
					c-0.2,0.5-0.6,1.2-1.1,2.2c-0.2,0.4-0.3,0.6-0.5,0.9c-0.1,0.2-0.2,0.3-0.3,0.5c-0.1,0.2-0.2,0.3-0.3,0.4
					c-0.4-0.1-0.7-0.2-0.9-0.3c-0.1-0.4-0.1-0.9-0.1-1.5c0-0.6,0-1,0-1.1c0-0.1-0.1-0.3-0.2-0.3c-0.2-0.1-1-0.6-2.5-1.3
					c-0.2-0.1-0.7-0.4-0.9-0.3c-0.1,0-0.3,0.5-0.4,0.7c-0.3,0.6-0.4,0.9-0.6,1.4c-0.6,1.3-0.9,1.9-1.5,3.1c-0.6,1.4-0.9,2-1.5,3.4
					c-0.3,0.6-0.4,0.8-0.7,1.4c-0.2,0.5-0.4,0.9-0.4,1.2c0.1,0.1,0.3,0.3,0.6,0.4c0.1,0,0.3,0.2,0.7,0.6c0.2,0.2,0.5,0.4,0.5,0.5
					c0,0.1-0.1,0.4-0.2,0.5c0,0.1-0.1,0.2-0.2,0.3c-0.2-0.1-0.3-0.1-0.4-0.2c-0.8-0.4-1.4-0.7-1.9-1c-0.5-0.3-1.5-0.8-2.9-1.4
					c-0.2-0.1-0.9-0.3-2-0.7c-0.4-0.1-0.7-0.2-0.8-0.3c0-0.1,0.1-0.2,0.1-0.3c0-0.1,0.1-0.2,0.1-0.3c0,0,0-0.1,0-0.1
					c0.3-0.1,0.6-0.2,1.1-0.1c0.9,0.2,1.5,0.2,1.8,0.2c0.1-0.1,0.3-0.3,0.4-0.5c0.4-0.8,1.1-2.2,1.9-4.1c0.7-1.6,1-2.5,1.7-4.1
					c0.5-1.1,0.8-1.8,0.8-2.1c0-0.1,0-0.1,0-0.2c0,0-0.1-0.1-0.1-0.1c-0.2-0.1-1-0.5-2.4-1.1c-0.8-0.3-1.3-0.5-1.6-0.4
					c-0.4,0-1.1,0.3-2.2,0.9c-0.3,0.2-0.5,0.2-0.6,0.2c-0.3-0.3-0.5-0.6-0.6-0.7c0.4-0.4,1.1-1.2,2.2-2.4
					C210.5,86.6,210.7,86.3,210.8,86.2z"/>
				<path class="st5" d="M231,104.1c0.2,0.7,0.3,1.4,0.2,2.1c-0.1,0.7-0.3,1.3-0.6,1.7c-0.5,0.9-1.1,1.5-1.8,1.9
					c-0.9,0.6-1.9,0.8-2.9,0.8c-1,0-2-0.3-2.9-0.9c-1.1-0.6-1.9-1.4-2.5-2.3c-0.5-0.9-0.8-1.7-0.8-2.5c0-0.8,0.2-1.7,0.7-2.6
					c0.2-0.5,0.6-0.9,1-1.3c0.4-0.4,0.8-0.7,1.3-0.9c0.5-0.2,0.9-0.3,1.4-0.4c0.7-0.1,1.3,0,1.9,0.1s1.3,0.4,2,0.8
					C229.6,101.6,230.6,102.8,231,104.1z M222.9,104.3c-0.4,0.8-0.6,1.4-0.6,1.6c-0.2,0.5-0.2,1-0.2,1.4c0,0.3,0.1,0.6,0.4,0.9
					c0.2,0.3,0.6,0.6,1,0.9c0.5,0.3,1.1,0.4,1.6,0.3c0.5-0.1,1.1-0.5,1.6-1c0.4-0.4,0.8-1.1,1.4-2.1c0.7-1.2,1-2.2,0.8-3
					c-0.2-0.8-0.6-1.4-1.3-1.8c-0.6-0.3-1.1-0.4-1.7-0.3c-0.5,0.1-1,0.4-1.5,0.9C224,102.3,223.5,103.1,222.9,104.3z"/>
				<path class="st5" d="M234.2,105c0,0,0.2,0,0.2,0.1c1.3,0.8,2,1.2,3.3,2.1c0.1,0.1,0.1,0.1,0.2,0.2c-0.2,0.3-0.2,0.4-0.4,0.7
					c-0.3,0.4-0.4,0.6-0.7,0.9c-0.1,0.2-0.2,0.3-0.3,0.5c-0.4,0.6-0.6,0.9-1,1.5c-0.3,0.4-0.4,0.6-0.7,1c-0.4,0.7-0.8,1.2-0.9,1.6
					c-0.1,0.3-0.1,0.7,0.1,1s0.4,0.6,0.7,0.8c0.3,0.2,0.6,0.3,0.8,0.4c0.2,0.1,0.5,0.1,0.9,0.1c0.4,0,0.6,0,0.7,0
					c0.3-0.1,0.6-0.2,0.8-0.3c0.7-0.9,1-1.4,1.7-2.3c0.2-0.2,0.3-0.4,0.5-0.6c0.1-0.2,0.3-0.4,0.4-0.6c0.2-0.3,0.3-0.4,0.3-0.4
					c0.1-0.1,0.2-0.2,0.3-0.3c0.1-0.1,0.1-0.1,0.1-0.2c-0.1-0.2-0.3-0.4-0.6-0.7c-0.3-0.2-0.4-0.3-0.7-0.5c0,0-0.1-0.1-0.1-0.1
					c0.1-0.1,0.1-0.3,0.2-0.3c0.1-0.1,0.1-0.2,0.3-0.3c0.3,0.1,0.5,0.3,0.7,0.4c0.7,0.5,1,0.7,1.7,1.2c0.4,0.3,1,0.7,1.7,1.2
					c-0.2,0.3-0.3,0.4-0.5,0.7c-0.3,0.4-0.4,0.5-0.7,0.9c-0.3,0.5-0.5,0.7-0.8,1.2c-0.5,0.7-0.7,1-1.2,1.6c-0.2,0.3-0.3,0.4-0.6,0.7
					c-0.1,0.2-0.2,0.3-0.3,0.5c-0.3,0.3-0.4,0.5-0.4,0.5c-0.1,0.2-0.2,0.3-0.2,0.4c0,0.1,0,0.2,0.1,0.2c0.4,0.3,0.6,0.4,1,0.7
					c0,0,0.1,0.1,0.1,0.1c-0.1,0.2-0.2,0.4-0.3,0.4c0,0-0.1,0.2-0.2,0.2c-0.2,0-0.6-0.4-0.8-0.5c-0.8-0.4-1.8-0.7-2.9-1
					c-0.2-0.1-0.2-0.2-0.4-0.3c0.4-0.6,0.7-0.9,1.1-1.6c-0.1,0-0.3,0-0.6,0c-1,0.1-1.7,0.1-2.3,0c-0.6-0.1-1.1-0.3-1.5-0.6
					c-0.6-0.4-1-0.8-1.3-1.3s-0.4-1-0.4-1.4c0-0.3,0.2-0.8,0.4-1.3c0.1-0.1,0.5-0.8,1.2-2c0.1-0.1,0.1-0.2,0.2-0.3
					c0.4-0.6,0.8-1.1,1-1.4c0.3-0.5,0.5-0.9,0.6-1.1c0-0.1,0.1-0.3,0.1-0.4c0-0.1-0.2-0.2-0.3-0.3c-0.4-0.4-0.7-0.6-0.8-0.8
					c0,0,0-0.1,0-0.2c0,0,0.1-0.1,0.1-0.1C234,105.2,234.1,105,234.2,105z"/>
				<path class="st5" d="M241.1,120.4c0.1,0,0.3,0,0.5,0.1c0.4,0.2,0.8,0.3,1.3,0.4c0.2-0.1,0.6-0.6,1.2-1.4c1.2-1.6,2-2.7,2.3-3.3
					c0.1-0.1,0.1-0.3,0-0.4c-0.1-0.2-0.3-0.5-0.5-0.8c-0.1-0.1-0.1-0.3-0.1-0.4c0.1-0.1,0.1-0.2,0.2-0.4c0.6,0.3,1.2,0.5,1.8,0.6
					s1.1,0.1,1.5,0c0.2-0.1,0.4-0.1,0.5-0.1c0.3,0.2,0.5,0.3,0.7,0.6c-0.1,0.2-0.2,0.3-0.2,0.4c-0.1,0.1-0.1,0.1-0.2,0.2
					c-0.2,0.2-0.3,0.4-0.4,0.5c-0.1,0.1-0.3,0.3-0.6,0.8c0.6-0.2,1.1-0.3,1.3-0.4c0.1,0,0.4,0,0.9,0c0.4,0,0.7,0.2,1,0.4
					c0.4,0.3,0.6,0.7,0.7,1.1c0.1,0.4,0,0.8-0.2,1.1c-0.2,0.3-0.6,0.5-0.9,0.5c-0.4,0.1-0.7,0-1.1-0.3c-0.3-0.2-0.5-0.6-0.6-1.1
					c-0.1-0.3-0.2-0.5-0.3-0.6c0,0,0,0-0.1,0c-0.2-0.1-0.4-0.1-0.7,0c-0.4,0.2-0.8,0.4-1,0.7c-0.1,0.1-0.1,0.2-0.2,0.3
					c-0.3,0.5-1.3,1.6-2.5,3.2c-0.1,0.2-0.2,0.4-0.2,0.6c0,0.2,0.1,0.3,0.2,0.5c0.1,0.1,0.3,0.3,0.6,0.6c0.3,0.3,0.4,0.5,0.5,0.6
					c0,0.1,0,0.2-0.1,0.3c-0.1,0.1-0.1,0.1-0.3,0.2c-0.4-0.3-0.5-0.5-0.9-0.7c-0.7-0.6-1.1-1-1.8-1.6c-0.5-0.4-0.9-0.7-1.3-1
					c-0.1-0.1-0.1-0.1-0.2-0.1c0,0-0.4-0.3-1.1-0.7c0.1-0.1,0.1-0.2,0.1-0.3C240.9,120.6,241,120.5,241.1,120.4z"/>
				<path class="st5" d="M250.6,124.6c0.2,0.1,0.4,0.2,0.5,0.3c0,0,0.1,0.1,0.2,0.2c0,0.1,0,0.1,0,0.2c-0.1,0.9-0.2,1.4-0.2,1.6
					c0,0.4,0.1,0.8,0.1,1.2c0.1,0.2,0.2,0.5,0.4,0.9c0.1,0.3,0.3,0.5,0.6,0.7c0.4,0.4,0.8,0.6,1.3,0.6c0.5,0,0.9-0.1,1.1-0.4
					c0.2-0.2,0.3-0.4,0.3-0.6c0-0.2-0.1-0.6-0.3-1c-0.1-0.2-0.4-0.7-0.9-1.4c-0.5-0.7-0.8-1.2-0.9-1.3c-0.2-0.4-0.4-0.8-0.4-1.2
					s-0.1-0.8,0-1.1c0.1-0.5,0.3-0.9,0.5-1.1c0.4-0.5,0.8-0.8,1.2-0.9s0.8-0.2,1.3-0.2c0.3,0,0.8,0.1,1.3,0.3s1,0.5,1.4,0.9
					c0.6,0.6,1.2,1.1,1.6,1.6s0.7,1,0.9,1.5c-0.1,0.2-0.3,0.5-0.7,1.1s-0.6,0.9-0.7,0.9c0,0-0.1,0.1-0.2,0.1
					c-0.2-0.1-0.4-0.2-0.5-0.3c-0.1-0.1-0.2-0.2-0.3-0.3c0-0.1,0.1-0.3,0.1-0.6c0.2-0.8,0.2-1.5,0-2c-0.1-0.5-0.4-1-0.9-1.4
					c-0.5-0.4-1-0.6-1.5-0.7c-0.4,0-0.7,0.1-1,0.4c-0.2,0.2-0.2,0.5-0.2,0.9c0.1,0.4,0.3,0.9,0.8,1.5c0.7,0.9,1.2,1.7,1.4,2.2
					c0.4,0.8,0.5,1.4,0.4,2s-0.3,1-0.7,1.5c-0.6,0.7-1.4,0.9-2.4,0.9c-1-0.1-2-0.6-3-1.5c-0.1-0.1-0.5-0.5-1-1.1
					c-0.2-0.3-0.5-0.6-0.8-1c-0.1-0.1-0.2-0.4-0.5-0.9c0-0.1-0.1-0.2,0-0.3c0-0.1,0.2-0.4,0.5-0.9
					C250.1,125.3,250.5,124.8,250.6,124.6z"/>
			</g>
		</g>
		<g>
			<path class="st5" d="M221,179l15.1-23l-22.9,15C215.9,173.5,218.5,176.2,221,179z"/>
			<path class="st5" d="M85.3,170.2L63.5,156l14.2,21.7C80.1,175.1,82.6,172.6,85.3,170.2z"/>
			<path class="st5" d="M213.1,313.5l22.9,15l-15.1-23C218.5,308.3,215.9,311,213.1,313.5z"/>
			<path class="st5" d="M77.7,306.8l-14.2,21.7l21.8-14.3C82.6,311.9,80.1,309.4,77.7,306.8z"/>
		</g>
		<g>
			<g>
				<path class="st21" d="M113.8,192.2l-6.4,13.3c-2.4,5-4.4,9.3-5.9,13.1h-0.9c-0.5-1.3-2-4.6-4.6-9.8l-7.7-15.9v16.6
					c0,3.9,0.2,6.1,0.5,6.6c0.3,0.5,1.3,0.8,2.9,0.8h0.8v1.4c-2-0.1-3.6-0.2-4.9-0.2c-0.9,0-2.7,0-5.4,0.2v-1.4h1.4
					c0.9,0,1.6-0.1,1.9-0.4c0.3-0.3,0.5-0.8,0.6-1.5c0.2-2,0.3-4.2,0.3-6.5v-12.2c0-2.9-0.1-4.9-0.2-5.8c-0.1-0.5-0.3-0.9-0.6-1.1
					s-1.1-0.4-2.2-0.4h-1.1v-1.4c2.5,0.1,4.1,0.2,4.7,0.2c0.8,0,2,0,3.5-0.2c1.7,3.9,3.7,8.1,6,12.7l5.7,11.6l5.2-10.8
					c1.8-3.8,3.9-8.3,6.3-13.6c1.8,0.1,3.1,0.2,3.8,0.2c0.8,0,2.4,0,4.6-0.2v1.4h-1.4c-1.3,0-2,0.2-2.3,0.7c-0.3,0.4-0.4,2-0.4,4.7
					V210c0,3.5,0.1,5.5,0.4,6c0.3,0.5,1.1,0.8,2.5,0.8h1.2v1.4c-2-0.1-3.9-0.2-5.7-0.2c-2,0-4.1,0-6.3,0.2v-1.4h1.4
					c1.1,0,1.8-0.2,2.1-0.7s0.4-2.6,0.4-6.4V192.2z"/>
				<path class="st13" d="M101.9,219.1h-1.5l-0.1-0.3c-0.5-1.3-2.1-4.6-4.5-9.8l-6.7-14v14.4c0,5.1,0.3,6.1,0.4,6.3
					c0.1,0.1,0.5,0.5,2.5,0.5h1.3v2.4l-0.5,0c-2-0.1-3.6-0.1-4.8-0.1c-0.9,0-2.7,0.1-5.4,0.1l-0.5,0v-2.4h1.9c1.1,0,1.5-0.2,1.6-0.3
					c0.1-0.1,0.3-0.4,0.4-1.2c0.2-2,0.3-4.2,0.3-6.4v-12.2c0-2.9-0.1-4.8-0.2-5.8c0-0.4-0.2-0.6-0.4-0.8c-0.2-0.1-0.6-0.3-1.9-0.3
					h-1.6v-2.4l0.5,0c2.5,0.1,4,0.1,4.7,0.1c0.8,0,2-0.1,3.4-0.1l0.3,0l0.1,0.3c1.7,3.8,3.7,8.1,6,12.7l5.2,10.7l4.8-9.8
					c1.8-3.8,3.9-8.3,6.3-13.6l0.1-0.3l0.3,0c1.8,0.1,3,0.1,3.8,0.1c0.8,0,2.4-0.1,4.6-0.1l0.5,0v2.4h-1.9c-1.5,0-1.8,0.3-1.9,0.4
					c-0.1,0.1-0.3,0.8-0.3,4.4V210c0,4.6,0.3,5.6,0.4,5.8c0.1,0.2,0.5,0.5,2,0.5h1.7v2.4l-0.5,0c-2-0.1-3.9-0.1-5.7-0.1
					c-2,0-4.1,0.1-6.3,0.1l-0.5,0v-2.4h1.9c0.9,0,1.5-0.2,1.6-0.5c0.1-0.2,0.3-1.2,0.3-6.2v-15.3l-5.4,11.3c-2.4,4.9-4.4,9.3-5.9,13
					L101.9,219.1z M101,218.1h0.2c1.5-3.7,3.5-8,5.8-12.8l7.3-15.3v19.7c0,5.1-0.2,6.2-0.4,6.6c-0.3,0.7-1.1,1-2.5,1h-0.9v0.3
					c2-0.1,3.9-0.1,5.8-0.1c1.7,0,3.4,0,5.2,0.1v-0.3h-0.7c-1.6,0-2.5-0.3-2.9-1c-0.2-0.4-0.5-1.5-0.5-6.3v-15.7
					c0-3.7,0.3-4.6,0.5-5c0.4-0.6,1.3-0.9,2.7-0.9h0.9v-0.3c-1.9,0.1-3.3,0.1-4.1,0.1c-0.7,0-1.9,0-3.5-0.1
					c-2.3,5.1-4.3,9.6-6.1,13.3l-5.7,11.7l-6.1-12.6c-2.2-4.5-4.2-8.7-5.9-12.4c-1.3,0.1-2.4,0.1-3.2,0.1c-0.6,0-2,0-4.2-0.1v0.3
					h0.6c1.2,0,2,0.2,2.5,0.5c0.5,0.3,0.8,0.8,0.8,1.5c0.1,1,0.2,2.9,0.2,5.9v12.2c0,2.3-0.1,4.5-0.3,6.5c-0.1,0.9-0.3,1.5-0.8,1.8
					s-1.1,0.5-2.2,0.5h-0.9v0.3c2.4-0.1,4-0.1,4.9-0.1c1.1,0,2.6,0,4.4,0.1v-0.3h-0.3c-1.8,0-2.9-0.3-3.3-1
					c-0.2-0.4-0.5-1.6-0.5-6.8v-18.8l8.6,17.9C98.9,213.4,100.4,216.6,101,218.1z"/>
			</g>
			<g>
				<path class="st21" d="M124.9,203.2l0-1.4l0-1.5l2.3-1.3c1.1-0.6,2-1,2.8-1.2c0.8-0.2,1.6-0.3,2.5-0.3c2,0,3.6,0.4,4.8,1.3
					c1.2,0.9,1.9,2,2.2,3.4c0.2,1,0.3,3.6,0.3,7.7c0,3.8,0.1,6,0.3,6.4c0.1,0.4,0.5,0.6,1.1,0.6h1.7v1.4c-1.6-0.1-2.8-0.2-3.4-0.2
					c-0.8,0-1.9,0-3.2,0.2l0-1.9c0-0.6,0-1.2,0-1.9l-4.4,3.4c-0.4,0.3-0.8,0.5-1.2,0.6c-0.4,0.1-0.9,0.2-1.6,0.2
					c-1.8,0-3.3-0.5-4.2-1.4c-1-0.9-1.5-2.1-1.5-3.7c0-1.4,0.3-2.7,1-3.8c0.7-1.1,1.7-1.9,3-2.4c1.3-0.5,4.3-1.2,8.9-2
					c0-1.8-0.4-3.2-1.2-4.1c-1-1.1-2.4-1.7-4.2-1.7c-0.7,0-1.3,0.1-1.9,0.3c-0.6,0.2-1.2,0.4-1.7,0.8c-0.4,1-0.8,2-1.1,2.9
					L124.9,203.2z M136.2,206.6c-4,0.9-6.5,1.7-7.6,2.4s-1.6,1.9-1.6,3.5c0,1.1,0.3,1.9,0.9,2.5c0.6,0.6,1.4,1,2.4,1
					c1.1,0,2.1-0.3,3.1-0.9c1-0.6,1.9-1.5,2.8-2.7l0-4.8L136.2,206.6z"/>
				<path class="st13" d="M129,219.1c-2,0-3.5-0.5-4.6-1.5c-1.1-1-1.6-2.4-1.6-4c0-1.5,0.4-2.9,1.1-4.1c0.8-1.2,1.8-2,3.2-2.6
					c1.3-0.5,4.1-1.2,8.6-2c-0.1-1.5-0.4-2.6-1.1-3.3c-0.9-1-2.1-1.5-3.8-1.5c-0.6,0-1.2,0.1-1.8,0.2c-0.5,0.1-1,0.3-1.4,0.6
					c-0.4,1-0.7,1.9-1.1,2.8l-0.2,0.4l-2-0.5l0-1.8l0-1.8l2.6-1.5c1.1-0.6,2.1-1.1,2.9-1.3c0.8-0.2,1.7-0.4,2.7-0.4
					c2.1,0,3.8,0.5,5.1,1.4c1.3,1,2.1,2.2,2.4,3.7c0.2,1.1,0.3,3.6,0.3,7.7c0,5.1,0.2,6,0.2,6.2c0,0.1,0.1,0.3,0.6,0.3h2.2v2.4
					l-0.5,0c-1.6-0.1-2.7-0.1-3.4-0.1c-0.8,0-1.9,0.1-3.2,0.1l-0.5,0l0-2.5c0-0.3,0-0.6,0-0.9l-3.7,2.8c-0.4,0.3-0.9,0.6-1.3,0.7
					C130.3,219,129.7,219.1,129,219.1z M130.8,199.1c1.9,0,3.5,0.6,4.5,1.9c0.8,1,1.3,2.5,1.3,4.4l0,0.4l-0.4,0.1
					c-4.6,0.8-7.6,1.5-8.8,2c-1.2,0.5-2.1,1.2-2.7,2.2c-0.6,1-1,2.2-1,3.5c0,1.4,0.4,2.5,1.3,3.3c0.9,0.8,2.2,1.2,3.9,1.2
					c0.6,0,1.1-0.1,1.5-0.2c0.3-0.1,0.7-0.3,1-0.6l5.2-4l0,1c0,0.6,0,1.3,0,1.9l0,1.4c1.1-0.1,2-0.1,2.7-0.1c0.6,0,1.6,0,2.9,0.1
					v-0.4h-1.2c-1.1,0-1.4-0.6-1.5-0.9c-0.1-0.2-0.2-0.7-0.3-6.5c0-4-0.1-6.6-0.3-7.6c-0.2-1.2-0.9-2.3-2-3.1
					c-1.1-0.8-2.6-1.2-4.5-1.2c-0.9,0-1.7,0.1-2.4,0.3c-0.8,0.2-1.7,0.6-2.7,1.2l-2.1,1.2l0,1.2l0,1.1l0.4,0.1
					c0.3-0.8,0.6-1.7,1-2.5l0.1-0.1l0.1-0.1c0.6-0.4,1.2-0.6,1.8-0.8C129.4,199.2,130.1,199.1,130.8,199.1z M130.3,216.5
					c-1.1,0-2-0.4-2.7-1.1c-0.7-0.7-1.1-1.7-1.1-2.9c0-1.7,0.6-3,1.8-3.9c1.1-0.8,3.7-1.6,7.8-2.5l0.6-0.1l-0.1,1.7l0,4.9l-0.1,0.1
					c-0.9,1.2-1.9,2.2-2.9,2.8C132.6,216.2,131.5,216.5,130.3,216.5z M135.7,207.3c-3.5,0.8-5.8,1.5-6.8,2.2
					c-0.9,0.7-1.4,1.7-1.4,3.1c0,0.9,0.3,1.6,0.8,2.2c0.5,0.5,1.2,0.8,2,0.8c1,0,1.9-0.3,2.8-0.8c0.9-0.5,1.7-1.4,2.6-2.4l0-4.6
					L135.7,207.3z"/>
			</g>
			<g>
				<path class="st21" d="M150.9,202.3c0.6-0.5,1.2-1.3,1.9-2.1c0.8-1,1.6-1.8,2.2-2.1s1.4-0.6,2.2-0.6c0.8,0,1.4,0.1,1.8,0.3
					c0.2,0.1,0.3,0.2,0.3,0.4l0,0.2c-0.2,1.2-0.4,2.8-0.4,4.9h-1c-0.3-0.7-0.7-1.2-1.2-1.5c-0.5-0.3-1-0.5-1.6-0.5
					c-0.8,0-1.6,0.3-2.3,0.9c-0.7,0.6-1.2,1.4-1.4,2.4c-0.2,1-0.4,3.1-0.4,6.1c0,2,0.1,3.7,0.2,5c0.1,0.5,0.2,0.8,0.4,0.9
					c0.5,0.3,1.3,0.5,2.4,0.5h1.3v1.2c-2.2-0.1-4.3-0.2-6.2-0.2c-1.9,0-3.8,0-5.7,0.2v-1.2l2.1-0.2c0.7-0.1,1.2-0.2,1.4-0.4
					s0.3-0.9,0.4-2.1c0.1-2.1,0.2-4.5,0.2-7.3c0-3.5-0.1-5.5-0.4-6.1c-0.2-0.4-0.8-0.6-1.8-0.6h-1.8V199c1.4-0.2,2.6-0.4,3.7-0.6
					c1.1-0.3,2.1-0.6,2.9-1c0.2-0.1,0.4-0.2,0.5-0.2c0.2,0,0.3,0,0.3,0.1c0.1,0.1,0.1,0.3,0.1,0.6L150.9,202.3z"/>
				<path class="st13" d="M142.9,218.7v-2.2l2.5-0.2c0.9-0.1,1.1-0.2,1.1-0.2c0,0,0.2-0.3,0.2-1.8c0.1-2,0.1-4.5,0.1-7.3
					c0-4.4-0.2-5.6-0.4-5.9c0,0-0.2-0.3-1.3-0.3h-2.3v-2.2l0.4-0.1c1.4-0.2,2.6-0.4,3.7-0.6c1.1-0.2,2-0.6,2.8-0.9
					c0.3-0.1,0.5-0.2,0.7-0.2c0.4,0,0.6,0.2,0.7,0.4c0.1,0.2,0.2,0.4,0.2,0.9l-0.1,3c0.3-0.3,0.6-0.7,1-1.2c0.9-1.1,1.6-1.9,2.4-2.3
					c0.8-0.4,1.6-0.6,2.4-0.6c0.9,0,1.5,0.1,2,0.3c0.4,0.2,0.6,0.5,0.6,0.9l0,0.3c-0.2,1.2-0.4,2.8-0.4,4.8l0,0.5h-1.8l-0.1-0.3
					c-0.3-0.6-0.6-1.1-1-1.3c-0.4-0.2-0.8-0.4-1.3-0.4c-0.7,0-1.4,0.2-2,0.8c-0.6,0.5-1.1,1.2-1.3,2.1c-0.2,1-0.4,3-0.4,6
					c0,2,0.1,3.6,0.2,5c0.1,0.5,0.2,0.6,0.2,0.6c0.5,0.3,1.2,0.4,2.2,0.4h1.8v2.3l-0.5,0c-4.3-0.2-8.1-0.2-11.8,0L142.9,218.7z
					 M149.1,217.5c1.8,0,3.7,0,5.7,0.1v-0.2H154c-1.2,0-2-0.2-2.6-0.5c-0.4-0.2-0.6-0.6-0.7-1.3c-0.2-1.4-0.2-3.1-0.2-5.1
					c0-3.1,0.1-5.1,0.4-6.2c0.3-1.1,0.8-2,1.6-2.7c0.8-0.6,1.7-1,2.7-1c0.7,0,1.4,0.2,1.9,0.5c0.5,0.3,0.9,0.8,1.2,1.5h0.2
					c0-1.9,0.2-3.4,0.4-4.5l0-0.1c-0.4-0.2-0.9-0.2-1.6-0.2c-0.7,0-1.3,0.2-1.9,0.5c-0.6,0.4-1.3,1-2.1,2c-0.7,0.9-1.3,1.6-1.9,2.2
					l-0.9,0.8l0.1-5.5c0-0.1,0-0.1,0-0.2c0,0-0.1,0-0.2,0.1c-0.9,0.4-1.9,0.7-3,1c-1,0.2-2.1,0.4-3.3,0.6v0.3h1.3
					c1.2,0,1.9,0.3,2.2,0.9c0.2,0.4,0.5,1.6,0.5,6.3c0,2.8-0.1,5.3-0.2,7.4c-0.1,1.7-0.3,2.2-0.5,2.4c-0.3,0.3-0.8,0.5-1.7,0.6
					l-1.6,0.1v0.3C145.6,217.5,147.4,217.5,149.1,217.5z"/>
			</g>
			<g>
				<path class="st21" d="M167.1,197.3l0.5,0.3c-0.1,1.1-0.2,2.3-0.2,3.5c-0.1,4.2-0.2,7.3-0.2,9.3c0,1.9,0.1,3.5,0.2,4.8
					c0.1,0.5,0.2,0.9,0.4,1.1c0.2,0.2,0.7,0.4,1.5,0.5l1.5,0.2v1.2c-2.1-0.1-4-0.2-5.7-0.2c-1.7,0-3.4,0-5.1,0.2v-1.2l1.8-0.2
					c0.7-0.1,1.2-0.2,1.3-0.4c0.2-0.2,0.3-0.9,0.3-2.1c0.1-1.8,0.1-4.3,0.1-7.5c0-2.2,0-3.9-0.1-5.1c0-0.4-0.2-0.8-0.4-0.9
					c-0.2-0.2-0.7-0.3-1.5-0.3h-1.6v-1.2c1.7-0.3,3-0.5,3.9-0.7C164.8,198.2,165.8,197.8,167.1,197.3z M165.4,187.8
					c0.7,0,1.2,0.2,1.7,0.7c0.5,0.5,0.7,1.1,0.7,1.7c0,0.7-0.2,1.2-0.7,1.7s-1,0.7-1.7,0.7c-0.7,0-1.2-0.2-1.7-0.7s-0.7-1-0.7-1.7
					c0-0.7,0.2-1.2,0.7-1.7C164.2,188,164.8,187.8,165.4,187.8z"/>
				<path class="st13" d="M159.6,218.7v-2.2l2.3-0.2c0.8-0.1,1-0.2,1-0.2c0,0,0.1-0.3,0.2-1.8c0.1-1.8,0.1-4.3,0.1-7.5
					c0-2.2,0-3.9-0.1-5.1c0-0.3-0.1-0.5-0.2-0.6c0,0-0.2-0.2-1.2-0.2h-2.1v-2.2l0.4-0.1c1.7-0.3,3-0.5,3.8-0.7
					c0.8-0.2,1.9-0.6,3.1-1.1l0.2-0.1l1,0.6l0,0.3c-0.1,1.1-0.2,2.2-0.2,3.5c-0.1,4.1-0.2,7.3-0.2,9.2c0,1.8,0.1,3.4,0.2,4.7
					c0.1,0.5,0.2,0.7,0.3,0.8c0,0,0.2,0.2,1.3,0.3l1.9,0.3v2.2l-0.5,0c-2.1-0.1-4-0.1-5.7-0.1c-1.7,0-3.4,0.1-5.1,0.1L159.6,218.7z
					 M165.2,217.5c1.6,0,3.3,0,5.2,0.1v-0.3l-1-0.1c-1-0.1-1.5-0.3-1.8-0.6c-0.3-0.3-0.5-0.7-0.6-1.4c-0.1-1.3-0.2-3-0.2-4.8
					c0-2,0.1-5.1,0.2-9.3c0-1.2,0.1-2.3,0.2-3.3l0,0c-1.2,0.5-2.2,0.8-3,1c-0.8,0.2-1.9,0.4-3.5,0.6v0.3h1.1c0.9,0,1.5,0.1,1.8,0.4
					c0.3,0.3,0.5,0.7,0.6,1.3c0.1,1.2,0.1,3,0.1,5.2c0,3.2,0,5.7-0.1,7.6c-0.1,1.7-0.2,2.1-0.4,2.4c-0.3,0.3-0.8,0.5-1.7,0.6
					l-1.4,0.1v0.3C162.1,217.5,163.7,217.5,165.2,217.5z M165.4,193.1c-0.8,0-1.5-0.3-2.1-0.9c-0.6-0.6-0.9-1.3-0.9-2.1
					c0-0.8,0.3-1.5,0.9-2.1c0.6-0.6,1.3-0.9,2.1-0.9c0.8,0,1.5,0.3,2.1,0.9c0.6,0.6,0.9,1.3,0.9,2.1c0,0.8-0.3,1.5-0.9,2.1
					C166.9,192.9,166.2,193.1,165.4,193.1z M165.4,188.3c-0.5,0-1,0.2-1.4,0.6c-0.4,0.4-0.6,0.8-0.6,1.4c0,0.5,0.2,1,0.6,1.4
					c0.7,0.7,1.9,0.8,2.7,0c0.4-0.4,0.6-0.8,0.6-1.4c0-0.5-0.2-1-0.6-1.4C166.4,188.5,166,188.3,165.4,188.3z"/>
			</g>
			<g>
				<path class="st21" d="M178.5,201.5l3.3-2.9c0.4-0.3,0.8-0.6,1.2-0.8c0.9-0.3,1.9-0.5,2.8-0.5c1.5,0,2.9,0.3,4,0.9
					s1.9,1.4,2.4,2.4c0.5,1,0.7,2.6,0.7,4.7l-0.1,6.8c0,2.3,0.1,3.7,0.3,4c0.3,0.5,0.8,0.7,1.6,0.7h1.5v1.2c-1.5-0.1-2.8-0.2-4-0.2
					c-1.1,0-2.3,0-3.5,0.2c0.3-2.8,0.4-6.6,0.4-11.3c0-1.9-0.2-3.3-0.5-4.1c-0.3-0.8-0.9-1.4-1.7-1.9c-0.8-0.5-1.8-0.7-2.9-0.7
					c-1.4,0-2.6,0.4-3.5,1.1c-1,0.7-1.6,1.5-1.8,2.3c-0.1,0.6-0.2,2-0.2,4.4c0,2.6,0,5.1,0.1,7.3c0,0.7,0.1,1.1,0.3,1.3
					c0.4,0.3,1,0.5,1.8,0.5h1.5v1.2c-2.4-0.1-4.4-0.2-5.8-0.2c-1.5,0-3.3,0-5.2,0.2v-1.2h1.5c1.1,0,1.7-0.2,1.9-0.7
					c0.2-0.5,0.3-3.5,0.3-8.9c0-2.4,0-4.4-0.1-5.8c0-0.5-0.1-0.8-0.3-0.9c-0.2-0.2-0.8-0.3-1.7-0.3h-1.5v-1.2
					c1.2-0.1,2.3-0.3,3.3-0.6c1-0.2,2.1-0.6,3.3-1.1c0.1-0.1,0.3-0.1,0.4-0.1c0.2,0,0.3,0.2,0.3,0.5l0,0.8L178.5,201.5z"/>
				<path class="st13" d="M188.2,218.7l0.1-0.6c0.3-2.8,0.4-6.6,0.4-11.3c0-1.8-0.2-3.2-0.5-3.9c-0.3-0.7-0.8-1.3-1.5-1.7
					c-0.7-0.4-1.6-0.7-2.6-0.7c-1.3,0-2.4,0.3-3.2,1c-0.9,0.6-1.4,1.3-1.6,2c-0.1,0.3-0.2,1.4-0.2,4.3c0,2.6,0,5.1,0.1,7.3
					c0,0.7,0.1,0.9,0.1,0.9c0.3,0.2,0.8,0.4,1.4,0.4h2v2.3l-0.5,0c-2.4-0.1-4.3-0.1-5.8-0.1c-1.5,0-3.2,0.1-5.2,0.1l-0.5,0v-2.3h2
					c0.8,0,1.3-0.1,1.4-0.4c0.1-0.2,0.2-1.5,0.2-8.7c0-2.4,0-4.4-0.1-5.7c0-0.4-0.1-0.6-0.2-0.6c0,0-0.3-0.1-1.4-0.1h-2v-2.2
					l0.4-0.1c1.2-0.1,2.3-0.3,3.2-0.6c0.9-0.2,2-0.6,3.2-1.1c0.2-0.1,0.4-0.1,0.6-0.1c0.4,0,0.8,0.3,0.8,1l0,2.6l2.4-2.1
					c0.4-0.4,0.9-0.7,1.4-0.8c1-0.3,2-0.5,3-0.5c1.6,0,3,0.3,4.2,1c1.2,0.7,2.1,1.6,2.6,2.6c0.5,1.1,0.8,2.7,0.8,4.9l-0.1,6.8
					c0,3.1,0.2,3.7,0.2,3.8c0.1,0.1,0.3,0.4,1.1,0.4h2v2.3l-0.5,0c-1.5-0.1-2.8-0.1-3.9-0.1c-1.1,0-2.2,0.1-3.5,0.1L188.2,218.7z
					 M176.4,217.5c1.3,0,3.1,0,5.3,0.1v-0.2h-1c-1,0-1.6-0.2-2.1-0.6c-0.3-0.3-0.4-0.8-0.5-1.6c0-2.2-0.1-4.7-0.1-7.3
					c0-2.4,0.1-3.9,0.2-4.5c0.3-1,0.9-1.8,2-2.6c1.1-0.8,2.3-1.1,3.8-1.1c1.2,0,2.3,0.3,3.1,0.8c0.9,0.5,1.5,1.3,1.9,2.2
					c0.4,0.9,0.5,2.3,0.5,4.3c0,4.4-0.1,8-0.4,10.8c1-0.1,2-0.1,2.9-0.1c1,0,2.2,0,3.5,0.1v-0.2h-1c-1,0-1.6-0.3-2-0.9
					c-0.2-0.3-0.4-1.1-0.4-4.3l0.1-6.8c0-2-0.2-3.5-0.7-4.4c-0.4-0.9-1.2-1.6-2.2-2.2c-1-0.6-2.3-0.9-3.7-0.9
					c-0.9,0-1.8,0.2-2.7,0.4c-0.4,0.1-0.7,0.4-1.1,0.7l-4.1,3.6l0.1-4.8c0,0,0,0,0,0c-1.2,0.5-2.4,0.9-3.4,1.1
					c-0.9,0.2-1.8,0.4-2.9,0.5v0.3h1c1.4,0,1.8,0.2,2,0.4c0.3,0.3,0.5,0.7,0.5,1.3c0.1,1.4,0.1,3.3,0.1,5.8c0,8.3-0.2,8.8-0.3,9.1
					c-0.3,0.7-1,1.1-2.3,1.1h-1v0.2C173.5,217.5,175,217.5,176.4,217.5z M178,197.7L178,197.7L178,197.7z"/>
			</g>
			<g>
				<path class="st21" d="M200.5,207.8c0.1,2.8,0.8,5,2.2,6.4s3.2,2.2,5.4,2.2c1,0,2-0.2,3-0.5c1-0.3,2-0.8,2.9-1.5l0.4,0.3
					l-0.7,1.8c-1.2,0.7-2.4,1.2-3.7,1.5c-1.3,0.3-2.6,0.5-3.9,0.5c-2.9,0-5.3-0.9-7-2.8c-1.8-1.8-2.7-4.3-2.7-7.5
					c0-2.4,0.5-4.5,1.5-6.3c0.7-1.2,1.9-2.2,3.7-3.2c1.8-1,3.5-1.5,5.2-1.5c2.5,0,4.5,0.7,6,2.2c1.5,1.5,2.2,3.6,2.2,6.3l0,1.3
					c-0.9,0.2-1.8,0.4-2.7,0.5c-1.5,0.1-3.7,0.2-6.4,0.2H200.5z M200.6,206.1c2.2,0.1,4.7,0.2,7.3,0.2c1.1,0,2.1,0,3.1-0.2v-1.2
					c0-1.3-0.3-2.5-0.8-3.6c-0.3-0.7-0.9-1.3-1.7-1.8c-0.8-0.5-1.7-0.7-2.7-0.7c-1.6,0-2.9,0.6-3.8,1.8
					C201.1,201.8,200.6,203.7,200.6,206.1z"/>
				<path class="st13" d="M206.2,219.1c-3,0-5.5-1-7.4-2.9c-1.9-1.9-2.8-4.6-2.8-7.8c0-2.5,0.5-4.7,1.6-6.5c0.7-1.2,2-2.4,3.8-3.4
					c1.8-1,3.7-1.5,5.4-1.5c2.7,0,4.8,0.8,6.4,2.4c1.6,1.6,2.4,3.8,2.4,6.6l-0.1,1.7l-0.4,0.1c-1,0.2-1.9,0.4-2.8,0.5
					c-1.5,0.1-3.7,0.2-6.4,0.2h-4.8c0.1,2.4,0.8,4.3,2,5.6c1.3,1.4,2.9,2,5,2c0.9,0,1.9-0.2,2.8-0.5c0.9-0.3,1.9-0.8,2.8-1.4
					l0.3-0.2l0.9,0.8l-0.9,2.3L214,217c-1.2,0.7-2.5,1.2-3.8,1.6C208.9,218.9,207.5,219.1,206.2,219.1z M206.8,197.9
					c-1.6,0-3.2,0.5-4.9,1.4c-1.7,0.9-2.9,2-3.5,3c-1,1.7-1.4,3.7-1.4,6c0,3,0.9,5.4,2.5,7.1c1.7,1.7,3.9,2.6,6.7,2.6
					c1.3,0,2.5-0.2,3.8-0.5c1.2-0.3,2.3-0.8,3.4-1.4l0.4-1c-0.8,0.5-1.6,0.9-2.4,1.1c-1,0.3-2.1,0.5-3.1,0.5c-2.4,0-4.3-0.8-5.8-2.3
					c-1.5-1.5-2.2-3.8-2.3-6.8l0-0.5h5.9c2.7,0,4.8-0.1,6.3-0.2c0.7-0.1,1.5-0.2,2.3-0.4l0-0.9c0-2.5-0.7-4.5-2.1-5.9
					C211.1,198.6,209.2,197.9,206.8,197.9z M207.9,206.8c-2.7,0-5.2-0.1-7.4-0.2l-0.5,0l0-0.5c0-2.6,0.6-4.5,1.6-5.8
					c1.1-1.3,2.5-1.9,4.2-1.9c1.1,0,2.1,0.3,3,0.8c0.9,0.5,1.5,1.2,1.9,2c0.5,1.2,0.8,2.5,0.8,3.8v1.7l-0.5,0
					C210.1,206.7,209,206.8,207.9,206.8z M201.1,205.7c2.1,0.1,4.4,0.1,6.8,0.1c0.9,0,1.8,0,2.6-0.1v-0.7c0-1.2-0.2-2.3-0.7-3.4
					c-0.3-0.6-0.8-1.1-1.5-1.5c-0.7-0.4-1.5-0.6-2.5-0.6c-1.5,0-2.6,0.5-3.5,1.6C201.6,202,201.2,203.6,201.1,205.7z"/>
			</g>
			<g>
				<path class="st21" d="M77.2,244v6c0,1,0,2.2,0.1,3.6c0.1,2,0.2,3,0.2,3.2c0.1,0.2,0.3,0.4,0.6,0.6c0.4,0.2,0.9,0.3,1.7,0.3h1.5
					v1.4c-1.9-0.1-3.7-0.2-5.4-0.2c-1.7,0-4.1,0-7.2,0.2v-1.4h1.3c1.5,0,2.4-0.3,2.7-0.8c0.3-0.5,0.4-2.8,0.4-7v-13
					c0-3.8-0.1-5.9-0.4-6.4s-1.1-0.8-2.4-0.8h-1.6v-1.4c2.4,0.1,4.6,0.2,6.6,0.2c2,0,4,0,6-0.2v1.4h-0.9c-1.3,0-2.2,0.1-2.5,0.3
					c-0.3,0.2-0.5,0.6-0.6,1.1c-0.1,0.8-0.2,2.7-0.2,5.7v4.9c2.5,0.1,5.8,0.2,9.7,0.2c3.3,0,6.1,0,8.1-0.2v-4.2
					c0-2.5-0.1-4.5-0.3-6.2c-0.1-0.6-0.3-1-0.6-1.3c-0.3-0.3-1-0.4-2-0.4h-1.5v-1.4c2.2,0.1,4.3,0.2,6.2,0.2c2.1,0,4.3,0,6.6-0.2
					v1.4h-1.6c-1.1,0-1.8,0.1-2.1,0.4c-0.3,0.2-0.5,0.7-0.6,1.3s-0.1,2.7-0.1,6.2v11.9c0,4.4,0.1,6.9,0.4,7.4c0.3,0.5,1,0.8,2.4,0.8
					h1.7v1.4c-2-0.1-4-0.2-6.1-0.2c-2.4,0-4.6,0-6.7,0.2v-1.4h1.5c1.1,0,1.8-0.1,2.1-0.4c0.3-0.3,0.5-0.7,0.6-1.4
					c0.2-1.5,0.2-3.6,0.2-6.5V244c-2-0.1-4.6-0.2-7.7-0.2C82.8,243.8,79.5,243.9,77.2,244z"/>
				<path class="st13" d="M81.8,259.7l-0.5,0c-1.8-0.1-3.6-0.1-5.4-0.1c-1.7,0-4.1,0.1-7.2,0.2l-0.5,0v-2.4h1.8
					c1.8,0,2.2-0.4,2.2-0.5c0.1-0.2,0.3-1.1,0.3-6.8v-13c0-5-0.3-6-0.4-6.2c-0.1-0.2-0.4-0.5-2-0.5h-2.1v-2.4l0.5,0
					c4.7,0.2,8.7,0.2,12.5,0l0.5,0v2.4h-1.4c-1.8,0-2.1,0.2-2.2,0.2c-0.2,0.1-0.3,0.4-0.4,0.7c-0.1,0.8-0.2,2.7-0.2,5.7v4.4
					c2.5,0.1,5.6,0.1,9.2,0.1c3.1,0,5.6,0,7.6-0.1v-3.7c0-2.4-0.1-4.5-0.3-6.1c0-0.4-0.2-0.8-0.4-0.9c-0.1-0.1-0.5-0.3-1.7-0.3h-2
					v-2.4l0.5,0c2.2,0.1,4.3,0.1,6.2,0.1c2.1,0,4.3-0.1,6.6-0.1l0.5,0v2.4h-2.1c-1.4,0-1.7,0.2-1.8,0.3c-0.2,0.2-0.3,0.5-0.4,1
					c-0.1,0.6-0.1,2.7-0.1,6.1v11.9c0,5.8,0.2,6.9,0.3,7.1c0.1,0.1,0.4,0.5,1.9,0.5h2.2v2.4l-0.5,0c-2-0.1-4-0.1-6.1-0.1
					c-2.4,0-4.6,0.1-6.7,0.1l-0.5,0v-2.4h2c1.4,0,1.7-0.2,1.8-0.3c0.2-0.2,0.3-0.5,0.4-1.1c0.2-1.5,0.2-3.6,0.2-6.4v-5.1
					c-1.9-0.1-4.4-0.1-7.2-0.1c-4.1,0-7.4,0-9.6,0.1v5.5c0,1,0,2.2,0.1,3.6c0.1,2.5,0.2,3,0.2,3.1c0,0,0,0.1,0.4,0.3
					c0.2,0.1,0.6,0.3,1.5,0.3h2V259.7z M69.2,258.3v0.3c2.9-0.1,5.1-0.1,6.7-0.1c1.6,0,3.2,0,4.9,0.1v-0.3h-1c-0.9,0-1.6-0.1-2-0.4
					c-0.5-0.3-0.8-0.6-0.8-0.9c-0.1-0.2-0.1-0.7-0.2-3.3c-0.1-1.4-0.1-2.6-0.1-3.7v-6.5l0.5,0c2.3-0.1,5.7-0.2,10.2-0.2
					c3.1,0,5.7,0.1,7.8,0.2l0.5,0v6.1c0,2.8-0.1,5-0.2,6.5c-0.1,0.8-0.3,1.4-0.8,1.7c-0.4,0.3-1.2,0.5-2.4,0.5h-1v0.3
					c3.6-0.2,8-0.2,11.8,0v-0.3h-1.2c-1.5,0-2.5-0.3-2.8-1c-0.2-0.4-0.4-1.6-0.4-7.6v-11.9c0-3.5,0-5.5,0.1-6.2
					c0.1-0.8,0.3-1.4,0.7-1.7c0.4-0.3,1.2-0.5,2.4-0.5h1.1v-0.3c-2.1,0.1-4.2,0.1-6.1,0.1c-1.8,0-3.7,0-5.7-0.1v0.3h1
					c1.2,0,1.9,0.2,2.3,0.5c0.4,0.3,0.7,0.9,0.8,1.6c0.2,1.7,0.3,3.8,0.3,6.2v4.7l-0.5,0c-2.1,0.1-4.8,0.2-8.2,0.2
					c-3.9,0-7.2-0.1-9.8-0.2l-0.5,0v-5.4c0-3.1,0.1-5,0.2-5.8c0.1-0.6,0.4-1.1,0.8-1.4c0.3-0.2,0.8-0.4,2.8-0.4h0.4v-0.3
					c-3.6,0.2-7.3,0.2-11.6,0v0.3h1.1c1.5,0,2.5,0.3,2.8,1c0.2,0.4,0.5,1.5,0.5,6.6v13c0,5.6-0.3,6.8-0.5,7.2c-0.4,0.7-1.4,1-3.1,1
					H69.2z"/>
			</g>
			<g>
				<path class="st21" d="M108.6,248.8c0.1,2.8,0.8,5,2.2,6.4c1.4,1.5,3.2,2.2,5.4,2.2c1,0,2-0.2,3-0.5c1-0.3,2-0.8,2.9-1.5l0.4,0.3
					l-0.7,1.8c-1.2,0.7-2.4,1.2-3.7,1.5s-2.6,0.5-3.9,0.5c-2.9,0-5.3-0.9-7-2.8c-1.8-1.8-2.7-4.3-2.7-7.5c0-2.4,0.5-4.5,1.5-6.3
					c0.7-1.2,1.9-2.2,3.7-3.2s3.5-1.5,5.2-1.5c2.5,0,4.5,0.7,6,2.2c1.5,1.5,2.2,3.6,2.2,6.3l0,1.3c-0.9,0.2-1.8,0.4-2.7,0.5
					c-1.5,0.1-3.7,0.2-6.4,0.2H108.6z M108.6,247.1c2.2,0.1,4.7,0.2,7.3,0.2c1.1,0,2.1,0,3.1-0.2v-1.2c0-1.3-0.3-2.5-0.8-3.6
					c-0.3-0.7-0.9-1.3-1.7-1.8s-1.7-0.7-2.7-0.7c-1.6,0-2.9,0.6-3.8,1.8C109.2,242.8,108.7,244.7,108.6,247.1z"/>
				<path class="st13" d="M114.2,260.1c-3,0-5.5-1-7.4-2.9c-1.9-1.9-2.8-4.6-2.8-7.8c0-2.5,0.5-4.7,1.6-6.5c0.7-1.2,2-2.4,3.8-3.4
					c1.8-1,3.7-1.5,5.4-1.5c2.7,0,4.8,0.8,6.4,2.4c1.6,1.6,2.4,3.8,2.4,6.6l-0.1,1.7l-0.4,0.1c-1,0.2-1.9,0.4-2.8,0.5
					c-1.5,0.1-3.7,0.2-6.4,0.2h-4.8c0.1,2.4,0.8,4.3,2,5.6c1.3,1.4,2.9,2,5,2c0.9,0,1.9-0.2,2.8-0.5c0.9-0.3,1.9-0.8,2.8-1.4
					l0.3-0.2l0.9,0.8l-0.9,2.3L122,258c-1.2,0.7-2.5,1.2-3.8,1.6C116.9,259.9,115.6,260.1,114.2,260.1z M114.8,238.9
					c-1.6,0-3.2,0.5-4.9,1.4c-1.7,0.9-2.9,2-3.5,3c-1,1.7-1.4,3.7-1.4,6c0,3,0.9,5.4,2.5,7.1c1.7,1.7,3.9,2.6,6.7,2.6
					c1.3,0,2.5-0.2,3.8-0.5c1.2-0.3,2.3-0.8,3.4-1.4l0.4-1c-0.8,0.5-1.6,0.9-2.4,1.1c-1,0.3-2.1,0.5-3.1,0.5c-2.4,0-4.3-0.8-5.8-2.3
					c-1.5-1.5-2.2-3.8-2.3-6.8l0-0.5h5.9c2.7,0,4.8-0.1,6.3-0.2c0.7-0.1,1.5-0.2,2.3-0.4l0-0.9c0-2.5-0.7-4.5-2.1-5.9
					C119.1,239.6,117.2,238.9,114.8,238.9z M116,247.8c-2.7,0-5.2-0.1-7.4-0.2l-0.5,0l0-0.5c0-2.6,0.6-4.5,1.6-5.8
					c1.1-1.3,2.5-1.9,4.2-1.9c1.1,0,2.1,0.3,3,0.8c0.9,0.5,1.5,1.2,1.9,2c0.5,1.2,0.8,2.5,0.8,3.8v1.7l-0.5,0
					C118.1,247.7,117.1,247.8,116,247.8z M109.2,246.7c2.1,0.1,4.4,0.1,6.8,0.1c0.9,0,1.8,0,2.6-0.1v-0.7c0-1.2-0.2-2.3-0.7-3.4
					c-0.3-0.6-0.8-1.1-1.5-1.5c-0.7-0.4-1.5-0.6-2.5-0.6c-1.5,0-2.6,0.5-3.5,1.6C109.7,243,109.2,244.6,109.2,246.7z"/>
			</g>
			<g>
				<path class="st21" d="M131.4,243.3c0.6-0.5,1.2-1.3,1.9-2.1c0.8-1,1.6-1.8,2.2-2.1c0.7-0.4,1.4-0.6,2.2-0.6
					c0.8,0,1.4,0.1,1.8,0.3c0.2,0.1,0.3,0.2,0.3,0.4l0,0.2c-0.2,1.2-0.4,2.8-0.4,4.9h-1c-0.3-0.7-0.7-1.2-1.2-1.5
					c-0.5-0.3-1-0.5-1.6-0.5c-0.8,0-1.6,0.3-2.3,0.9c-0.7,0.6-1.2,1.4-1.4,2.4c-0.2,1-0.4,3.1-0.4,6.1c0,2,0.1,3.7,0.2,5
					c0.1,0.5,0.2,0.8,0.4,0.9c0.5,0.3,1.3,0.5,2.4,0.5h1.3v1.2c-2.2-0.1-4.3-0.2-6.2-0.2c-1.9,0-3.8,0-5.7,0.2v-1.2l2.1-0.2
					c0.7-0.1,1.2-0.2,1.4-0.4s0.3-0.9,0.4-2.1c0.1-2.1,0.2-4.5,0.2-7.3c0-3.5-0.1-5.5-0.4-6.1c-0.2-0.4-0.8-0.6-1.8-0.6H124V240
					c1.4-0.2,2.6-0.4,3.7-0.6c1.1-0.3,2.1-0.6,2.9-1c0.2-0.1,0.4-0.2,0.5-0.2c0.2,0,0.3,0,0.3,0.1c0.1,0.1,0.1,0.3,0.1,0.6
					L131.4,243.3z"/>
				<path class="st13" d="M123.5,259.7v-2.2l2.5-0.2c0.9-0.1,1.1-0.2,1.1-0.2c0,0,0.2-0.3,0.2-1.8c0.1-2,0.1-4.5,0.1-7.3
					c0-4.4-0.2-5.6-0.4-5.9c0-0.1-0.4-0.3-1.3-0.3h-2.3v-2.2l0.4-0.1c1.4-0.2,2.6-0.4,3.7-0.6c1.1-0.2,2-0.6,2.8-0.9
					c0.8-0.4,1.3-0.1,1.4,0.2c0.1,0.2,0.2,0.4,0.2,0.9l-0.1,3c0.3-0.3,0.6-0.7,1-1.2c0.9-1.1,1.6-1.9,2.4-2.3
					c0.8-0.4,1.6-0.6,2.4-0.6c0.9,0,1.5,0.1,2,0.3c0.4,0.2,0.6,0.5,0.6,0.9l0,0.3c-0.2,1.2-0.4,2.8-0.4,4.8l0,0.5h-1.8l-0.1-0.3
					c-0.3-0.6-0.6-1.1-1-1.3c-0.4-0.2-0.8-0.4-1.3-0.4c-0.7,0-1.4,0.2-2,0.8s-1.1,1.2-1.3,2.1c-0.2,1-0.4,3-0.4,6c0,2,0.1,3.6,0.2,5
					c0,0.4,0.1,0.5,0.2,0.6c0.5,0.3,1.2,0.4,2.2,0.4h1.8v2.3l-0.5,0c-4.3-0.2-8.1-0.2-11.8,0L123.5,259.7z M129.6,258.5
					c1.8,0,3.7,0,5.7,0.1v-0.2h-0.8c-1.2,0-2-0.2-2.6-0.5c-0.4-0.2-0.6-0.7-0.7-1.3c-0.2-1.4-0.2-3.1-0.2-5.1c0-3.1,0.1-5.1,0.4-6.2
					c0.3-1.1,0.8-2,1.6-2.7c0.8-0.6,1.7-1,2.7-1c0.7,0,1.4,0.2,1.9,0.5c0.5,0.3,0.9,0.8,1.2,1.5h0.2c0-1.9,0.2-3.4,0.4-4.5l0-0.1
					c-0.4-0.2-0.9-0.2-1.6-0.2c-0.7,0-1.3,0.2-1.9,0.5c-0.6,0.4-1.3,1-2.1,2c-0.7,0.9-1.3,1.6-1.9,2.2l-0.9,0.8l0.1-5.5
					c0-0.1,0-0.1,0-0.2c0,0-0.1,0-0.2,0.1c-0.9,0.4-1.9,0.7-3,1c-1,0.2-2.1,0.4-3.3,0.6v0.3h1.3c1.2,0,1.9,0.3,2.2,0.9
					c0.2,0.4,0.5,1.6,0.5,6.3c0,2.8-0.1,5.3-0.2,7.4c-0.1,1.7-0.3,2.2-0.5,2.4c-0.3,0.3-0.8,0.5-1.7,0.6l-1.6,0.1v0.3
					C126.1,258.5,127.9,258.5,129.6,258.5z"/>
			</g>
			<g>
				<path class="st21" d="M147.7,238.3l0.5,0.3c-0.1,1.1-0.2,2.3-0.2,3.5c-0.1,4.2-0.2,7.3-0.2,9.3c0,1.9,0.1,3.5,0.2,4.8
					c0.1,0.5,0.2,0.9,0.4,1.1c0.2,0.2,0.7,0.4,1.5,0.5l1.5,0.2v1.2c-2.1-0.1-4-0.2-5.7-0.2c-1.7,0-3.4,0-5.1,0.2v-1.2l1.8-0.2
					c0.7-0.1,1.2-0.2,1.3-0.4c0.2-0.2,0.3-0.9,0.3-2.1c0.1-1.8,0.1-4.3,0.1-7.5c0-2.2,0-3.9-0.1-5.1c0-0.4-0.2-0.8-0.4-0.9
					c-0.2-0.2-0.7-0.3-1.5-0.3h-1.6v-1.2c1.7-0.3,3-0.5,3.9-0.7C145.3,239.2,146.4,238.8,147.7,238.3z M146,228.8
					c0.7,0,1.2,0.2,1.7,0.7s0.7,1.1,0.7,1.7c0,0.7-0.2,1.2-0.7,1.7s-1,0.7-1.7,0.7c-0.7,0-1.2-0.2-1.7-0.7s-0.7-1-0.7-1.7
					c0-0.7,0.2-1.3,0.7-1.7S145.3,228.8,146,228.8z"/>
				<path class="st13" d="M140.1,259.7v-2.2l2.3-0.2c0.8-0.1,1-0.2,1-0.2c0,0,0.1-0.3,0.2-1.8c0.1-1.8,0.1-4.3,0.1-7.5
					c0-2.2,0-3.9-0.1-5.1c0-0.3-0.1-0.5-0.2-0.6c0,0-0.2-0.2-1.2-0.2h-2.1v-2.2l0.4-0.1c1.7-0.2,3-0.5,3.8-0.7
					c0.8-0.2,1.9-0.6,3.1-1.1l0.2-0.1l1,0.6l0,0.3c-0.1,1.1-0.2,2.2-0.2,3.5c-0.1,4.2-0.2,7.3-0.2,9.2c0,1.8,0.1,3.4,0.2,4.7
					c0.1,0.5,0.2,0.7,0.3,0.8c0,0,0.2,0.2,1.3,0.3l1.9,0.3v2.2l-0.5,0c-2.1-0.1-4-0.1-5.7-0.1c-1.7,0-3.4,0.1-5.1,0.1L140.1,259.7z
					 M145.7,258.5c1.6,0,3.3,0,5.2,0.1v-0.3l-1-0.1c-1-0.1-1.5-0.3-1.8-0.6c-0.3-0.3-0.5-0.7-0.6-1.4c-0.1-1.3-0.2-3-0.2-4.8
					c0-2,0-5,0.2-9.3c0-1.2,0.1-2.3,0.2-3.3l0,0c-1.2,0.5-2.2,0.8-3,1c-0.8,0.2-1.9,0.4-3.5,0.6v0.3h1.1c0.9,0,1.5,0.1,1.8,0.4
					c0.3,0.3,0.5,0.7,0.6,1.3c0.1,1.2,0.1,2.9,0.1,5.2c0,3.2,0,5.8-0.1,7.6c-0.1,1.7-0.2,2.1-0.4,2.4c-0.3,0.3-0.8,0.5-1.7,0.6
					l-1.4,0.1v0.3C142.7,258.5,144.2,258.5,145.7,258.5z M146,234.1c-0.8,0-1.5-0.3-2.1-0.9s-0.9-1.3-0.9-2.1c0-0.8,0.3-1.5,0.9-2.1
					c0.6-0.6,1.3-0.9,2.1-0.9c0.8,0,1.5,0.3,2.1,0.9c0.6,0.6,0.9,1.3,0.9,2.1c0,0.8-0.3,1.5-0.9,2.1S146.7,234.1,146,234.1z
					 M146,229.3c-0.5,0-1,0.2-1.4,0.6c-0.4,0.4-0.6,0.8-0.6,1.4c0,0.5,0.2,1,0.6,1.4c0.7,0.7,1.9,0.8,2.7,0c0.4-0.4,0.6-0.8,0.6-1.4
					c0-0.5-0.2-1-0.6-1.4C146.9,229.5,146.5,229.3,146,229.3z"/>
			</g>
			<g>
				<path class="st21" d="M159.2,242.3v8.4c0,2.2,0.1,3.6,0.2,4.2c0.1,0.6,0.4,1.1,0.9,1.4c0.4,0.3,1,0.5,1.7,0.5
					c0.4,0,0.8-0.1,1.2-0.2c0.4-0.2,0.8-0.4,1.2-0.7l0.6,0.7l-2.1,2.5c-0.5,0.2-0.9,0.3-1.3,0.4s-0.8,0.1-1.3,0.1
					c-1.1,0-2-0.2-2.7-0.6c-0.7-0.4-1.3-0.9-1.6-1.5c-0.3-0.6-0.5-1.5-0.5-2.8l0.1-4.1v-8.2c-1.1,0-2.2,0.1-3.4,0.2v-0.9
					c1.2-0.5,2.4-1,3.4-1.5c0-2-0.1-4.3-0.2-6.7c1.7-0.7,2.9-1.3,3.6-1.7l0.6,0.4c-0.1,1.1-0.2,3.8-0.4,7.9c1.7,0,3.2,0,4.3-0.1
					l1.7-0.1l-0.2,2.2l-0.9,0l-4.1,0H159.2z"/>
				<path class="st13" d="M160.3,260.1c-1.1,0-2.1-0.2-2.9-0.6c-0.8-0.4-1.4-1-1.8-1.7c-0.4-0.7-0.6-1.7-0.6-3l0.1-4.2V243
					c-0.9,0-1.9,0.1-2.9,0.1l-0.5,0v-1.8l0.3-0.1c1.1-0.4,2.1-0.9,3.1-1.3c0-1.9-0.1-4.1-0.2-6.3l0-0.3l0.3-0.1
					c1.6-0.7,2.8-1.2,3.5-1.7l0.3-0.2l1.1,0.8l0,0.3c-0.1,1-0.2,3.5-0.3,7.4c1.5,0,2.8,0,3.7-0.1l2.3-0.1l-0.3,3.3l-1.3,0l-4.4,0
					v7.9c0,2.7,0.1,3.7,0.2,4.1c0.1,0.5,0.3,0.9,0.7,1.2c0.3,0.3,0.8,0.4,1.4,0.4c0.3,0,0.7-0.1,1-0.2c0.3-0.1,0.7-0.4,1-0.7
					l0.4-0.3l1.2,1.5l-2.5,2.9l-0.1,0c-0.5,0.2-1,0.3-1.4,0.4C161.2,260,160.7,260.1,160.3,260.1z M155.6,242h0.5v8.7l-0.1,4.2
					c0,1.1,0.1,2,0.4,2.5c0.3,0.5,0.7,0.9,1.4,1.3c0.9,0.5,2.2,0.7,3.6,0.4c0.4-0.1,0.8-0.2,1.1-0.3l1.7-2l0-0.1
					c-0.3,0.2-0.6,0.4-0.9,0.5c-0.5,0.2-0.9,0.3-1.4,0.3c-0.8,0-1.5-0.2-2-0.6c-0.5-0.4-0.9-1-1-1.7c-0.2-0.7-0.2-2.1-0.2-4.3v-8.9
					l5.8,0l0.1-1.2l-1.1,0.1c-1.1,0-2.6,0.1-4.3,0.1h-0.5l0-0.5c0.1-3.9,0.2-6.4,0.3-7.7l-0.1-0.1c-0.7,0.4-1.7,0.9-3.1,1.4
					c0.1,2.3,0.1,4.4,0.2,6.3l0,0.3l-0.3,0.1c-1,0.5-2,0.9-3.1,1.4v0C153.7,242,154.7,242,155.6,242z"/>
			</g>
			<g>
				<path class="st21" d="M167.6,244.2l0-1.4l0-1.5l2.3-1.3c1.1-0.6,2-1,2.8-1.2c0.8-0.2,1.6-0.3,2.5-0.3c2,0,3.6,0.4,4.8,1.3
					c1.2,0.9,1.9,2,2.2,3.4c0.2,1,0.3,3.6,0.3,7.7c0,3.8,0.1,6,0.3,6.4c0.1,0.4,0.5,0.6,1.1,0.6h1.7v1.4c-1.6-0.1-2.8-0.2-3.4-0.2
					c-0.8,0-1.9,0-3.2,0.2l0-1.9c0-0.6,0-1.2,0-1.9l-4.4,3.4c-0.4,0.3-0.8,0.5-1.2,0.6s-0.9,0.2-1.6,0.2c-1.8,0-3.3-0.5-4.2-1.4
					c-1-0.9-1.5-2.1-1.5-3.7c0-1.4,0.3-2.7,1-3.8c0.7-1.1,1.7-1.9,3-2.4c1.3-0.5,4.3-1.2,8.9-2c0-1.8-0.4-3.2-1.2-4.1
					c-1-1.1-2.4-1.7-4.2-1.7c-0.7,0-1.3,0.1-1.9,0.3c-0.6,0.2-1.2,0.4-1.7,0.8c-0.4,1-0.8,2-1.1,2.9L167.6,244.2z M178.9,247.6
					c-4,0.9-6.5,1.7-7.6,2.4c-1.1,0.8-1.6,1.9-1.6,3.5c0,1.1,0.3,1.9,0.9,2.5c0.6,0.6,1.4,1,2.4,1c1.1,0,2.1-0.3,3.1-0.9
					c1-0.6,1.9-1.5,2.8-2.7l0-4.8L178.9,247.6z"/>
				<path class="st13" d="M171.6,260.1c-2,0-3.5-0.5-4.6-1.5c-1.1-1-1.6-2.4-1.6-4c0-1.5,0.4-2.9,1.1-4.1c0.7-1.2,1.8-2,3.2-2.6
					c1.3-0.5,4.1-1.2,8.6-2c-0.1-1.5-0.4-2.6-1.1-3.3c-0.9-1-2.1-1.5-3.8-1.5c-0.6,0-1.2,0.1-1.8,0.2c-0.5,0.1-1,0.3-1.4,0.6
					c-0.4,1-0.7,1.9-1.1,2.8l-0.2,0.4l-2-0.5l0-1.8l0-1.8l2.6-1.5c1.1-0.6,2.1-1.1,2.9-1.3c0.8-0.2,1.7-0.4,2.7-0.4
					c2.1,0,3.8,0.5,5.1,1.4c1.3,1,2.1,2.2,2.4,3.7c0.2,1.1,0.3,3.6,0.3,7.7c0,5.1,0.2,6,0.2,6.2c0,0.1,0.1,0.3,0.6,0.3h2.2v2.5
					l-0.5,0c-1.6-0.1-2.7-0.1-3.4-0.1c-0.8,0-1.9,0-3.2,0.1l-0.5,0l0-2.5c0-0.3,0-0.6,0-0.9l-3.7,2.8c-0.5,0.3-0.9,0.6-1.3,0.7
					C173,260,172.4,260.1,171.6,260.1z M173.5,240.1c1.9,0,3.5,0.6,4.5,1.9c0.8,1,1.3,2.5,1.3,4.4l0,0.4l-0.4,0.1
					c-4.6,0.8-7.6,1.5-8.8,2c-1.2,0.5-2.1,1.2-2.7,2.2c-0.6,1-1,2.2-1,3.5c0,1.4,0.4,2.5,1.3,3.3c0.9,0.8,2.2,1.2,3.9,1.2
					c0.6,0,1.1-0.1,1.5-0.2c0.3-0.1,0.7-0.3,1-0.6l5.2-4l0,1c0,0.6,0,1.3,0,1.9l0,1.4c1.1-0.1,2-0.1,2.7-0.1c0.6,0,1.6,0,2.9,0.1
					v-0.4h-1.2c-1.1,0-1.4-0.6-1.5-0.9c-0.1-0.2-0.2-0.7-0.3-6.5c0-4-0.1-6.6-0.3-7.6c-0.2-1.2-0.9-2.3-2-3.1
					c-1.1-0.8-2.6-1.2-4.5-1.2c-0.8,0-1.7,0.1-2.4,0.3c-0.8,0.2-1.7,0.6-2.7,1.2l-2.1,1.2l0,1.2l0,1.1l0.4,0.1
					c0.3-0.8,0.6-1.7,1-2.5l0.1-0.1l0.1-0.1c0.6-0.4,1.2-0.6,1.8-0.8C172.1,240.2,172.8,240.1,173.5,240.1z M173,257.5
					c-1.1,0-2-0.4-2.7-1.1c-0.7-0.7-1.1-1.7-1.1-2.9c0-1.7,0.6-3,1.8-3.9c1.1-0.8,3.7-1.6,7.8-2.5l0.6-0.1l-0.1,1.7l0,4.9l-0.1,0.1
					c-0.9,1.2-1.9,2.2-2.9,2.8C175.3,257.2,174.2,257.5,173,257.5z M178.4,248.3c-3.5,0.8-5.8,1.5-6.8,2.2c-0.9,0.7-1.4,1.7-1.4,3.1
					c0,0.9,0.3,1.6,0.8,2.2c0.5,0.5,1.2,0.8,2,0.8c1,0,1.9-0.3,2.8-0.8c0.9-0.5,1.7-1.4,2.6-2.4l0-4.6L178.4,248.3z"/>
			</g>
			<g>
				<path class="st21" d="M204.6,242.4c0.3,0.9,0.5,1.7,0.5,2.3c0,1.3-0.4,2.5-1.2,3.7c-0.8,1.2-1.9,2.1-3.3,2.9
					c-1.4,0.7-3,1.1-4.6,1.1l-1,0c-0.9,0.7-1.5,1.2-1.8,1.6c-0.2,0.3-0.4,0.7-0.4,1c0,0.5,0.3,1,0.8,1.3c0.6,0.3,1.7,0.5,3.4,0.5
					c0.7,0,1.6,0,2.8-0.1c1.8-0.1,3-0.1,3.8-0.1c1.1,0,2,0.2,2.6,0.5s1.1,1,1.5,1.9c0.4,0.9,0.6,1.9,0.6,3.1c0,1.6-0.5,3.1-1.5,4.6
					c-1,1.5-2.4,2.6-4.3,3.5s-4,1.3-6.4,1.3c-3,0-5.2-0.6-6.8-1.9c-1.6-1.3-2.4-2.9-2.4-4.7c0-1.2,0.4-2.3,1.2-3.5
					c1.5-0.7,2.7-1.4,3.8-2.1c-1.2-0.4-1.9-0.7-2.3-1.1c-0.3-0.3-0.5-0.7-0.5-1.2c0-0.6,0.2-1.2,0.5-1.8c0.2-0.4,0.7-0.8,1.4-1.3
					l2.1-1.5c-1.7-0.4-3-1-3.7-1.8c-1-1.1-1.5-2.4-1.5-4.1c0-1.4,0.4-2.8,1.1-4c0.7-1.2,1.8-2.1,3.3-2.8c1.8-0.9,3.6-1.3,5.3-1.3
					c1.1,0,2,0.1,2.9,0.4c0.8,0.3,1.7,0.8,2.5,1.5h1.8c1.9,0,3.3-0.1,4.3-0.2l0.2,0.5c-0.4,0.6-0.8,1.3-1.1,2H204.6z M195.5,259.5
					c-1,0-1.7,0.1-2.1,0.3c-1.2,0.8-1.9,1.4-2.2,1.9c-0.4,0.7-0.6,1.7-0.6,2.8c0,1.6,0.6,2.9,1.7,3.9c1.2,1,2.8,1.5,4.8,1.5
					c1.6,0,3-0.3,4.2-0.9c1.2-0.6,2.1-1.4,2.8-2.4c0.7-1,1-2.1,1-3.2c0-0.9-0.2-1.8-0.7-2.5s-1-1.2-1.7-1.4
					c-0.3-0.1-1.1-0.2-2.3-0.2H195.5z M201.4,245.8c0-1.8-0.5-3.2-1.4-4.3c-0.9-1.1-2.1-1.6-3.5-1.6c-1.4,0-2.5,0.4-3.3,1.3
					c-0.8,0.9-1.3,2.1-1.3,3.7c0,1.9,0.5,3.4,1.4,4.5c0.9,1.1,2.1,1.6,3.4,1.6c1.4,0,2.5-0.5,3.3-1.4S201.4,247.4,201.4,245.8z"/>
				<path class="st13" d="M196.4,271.9c-3.1,0-5.5-0.7-7.1-2c-1.7-1.4-2.6-3.1-2.6-5.1c0-1.3,0.4-2.5,1.3-3.8l0.1-0.1l0.1-0.1
					c1.1-0.5,2-1,2.9-1.5c-0.7-0.3-1.2-0.6-1.5-0.8c-0.4-0.4-0.7-1-0.7-1.6c0-0.7,0.2-1.4,0.6-2c0.2-0.4,0.7-0.9,1.6-1.5l1.2-0.9
					c-1.3-0.4-2.3-1-2.9-1.7c-1.1-1.2-1.6-2.6-1.6-4.4c0-1.5,0.4-3,1.2-4.2c0.8-1.3,2-2.3,3.5-3c1.9-0.9,3.8-1.4,5.6-1.4
					c1.1,0,2.2,0.2,3,0.5c0.8,0.3,1.7,0.8,2.5,1.4h1.6c1.8,0,3.3-0.1,4.3-0.2l0.3,0l0.5,1l-0.2,0.2c-0.4,0.6-0.8,1.2-1.1,1.9
					l-0.1,0.3h-3.6c0.2,0.7,0.3,1.3,0.3,1.8c0,1.4-0.4,2.7-1.2,4c-0.8,1.3-2,2.3-3.5,3c-1.5,0.8-3.1,1.1-4.9,1.1l-0.8,0
					c-1,0.8-1.4,1.2-1.5,1.4c-0.2,0.3-0.3,0.5-0.3,0.7c0,0.2,0.1,0.6,0.6,0.8c0.3,0.2,1.1,0.4,3.2,0.4c0.7,0,1.6,0,2.8-0.1
					c1.8-0.1,3-0.1,3.8-0.1c1.2,0,2.2,0.2,2.9,0.6c0.7,0.4,1.3,1.1,1.7,2.1c0.5,1,0.7,2.1,0.7,3.3c0,1.7-0.5,3.3-1.5,4.9
					c-1,1.5-2.5,2.8-4.5,3.7C201.1,271.5,198.9,271.9,196.4,271.9z M188.8,261.6c-0.7,1.1-1.1,2.1-1.1,3.1c0,1.7,0.7,3.2,2.2,4.3
					c1.5,1.2,3.7,1.8,6.5,1.8c2.3,0,4.4-0.4,6.2-1.3c1.8-0.8,3.1-2,4.1-3.4c0.9-1.4,1.4-2.8,1.4-4.3c0-1.1-0.2-2-0.6-2.9
					c-0.4-0.8-0.8-1.4-1.4-1.7c-0.5-0.3-1.3-0.5-2.3-0.5c-0.8,0-2.1,0-3.8,0.1c-1.2,0-2.2,0.1-2.9,0.1c-1.8,0-3-0.2-3.7-0.5
					c-0.9-0.5-1.1-1.2-1.1-1.7c0-0.4,0.2-0.9,0.5-1.3c0.1-0.2,0.3-0.4,0.6-0.6l-1.8,1.3c-0.9,0.6-1.2,1-1.3,1.1
					c-0.3,0.5-0.4,1-0.4,1.5c0,0.4,0.1,0.6,0.3,0.9c0.2,0.2,0.6,0.5,2.1,0.9l0.9,0.3l-0.8,0.6C191.5,260.2,190.2,260.9,188.8,261.6z
					 M198,238.8c-1.6,0-3.4,0.4-5.1,1.3c-1.4,0.6-2.4,1.5-3.1,2.6c-0.7,1.1-1,2.3-1,3.7c0,1.5,0.4,2.7,1.4,3.7
					c0.7,0.7,1.9,1.3,3.5,1.7l0.9,0.2c0.1,0,0.1-0.1,0.2-0.2l0.1-0.1l1.2,0c1.6,0,3.1-0.3,4.4-1c1.3-0.7,2.4-1.6,3.1-2.7
					c0.7-1.1,1.1-2.2,1.1-3.4c0-0.5-0.2-1.2-0.5-2.1l-0.2-0.7h4.4c0.2-0.5,0.5-0.9,0.8-1.4c-1,0.1-2.3,0.1-3.9,0.1h-2l-0.1-0.1
					c-0.8-0.6-1.6-1.1-2.4-1.4C199.9,238.9,199,238.8,198,238.8z M197.2,270.4c-2.2,0-3.9-0.6-5.2-1.7c-1.3-1.1-1.9-2.5-1.9-4.3
					c0-1.2,0.2-2.3,0.7-3.1c0.3-0.6,1-1.2,2.4-2c0.5-0.3,1.2-0.4,2.4-0.4h5c1.6,0,2.2,0.1,2.4,0.2c0.8,0.2,1.4,0.8,1.9,1.6
					c0.5,0.8,0.8,1.7,0.8,2.7c0,1.2-0.4,2.3-1.1,3.4c-0.7,1.1-1.7,2-3,2.6C200.3,270.1,198.8,270.4,197.2,270.4z M195.5,260
					c-1.2,0-1.7,0.2-1.8,0.3c-1.5,0.9-1.9,1.5-2,1.7c-0.4,0.7-0.6,1.5-0.6,2.6c0,1.4,0.5,2.6,1.6,3.5c1.1,0.9,2.6,1.4,4.5,1.4
					c1.5,0,2.8-0.3,4-0.8c1.1-0.5,2-1.3,2.6-2.2c0.6-0.9,0.9-1.9,0.9-2.9c0-0.8-0.2-1.6-0.6-2.2c-0.4-0.6-0.9-1-1.4-1.2
					c-0.2,0-0.6-0.1-2.1-0.1H195.5z M196.7,251.5c-1.5,0-2.8-0.6-3.8-1.8c-1-1.2-1.5-2.8-1.5-4.8c0-1.7,0.5-3.1,1.4-4.1
					c0.9-1,2.2-1.5,3.7-1.5c1.5,0,2.8,0.6,3.8,1.8c1,1.2,1.5,2.7,1.5,4.7c0,1.8-0.5,3.2-1.4,4.2C199.5,251,198.3,251.5,196.7,251.5z
					 M196.5,240.3c-1.2,0-2.2,0.4-3,1.2c-0.7,0.8-1.1,1.9-1.1,3.4c0,1.8,0.4,3.2,1.3,4.2c0.8,1,1.8,1.4,3.1,1.4c1.2,0,2.2-0.4,3-1.2
					c0.8-0.8,1.1-2,1.1-3.5c0-1.7-0.4-3-1.3-4C198.8,240.8,197.8,240.3,196.5,240.3z"/>
			</g>
			<g>
				<path class="st21" d="M214.1,248.8c0.1,2.8,0.8,5,2.2,6.4c1.4,1.5,3.2,2.2,5.4,2.2c1,0,2-0.2,3-0.5c1-0.3,2-0.8,2.9-1.5l0.4,0.3
					l-0.7,1.8c-1.2,0.7-2.4,1.2-3.7,1.5c-1.3,0.3-2.6,0.5-3.9,0.5c-2.9,0-5.3-0.9-7-2.8c-1.8-1.8-2.7-4.3-2.7-7.5
					c0-2.4,0.5-4.5,1.5-6.3c0.7-1.2,1.9-2.2,3.7-3.2c1.8-1,3.5-1.5,5.2-1.5c2.5,0,4.5,0.7,6,2.2c1.5,1.5,2.2,3.6,2.2,6.3l0,1.3
					c-0.9,0.2-1.8,0.4-2.7,0.5c-1.5,0.1-3.7,0.2-6.4,0.2H214.1z M214.1,247.1c2.2,0.1,4.7,0.2,7.3,0.2c1.1,0,2.1,0,3.1-0.2v-1.2
					c0-1.3-0.3-2.5-0.8-3.6c-0.3-0.7-0.9-1.3-1.7-1.8c-0.8-0.5-1.7-0.7-2.7-0.7c-1.6,0-2.9,0.6-3.8,1.8
					C214.7,242.8,214.2,244.7,214.1,247.1z"/>
				<path class="st13" d="M219.7,260.1c-3,0-5.5-1-7.4-2.9c-1.9-1.9-2.8-4.6-2.8-7.8c0-2.5,0.5-4.7,1.6-6.5c0.7-1.2,2-2.4,3.8-3.4
					c1.8-1,3.7-1.5,5.4-1.5c2.7,0,4.8,0.8,6.4,2.4c1.6,1.6,2.4,3.8,2.4,6.6l-0.1,1.7l-0.4,0.1c-1,0.2-1.9,0.4-2.8,0.5
					c-1.5,0.1-3.7,0.2-6.4,0.2h-4.8c0.1,2.4,0.8,4.3,2,5.6c1.3,1.4,2.9,2,5,2c0.9,0,1.9-0.2,2.8-0.5c0.9-0.3,1.9-0.8,2.8-1.4
					l0.3-0.2l0.9,0.8l-0.9,2.3l-0.2,0.1c-1.2,0.7-2.5,1.2-3.8,1.6C222.4,259.9,221.1,260.1,219.7,260.1z M220.3,238.9
					c-1.6,0-3.2,0.5-4.9,1.4c-1.7,0.9-2.9,2-3.5,3c-1,1.7-1.4,3.7-1.4,6c0,3,0.9,5.4,2.5,7.1c1.7,1.7,3.9,2.6,6.7,2.6
					c1.3,0,2.5-0.2,3.8-0.5c1.2-0.3,2.3-0.8,3.4-1.4l0.4-1c-0.8,0.5-1.6,0.9-2.4,1.1c-1,0.3-2.1,0.5-3.1,0.5c-2.4,0-4.3-0.8-5.8-2.3
					c-1.5-1.5-2.2-3.8-2.3-6.8l0-0.5h5.9c2.7,0,4.8-0.1,6.3-0.2c0.7-0.1,1.5-0.2,2.3-0.4l0-0.9c0-2.5-0.7-4.5-2.1-5.9
					C224.6,239.6,222.7,238.9,220.3,238.9z M221.5,247.8c-2.7,0-5.2-0.1-7.4-0.2l-0.5,0l0-0.5c0-2.6,0.6-4.5,1.6-5.8
					c1.1-1.3,2.5-1.9,4.2-1.9c1.1,0,2.1,0.3,3,0.8c0.9,0.5,1.5,1.2,1.9,2c0.5,1.2,0.8,2.5,0.8,3.8v1.7l-0.5,0
					C223.6,247.7,222.6,247.8,221.5,247.8z M214.6,246.7c2.1,0.1,4.4,0.1,6.8,0.1c0.9,0,1.8,0,2.6-0.1v-0.7c0-1.2-0.2-2.3-0.7-3.4
					c-0.3-0.6-0.8-1.1-1.5-1.5c-0.7-0.4-1.5-0.6-2.5-0.6c-1.5,0-2.6,0.5-3.5,1.6C215.2,243,214.7,244.6,214.6,246.7z"/>
			</g>
			<g>
				<path class="st21" d="M108,271c-0.4,1.5-0.6,3.5-0.6,5.9h-1.5v-1.7c0-1.1-0.2-1.9-0.5-2.3c-0.3-0.4-1.1-0.8-2.4-1.3
					s-2.6-0.7-4-0.7c-2.3,0-4.1,0.6-5.4,1.7c-1.3,1.2-2,2.6-2,4.5c0,1.1,0.3,2.1,0.8,2.9s1.3,1.4,2.2,1.8c0.9,0.4,2.8,0.7,5.8,1
					c3,0.3,4.9,0.7,6,1.1c1,0.5,1.9,1.2,2.5,2.3s0.9,2.3,0.9,3.7c0,2.9-1.2,5.4-3.6,7.4s-5.6,3.1-9.6,3.1c-1.4,0-2.8-0.1-4.2-0.4
					s-2.8-0.7-4.2-1.2c0.3-1.7,0.4-3.9,0.4-6.6h1.5v1.1c0,1.4,0.1,2.2,0.2,2.6c0.1,0.3,0.5,0.7,1,1.1c0.8,0.6,1.7,1,2.8,1.3
					c1.1,0.3,2.3,0.4,3.5,0.4c2.7,0,4.8-0.6,6.3-1.9c1.5-1.3,2.2-2.9,2.2-4.9c0-1.1-0.3-2.1-0.8-2.9s-1.2-1.4-2.1-1.8
					s-2.6-0.7-5-0.9c-3.2-0.3-5.4-0.6-6.6-1.2s-2.1-1.3-2.7-2.4c-0.7-1.1-1-2.5-1-4.1c0-2.8,1-5.1,3-6.9c2-1.8,4.8-2.7,8.4-2.7
					c1.4,0,2.9,0.2,4.3,0.5C105.1,269.9,106.6,270.4,108,271z"/>
				<path class="st13" d="M96.6,301.1c-1.4,0-2.8-0.1-4.3-0.4s-2.9-0.7-4.3-1.3l-0.4-0.1l0.1-0.4c0.3-1.7,0.4-3.9,0.4-6.5l0-0.5h2.5
					v1.6c0,1.8,0.1,2.3,0.2,2.4c0.1,0.2,0.3,0.5,0.8,0.8c0.7,0.5,1.6,0.9,2.7,1.2c1,0.3,2.2,0.4,3.4,0.4c2.6,0,4.6-0.6,5.9-1.8
					c1.4-1.2,2-2.7,2-4.5c0-1-0.2-1.9-0.7-2.6c-0.5-0.7-1.1-1.2-1.9-1.6c-0.8-0.4-2.5-0.6-4.8-0.8c-3.3-0.3-5.5-0.7-6.8-1.2
					c-1.3-0.6-2.2-1.4-3-2.6c-0.7-1.2-1.1-2.7-1.1-4.4c0-2.9,1.1-5.4,3.2-7.2c2.1-1.9,5-2.8,8.7-2.8c1.5,0,2.9,0.2,4.4,0.5
					c1.5,0.3,3,0.8,4.4,1.4l0.4,0.2l-0.1,0.4c-0.4,1.4-0.6,3.4-0.6,5.8l0,0.5h-2.5v-2.2c0-1.3-0.2-1.8-0.4-2
					c-0.1-0.2-0.6-0.6-2.1-1.1c-1.2-0.4-2.5-0.6-3.8-0.6c-2.2,0-3.9,0.5-5.1,1.6c-1.2,1.1-1.8,2.4-1.8,4.1c0,1,0.2,1.9,0.7,2.7
					c0.5,0.7,1.1,1.3,1.9,1.6c0.9,0.3,2.8,0.7,5.7,0.9c3,0.3,5,0.7,6.1,1.2c1.1,0.5,2,1.3,2.7,2.5c0.7,1.1,1,2.5,1,4
					c0,3-1.3,5.6-3.8,7.8C104.1,300,100.8,301.1,96.6,301.1z M88.8,298.6c1.3,0.5,2.5,0.8,3.8,1.1c1.4,0.3,2.7,0.4,4.1,0.4
					c3.9,0,7-1,9.3-3c2.3-2,3.4-4.3,3.4-7.1c0-1.3-0.3-2.5-0.9-3.5c-0.6-1-1.3-1.7-2.3-2.1c-1-0.4-2.9-0.8-5.8-1.1
					c-3-0.3-5-0.6-5.9-1c-1-0.4-1.8-1.1-2.4-2c-0.6-0.9-0.9-2-0.9-3.2c0-2,0.7-3.6,2.1-4.8c1.4-1.2,3.3-1.9,5.7-1.9
					c1.5,0,2.9,0.2,4.2,0.7c1.4,0.5,2.2,1,2.6,1.4c0.4,0.5,0.6,1.3,0.6,2.6v1.2h0.5c0-2.1,0.2-3.8,0.5-5.1c-1.3-0.5-2.6-0.9-3.8-1.2
					c-1.4-0.3-2.8-0.5-4.2-0.5c-3.4,0-6.1,0.9-8,2.5c-1.9,1.7-2.9,3.8-2.9,6.5c0,1.5,0.3,2.9,0.9,3.9c0.6,1,1.4,1.8,2.5,2.2
					c1.1,0.5,3.3,0.9,6.4,1.1c2.5,0.2,4.2,0.5,5.2,0.9c1,0.4,1.8,1.1,2.3,2c0.5,0.9,0.8,1.9,0.8,3.2c0,2.1-0.8,3.9-2.4,5.2
					c-1.6,1.3-3.8,2-6.6,2c-1.3,0-2.5-0.2-3.7-0.5c-1.1-0.3-2.1-0.8-3-1.4c-0.6-0.4-1-0.8-1.2-1.3c-0.1-0.3-0.3-0.8-0.3-2.8v-0.6
					h-0.5C89.1,295.1,89,297,88.8,298.6z"/>
			</g>
			<g>
				<path class="st21" d="M110.9,289.8c0-2,0.5-3.8,1.4-5.4c0.9-1.6,2.2-2.8,3.9-3.7s3.5-1.4,5.6-1.4c3.1,0,5.5,0.9,7.3,2.7
					c1.8,1.8,2.8,4.2,2.8,7.2c0,3.6-1.2,6.4-3.6,8.5c-2.1,1.9-4.7,2.8-7.7,2.8c-2.9,0-5.2-1-7-2.9
					C111.8,295.8,110.9,293.1,110.9,289.8z M115,288.3c0,3,0.6,5.5,1.8,7.6c1.2,2.1,3,3.2,5.2,3.2c1.7,0,3.1-0.7,4.2-2
					c1.1-1.3,1.6-3.3,1.6-6c0-2.2-0.3-4-0.9-5.6c-0.6-1.6-1.5-2.7-2.5-3.5c-1-0.7-2.2-1.1-3.5-1.1c-1.1,0-2.2,0.3-3.1,0.9
					c-0.9,0.6-1.6,1.3-2,2.3C115.3,285.4,115,286.8,115,288.3z"/>
				<path class="st13" d="M120.6,301.1c-3,0-5.5-1-7.4-3c-1.9-2-2.8-4.8-2.8-8.2c0-2.1,0.5-3.9,1.4-5.6c1-1.7,2.3-3,4.1-3.9
					c1.7-0.9,3.7-1.4,5.9-1.4c3.2,0,5.8,1,7.7,2.9c1.9,1.9,2.9,4.4,2.9,7.6c0,3.7-1.3,6.7-3.8,8.8
					C126.4,300.1,123.7,301.1,120.6,301.1z M121.8,279.9c-2,0-3.8,0.4-5.4,1.3c-1.6,0.9-2.8,2.1-3.7,3.6c-0.9,1.5-1.3,3.2-1.3,5.1
					c0,3.2,0.9,5.7,2.6,7.5c1.7,1.8,3.9,2.7,6.6,2.7c2.8,0,5.3-0.9,7.3-2.7c2.3-2,3.4-4.7,3.4-8.1c0-2.9-0.9-5.2-2.6-6.9
					C127,280.7,124.7,279.9,121.8,279.9z M122,299.6c-2.5,0-4.4-1.1-5.7-3.4c-1.2-2.2-1.9-4.8-1.9-7.8c0-1.6,0.3-3.1,0.9-4.5
					c0.5-1,1.2-1.9,2.2-2.5c1-0.6,2.1-0.9,3.3-0.9c1.4,0,2.6,0.4,3.7,1.2c1.1,0.8,2,2,2.7,3.7c0.7,1.6,1,3.6,1,5.8
					c0,2.8-0.6,4.9-1.7,6.3C125.4,298.8,123.9,299.6,122,299.6z M120.9,281.4c-1,0-2,0.3-2.8,0.8c-0.8,0.5-1.4,1.2-1.8,2.1
					c-0.6,1.2-0.8,2.6-0.8,4.1c0,2.9,0.6,5.3,1.8,7.3c1.1,2,2.7,2.9,4.8,2.9c1.6,0,2.8-0.6,3.8-1.8c1-1.2,1.5-3.1,1.5-5.7
					c0-2.1-0.3-3.9-0.9-5.4c-0.6-1.5-1.4-2.6-2.3-3.2C123.1,281.7,122.1,281.4,120.9,281.4z"/>
			</g>
			<g>
				<path class="st21" d="M149.7,297.1l0.6,0.5l-0.9,1.4c-1,0.5-2,0.9-3,1.2s-2.1,0.4-3.2,0.4c-2.1,0-3.9-0.4-5.4-1.2
					s-2.6-2-3.4-3.5c-0.8-1.5-1.2-3.3-1.2-5.4c0-1.8,0.3-3.5,0.9-4.8c0.6-1.4,1.5-2.4,2.6-3.2s2.5-1.5,4.2-2.3
					c1.2-0.5,2.5-0.8,3.9-0.8c1.1,0,2.1,0.1,2.8,0.3s1.7,0.5,2.6,1c-0.4,1.9-0.6,3.8-0.6,5.7h-1.4v-1.1c0-0.9-0.1-1.6-0.4-1.9
					c-0.3-0.4-0.9-0.8-1.8-1.1c-0.9-0.4-2-0.6-3.1-0.6c-1.9,0-3.4,0.6-4.5,1.8c-1,1.2-1.6,2.9-1.6,5.3c0,3,0.8,5.4,2.3,7.3
					c1.4,1.6,3.2,2.5,5.4,2.5c0.9,0,1.7-0.1,2.5-0.3C148.1,297.8,148.9,297.5,149.7,297.1z"/>
				<path class="st13" d="M143.2,301.1c-2.2,0-4.1-0.4-5.6-1.3c-1.5-0.8-2.8-2.1-3.6-3.7c-0.8-1.6-1.3-3.5-1.3-5.6
					c0-1.9,0.3-3.6,1-5c0.7-1.4,1.6-2.6,2.8-3.4c1.1-0.8,2.6-1.6,4.2-2.3c1.2-0.6,2.6-0.8,4.1-0.8c1.1,0,2.1,0.1,3,0.3
					c0.8,0.2,1.7,0.5,2.7,1l0.3,0.2l-0.1,0.4c-0.4,1.9-0.5,3.7-0.6,5.6l0,0.5h-2.3v-1.6c0-1-0.2-1.5-0.3-1.7
					c-0.1-0.2-0.5-0.5-1.6-0.9c-0.9-0.3-1.9-0.5-2.9-0.5c-1.8,0-3.1,0.5-4.1,1.6c-1,1.1-1.4,2.7-1.4,5c0,2.9,0.7,5.2,2.2,6.9
					c1.3,1.5,2.9,2.3,5,2.3c0.8,0,1.6-0.1,2.4-0.3c0.8-0.2,1.6-0.5,2.4-0.9l0.3-0.2l1.2,1l-1.2,1.8l-0.1,0.1c-1,0.5-2.1,1-3.1,1.2
					C145.4,300.9,144.3,301.1,143.2,301.1z M144.9,279.9c-1.4,0-2.6,0.3-3.7,0.8c-1.6,0.7-3,1.5-4.1,2.2c-1,0.7-1.8,1.7-2.4,3
					c-0.6,1.3-0.9,2.8-0.9,4.6c0,2,0.4,3.7,1.1,5.2c0.8,1.4,1.8,2.5,3.2,3.3c1.4,0.8,3.1,1.1,5.1,1.1c1,0,2-0.1,3-0.4
					c0.9-0.2,1.9-0.6,2.8-1.1l0.6-0.9l0,0c-0.7,0.4-1.5,0.6-2.3,0.8c-0.9,0.2-1.8,0.3-2.7,0.3c-2.3,0-4.3-0.9-5.8-2.6
					c-1.6-1.9-2.4-4.4-2.4-7.6c0-2.5,0.6-4.4,1.7-5.6c1.1-1.3,2.8-1.9,4.8-1.9c1.2,0,2.3,0.2,3.3,0.6c1,0.4,1.7,0.8,2,1.3
					c0.3,0.5,0.5,1.2,0.5,2.2v0.6h0.4c0-1.6,0.2-3.3,0.5-4.9c-0.8-0.4-1.5-0.6-2.1-0.8C146.8,280,145.9,279.9,144.9,279.9z"/>
			</g>
			<g>
				<path class="st21" d="M158.9,279.3l0.5,0.3c-0.1,1.1-0.2,2.3-0.2,3.5c-0.1,4.2-0.2,7.3-0.2,9.3c0,1.9,0.1,3.5,0.2,4.8
					c0.1,0.5,0.2,0.9,0.4,1.1c0.2,0.2,0.7,0.4,1.5,0.5l1.5,0.2v1.2c-2.1-0.1-4-0.2-5.7-0.2c-1.7,0-3.4,0-5.1,0.2v-1.2l1.8-0.2
					c0.7-0.1,1.2-0.2,1.3-0.4c0.2-0.2,0.3-0.9,0.3-2.1c0.1-1.8,0.1-4.3,0.1-7.5c0-2.2,0-3.9-0.1-5.1c0-0.4-0.2-0.8-0.4-0.9
					s-0.7-0.3-1.5-0.3h-1.6v-1.2c1.7-0.3,3-0.5,3.9-0.7S157.6,279.8,158.9,279.3z M157.1,269.8c0.7,0,1.2,0.2,1.7,0.7
					c0.5,0.5,0.7,1.1,0.7,1.7c0,0.7-0.2,1.2-0.7,1.7s-1,0.7-1.7,0.7c-0.7,0-1.2-0.2-1.7-0.7s-0.7-1-0.7-1.7c0-0.7,0.2-1.2,0.7-1.7
					C155.9,270,156.5,269.8,157.1,269.8z"/>
				<path class="st13" d="M151.3,300.7v-2.2l2.3-0.2c0.8-0.1,1-0.2,1-0.2c0,0,0.1-0.3,0.2-1.8c0.1-1.8,0.1-4.3,0.1-7.5
					c0-2.2,0-3.9-0.1-5.1c0-0.3-0.1-0.5-0.2-0.6c0,0-0.2-0.2-1.2-0.2h-2.1v-2.2l0.4-0.1c1.7-0.3,3-0.5,3.8-0.7
					c0.8-0.2,1.9-0.6,3.1-1.1l0.2-0.1l1,0.6l0,0.3c-0.1,1.1-0.2,2.2-0.2,3.5c-0.1,4.1-0.2,7.3-0.2,9.2c0,1.8,0.1,3.4,0.2,4.7
					c0.1,0.5,0.2,0.7,0.3,0.8c0,0,0.2,0.2,1.3,0.3l1.9,0.3v2.2l-0.5,0c-2.1-0.1-4-0.1-5.7-0.1c-1.7,0-3.4,0.1-5.1,0.1L151.3,300.7z
					 M156.9,299.5c1.6,0,3.3,0,5.2,0.1v-0.3l-1-0.1c-1-0.1-1.5-0.3-1.8-0.6c-0.3-0.3-0.5-0.7-0.6-1.4c-0.1-1.3-0.2-3-0.2-4.8
					c0-2,0.1-5.1,0.2-9.3c0-1.2,0.1-2.3,0.2-3.3l0,0c-1.2,0.5-2.2,0.8-3,1c-0.8,0.2-1.9,0.4-3.5,0.6v0.3h1.1c0.9,0,1.5,0.1,1.8,0.4
					c0.3,0.3,0.5,0.7,0.6,1.3c0.1,1.2,0.1,3,0.1,5.2c0,3.2,0,5.7-0.1,7.6c-0.1,1.7-0.2,2.1-0.4,2.4c-0.3,0.3-0.8,0.5-1.7,0.6
					l-1.4,0.1v0.3C153.9,299.5,155.4,299.5,156.9,299.5z M157.1,275.1c-0.8,0-1.5-0.3-2.1-0.9s-0.9-1.3-0.9-2.1
					c0-0.8,0.3-1.5,0.9-2.1c0.6-0.6,1.3-0.9,2.1-0.9c0.8,0,1.5,0.3,2.1,0.9c0.6,0.6,0.9,1.3,0.9,2.1c0,0.8-0.3,1.5-0.9,2.1
					S157.9,275.1,157.1,275.1z M157.1,270.3c-0.5,0-1,0.2-1.4,0.6c-0.4,0.4-0.6,0.8-0.6,1.4c0,0.5,0.2,1,0.6,1.4
					c0.7,0.7,1.9,0.8,2.7,0c0.4-0.4,0.6-0.8,0.6-1.4c0-0.5-0.2-1-0.6-1.4C158.1,270.5,157.7,270.3,157.1,270.3z"/>
			</g>
			<g>
				<path class="st21" d="M167.8,289.8c0.1,2.8,0.8,5,2.2,6.4s3.2,2.2,5.4,2.2c1,0,2-0.2,3-0.5c1-0.3,2-0.8,2.9-1.5l0.4,0.3
					l-0.7,1.8c-1.2,0.7-2.4,1.2-3.7,1.5c-1.3,0.3-2.6,0.5-3.9,0.5c-2.9,0-5.3-0.9-7-2.8c-1.8-1.8-2.7-4.3-2.7-7.5
					c0-2.4,0.5-4.5,1.5-6.3c0.7-1.2,1.9-2.2,3.7-3.2c1.8-1,3.5-1.5,5.2-1.5c2.5,0,4.5,0.7,6,2.2c1.5,1.5,2.2,3.6,2.2,6.3l0,1.3
					c-0.9,0.2-1.8,0.4-2.7,0.5c-1.5,0.1-3.7,0.2-6.4,0.2H167.8z M167.8,288.1c2.2,0.1,4.7,0.2,7.3,0.2c1.1,0,2.1,0,3.1-0.2v-1.2
					c0-1.3-0.3-2.5-0.8-3.6c-0.3-0.7-0.9-1.3-1.7-1.8c-0.8-0.5-1.7-0.7-2.7-0.7c-1.6,0-2.9,0.6-3.8,1.8
					C168.3,283.8,167.8,285.7,167.8,288.1z"/>
				<path class="st13" d="M173.4,301.1c-3,0-5.5-1-7.4-2.9c-1.9-1.9-2.8-4.6-2.8-7.8c0-2.5,0.5-4.7,1.6-6.5c0.7-1.2,2-2.4,3.8-3.4
					c1.8-1,3.7-1.5,5.4-1.5c2.7,0,4.8,0.8,6.4,2.4c1.6,1.6,2.4,3.8,2.4,6.6l-0.1,1.7l-0.4,0.1c-1,0.2-1.9,0.4-2.8,0.5
					c-1.5,0.1-3.7,0.2-6.4,0.2h-4.8c0.1,2.4,0.8,4.3,2,5.6c1.3,1.4,2.9,2,5,2c0.9,0,1.9-0.2,2.8-0.5c0.9-0.3,1.9-0.8,2.8-1.4
					l0.3-0.2l0.9,0.8l-0.9,2.3l-0.2,0.1c-1.2,0.7-2.5,1.2-3.8,1.6C176.1,300.9,174.7,301.1,173.4,301.1z M174,279.9
					c-1.6,0-3.2,0.5-4.9,1.4c-1.7,0.9-2.9,2-3.5,3c-1,1.7-1.4,3.7-1.4,6c0,3,0.9,5.4,2.5,7.1c1.7,1.7,3.9,2.6,6.7,2.6
					c1.3,0,2.5-0.2,3.8-0.5c1.2-0.3,2.3-0.8,3.4-1.4l0.4-1c-0.8,0.5-1.6,0.9-2.4,1.1c-1,0.3-2.1,0.5-3.1,0.5c-2.4,0-4.3-0.8-5.8-2.3
					c-1.5-1.5-2.2-3.8-2.3-6.8l0-0.5h5.9c2.7,0,4.8-0.1,6.3-0.2c0.7-0.1,1.5-0.2,2.3-0.4l0-0.9c0-2.5-0.7-4.5-2.1-5.9
					C178.3,280.6,176.4,279.9,174,279.9z M175.1,288.8c-2.7,0-5.2-0.1-7.4-0.2l-0.5,0l0-0.5c0-2.6,0.6-4.5,1.6-5.8
					c1.1-1.3,2.5-1.9,4.2-1.9c1.1,0,2.1,0.3,3,0.8c0.9,0.5,1.5,1.2,1.9,2c0.5,1.2,0.8,2.5,0.8,3.8v1.7l-0.5,0
					C177.3,288.7,176.2,288.8,175.1,288.8z M168.3,287.7c2.1,0.1,4.4,0.1,6.8,0.1c0.9,0,1.8,0,2.6-0.1v-0.7c0-1.2-0.2-2.3-0.7-3.4
					c-0.3-0.6-0.8-1.1-1.5-1.5c-0.7-0.4-1.5-0.6-2.5-0.6c-1.5,0-2.6,0.5-3.5,1.6C168.8,284,168.4,285.6,168.3,287.7z"/>
			</g>
			<g>
				<path class="st21" d="M190.4,283.3v8.4c0,2.2,0.1,3.6,0.2,4.2s0.4,1.1,0.9,1.4c0.4,0.3,1,0.5,1.7,0.5c0.4,0,0.8-0.1,1.2-0.2
					c0.4-0.2,0.8-0.4,1.2-0.7l0.6,0.7l-2.1,2.5c-0.5,0.2-0.9,0.3-1.3,0.4s-0.8,0.1-1.3,0.1c-1.1,0-2-0.2-2.7-0.6
					c-0.7-0.4-1.3-0.9-1.6-1.5c-0.3-0.6-0.5-1.5-0.5-2.8l0.1-4.1v-8.2c-1.1,0-2.2,0.1-3.4,0.2v-0.9c1.2-0.5,2.4-1,3.4-1.5
					c0-2-0.1-4.3-0.2-6.7c1.7-0.7,2.9-1.3,3.6-1.7l0.6,0.4c-0.1,1.1-0.2,3.8-0.4,7.9c1.7,0,3.2,0,4.3-0.1l1.7-0.1l-0.2,2.2l-0.9,0
					l-4.1,0H190.4z"/>
				<path class="st13" d="M191.5,301.1c-1.1,0-2.1-0.2-2.9-0.6c-0.8-0.4-1.4-1-1.8-1.7c-0.4-0.7-0.6-1.7-0.6-3l0.1-4.2V284
					c-0.9,0-1.9,0.1-2.9,0.1l-0.5,0v-1.8l0.3-0.1c1.1-0.4,2.1-0.9,3.1-1.3c0-2-0.1-4.1-0.2-6.3l0-0.3l0.3-0.1
					c1.6-0.7,2.8-1.2,3.5-1.7l0.3-0.2l1,0.8l0,0.3c-0.1,1.1-0.2,3.5-0.3,7.4c1.5,0,2.8,0,3.7-0.1l2.3-0.1l-0.3,3.3l-1.3,0l-4.4,0
					v7.9c0,2.7,0.1,3.7,0.2,4.1c0.1,0.5,0.3,0.9,0.7,1.2c0.6,0.4,1.5,0.6,2.4,0.2c0.3-0.1,0.7-0.4,1-0.7l0.4-0.3l1.2,1.5l-2.5,2.9
					l-0.1,0c-0.5,0.2-1,0.3-1.4,0.4C192.4,301,191.9,301.1,191.5,301.1z M186.8,283h0.5v8.7l-0.1,4.2c0,1.1,0.1,2,0.4,2.5
					c0.3,0.5,0.7,0.9,1.4,1.3c0.9,0.5,2.2,0.7,3.6,0.4c0.4-0.1,0.8-0.2,1.1-0.3l1.7-2l0-0.1c-0.3,0.2-0.6,0.4-0.9,0.5
					c-0.5,0.2-0.9,0.3-1.4,0.3c-0.8,0-1.5-0.2-2-0.6c-0.5-0.4-0.9-1-1-1.7c-0.2-0.7-0.2-2.1-0.2-4.3v-8.9l5.8,0l0.1-1.2l-1.1,0.1
					c-1.1,0-2.6,0.1-4.3,0.1h-0.5l0-0.5c0.1-3.8,0.2-6.4,0.3-7.7l-0.1-0.1c-0.7,0.4-1.7,0.9-3.1,1.4c0.1,2.2,0.1,4.4,0.2,6.3l0,0.3
					l-0.3,0.1c-1,0.5-2,0.9-3.1,1.4v0C184.8,283,185.8,283,186.8,283z"/>
			</g>
			<g>
				<path class="st21" d="M196.8,311.7l1-3.4h0.5c0.4,0.5,0.8,0.8,1.2,1c0.4,0.2,0.8,0.3,1.2,0.3c0.9,0,1.7-0.4,2.4-1.3
					s1.9-3.3,3.4-7.2c-0.6-1.7-1.9-4.8-3.8-9.5l-2-4.9L199,283c-0.5-1.3-1.3-2-2.3-2h-0.9v-1.2c1.5,0.1,2.8,0.2,4,0.2
					c0.9,0,3,0,6.2-0.2v1.2h-1.6c-0.5,0-0.9,0.1-1.2,0.3c-0.3,0.2-0.4,0.4-0.4,0.7c0,0.2,0.1,0.7,0.4,1.5c1.4,4,3.2,8.2,5.1,12.8
					c1.9-4.2,3.5-8.2,4.9-12c0.4-1.1,0.6-1.8,0.6-2.1c0-0.5-0.5-0.8-1.5-0.9l-1.6-0.2v-1.2c1.7,0.1,3.2,0.2,4.5,0.2
					c1.2,0,2.5,0,3.8-0.2v1.2h-0.8c-0.3,0-0.7,0.1-1,0.3s-0.6,0.5-0.8,0.8c-0.5,0.7-1.8,3.5-4,8.3c-0.6,1.3-2.1,4.9-4.6,10.8
					c-2.2,5-3.4,7.7-3.7,8.2c-0.6,0.9-1.3,1.7-2.1,2.2c-0.9,0.5-1.8,0.8-2.8,0.8c-0.4,0-0.8-0.1-1.3-0.2S197.2,311.9,196.8,311.7z"
					/>
				<path class="st13" d="M199.4,312.9c-0.5,0-0.9-0.1-1.4-0.2c-0.5-0.1-0.9-0.3-1.4-0.6l-0.4-0.2l1.2-4.1h1.1l0.1,0.2
					c0.4,0.4,0.7,0.7,1,0.9c0.3,0.2,0.6,0.3,0.9,0.3c0.7,0,1.4-0.4,2-1.1c0.7-0.8,1.8-3.1,3.2-6.9c-0.6-1.7-1.9-4.7-3.7-9.3l-2-4.9
					l-1.6-3.7c-0.6-1.7-1.5-1.7-1.8-1.7h-1.4v-2.3l0.5,0c1.5,0.1,2.8,0.1,3.9,0.1c0.9,0,3-0.1,6.2-0.2l0.5,0v2.3h-2.1
					c-0.6,0-0.8,0.1-0.9,0.2c-0.2,0.1-0.2,0.2-0.2,0.3c0,0,0,0.3,0.4,1.3c1.3,3.7,2.9,7.6,4.7,11.7c1.7-3.8,3.2-7.5,4.5-11
					c0.6-1.5,0.6-1.8,0.6-1.9c0-0.1-0.3-0.3-1-0.4l-2-0.3v-2.2l0.5,0c1.7,0.1,3.2,0.1,4.5,0.1c1.2,0,2.5,0,3.7-0.1l0.5,0v2.3h-1.3
					c-0.2,0-0.5,0.1-0.8,0.2c-0.3,0.2-0.5,0.4-0.7,0.6c-0.4,0.7-1.8,3.5-3.9,8.3c-0.6,1.3-2.1,4.9-4.6,10.8c-2.2,5-3.4,7.7-3.7,8.2
					c-0.6,1-1.4,1.8-2.3,2.4C201.5,312.6,200.5,312.9,199.4,312.9z M197.4,311.4c0.3,0.1,0.6,0.3,0.9,0.3c1.4,0.4,2.6,0.1,3.7-0.5
					c0.8-0.5,1.5-1.1,2-2c0.2-0.3,1-2,3.7-8.1c2.5-5.9,4-9.5,4.6-10.8c2.2-4.9,3.5-7.7,4-8.4c0.3-0.4,0.6-0.7,1-1
					c0.4-0.2,0.8-0.4,1.3-0.4h0.3v-0.2c-2.3,0.2-4.5,0.1-7.3,0v0.3l1.2,0.2c1.3,0.2,1.9,0.7,1.9,1.4c0,0.2-0.1,0.7-0.7,2.2
					c-1.4,3.9-3.1,7.9-5,12.1l-0.5,1l-0.4-1c-2-4.5-3.7-8.8-5.1-12.8c-0.4-1.1-0.4-1.5-0.4-1.7c0-0.3,0.1-0.7,0.6-1.1
					c0.3-0.3,0.8-0.4,1.5-0.4h1.1v-0.2c-2.9,0.1-4.9,0.1-5.7,0.1c-1,0-2.2,0-3.5-0.1v0.2h0.4c1.2,0,2.1,0.8,2.7,2.3l1.6,3.7l2,4.9
					c1.9,4.8,3.2,7.9,3.8,9.5l0.1,0.2l-0.1,0.2c-1.6,4-2.7,6.4-3.5,7.3c-0.8,1-1.8,1.5-2.8,1.5c-0.5,0-1-0.1-1.4-0.4
					c-0.4-0.2-0.7-0.5-1.1-0.9L197.4,311.4z"/>
			</g>
		</g>
		<g id="bottom_point_2_">
			<polygon class="st3" points="168.8,337 149,338.9 148.8,339 148.5,338.9 129.6,337 148.8,432.8 			"/>
			<polygon class="st5" points="168.2,337.5 148.9,339 148.8,339 148.8,430.1 148.8,430.3 			"/>
			<path d="M168.2,337.5l-19.4,92.8l-18.6-92.8l18.4,1.5l0.2,0l0.2,0L168.2,337.5 M170.8,335.3l-22,1.7l-21-1.7l21,105L170.8,335.3
				L170.8,335.3z"/>
		</g>
		<g id="inner_circle_2_">
			<g>
				<path d="M148.8,339.8c-21.2,0-41.4-6.7-58.4-19.4c-16.1-12-28.3-29.1-34.4-48.1H0v-3h58.2l0.3,1.1
					c12.3,39.7,48.6,66.4,90.3,66.4s77.9-26.7,90.3-66.4l0.3-1.1h58.2v3h-56c-6.2,19-18.3,36.1-34.4,48.1
					C190.2,333,170,339.8,148.8,339.8z"/>
			</g>
			<g>
				<path d="M297.5,215.3h-58.2l-0.3-1.1c-12.3-39.7-48.6-66.4-90.3-66.4s-77.9,26.7-90.3,66.4l-0.3,1.1H0v-3h56
					c6.2-19,18.3-36.1,34.4-48.1c16.9-12.7,37.1-19.4,58.4-19.4s41.4,6.7,58.4,19.4c16.1,12,28.3,29.1,34.4,48.1h56V215.3z"/>
			</g>
		</g>
	</g>
</g>
</svg>
