<?xml version="1.0" encoding="utf-8"?>
<!-- Generator: Adobe Illustrator 21.0.2, SVG Export Plug-In . SVG Version: 6.00 Build 0)  -->
<svg version="1.1" xmlns="http://www.w3.org/2000/svg" xmlns:xlink="http://www.w3.org/1999/xlink" x="0px" y="0px"
	 viewBox="0 0 133.3 173.3" style="enable-background:new 0 0 133.3 173.3;" xml:space="preserve">
<style type="text/css">
	.st0{fill:#981B1E;}
	.st1{fill:#CCCCCC;}
	.st2{fill:#FFFFFF;}
	.st3{fill:#BF1E2E;}
	.st4{fill:#475A84;}
	.st5{fill:#C1272D;}
</style>
<g id="Layer_2">
</g>
<g id="Layer_1">
	<g>
		<g id="red_circle_1_">
			<path class="st0" d="M66.3,150.6c-30.6,0-55.5-24.9-55.5-55.5c0-30.6,24.9-55.5,55.5-55.5s55.5,24.9,55.5,55.5
				C121.8,125.7,96.9,150.6,66.3,150.6z M66.3,43.1c-28.6,0-51.9,23.3-51.9,51.9c0,28.6,23.3,51.9,51.9,51.9s51.9-23.3,51.9-51.9
				C118.2,66.4,94.9,43.1,66.3,43.1z"/>
		</g>
		<g id="lighthouse_1_">
			<polyline class="st1" points="60.5,7.8 60.5,19.6 72,19.6 72,7.8 			"/>
			<path d="M71.6,7.8v2.3c-0.8-0.2-1.6-0.3-2.4-0.4V7.4h-0.8v2.1c-1.6-0.2-3.1-0.1-4.3,0V7.4h-0.8v2.2c-1.1,0.1-1.9,0.3-2.4,0.4V7.8
				h-0.8V20h12.2V7.8H71.6z M64.1,15.3c1.2-0.1,2.7-0.2,4.3,0V17h-4.3V15.3z M64.1,14.5v-1.7c1.2-0.1,2.7-0.2,4.3,0v1.7
				C66.8,14.4,65.3,14.4,64.1,14.5z M60.9,13.4c0.4-0.1,1.2-0.3,2.4-0.5v1.7c-1.1,0.1-1.9,0.3-2.4,0.4V13.4z M69.2,12.9
				c0.8,0.1,1.6,0.3,2.4,0.5v1.7c-0.8-0.2-1.6-0.3-2.4-0.4V12.9z M71.6,10.9v1.7c-0.8-0.2-1.6-0.3-2.4-0.4v-1.7
				C70,10.5,70.8,10.7,71.6,10.9z M68.4,10.3V12c-1.6-0.2-3.1-0.1-4.3,0v-1.7C65.3,10.2,66.8,10.2,68.4,10.3z M63.3,10.4v1.7
				c-1.1,0.1-1.9,0.3-2.4,0.4v-1.7C61.3,10.8,62.2,10.6,63.3,10.4z M60.9,19.2v-3.4c0.4-0.1,1.2-0.3,2.4-0.5v2.4h5.9v-2.4
				c0.8,0.1,1.6,0.3,2.4,0.5v3.4H60.9z"/>
			<polyline class="st2" points="56.3,58.9 58.4,22.4 74.2,22.4 76.3,58.6 			"/>
			<polygon points="56.7,58.9 55.9,58.8 58,22 74.5,22 76.6,58.5 75.9,58.6 73.8,22.8 58.7,22.8 			"/>
			<g id="Window_4_">
				<rect x="60.4" y="37.4" width="1.2" height="4.3"/>
			</g>
			<g id="Window_3_">
				<rect x="70.8" y="49.7" width="1.2" height="4.3"/>
			</g>
			<g>
				<path class="st3" d="M59.3,22.9c-1.1,0-2.1-0.7-2.5-1.8c-0.4-1.4,0.3-2.8,1.7-3.2c5-1.5,10.2-1.5,15.3,0
					c1.4,0.4,2.1,1.8,1.7,3.2c-0.4,1.4-1.8,2.1-3.2,1.7c-4.3-1.3-8.3-1.3-12.4,0C59.8,22.9,59.6,22.9,59.3,22.9z"/>
			</g>
			<g>
				<path d="M57.3,24.7c-0.7,0-1.4-0.5-1.5-1.2c-0.2-0.8,0.3-1.7,1.2-1.9c6.1-1.4,12.4-1.4,18.7,0c0.9,0.2,1.4,1,1.2,1.9
					c-0.2,0.9-1,1.4-1.9,1.2c-5.8-1.3-11.6-1.3-17.2,0C57.5,24.7,57.4,24.7,57.3,24.7z"/>
			</g>
			<path class="st3" d="M73.4,7.2C73,7.1,72.7,7,72.3,6.9c-1-1.8-2.7-3.6-5.3-3.9V2.5c0.5-0.2,0.9-0.7,0.9-1.2
				c0-0.7-0.7-1.3-1.6-1.3c-0.9,0-1.6,0.6-1.6,1.3c0,0.5,0.4,1,0.9,1.2V3c-2.7,0.2-4.3,2-5.5,3.9c-0.4,0.1-0.7,0.1-1.1,0.2
				c-0.4,0.1-0.7,0.5-0.6,1c0.1,0.4,0.4,0.6,0.8,0.6c0.1,0,0.1,0,0.2,0c4.4-1,8.9-1,13.5,0c0.4,0.1,0.8-0.2,0.9-0.6
				C74.1,7.7,73.8,7.2,73.4,7.2z"/>
		</g>
		<g id="white_circle_outside_2_">
			<path class="st2" d="M66.7,161.7C29.9,161.7,0,131.8,0,95.1s29.9-66.7,66.7-66.7s66.7,29.9,66.7,66.7S103.4,161.7,66.7,161.7z
				 M66.7,36.3c-32.4,0-58.8,26.4-58.8,58.8c0,32.4,26.4,58.8,58.8,58.8c32.4,0,58.8-26.4,58.8-58.8C125.4,62.7,99.1,36.3,66.7,36.3
				z"/>
		</g>
		<g>
			<g>
				<path class="st4" d="M28.9,41.3c0.1,0,0.3,0.2,0.7,0.5c0.2,0.1,0.3,0.3,0.4,0.5c-0.2,0.1-0.2,0.2-0.4,0.3
					c-0.5-0.1-1-0.2-1.4-0.1c-0.4,0.1-0.8,0.2-1.2,0.5c-0.4,0.3-0.7,0.8-0.7,1.3c0,0.7,0.2,1.4,0.8,2.1c0.3,0.4,0.6,0.7,0.8,0.8
					c0.3,0.2,0.6,0.3,0.9,0.4c0.2,0,0.5,0,0.7,0c0.3-0.1,0.6-0.2,0.9-0.4c0.3-0.2,0.5-0.5,0.7-0.9c0.2-0.4,0.2-0.8,0.3-1.3
					c0.1-0.1,0.2-0.2,0.4-0.3c0.1,0.1,0.1,0.2,0.2,0.3c0,0,0.1,0.2,0.2,0.5c0,0.1,0,0.1,0,0.1c0,0.1,0,0.1,0.1,0.2
					c-0.1,0.2-0.3,0.5-0.5,0.8c-0.3,0.3-0.6,0.6-1,0.9c-0.3,0.2-0.7,0.5-1,0.6c-0.3,0.2-0.6,0.3-0.9,0.3c-0.4,0.1-0.8,0.1-1.2,0
					c-0.3-0.1-0.6-0.2-0.9-0.3c-0.3-0.2-0.5-0.4-0.8-0.7c-0.6-0.7-0.8-1.5-0.7-2.4c0.2-0.9,0.7-1.7,1.6-2.4c0.4-0.3,0.7-0.5,1.1-0.7
					C28.3,41.6,28.6,41.4,28.9,41.3z"/>
				<path class="st4" d="M33,45.3c0,0,0.2-0.1,0.3-0.3c0.1-0.1,0.1-0.1,0.1-0.2c0-0.1,0-0.2-0.1-0.3c-0.1-0.1-0.1-0.2-0.2-0.3
					C33,44.2,33,44.1,32.9,44c-0.1-0.1-0.1-0.2-0.2-0.3c0,0,0,0,0-0.1c-0.1-0.1-0.1-0.1-0.1-0.2c0,0,0,0,0-0.1
					c-0.4-0.6-0.5-0.8-0.9-1.4c0,0,0-0.1-0.1-0.1c-0.3-0.5-0.5-0.8-0.6-0.9c-0.1-0.1-0.1-0.1-0.2-0.1c-0.1,0-0.3,0.1-0.5,0.2
					c0,0,0,0-0.1-0.1c0,0-0.1-0.1-0.1-0.1c0.1-0.1,0.2-0.2,0.3-0.3c0.1-0.1,0.1-0.1,0.2-0.2c0.1-0.1,0.3-0.3,0.5-0.6
					c0-0.1,0.1-0.1,0.1-0.1c0.1-0.1,0.2-0.1,0.3-0.1c0.6,0.9,0.9,1.4,1.5,2.3c0.1-0.4,0.3-0.6,0.5-0.9c0.2-0.2,0.4-0.4,0.6-0.5
					c0.2-0.1,0.4-0.2,0.7-0.2c0.2,0,0.4,0,0.5,0c0.2,0.1,0.3,0.2,0.4,0.3c0.1,0.1,0.2,0.3,0.4,0.6c0.1,0.1,0.1,0.2,0.1,0.3
					c0.1,0.2,0.2,0.3,0.3,0.6c0.2,0.3,0.3,0.5,0.4,0.8c0,0,0,0,0.1,0c0,0,0.1,0,0.3-0.1c0.1,0,0.2-0.1,0.2-0.1c0,0,0.1,0.1,0.1,0.1
					c0,0,0,0,0,0c0,0,0,0.1,0.1,0.1c0,0-0.1,0-0.1,0.1c0,0-0.1,0.1-0.3,0.1c-0.2,0.1-0.5,0.2-0.6,0.3c-0.1,0.1-0.2,0.2-0.4,0.3
					c-0.1,0.1-0.3,0.2-0.5,0.3c0,0-0.1,0-0.1,0c0,0,0-0.1-0.1-0.1c0,0,0,0,0,0c0,0,0-0.1,0-0.1c0-0.1,0.1-0.1,0.2-0.2
					s0.2-0.1,0.2-0.2c0,0,0-0.1,0-0.1c-0.1-0.2-0.2-0.4-0.3-0.6c-0.2-0.4-0.3-0.6-0.6-1c-0.2-0.3-0.3-0.5-0.4-0.6
					C34.5,41,34.4,41,34.2,41c-0.2,0-0.3,0.1-0.5,0.2c-0.2,0.1-0.3,0.3-0.5,0.5c-0.1,0.2-0.2,0.4-0.3,0.6c0.2,0.3,0.3,0.4,0.4,0.7
					c0.2,0.4,0.4,0.7,0.5,0.9c0.1,0.1,0.1,0.2,0.1,0.2c0.1,0.2,0.2,0.3,0.3,0.3c0,0,0.1,0,0.1,0c0.1,0,0.2-0.1,0.3-0.1
					c0.1,0,0.2-0.1,0.2-0.1c0,0,0.1,0.1,0.1,0.1c0,0,0,0.1,0.1,0.1c-0.2,0.1-0.3,0.2-0.5,0.3c-0.2,0.1-0.3,0.2-0.5,0.3
					c-0.2,0.2-0.3,0.2-0.6,0.4c-0.2,0.1-0.2,0.2-0.4,0.3C33.2,45.5,33.1,45.4,33,45.3C33,45.4,33,45.3,33,45.3z"/>
				<path class="st4" d="M41.3,39.9c0.1,0,0.1,0,0.1,0c0,0,0.1,0,0.1,0c0,0,0,0,0,0c0,0.3,0,0.5,0,0.6c-0.1,0.1-0.2,0.3-0.4,0.3
					c-0.2,0.1-0.3,0.1-0.5,0.1c-0.2,0-0.4-0.1-0.6-0.3c0,0.3-0.1,0.5-0.3,0.7c-0.2,0.2-0.4,0.4-0.7,0.6c-0.3,0.2-0.5,0.2-0.8,0.2
					c-0.2,0-0.4-0.2-0.5-0.4c0-0.1-0.1-0.2-0.1-0.3c0-0.1,0-0.2,0.1-0.4c0-0.1,0.1-0.3,0.3-0.5c0,0,0.1-0.1,0.3-0.3
					c0.4-0.4,0.5-0.6,0.9-1c0-0.1-0.1-0.2-0.1-0.3c-0.2-0.4-0.4-0.6-0.5-0.7c-0.1-0.1-0.2,0-0.4,0c-0.2,0.1-0.3,0.2-0.4,0.3
					c-0.1,0.1-0.2,0.2-0.2,0.3c0,0.1,0,0.2,0.1,0.4c0,0.1,0.1,0.2,0.1,0.2c0,0.1-0.1,0.2-0.2,0.3c-0.1,0.1-0.2,0.2-0.2,0.2
					c-0.1,0.2-0.2,0.3-0.3,0.3c-0.1,0-0.1,0-0.1-0.1c-0.1-0.2-0.1-0.3-0.1-0.5c0-0.2,0.1-0.5,0.2-0.7c0.1-0.3,0.3-0.5,0.5-0.6
					c0.2-0.2,0.5-0.4,0.9-0.6c0.2-0.1,0.5-0.2,0.7-0.2c0.2,0,0.4,0.1,0.5,0.2c0.1,0.1,0.3,0.4,0.5,0.8c0.1,0.3,0.2,0.4,0.3,0.7
					c0.1,0.2,0.1,0.3,0.2,0.5c0,0.1,0,0.1,0.1,0.1c0.1,0.1,0.1,0.2,0.2,0.2c0.1,0,0.1,0,0.2,0c0,0,0.1,0,0.1-0.1
					C41.2,40.1,41.2,40.1,41.3,39.9C41.3,40,41.3,39.9,41.3,39.9z M39.4,39.6c-0.1,0.1-0.3,0.3-0.4,0.6c-0.1,0.2-0.2,0.4-0.2,0.6
					c0,0.1,0,0.2,0.1,0.4c0.1,0.1,0.2,0.2,0.3,0.2c0.1,0,0.2,0,0.3,0c0.2-0.1,0.3-0.2,0.3-0.3c0.1-0.2,0.1-0.3,0.1-0.4
					c0-0.1-0.1-0.3-0.3-0.6C39.5,39.9,39.4,39.8,39.4,39.6z"/>
				<path class="st4" d="M42,40.3c0.1-0.1,0.1-0.1,0.2-0.2c0.1-0.1,0.2-0.2,0.3-0.2c0,0,0.1-0.1,0-0.1c0-0.1-0.1-0.2-0.1-0.4
					c-0.1-0.1-0.1-0.2-0.2-0.4c-0.1-0.1-0.1-0.2-0.1-0.3c-0.1-0.2-0.1-0.3-0.2-0.4c0-0.1-0.1-0.2-0.1-0.3c-0.1-0.2-0.2-0.3-0.2-0.4
					c0,0-0.1-0.1-0.2-0.1c-0.1,0-0.3,0-0.5,0c0-0.1-0.1-0.1-0.1-0.2c0,0,0.1-0.1,0.1-0.1c0,0,0.2-0.1,0.3-0.3
					c0.1-0.1,0.2-0.2,0.3-0.3c0,0,0,0,0.1-0.1c0,0,0.1-0.1,0.1-0.1c0.1-0.1,0.1-0.3,0.2-0.5c0.1-0.1,0.1-0.1,0.2-0.1
					c0.1,0.2,0.1,0.3,0.2,0.5c0,0.1,0,0.1,0,0.1c0,0,0,0.1,0.1,0.2c0.2-0.3,0.4-0.6,0.5-0.7c0.2-0.2,0.5-0.4,0.7-0.5
					c0.3-0.1,0.6-0.1,0.9-0.1c0.3,0.1,0.5,0.2,0.6,0.3c0.1,0.2,0.3,0.5,0.5,1c0.2,0.6,0.3,0.9,0.5,1.4c0,0.1,0.1,0.1,0.1,0.2
					c0,0,0.1,0,0.3,0c0.1,0,0.1,0,0.2,0c0,0,0.1,0.1,0.1,0.1c0,0,0,0.1,0,0.1c-0.4,0.1-0.5,0.2-0.9,0.3c-0.1,0-0.2,0.1-0.3,0.1
					c-0.1,0-0.1,0-0.2,0.1c-0.2,0.1-0.3,0.2-0.6,0.3c-0.1,0-0.1,0-0.2,0.1c0,0,0-0.1,0-0.1c0-0.1-0.1-0.1-0.1-0.2
					c0,0,0.1-0.1,0.3-0.2c0,0,0.1-0.1,0.1-0.1c0.1,0,0.1-0.1,0.1-0.1c0-0.1,0-0.2-0.1-0.3c-0.1-0.2-0.2-0.4-0.2-0.6
					c-0.1-0.2-0.1-0.3-0.2-0.5c-0.2-0.6-0.4-1-0.6-1.1c-0.2-0.2-0.4-0.2-0.7-0.1c-0.2,0.1-0.3,0.2-0.5,0.3c-0.2,0.2-0.3,0.4-0.4,0.6
					c0,0,0,0,0,0.1c0,0.1,0.1,0.2,0.1,0.3c0,0.1,0.1,0.2,0.1,0.3c0.1,0.3,0.2,0.4,0.3,0.7c0,0,0,0.1,0,0.1c0.2,0.5,0.3,0.7,0.4,0.8
					c0.1,0,0.2,0,0.5,0c0,0,0,0.1,0.1,0.1c0,0,0,0.1,0,0.2c-0.1,0-0.2,0.1-0.2,0.1c-0.1,0-0.2,0.1-0.3,0.1c-0.2,0.1-0.3,0.1-0.5,0.2
					c-0.2,0.1-0.6,0.3-1,0.5c0,0,0,0-0.1-0.1C42,40.4,42,40.4,42,40.3z"/>
				<path class="st4" d="M46.1,35.1c0.3-0.3,0.6-0.5,0.7-0.7c0.1-0.2,0.2-0.5,0.3-0.9c0.1,0,0.2-0.1,0.3-0.1
					c0.1,0.1,0.1,0.1,0.1,0.2c0,0.2,0.1,0.3,0.1,0.4c0,0.1,0,0.2,0.1,0.3c0,0,0,0,0,0.1c0,0,0.1,0,0.1,0c0,0,0.2-0.1,0.4-0.2
					c0,0,0.1,0,0.4-0.1c0,0.1,0.1,0.1,0.1,0.2c0,0.1,0.1,0.2,0,0.2c0,0-0.2,0.1-0.2,0.1c0,0-0.1,0-0.2,0c-0.1,0-0.1,0-0.2,0.1
					c0,0-0.1,0-0.1,0c-0.1,0-0.1,0.1-0.2,0.1c0.2,0.7,0.3,1,0.5,1.7c0.1,0.3,0.2,0.5,0.2,0.6c0,0.1,0.1,0.2,0.2,0.2
					c0.1,0,0.2,0,0.2,0c0.1,0,0.1-0.1,0.2-0.1c0,0,0.1-0.1,0.2-0.2c0,0,0,0,0.1-0.1c0.1,0,0.2,0.1,0.2,0.1c0,0,0,0,0,0
					c-0.1,0.2-0.2,0.4-0.3,0.5c-0.2,0.2-0.4,0.3-0.6,0.3c-0.3,0.1-0.5,0.1-0.8,0c-0.2-0.1-0.4-0.4-0.5-0.7c-0.1-0.3-0.1-0.5-0.2-0.8
					c-0.2-0.5-0.3-0.8-0.4-1.3c-0.1,0-0.1,0-0.2,0c-0.1,0-0.2,0.1-0.3,0.1c0,0,0,0-0.1,0c0,0,0,0-0.1-0.1
					C46.1,35.3,46.1,35.3,46.1,35.1z"/>
				<path class="st4" d="M50,37.4c0,0,0.1-0.1,0.1-0.1c0.1-0.1,0.3-0.2,0.4-0.3c0-0.1,0-0.3-0.2-0.7c-0.2-0.8-0.4-1.3-0.5-1.5
					c0,0-0.1-0.1-0.1-0.1c-0.1,0-0.2,0-0.4,0c-0.1,0-0.1,0-0.1-0.1c0-0.1,0-0.1-0.1-0.2c0.2-0.1,0.4-0.2,0.6-0.4
					c0.2-0.2,0.3-0.3,0.3-0.5c0-0.1,0.1-0.1,0.1-0.2c0.1,0,0.2-0.1,0.3-0.1c0,0.1,0.1,0.1,0.1,0.2c0,0,0,0.1,0,0.1
					c0,0.1,0,0.2,0.1,0.3c0,0,0,0.2,0.1,0.4c0.1-0.2,0.1-0.4,0.2-0.5c0,0,0.1-0.1,0.2-0.3c0.1-0.1,0.2-0.2,0.4-0.2
					c0.2,0,0.3,0,0.5,0.1c0.2,0.1,0.2,0.2,0.3,0.3s0,0.3-0.1,0.4c-0.1,0.1-0.2,0.2-0.3,0.3c-0.1,0-0.3,0-0.5-0.1
					c-0.1,0-0.2-0.1-0.2,0c0,0,0,0,0,0c-0.1,0-0.1,0.1-0.1,0.2c-0.1,0.2-0.1,0.3,0,0.5c0,0,0,0.1,0,0.1c0.1,0.2,0.2,0.8,0.4,1.5
					c0,0.1,0.1,0.2,0.1,0.2c0.1,0,0.1,0,0.2,0c0.1,0,0.2,0,0.3,0c0.1,0,0.2,0,0.3,0c0,0,0.1,0.1,0.1,0.1c0,0,0,0.1,0,0.1
					c-0.2,0-0.3,0.1-0.4,0.1c-0.4,0.1-0.5,0.1-0.9,0.2c-0.2,0.1-0.4,0.1-0.6,0.2c0,0,0,0-0.1,0c0,0-0.2,0.1-0.5,0.2c0,0,0-0.1,0-0.1
					C50,37.4,50,37.4,50,37.4z"/>
				<path class="st4" d="M52.6,33c0.1,0,0.2-0.1,0.3-0.1c0,0,0.1,0,0.1,0c0.3,0,0.5-0.1,0.7-0.1c0.1,0,0.2,0,0.3-0.1
					c0.3-0.1,0.4-0.1,0.7-0.2c0,0,0.1,0,0.1,0c0,0.1,0,0.2,0,0.3c0,0-0.1,0-0.1,0c-0.1,0-0.1,0-0.2,0.1c0,0-0.1,0-0.1,0
					c0,0-0.1,0-0.1,0.1c0,0.1,0.1,0.1,0.1,0.2c0.1,0.2,0.2,0.2,0.3,0.4c0.3,0.4,0.5,0.7,0.8,1.1c0.1,0.2,0.2,0.3,0.4,0.5
					c0,0,0.1-0.4,0.2-1c0.2-0.7,0.2-1.1,0.3-1.2c0,0,0-0.1,0-0.1c0,0,0-0.1-0.1-0.1c-0.1,0-0.1-0.1-0.2-0.1c0,0-0.2,0-0.3,0
					c-0.1,0-0.1,0-0.2,0c0,0,0,0,0-0.1c0,0,0-0.1,0-0.1c0,0,0-0.1,0-0.1c0,0,0.2,0,0.2,0c0.2,0,0.2,0,0.4,0c0.1,0,0.2,0,0.3,0
					c0.1,0,0.3-0.1,0.6-0.1c0.2,0,0.3-0.1,0.4-0.1c0,0.1,0,0.1,0,0.2c0,0,0,0,0,0.1c-0.1,0-0.1,0.1-0.2,0.1c-0.1,0-0.2,0.1-0.3,0.1
					c0,0-0.1,0.1-0.1,0.1c0,0.1-0.1,0.4-0.2,0.8c-0.1,0.4-0.1,0.6-0.2,0.9c-0.2,0.8-0.3,1.2-0.5,2c-0.1,0.5-0.2,0.8-0.3,1.3
					c-0.1,0.3-0.2,0.5-0.3,0.7c0,0.1-0.1,0.1-0.2,0.2c-0.1,0.1-0.2,0.1-0.4,0.2c0,0-0.1,0-0.3,0c-0.1,0-0.2,0-0.4-0.1
					c-0.1-0.1-0.1-0.1-0.1-0.2c0-0.2,0-0.3,0.1-0.5c0.1-0.1,0.2-0.2,0.3-0.2c0.1,0,0.3,0,0.5,0.1c0.1,0.1,0.2,0.1,0.2,0.1
					c0.1,0,0.1,0,0.1-0.1c0.2-0.6,0.3-1,0.3-1.2c-0.5-0.7-0.7-1-1.2-1.7c-0.5-0.7-0.9-1.1-1.1-1.4c-0.1-0.1-0.2-0.2-0.3-0.2
					c0,0-0.1,0-0.2,0c0,0-0.1,0-0.2,0C52.6,33.2,52.6,33.1,52.6,33z"/>
				<path class="st4" d="M60.7,35.5c0-0.1,0-0.2,0-0.3c0.1,0,0.2-0.1,0.3-0.1c0.2-0.1,0.4-0.1,0.4-0.2c0.1-0.1,0.1-0.2,0.1-0.4
					c0-0.2,0-0.3-0.1-0.5c0-0.4,0-0.6-0.1-1.1c0-0.1,0-0.1,0-0.2c0-0.6,0-0.9,0-0.9c0-0.2,0-0.4-0.1-0.6c0-0.1,0-0.2,0-0.3
					c0-0.2,0-0.3-0.1-0.5c0-0.1,0-0.1,0-0.2c0,0,0-0.1,0-0.1c-0.1,0-0.4-0.1-0.7,0c-0.1,0-0.1,0-0.2,0c0-0.2,0-0.2-0.1-0.4
					c0.6,0,0.9-0.1,1.5-0.1c0.2,0,0.3,0,0.3,0c0.2,0,0.5,0,1-0.1c0.3,0,0.4,0,0.5-0.1c0,0.1,0,0.1,0,0.1c0,0.1,0,0.1,0,0.2
					c-0.1,0.1-0.3,0.1-0.5,0.1c-0.2,0-0.3,0.1-0.4,0.1c0,0.1,0,0.2,0,0.3c0,0.1,0,0.2,0,0.3c0.1,0.5,0,0.9,0.1,1.2
					c0,0.5,0.1,0.7,0.1,1.2c0,0.2,0,0.4,0,0.6c0,0.4,0,0.6,0.1,0.9c0,0.1,0,0.1,0,0.2c0,0,0,0.1,0,0.1c0.2,0,0.4,0,0.5,0.1
					c0,0,0.1,0,0.3,0c0,0.1,0,0.2,0,0.2c0,0,0,0.1,0,0.2c0,0-0.1,0-0.1,0c-0.1,0-0.2,0-0.2,0c0,0-0.1,0-0.1,0c0,0-0.3,0-0.6,0
					c-0.3,0-0.5,0-0.8,0.1c-0.2,0-0.4,0.1-0.7,0.1C60.9,35.5,60.8,35.5,60.7,35.5z"/>
				<path class="st4" d="M64.5,33.9c0.1,0,0.2,0,0.2,0c0,0,0.1,0,0.1,0c0,0,0,0,0,0c0.2,0.3,0.3,0.5,0.4,0.5
					c0.1,0.1,0.2,0.2,0.3,0.3c0.1,0,0.2,0.1,0.3,0.1c0.1,0,0.2,0.1,0.3,0.1c0.2,0,0.4-0.1,0.5-0.2c0.1-0.1,0.2-0.3,0.2-0.4
					c0-0.1,0-0.2-0.1-0.3c-0.1-0.1-0.2-0.1-0.3-0.2c-0.1,0-0.3-0.1-0.6-0.2s-0.5-0.1-0.6-0.1c-0.2-0.1-0.3-0.1-0.4-0.2
					c-0.1-0.1-0.2-0.2-0.3-0.3c-0.1-0.2-0.1-0.3-0.1-0.5c0-0.2,0-0.4,0.1-0.6c0.1-0.2,0.2-0.3,0.3-0.4c0.1-0.1,0.2-0.2,0.4-0.2
					c0.2-0.1,0.4-0.1,0.6-0.1c0.3,0,0.6,0,0.8,0.1c0.2,0,0.4,0.1,0.6,0.2c0,0.1,0,0.2,0.1,0.5c0,0.3,0,0.4,0,0.5c0,0,0,0,0,0.1
					c-0.1,0-0.2,0-0.2,0c0,0-0.1,0-0.1,0c0,0-0.1-0.1-0.1-0.2c-0.2-0.3-0.3-0.5-0.5-0.6c-0.2-0.1-0.4-0.2-0.6-0.2
					c-0.2,0-0.4,0.1-0.6,0.2c-0.1,0.1-0.2,0.2-0.2,0.4c0,0.1,0.1,0.2,0.2,0.3c0.1,0.1,0.3,0.2,0.6,0.2c0.4,0.1,0.7,0.2,0.9,0.3
					c0.3,0.1,0.5,0.3,0.6,0.5c0.1,0.2,0.2,0.4,0.2,0.6c0,0.4-0.2,0.7-0.4,0.9c-0.3,0.2-0.7,0.4-1.2,0.4c-0.1,0-0.3,0-0.5,0
					c-0.1,0-0.3,0-0.5-0.1c0,0-0.2-0.1-0.3-0.1c0,0-0.1,0-0.1-0.1s0-0.2-0.1-0.4C64.6,34.2,64.6,34,64.5,33.9z"/>
				<path class="st4" d="M68.2,35c0.1,0,0.2-0.1,0.3-0.1c0.2,0,0.3,0,0.4-0.1c0.1-0.1,0.1-0.2,0.1-0.5c0-0.5,0-0.8,0-1.3
					c0-0.1,0-0.2,0-0.3c0-0.4,0-0.6,0-0.9c0-0.4,0-0.6,0-1.1c0-0.1,0-0.1,0-0.2c0-0.3,0-0.5,0-0.6c-0.1-0.1-0.2-0.1-0.4-0.1
					c-0.1,0-0.2,0-0.2,0c0,0,0-0.1,0-0.2c0,0,0-0.1,0-0.1c0.3,0,0.6-0.1,0.9-0.2c0.3-0.1,0.5-0.2,0.7-0.3c0.1,0,0.1,0,0.1,0
					c0,0,0.1,0,0.1,0c0,1.1-0.1,1.8-0.1,2.2c0,0.1,0,0.2,0,0.3c0,0,0,0,0,0c0,0,0,0.1,0,0.1c0,0.8-0.1,1.2-0.1,2.1
					c0,0.3,0,0.4,0,0.7c0,0,0,0.1,0,0.1c0,0.1,0,0.2,0.1,0.3c0,0,0.1,0.1,0.2,0.1c0.1,0,0.2,0,0.4,0.1c0,0.1,0,0.1,0,0.2
					c0,0,0,0.1,0,0.1c-0.1,0-0.2,0-0.4,0c-0.2,0-0.5,0-0.8-0.1c-0.1,0-0.1,0-0.2,0c-0.2,0-0.4,0-0.8,0c-0.1,0-0.2,0-0.3,0
					C68.2,35.1,68.2,35.1,68.2,35z"/>
				<path class="st4" d="M75.2,34.9C75.2,34.9,75.2,35,75.2,34.9c0.1,0.1,0.1,0.1,0.1,0.2c0,0,0,0,0,0c-0.1,0.3-0.2,0.4-0.4,0.5
					c-0.1,0.1-0.3,0.1-0.5,0.1c-0.2,0-0.3-0.1-0.5-0.2c-0.1-0.1-0.2-0.3-0.3-0.6c-0.2,0.2-0.4,0.4-0.6,0.5c-0.3,0.1-0.6,0.1-0.9,0.1
					c-0.3,0-0.6-0.1-0.7-0.3c-0.1-0.1-0.2-0.3-0.2-0.5c0-0.1,0-0.2,0.1-0.3c0.1-0.1,0.1-0.2,0.2-0.3c0.1-0.1,0.3-0.2,0.5-0.3
					c0,0,0.2-0.1,0.4-0.1c0.5-0.1,0.8-0.2,1.3-0.3c0-0.1,0-0.2,0.1-0.4c0-0.4,0-0.7-0.1-0.9c-0.1-0.1-0.2-0.2-0.3-0.2
					c-0.2,0-0.3,0-0.5,0c-0.1,0-0.3,0.1-0.3,0.2c-0.1,0.1-0.1,0.2-0.2,0.4c0,0.1-0.1,0.2-0.1,0.2c-0.1,0.1-0.1,0.1-0.3,0.1
					c-0.1,0-0.2,0.1-0.3,0.1c-0.2,0.1-0.3,0.1-0.4,0.1c0,0-0.1-0.1-0.1-0.2c0-0.2,0.1-0.3,0.2-0.4c0.1-0.2,0.3-0.3,0.6-0.5
					s0.5-0.2,0.7-0.3c0.3-0.1,0.6-0.1,1.1,0c0.3,0,0.5,0.1,0.7,0.2c0.2,0.1,0.3,0.3,0.3,0.5c0.1,0.2,0,0.5,0,1
					c0,0.3-0.1,0.5-0.1,0.8c0,0.2,0,0.3-0.1,0.6c0,0.1,0,0.1,0,0.1c0,0.1,0,0.2,0,0.3c0,0.1,0.1,0.1,0.1,0.1c0,0,0.1,0,0.1,0
					C75,35,75,35,75.2,34.9C75.1,34.9,75.1,34.9,75.2,34.9z M73.7,33.6c-0.2,0-0.4,0.1-0.7,0.2c-0.2,0.1-0.4,0.2-0.5,0.4
					c-0.1,0.1-0.1,0.2-0.1,0.4c0,0.1,0,0.2,0.1,0.3c0.1,0.1,0.2,0.1,0.3,0.2c0.2,0,0.3,0,0.5-0.1c0.2-0.1,0.3-0.2,0.3-0.3
					c0-0.1,0.1-0.3,0.1-0.7C73.7,33.9,73.7,33.8,73.7,33.6z"/>
				<path class="st4" d="M75.5,35.6c0.1,0,0.2,0,0.2,0c0.2,0,0.3,0,0.3,0c0.1,0,0.1,0,0.1-0.1c0-0.1,0.1-0.2,0.1-0.4
					c0-0.2,0-0.2,0.1-0.4c0-0.1,0-0.2,0.1-0.3c0-0.2,0-0.3,0.1-0.5c0-0.1,0-0.2,0-0.3c0-0.2,0-0.4,0-0.5c0,0,0-0.1-0.1-0.2
					c-0.1-0.1-0.2-0.2-0.4-0.3c0-0.1,0-0.1,0-0.2c0,0,0.1,0,0.1,0c0,0,0.2,0,0.4,0c0.2,0,0.3-0.1,0.4-0.1c0,0,0.1,0,0.1,0
					c0,0,0.1,0,0.1-0.1c0.1,0,0.2-0.1,0.4-0.3c0.1,0,0.2,0,0.3,0c0,0.2-0.1,0.3-0.1,0.5c0,0.1,0,0.1,0,0.1c0,0,0,0.1,0,0.2
					c0.3-0.2,0.6-0.3,0.8-0.3c0.3-0.1,0.6-0.1,0.9,0c0.3,0.1,0.6,0.2,0.8,0.4c0.2,0.2,0.3,0.4,0.3,0.6c0,0.2,0,0.6-0.1,1.1
					c-0.1,0.6-0.2,0.9-0.4,1.5c0,0.1,0,0.1,0,0.2c0,0,0.1,0.1,0.2,0.1c0.1,0,0.1,0.1,0.2,0.1c0,0,0,0.1,0,0.2c0,0,0,0.1,0,0.1
					c-0.4-0.1-0.5-0.2-0.9-0.3c-0.1,0-0.2,0-0.3,0c-0.1,0-0.1,0-0.2,0c-0.2,0-0.4-0.1-0.6-0.1c-0.1,0-0.1,0-0.2,0c0,0,0-0.1,0-0.1
					c0-0.1,0-0.2,0-0.2c0,0,0.2,0,0.3,0c0,0,0.1,0,0.2,0c0.1,0,0.1,0,0.1-0.1c0,0,0.1-0.1,0.1-0.3c0.1-0.3,0.1-0.5,0.1-0.6
					c0-0.2,0.1-0.3,0.1-0.5c0.1-0.6,0.2-1,0.1-1.2c-0.1-0.3-0.2-0.4-0.5-0.5c-0.2,0-0.4,0-0.6,0c-0.2,0.1-0.4,0.1-0.7,0.3
					c0,0,0,0,0,0.1c0,0.1,0,0.2,0,0.3c0,0.1,0,0.2-0.1,0.3c0,0.3-0.1,0.4-0.1,0.7c0,0,0,0.1,0,0.1c-0.1,0.5-0.1,0.8-0.1,0.9
					c0,0.1,0.2,0.2,0.4,0.3c0,0.1,0,0.1,0,0.1c0,0,0,0.1-0.1,0.2c-0.1,0-0.2,0-0.2,0c-0.1,0-0.2,0-0.3-0.1c-0.2,0-0.3-0.1-0.5-0.1
					c-0.2,0-0.6-0.1-1.1-0.1c0,0,0-0.1,0-0.1C75.5,35.7,75.5,35.7,75.5,35.6z"/>
				<path class="st4" d="M82.7,33.7c0.2-0.1,0.4-0.1,0.5-0.1c0.2,0,0.4,0,0.7,0.1c0.1,0,0.2,0,0.3,0.1c0.4,0.1,0.7,0.3,0.9,0.6
					c0,0,0-0.1,0-0.1c0-0.1,0.1-0.2,0.1-0.3c0.1-0.2,0.1-0.3,0.2-0.5c0.2-0.5,0.2-0.8,0.2-1c0-0.1-0.1-0.2-0.2-0.2
					c-0.1,0-0.2-0.1-0.3-0.1c0-0.1,0-0.1,0.1-0.2c0.1,0,0.2,0,0.3,0c0.1,0,0.3,0.1,0.6,0.1c0.1,0,0.1,0,0.2,0c0.2,0,0.3,0,0.5,0.1
					c0.1,0,0.2,0,0.2,0c0,0,0,0,0.1,0c0,0.1,0,0.1,0,0.1c0,0,0,0,0,0.1c0,0,0,0,0,0.1c0,0.1-0.1,0.3-0.2,0.7c0,0.1,0,0.1-0.1,0.2
					c0,0.1,0,0.1,0,0.1c0,0.1,0,0.1-0.1,0.2c-0.1,0.2-0.1,0.3-0.1,0.5c0,0.1-0.1,0.2-0.1,0.3c0,0.1-0.1,0.3-0.2,0.6c0,0,0,0.1,0,0.1
					c0,0.1,0,0.1-0.1,0.2c0,0,0,0.1,0,0.1c0,0,0,0.1,0,0.2c0,0.1,0,0.1-0.1,0.2c0,0,0,0.1,0,0.1c0,0.1-0.1,0.2-0.1,0.4
					c0,0.2-0.1,0.3-0.1,0.4c0,0.1,0,0.1,0,0.1c0,0.1-0.1,0.2-0.1,0.3c0,0.1-0.1,0.3-0.1,0.4c0,0,0.2,0.1,0.4,0.2
					c0.1,0,0.2,0.1,0.2,0.1c0,0,0,0.1,0,0.1c0,0,0,0.1-0.1,0.1c-0.1,0-0.3,0-0.4-0.1c-0.4-0.1-0.7-0.1-1-0.1c-0.1,0-0.2,0-0.2,0
					c0,0-0.1,0-0.1,0c0-0.1,0-0.1,0-0.1c0.1-0.2,0.1-0.3,0.1-0.4c-0.1,0-0.1,0-0.2,0c-0.2,0.1-0.4,0.1-0.6,0.1c-0.2,0-0.4,0-0.6-0.1
					c-0.4-0.1-0.7-0.3-0.9-0.5c-0.3-0.3-0.5-0.6-0.5-0.9s0-0.7,0-1C81.5,34.4,81.9,33.9,82.7,33.7z M83.3,37c0.1,0,0.1,0,0.2,0.1
					c0.1,0,0.2,0,0.3,0c0.1,0,0.3,0,0.4-0.1c0-0.1,0.1-0.2,0.1-0.2c0.3-0.9,0.4-1.5,0.5-1.7c0-0.3,0-0.5-0.1-0.7
					c-0.1-0.2-0.3-0.3-0.6-0.4c-0.1,0-0.3-0.1-0.4,0c-0.1,0-0.3,0.1-0.4,0.1c-0.2,0.1-0.3,0.2-0.4,0.4c-0.1,0.2-0.2,0.4-0.3,0.6
					c-0.1,0.5-0.1,0.9,0,1.2C82.7,36.7,83,36.9,83.3,37z"/>
				<path class="st4" d="M90.8,33.4c0.1,0,0.2,0.1,0.3,0.1c0,0,0,0.1,0,0.1c0,0.2,0.1,0.3,0.1,0.4c0,0,0.3,0.1,0.7,0.3
					c0.2,0.1,0.5,0.2,0.7,0.3c0,0,0.1,0,0.1,0c0.2,0.1,0.4,0.1,0.6,0.2c0.4,0.2,0.7,0.3,1.1,0.5c0.6,0.3,0.9,0.4,1.5,0.7
					c0.1,0,0.2,0.1,0.3,0.1c0.1,0,0.1-0.1,0.2-0.1c0,0,0.1,0,0.1-0.1c0.1,0,0.1,0.1,0.2,0.1c0,0,0.1,0,0.1,0.1
					c-0.1,0.2-0.2,0.5-0.4,0.9c-0.1,0.1-0.1,0.2-0.2,0.4c0,0.1-0.1,0.1-0.1,0.2c0,0.1-0.1,0.1-0.1,0.2c-0.1,0-0.3-0.1-0.4-0.1
					c0-0.1,0-0.3,0-0.6c0-0.3,0-0.4,0-0.4c0-0.1-0.1-0.1-0.1-0.1c-0.1-0.1-0.4-0.2-1-0.5c-0.1,0-0.3-0.2-0.3-0.1
					c0,0-0.1,0.2-0.1,0.3c-0.1,0.2-0.2,0.3-0.3,0.6c-0.2,0.5-0.3,0.7-0.6,1.2c-0.2,0.5-0.4,0.8-0.6,1.3c-0.1,0.2-0.2,0.3-0.3,0.5
					c-0.1,0.2-0.1,0.3-0.1,0.5c0,0,0.1,0.1,0.2,0.2c0,0,0.1,0.1,0.3,0.2c0.1,0.1,0.2,0.1,0.2,0.2c0,0.1-0.1,0.2-0.1,0.2
					c0,0,0,0.1-0.1,0.1c-0.1,0-0.1-0.1-0.2-0.1c-0.3-0.1-0.5-0.3-0.7-0.4c-0.2-0.1-0.6-0.3-1.1-0.5c-0.1,0-0.4-0.1-0.8-0.3
					c-0.2-0.1-0.3-0.1-0.3-0.1c0,0,0-0.1,0-0.1c0,0,0-0.1,0-0.1c0,0,0,0,0,0c0.1-0.1,0.2-0.1,0.4,0c0.3,0.1,0.6,0.1,0.7,0.1
					c0.1,0,0.1-0.1,0.1-0.2c0.2-0.3,0.4-0.9,0.7-1.6c0.3-0.6,0.4-1,0.7-1.6c0.2-0.4,0.3-0.7,0.3-0.8c0,0,0-0.1,0-0.1
					c0,0,0,0-0.1-0.1c-0.1-0.1-0.4-0.2-1-0.4c-0.3-0.1-0.5-0.2-0.6-0.2c-0.2,0-0.5,0.1-0.9,0.3C90,35,89.9,35,89.9,35
					c-0.1-0.1-0.2-0.2-0.2-0.3c0.2-0.2,0.5-0.5,0.9-1C90.6,33.6,90.7,33.5,90.8,33.4z"/>
				<path class="st4" d="M98.7,40.5c0.1,0.3,0.1,0.5,0.1,0.8c0,0.3-0.1,0.5-0.2,0.7c-0.2,0.4-0.4,0.6-0.7,0.8
					c-0.4,0.2-0.8,0.3-1.1,0.3c-0.4,0-0.8-0.1-1.2-0.3c-0.4-0.2-0.8-0.5-1-0.9c-0.2-0.4-0.3-0.7-0.3-1c0-0.3,0.1-0.7,0.3-1
					c0.1-0.2,0.2-0.4,0.4-0.5c0.2-0.2,0.3-0.3,0.5-0.3c0.2-0.1,0.4-0.1,0.6-0.1c0.3,0,0.5,0,0.8,0c0.2,0.1,0.5,0.2,0.8,0.3
					C98.2,39.5,98.6,40,98.7,40.5z M95.5,40.6c-0.2,0.3-0.2,0.6-0.3,0.6c-0.1,0.2-0.1,0.4-0.1,0.6c0,0.1,0.1,0.2,0.1,0.4
					c0.1,0.1,0.2,0.2,0.4,0.3c0.2,0.1,0.4,0.1,0.6,0.1c0.2,0,0.4-0.2,0.6-0.4c0.1-0.2,0.3-0.4,0.6-0.8c0.3-0.5,0.4-0.9,0.3-1.2
					c-0.1-0.3-0.2-0.5-0.5-0.7c-0.2-0.1-0.5-0.2-0.7-0.1c-0.2,0-0.4,0.2-0.6,0.4C96,39.8,95.8,40.1,95.5,40.6z"/>
				<path class="st4" d="M100,40.9C100,40.9,100.1,40.9,100,40.9c0.6,0.3,0.9,0.5,1.4,0.9c0,0,0.1,0,0.1,0.1
					c-0.1,0.1-0.1,0.2-0.2,0.3c-0.1,0.1-0.2,0.2-0.3,0.4c-0.1,0.1-0.1,0.1-0.1,0.2c-0.2,0.2-0.2,0.3-0.4,0.6
					c-0.1,0.2-0.2,0.2-0.3,0.4c-0.2,0.3-0.3,0.5-0.4,0.6c0,0.1,0,0.3,0,0.4c0.1,0.1,0.1,0.2,0.3,0.3c0.1,0.1,0.2,0.1,0.3,0.2
					c0.1,0,0.2,0,0.4,0.1c0.1,0,0.2,0,0.3,0c0.1,0,0.2-0.1,0.3-0.1c0.3-0.4,0.4-0.6,0.7-0.9c0.1-0.1,0.1-0.2,0.2-0.2
					c0-0.1,0.1-0.2,0.2-0.3c0.1-0.1,0.1-0.2,0.1-0.2c0-0.1,0.1-0.1,0.1-0.1c0,0,0-0.1,0-0.1c0-0.1-0.1-0.2-0.2-0.3
					c-0.1-0.1-0.2-0.1-0.3-0.2c0,0,0,0,0-0.1c0-0.1,0-0.1,0.1-0.1c0,0,0.1-0.1,0.1-0.1c0.1,0.1,0.2,0.1,0.3,0.1
					c0.3,0.2,0.4,0.3,0.7,0.5c0.2,0.1,0.4,0.3,0.7,0.5c-0.1,0.1-0.1,0.2-0.2,0.3c-0.1,0.1-0.2,0.2-0.3,0.3c-0.1,0.2-0.2,0.3-0.3,0.5
					c-0.2,0.3-0.3,0.4-0.5,0.6c-0.1,0.1-0.1,0.2-0.2,0.3c-0.1,0.1-0.1,0.1-0.1,0.2c-0.1,0.1-0.2,0.2-0.2,0.2c0,0.1-0.1,0.1-0.1,0.2
					c0,0,0,0.1,0,0.1c0.2,0.1,0.2,0.2,0.4,0.3c0,0,0,0,0,0c-0.1,0.1-0.1,0.1-0.1,0.2c0,0-0.1,0.1-0.1,0.1c-0.1,0-0.3-0.2-0.3-0.2
					c-0.3-0.1-0.7-0.3-1.1-0.4c-0.1,0-0.1-0.1-0.2-0.1c0.2-0.2,0.3-0.4,0.4-0.6c-0.1,0-0.1,0-0.2,0c-0.4,0-0.7,0-0.9,0
					c-0.2,0-0.4-0.1-0.6-0.3c-0.2-0.1-0.4-0.3-0.5-0.5c-0.1-0.2-0.2-0.4-0.2-0.6c0-0.1,0.1-0.3,0.2-0.5c0-0.1,0.2-0.3,0.5-0.8
					c0,0,0.1-0.1,0.1-0.1c0.2-0.2,0.3-0.4,0.4-0.6c0.1-0.2,0.2-0.4,0.3-0.4c0,0,0-0.1,0-0.1c0,0-0.1-0.1-0.1-0.1
					c-0.2-0.1-0.3-0.2-0.3-0.3c0,0,0,0,0-0.1c0,0,0,0,0-0.1C99.9,41,100,40.9,100,40.9z"/>
				<path class="st4" d="M102.7,47c0.1,0,0.1,0,0.2,0c0.2,0.1,0.3,0.1,0.5,0.1c0.1,0,0.2-0.2,0.5-0.6c0.5-0.6,0.8-1.1,0.9-1.3
					c0,0,0-0.1,0-0.2c0-0.1-0.1-0.2-0.2-0.3c0-0.1-0.1-0.1,0-0.2c0-0.1,0.1-0.1,0.1-0.1c0.2,0.1,0.5,0.2,0.7,0.2s0.4,0,0.6,0
					c0.1,0,0.2,0,0.2,0c0.1,0.1,0.2,0.1,0.3,0.2c0,0.1-0.1,0.1-0.1,0.2c0,0-0.1,0.1-0.1,0.1c-0.1,0.1-0.1,0.2-0.2,0.2
					c0,0-0.1,0.1-0.2,0.3c0.2-0.1,0.4-0.1,0.5-0.1c0,0,0.2,0,0.4,0c0.1,0,0.3,0.1,0.4,0.2c0.1,0.1,0.2,0.3,0.3,0.4
					c0,0.2,0,0.3-0.1,0.4c-0.1,0.1-0.2,0.2-0.4,0.2c-0.2,0-0.3,0-0.4-0.1c-0.1-0.1-0.2-0.2-0.3-0.4c0-0.1-0.1-0.2-0.1-0.2
					c0,0,0,0,0,0c-0.1,0-0.2,0-0.3,0c-0.2,0.1-0.3,0.2-0.4,0.3c0,0,0,0.1-0.1,0.1c-0.1,0.2-0.5,0.6-1,1.3c0,0.1-0.1,0.2-0.1,0.2
					c0,0.1,0,0.1,0.1,0.2c0,0.1,0.1,0.1,0.2,0.2c0.1,0.1,0.2,0.2,0.2,0.2c0,0,0,0.1,0,0.1c0,0-0.1,0.1-0.1,0.1
					c-0.1-0.1-0.2-0.2-0.4-0.3c-0.3-0.3-0.4-0.4-0.7-0.6c-0.2-0.1-0.4-0.3-0.5-0.4c0,0,0,0-0.1-0.1c0,0-0.2-0.1-0.4-0.3
					C102.6,47.1,102.6,47.1,102.7,47C102.7,47,102.7,47,102.7,47z"/>
				<path class="st4" d="M106.5,48.6c0.1,0.1,0.2,0.1,0.2,0.1c0,0,0,0,0.1,0.1c0,0,0,0,0,0.1c-0.1,0.3-0.1,0.6-0.1,0.6
					c0,0.2,0,0.3,0.1,0.5c0,0.1,0.1,0.2,0.2,0.4c0.1,0.1,0.1,0.2,0.2,0.3c0.2,0.1,0.3,0.2,0.5,0.2c0.2,0,0.3,0,0.4-0.1
					c0.1-0.1,0.1-0.2,0.1-0.2c0-0.1,0-0.2-0.1-0.4c0-0.1-0.2-0.3-0.4-0.6c-0.2-0.3-0.3-0.5-0.4-0.5c-0.1-0.1-0.1-0.3-0.2-0.5
					s0-0.3,0-0.4c0-0.2,0.1-0.3,0.2-0.4c0.2-0.2,0.3-0.3,0.5-0.4c0.2-0.1,0.3-0.1,0.5-0.1c0.1,0,0.3,0,0.5,0.1
					c0.2,0.1,0.4,0.2,0.6,0.4c0.3,0.2,0.5,0.4,0.6,0.6c0.2,0.2,0.3,0.4,0.4,0.6c0,0.1-0.1,0.2-0.3,0.4s-0.2,0.3-0.3,0.4
					c0,0,0,0-0.1,0c-0.1,0-0.1-0.1-0.2-0.1c0,0-0.1-0.1-0.1-0.1c0-0.1,0-0.1,0-0.2c0.1-0.3,0.1-0.6,0-0.8c-0.1-0.2-0.2-0.4-0.3-0.5
					c-0.2-0.2-0.4-0.3-0.6-0.3c-0.1,0-0.3,0-0.4,0.2c-0.1,0.1-0.1,0.2-0.1,0.4c0,0.2,0.1,0.4,0.3,0.6c0.3,0.4,0.5,0.7,0.6,0.9
					c0.1,0.3,0.2,0.6,0.2,0.8c0,0.2-0.1,0.4-0.3,0.6c-0.2,0.3-0.6,0.4-0.9,0.3c-0.4,0-0.8-0.2-1.2-0.6c-0.1,0-0.2-0.2-0.4-0.4
					c-0.1-0.1-0.2-0.2-0.3-0.4c0,0-0.1-0.2-0.2-0.3c0,0,0-0.1,0-0.1c0,0,0.1-0.1,0.2-0.3C106.3,48.9,106.4,48.7,106.5,48.6z"/>
			</g>
		</g>
		<g>
			<path class="st4" d="M94.8,70.1l5.9-9.1l-9.1,5.9C92.8,67.9,93.8,69,94.8,70.1z"/>
			<path class="st4" d="M41.2,66.6L32.6,61l5.6,8.6C39.1,68.5,40.1,67.6,41.2,66.6z"/>
			<path class="st4" d="M91.7,123.2l9.1,5.9l-5.9-9.1C93.8,121.2,92.8,122.2,91.7,123.2z"/>
			<path class="st4" d="M38.2,120.6l-5.6,8.6l8.6-5.6C40.1,122.6,39.1,121.6,38.2,120.6z"/>
		</g>
		<rect id="white_rectangle_bg_1_" x="7.5" y="83.8" class="st2" width="117.5" height="22.5"/>
		<g>
			<g>
				<path class="st5" d="M52.5,75.3l-2.5,5.2c-0.9,2-1.7,3.7-2.3,5.2h-0.3c-0.2-0.5-0.8-1.8-1.8-3.9l-3-6.3v6.6
					c0,1.5,0.1,2.4,0.2,2.6c0.1,0.2,0.5,0.3,1.1,0.3h0.3v0.5c-0.8,0-1.4-0.1-1.9-0.1c-0.4,0-1.1,0-2.1,0.1V85h0.6
					c0.4,0,0.6-0.1,0.7-0.2c0.1-0.1,0.2-0.3,0.2-0.6c0.1-0.8,0.1-1.6,0.1-2.6v-4.8c0-1.2,0-1.9-0.1-2.3c0-0.2-0.1-0.3-0.3-0.4
					c-0.1-0.1-0.4-0.2-0.9-0.2H40v-0.5c1,0,1.6,0.1,1.9,0.1c0.3,0,0.8,0,1.4-0.1c0.7,1.5,1.5,3.2,2.4,5l2.2,4.6l2.1-4.3
					c0.7-1.5,1.6-3.3,2.5-5.4c0.7,0,1.2,0.1,1.5,0.1c0.3,0,0.9,0,1.8-0.1V74h-0.6c-0.5,0-0.8,0.1-0.9,0.3c-0.1,0.2-0.2,0.8-0.2,1.9
					v6.2c0,1.4,0.1,2.2,0.2,2.4c0.1,0.2,0.4,0.3,1,0.3h0.5v0.5c-0.8,0-1.5-0.1-2.3-0.1c-0.8,0-1.6,0-2.5,0.1V85h0.6
					c0.4,0,0.7-0.1,0.8-0.3c0.1-0.2,0.1-1,0.1-2.5V75.3z"/>
				<path class="st0" d="M47.8,85.9h-0.6l-0.1-0.1c-0.2-0.5-0.8-1.8-1.8-3.9l-2.7-5.5v5.7c0,2,0.1,2.4,0.2,2.5c0,0.1,0.2,0.2,1,0.2
					h0.5v0.9l-0.2,0c-0.8,0-1.4-0.1-1.9-0.1c-0.4,0-1.1,0-2.1,0.1l-0.2,0v-0.9h0.7c0.4,0,0.6-0.1,0.6-0.1c0.1,0,0.1-0.2,0.2-0.5
					c0.1-0.8,0.1-1.6,0.1-2.5v-4.8c0-1.1,0-1.9-0.1-2.3c0-0.1-0.1-0.2-0.2-0.3c-0.1,0-0.2-0.1-0.7-0.1h-0.6v-0.9l0.2,0
					c1,0,1.6,0.1,1.9,0.1c0.3,0,0.8,0,1.4-0.1l0.1,0l0.1,0.1c0.7,1.5,1.5,3.2,2.4,5l2.1,4.2l1.9-3.9c0.7-1.5,1.6-3.3,2.5-5.4
					l0.1-0.1l0.1,0c0.7,0,1.2,0.1,1.5,0.1c0.3,0,0.9,0,1.8-0.1l0.2,0v0.9h-0.8c-0.6,0-0.7,0.1-0.8,0.2c0,0-0.1,0.3-0.1,1.8v6.2
					c0,1.8,0.1,2.2,0.1,2.3c0,0.1,0.2,0.2,0.8,0.2h0.7v0.9l-0.2,0c-0.8,0-1.5-0.1-2.2-0.1c-0.8,0-1.6,0-2.5,0.1l-0.2,0v-0.9h0.8
					c0.3,0,0.6-0.1,0.6-0.2c0-0.1,0.1-0.5,0.1-2.4v-6l-2.1,4.5c-0.9,2-1.7,3.7-2.3,5.2L47.8,85.9z M47.4,85.5L47.4,85.5
					c0.7-1.4,1.4-3.1,2.4-5.1l2.9-6v7.8c0,2-0.1,2.4-0.2,2.6c-0.1,0.3-0.5,0.4-1,0.4h-0.4v0.1c0.8,0,1.6-0.1,2.3-0.1
					c0.7,0,1.3,0,2.1,0v-0.1h-0.3c-0.6,0-1-0.1-1.1-0.4c-0.1-0.2-0.2-0.6-0.2-2.5v-6.2c0-1.5,0.1-1.8,0.2-2c0.2-0.2,0.5-0.3,1.1-0.3
					h0.4v-0.1c-0.8,0-1.3,0.1-1.6,0.1c-0.3,0-0.7,0-1.4-0.1c-0.9,2-1.7,3.8-2.4,5.3l-2.2,4.6l-2.4-5c-0.9-1.8-1.6-3.4-2.3-4.9
					c-0.5,0-0.9,0.1-1.3,0.1c-0.2,0-0.8,0-1.7-0.1v0.1h0.3c0.5,0,0.8,0.1,1,0.2c0.2,0.1,0.3,0.3,0.3,0.6c0.1,0.4,0.1,1.1,0.1,2.3
					v4.8c0,0.9,0,1.8-0.1,2.6c0,0.3-0.1,0.6-0.3,0.7c-0.2,0.1-0.4,0.2-0.9,0.2h-0.4v0.1c0.9,0,1.6-0.1,1.9-0.1c0.5,0,1,0,1.7,0v-0.1
					h-0.1c-0.7,0-1.1-0.1-1.3-0.4c-0.1-0.2-0.2-0.6-0.2-2.7v-7.4l3.4,7.1C46.6,83.7,47.2,85,47.4,85.5z"/>
			</g>
			<g>
				<path class="st5" d="M56.8,79.7l0-0.6l0-0.6l0.9-0.5c0.4-0.2,0.8-0.4,1.1-0.5c0.3-0.1,0.6-0.1,1-0.1c0.8,0,1.4,0.2,1.9,0.5
					c0.5,0.4,0.8,0.8,0.9,1.3c0.1,0.4,0.1,1.4,0.1,3c0,1.5,0,2.4,0.1,2.5c0.1,0.2,0.2,0.2,0.4,0.2h0.7v0.6c-0.6,0-1.1-0.1-1.3-0.1
					c-0.3,0-0.7,0-1.3,0.1l0-0.8c0-0.2,0-0.5,0-0.7l-1.8,1.3c-0.2,0.1-0.3,0.2-0.5,0.3c-0.2,0-0.4,0.1-0.6,0.1
					c-0.7,0-1.3-0.2-1.7-0.5c-0.4-0.4-0.6-0.8-0.6-1.4c0-0.6,0.1-1.1,0.4-1.5c0.3-0.4,0.7-0.7,1.2-0.9c0.5-0.2,1.7-0.5,3.5-0.8
					c0-0.7-0.2-1.3-0.5-1.6c-0.4-0.4-0.9-0.7-1.6-0.7c-0.3,0-0.5,0-0.8,0.1c-0.2,0.1-0.5,0.2-0.7,0.3c-0.2,0.4-0.3,0.8-0.4,1.2
					L56.8,79.7z M61.3,81c-1.6,0.3-2.6,0.7-3,1c-0.4,0.3-0.6,0.8-0.6,1.4c0,0.4,0.1,0.8,0.4,1c0.2,0.3,0.6,0.4,0.9,0.4
					c0.4,0,0.8-0.1,1.2-0.4c0.4-0.2,0.8-0.6,1.1-1.1l0-1.9L61.3,81z"/>
				<path class="st0" d="M58.5,85.9c-0.8,0-1.4-0.2-1.8-0.6c-0.4-0.4-0.6-0.9-0.6-1.6c0-0.6,0.1-1.1,0.4-1.6c0.3-0.5,0.7-0.8,1.3-1
					c0.5-0.2,1.6-0.5,3.4-0.8c0-0.6-0.2-1-0.4-1.3c-0.3-0.4-0.8-0.6-1.5-0.6c-0.3,0-0.5,0-0.7,0.1c-0.2,0.1-0.4,0.1-0.6,0.2
					c-0.2,0.4-0.3,0.7-0.4,1.1L57.4,80l-0.8-0.2l0-0.7l0-0.7l1-0.6c0.4-0.2,0.8-0.4,1.1-0.5c0.3-0.1,0.7-0.1,1.1-0.1
					c0.8,0,1.5,0.2,2,0.6c0.5,0.4,0.8,0.9,0.9,1.5c0.1,0.4,0.1,1.4,0.1,3.1c0,2,0.1,2.4,0.1,2.5c0,0,0,0.1,0.2,0.1h0.9v1l-0.2,0
					c-0.6,0-1.1-0.1-1.3-0.1c-0.3,0-0.7,0-1.3,0.1l-0.2,0l0-1c0-0.1,0-0.2,0-0.3l-1.4,1.1c-0.2,0.1-0.4,0.2-0.5,0.3
					C59,85.9,58.7,85.9,58.5,85.9z M59.2,78c0.8,0,1.4,0.2,1.8,0.7c0.3,0.4,0.5,1,0.5,1.7l0,0.2l-0.2,0c-1.8,0.3-3,0.6-3.5,0.8
					c-0.5,0.2-0.8,0.5-1.1,0.9c-0.3,0.4-0.4,0.9-0.4,1.4c0,0.6,0.2,1,0.5,1.3c0.3,0.3,0.9,0.5,1.5,0.5c0.2,0,0.4,0,0.6-0.1
					c0.1,0,0.3-0.1,0.4-0.2l2.1-1.6l0,0.4c0,0.2,0,0.5,0,0.7l0,0.5c0.4,0,0.8,0,1.1,0c0.2,0,0.6,0,1.2,0v-0.2h-0.5
					c-0.4,0-0.6-0.2-0.6-0.4c0-0.1-0.1-0.3-0.1-2.6c0-1.6-0.1-2.6-0.1-3c-0.1-0.5-0.3-0.9-0.8-1.2c-0.4-0.3-1-0.5-1.8-0.5
					c-0.3,0-0.7,0-1,0.1c-0.3,0.1-0.7,0.2-1.1,0.5L57,78.6l0,0.5l0,0.4l0.2,0c0.1-0.3,0.2-0.7,0.4-1l0-0.1l0.1,0
					c0.2-0.1,0.5-0.3,0.7-0.3C58.6,78.1,58.9,78,59.2,78z M59,84.9c-0.4,0-0.8-0.1-1.1-0.4c-0.3-0.3-0.4-0.7-0.4-1.1
					c0-0.7,0.2-1.2,0.7-1.5c0.5-0.3,1.5-0.6,3.1-1l0.2-0.1l0,0.7l0,1.9l0,0.1c-0.4,0.5-0.8,0.9-1.2,1.1C59.9,84.8,59.4,84.9,59,84.9
					z M61.1,81.3c-1.4,0.3-2.3,0.6-2.7,0.9c-0.4,0.3-0.6,0.7-0.6,1.2c0,0.4,0.1,0.7,0.3,0.9c0.2,0.2,0.5,0.3,0.8,0.3
					c0.4,0,0.8-0.1,1.1-0.3c0.3-0.2,0.7-0.5,1-1l0-1.8L61.1,81.3z"/>
			</g>
			<g>
				<path class="st5" d="M67.1,79.3c0.2-0.2,0.5-0.5,0.7-0.8c0.3-0.4,0.6-0.7,0.9-0.8c0.3-0.2,0.6-0.2,0.9-0.2c0.3,0,0.6,0,0.7,0.1
					c0.1,0,0.1,0.1,0.1,0.2l0,0.1c-0.1,0.5-0.1,1.1-0.2,1.9h-0.4c-0.1-0.3-0.3-0.5-0.5-0.6c-0.2-0.1-0.4-0.2-0.6-0.2
					c-0.3,0-0.6,0.1-0.9,0.3c-0.3,0.2-0.5,0.5-0.6,0.9c-0.1,0.4-0.1,1.2-0.1,2.4c0,0.8,0,1.4,0.1,2c0,0.2,0.1,0.3,0.2,0.4
					c0.2,0.1,0.5,0.2,1,0.2h0.5v0.5c-0.9,0-1.7-0.1-2.5-0.1c-0.8,0-1.5,0-2.2,0.1v-0.5L65,85c0.3,0,0.5-0.1,0.5-0.2
					c0.1-0.1,0.1-0.4,0.1-0.8c0-0.8,0.1-1.8,0.1-2.9c0-1.4-0.1-2.2-0.2-2.4c-0.1-0.2-0.3-0.2-0.7-0.2h-0.7V78c0.5-0.1,1-0.1,1.5-0.2
					c0.4-0.1,0.8-0.2,1.1-0.4c0.1,0,0.1-0.1,0.2-0.1c0.1,0,0.1,0,0.1,0.1c0,0,0,0.1,0,0.2L67.1,79.3z"/>
				<path class="st0" d="M64,85.8v-0.9l1-0.1c0.4,0,0.4-0.1,0.4-0.1c0,0,0.1-0.1,0.1-0.7c0-0.8,0.1-1.8,0.1-2.9
					c0-1.7-0.1-2.2-0.1-2.3c0,0-0.1-0.1-0.5-0.1H64v-0.9l0.2,0c0.5-0.1,1-0.1,1.4-0.2c0.4-0.1,0.8-0.2,1.1-0.4
					c0.1-0.1,0.2-0.1,0.3-0.1c0.2,0,0.3,0.1,0.3,0.1c0,0.1,0.1,0.2,0.1,0.3l0,1.2c0.1-0.1,0.2-0.3,0.4-0.5c0.3-0.4,0.6-0.7,0.9-0.9
					c0.3-0.2,0.6-0.3,1-0.3c0.3,0,0.6,0,0.8,0.1c0.1,0.1,0.2,0.2,0.2,0.3l0,0.1c-0.1,0.5-0.1,1.1-0.2,1.9l0,0.2h-0.7l-0.1-0.1
					c-0.1-0.3-0.2-0.4-0.4-0.5C69.2,79.1,69,79,68.8,79c-0.3,0-0.6,0.1-0.8,0.3c-0.3,0.2-0.4,0.5-0.5,0.8c-0.1,0.4-0.1,1.2-0.1,2.4
					c0,0.8,0,1.4,0.1,2c0,0.2,0.1,0.2,0.1,0.2c0.2,0.1,0.5,0.2,0.9,0.2h0.7v0.9l-0.2,0c-1.7-0.1-3.2-0.1-4.7,0L64,85.8z M66.4,85.3
					c0.7,0,1.5,0,2.3,0.1v-0.1h-0.3c-0.5,0-0.8-0.1-1-0.2c-0.2-0.1-0.2-0.3-0.3-0.5c-0.1-0.5-0.1-1.2-0.1-2c0-1.2,0-2,0.1-2.4
					c0.1-0.4,0.3-0.8,0.6-1.1c0.3-0.3,0.7-0.4,1-0.4c0.3,0,0.5,0.1,0.7,0.2c0.2,0.1,0.3,0.3,0.5,0.6h0.1c0-0.7,0.1-1.3,0.2-1.8l0,0
					c-0.2-0.1-0.4-0.1-0.6-0.1c-0.3,0-0.5,0.1-0.8,0.2c-0.2,0.1-0.5,0.4-0.8,0.8c-0.3,0.4-0.5,0.7-0.8,0.9l-0.3,0.3l0-2.2
					c0,0,0-0.1,0-0.1c0,0,0,0-0.1,0c-0.4,0.2-0.7,0.3-1.2,0.4c-0.4,0.1-0.8,0.2-1.3,0.2v0.1h0.5c0.5,0,0.8,0.1,0.9,0.3
					c0.1,0.2,0.2,0.6,0.2,2.5c0,1.1,0,2.1-0.1,2.9c0,0.7-0.1,0.9-0.2,0.9c-0.1,0.1-0.3,0.2-0.7,0.2l-0.6,0.1v0.1
					C65,85.3,65.7,85.3,66.4,85.3z"/>
			</g>
			<g>
				<path class="st5" d="M73.5,77.3l0.2,0.1c0,0.4-0.1,0.9-0.1,1.4c0,1.7-0.1,2.9-0.1,3.7c0,0.7,0,1.4,0.1,1.9
					c0,0.2,0.1,0.3,0.2,0.4c0.1,0.1,0.3,0.1,0.6,0.2l0.6,0.1v0.5c-0.8,0-1.6-0.1-2.3-0.1c-0.7,0-1.3,0-2,0.1v-0.5l0.7-0.1
					c0.3,0,0.5-0.1,0.5-0.2c0.1-0.1,0.1-0.4,0.1-0.8c0-0.7,0-1.7,0-3c0-0.9,0-1.6,0-2c0-0.2-0.1-0.3-0.1-0.4
					c-0.1-0.1-0.3-0.1-0.6-0.1h-0.6V78c0.7-0.1,1.2-0.2,1.5-0.3C72.6,77.7,73,77.5,73.5,77.3z M72.8,73.6c0.3,0,0.5,0.1,0.7,0.3
					c0.2,0.2,0.3,0.4,0.3,0.7c0,0.3-0.1,0.5-0.3,0.7s-0.4,0.3-0.7,0.3c-0.3,0-0.5-0.1-0.7-0.3c-0.2-0.2-0.3-0.4-0.3-0.7
					c0-0.3,0.1-0.5,0.3-0.7C72.4,73.7,72.6,73.6,72.8,73.6z"/>
				<path class="st0" d="M70.5,85.8v-0.9l0.9-0.1c0.3,0,0.4-0.1,0.4-0.1c0,0,0.1-0.1,0.1-0.7c0-0.7,0-1.7,0-3c0-0.9,0-1.5,0-2
					c0-0.1,0-0.2-0.1-0.2c0,0-0.1-0.1-0.5-0.1h-0.8v-0.9l0.2,0c0.7-0.1,1.2-0.2,1.5-0.3c0.3-0.1,0.7-0.2,1.2-0.4l0.1,0l0.4,0.2
					l0,0.1c0,0.4-0.1,0.9-0.1,1.4c0,1.6-0.1,2.9-0.1,3.7c0,0.7,0,1.4,0.1,1.9c0,0.2,0.1,0.3,0.1,0.3c0,0,0.1,0.1,0.5,0.1l0.8,0.1
					v0.9l-0.2,0c-0.8,0-1.6-0.1-2.2-0.1c-0.7,0-1.3,0-2,0.1L70.5,85.8z M72.8,85.3c0.6,0,1.3,0,2.1,0v-0.1l-0.4-0.1
					c-0.4,0-0.6-0.1-0.7-0.2c-0.1-0.1-0.2-0.3-0.2-0.5c-0.1-0.5-0.1-1.2-0.1-1.9c0-0.8,0-2,0.1-3.7c0-0.5,0-0.9,0.1-1.3l0,0
					c-0.5,0.2-0.9,0.3-1.2,0.4c-0.3,0.1-0.8,0.2-1.4,0.3v0.1h0.4c0.4,0,0.6,0,0.7,0.2c0.1,0.1,0.2,0.3,0.2,0.5c0,0.5,0,1.2,0,2
					c0,1.3,0,2.3,0,3c0,0.7-0.1,0.8-0.2,0.9c-0.1,0.1-0.3,0.2-0.7,0.2l-0.5,0.1v0.1C71.6,85.3,72.2,85.3,72.8,85.3z M72.8,75.7
					c-0.3,0-0.6-0.1-0.8-0.3c-0.2-0.2-0.3-0.5-0.3-0.8c0-0.3,0.1-0.6,0.3-0.8c0.2-0.2,0.5-0.3,0.8-0.3c0.3,0,0.6,0.1,0.8,0.3
					c0.2,0.2,0.3,0.5,0.3,0.8c0,0.3-0.1,0.6-0.3,0.8C73.4,75.6,73.2,75.7,72.8,75.7z M72.8,73.8c-0.2,0-0.4,0.1-0.5,0.2
					c-0.2,0.2-0.2,0.3-0.2,0.5c0,0.2,0.1,0.4,0.2,0.5c0.3,0.3,0.8,0.3,1.1,0c0.1-0.1,0.2-0.3,0.2-0.5c0-0.2-0.1-0.4-0.2-0.5
					C73.2,73.8,73.1,73.8,72.8,73.8z"/>
			</g>
			<g>
				<path class="st5" d="M78,79l1.3-1.1c0.2-0.1,0.3-0.2,0.5-0.3c0.4-0.1,0.7-0.2,1.1-0.2c0.6,0,1.1,0.1,1.6,0.4
					c0.4,0.2,0.8,0.6,1,1c0.2,0.4,0.3,1,0.3,1.8l0,2.7c0,0.9,0,1.5,0.1,1.6c0.1,0.2,0.3,0.3,0.6,0.3H85v0.5c-0.6,0-1.1-0.1-1.6-0.1
					c-0.4,0-0.9,0-1.4,0.1c0.1-1.1,0.2-2.6,0.2-4.5c0-0.8-0.1-1.3-0.2-1.6c-0.1-0.3-0.4-0.6-0.7-0.8c-0.3-0.2-0.7-0.3-1.1-0.3
					c-0.6,0-1,0.1-1.4,0.4c-0.4,0.3-0.6,0.6-0.7,0.9C78.1,80,78,80.6,78,81.5c0,1,0,2,0,2.9c0,0.3,0,0.4,0.1,0.5
					c0.1,0.1,0.4,0.2,0.7,0.2h0.6v0.5c-1,0-1.7-0.1-2.3-0.1c-0.6,0-1.3,0-2,0.1v-0.5h0.6c0.4,0,0.7-0.1,0.7-0.3
					c0.1-0.2,0.1-1.4,0.1-3.5c0-1,0-1.7,0-2.3c0-0.2-0.1-0.3-0.1-0.4c-0.1-0.1-0.3-0.1-0.7-0.1h-0.6V78c0.5-0.1,0.9-0.1,1.3-0.2
					c0.4-0.1,0.8-0.2,1.3-0.4c0.1,0,0.1,0,0.1,0c0.1,0,0.1,0.1,0.1,0.2l0,0.3L78,79z"/>
				<path class="st0" d="M81.9,85.8l0-0.2C82,84.5,82,83,82,81.1c0-0.7-0.1-1.2-0.2-1.5c-0.1-0.3-0.3-0.5-0.6-0.7
					c-0.3-0.2-0.6-0.3-1-0.3c-0.5,0-0.9,0.1-1.3,0.4c-0.3,0.2-0.6,0.5-0.6,0.8c0,0.1-0.1,0.5-0.1,1.7c0,1,0,2,0,2.9
					c0,0.3,0.1,0.4,0.1,0.4c0.1,0.1,0.3,0.1,0.6,0.1h0.8v0.9l-0.2,0c-0.9,0-1.7-0.1-2.3-0.1c-0.6,0-1.3,0-2,0.1l-0.2,0v-0.9h0.8
					c0.3,0,0.5-0.1,0.5-0.2c0-0.1,0.1-0.6,0.1-3.5c0-1,0-1.7,0-2.3c0-0.2-0.1-0.2-0.1-0.2c0,0-0.1-0.1-0.5-0.1h-0.8v-0.9l0.2,0
					c0.5-0.1,0.9-0.1,1.3-0.2c0.4-0.1,0.8-0.2,1.3-0.4c0.1,0,0.1,0,0.2,0c0.2,0,0.3,0.1,0.3,0.4l0,1l0.9-0.8
					c0.2-0.2,0.4-0.3,0.5-0.3c0.4-0.1,0.8-0.2,1.2-0.2c0.6,0,1.2,0.1,1.7,0.4c0.5,0.3,0.8,0.6,1,1c0.2,0.4,0.3,1.1,0.3,1.9l0,2.7
					c0,1.2,0.1,1.5,0.1,1.5c0,0,0.1,0.2,0.5,0.2h0.8v0.9l-0.2,0c-0.6,0-1.1-0.1-1.6-0.1c-0.4,0-0.9,0-1.4,0.1L81.9,85.8z M77.2,85.3
					c0.5,0,1.2,0,2.1,0.1v-0.1h-0.4c-0.4,0-0.7-0.1-0.8-0.2c-0.1-0.1-0.2-0.3-0.2-0.6c0-0.9,0-1.9,0-2.9c0-1,0-1.5,0.1-1.8
					c0.1-0.4,0.4-0.7,0.8-1c0.4-0.3,0.9-0.5,1.5-0.5c0.5,0,0.9,0.1,1.2,0.3c0.3,0.2,0.6,0.5,0.8,0.9c0.1,0.3,0.2,0.9,0.2,1.7
					c0,1.7,0,3.2-0.1,4.3c0.4,0,0.8,0,1.2,0c0.4,0,0.9,0,1.4,0v-0.1h-0.4c-0.4,0-0.6-0.1-0.8-0.4c-0.1-0.1-0.1-0.4-0.1-1.7l0-2.7
					c0-0.8-0.1-1.4-0.3-1.8c-0.2-0.4-0.5-0.6-0.9-0.9c-0.4-0.2-0.9-0.3-1.5-0.3c-0.4,0-0.7,0.1-1.1,0.2c-0.1,0.1-0.3,0.1-0.4,0.3
					l-1.6,1.4l0-1.9c0,0,0,0,0,0c-0.5,0.2-0.9,0.4-1.3,0.5c-0.3,0.1-0.7,0.2-1.2,0.2v0.1h0.4c0.6,0,0.7,0.1,0.8,0.1
					c0.1,0.1,0.2,0.3,0.2,0.5c0,0.5,0,1.3,0,2.3c0,3.3-0.1,3.5-0.1,3.6c-0.1,0.3-0.4,0.4-0.9,0.4h-0.4v0.1
					C76,85.3,76.6,85.3,77.2,85.3z M77.8,77.5L77.8,77.5L77.8,77.5z"/>
			</g>
			<g>
				<path class="st5" d="M86.7,81.5c0,1.1,0.3,2,0.9,2.5c0.5,0.6,1.3,0.9,2.1,0.9c0.4,0,0.8-0.1,1.2-0.2c0.4-0.1,0.8-0.3,1.2-0.6
					l0.1,0.1l-0.3,0.7c-0.5,0.3-1,0.5-1.5,0.6c-0.5,0.1-1,0.2-1.5,0.2c-1.1,0-2.1-0.4-2.8-1.1c-0.7-0.7-1.1-1.7-1.1-3
					c0-1,0.2-1.8,0.6-2.5c0.3-0.5,0.7-0.9,1.4-1.3c0.7-0.4,1.4-0.6,2-0.6c1,0,1.8,0.3,2.4,0.9c0.6,0.6,0.9,1.4,0.9,2.5l0,0.5
					c-0.4,0.1-0.7,0.2-1.1,0.2c-0.6,0-1.4,0.1-2.5,0.1H86.7z M86.7,80.8c0.9,0,1.8,0.1,2.9,0.1c0.4,0,0.8,0,1.2-0.1v-0.5
					c0-0.5-0.1-1-0.3-1.4c-0.1-0.3-0.3-0.5-0.7-0.7C89.6,78,89.3,78,88.8,78c-0.6,0-1.1,0.2-1.5,0.7C86.9,79.1,86.7,79.8,86.7,80.8z
					"/>
				<path class="st0" d="M88.9,85.9c-1.2,0-2.2-0.4-2.9-1.2c-0.7-0.8-1.1-1.8-1.1-3.1c0-1,0.2-1.8,0.6-2.6c0.3-0.5,0.8-0.9,1.5-1.3
					c0.7-0.4,1.4-0.6,2.1-0.6c1.1,0,1.9,0.3,2.5,0.9c0.6,0.6,0.9,1.5,0.9,2.6l0,0.7l-0.1,0c-0.4,0.1-0.8,0.2-1.1,0.2
					c-0.6,0-1.5,0.1-2.5,0.1h-1.9c0.1,1,0.3,1.7,0.8,2.2c0.5,0.5,1.2,0.8,2,0.8c0.4,0,0.7-0.1,1.1-0.2c0.4-0.1,0.7-0.3,1.1-0.6
					l0.1-0.1l0.4,0.3l-0.3,0.9l-0.1,0c-0.5,0.3-1,0.5-1.5,0.6C90,85.9,89.5,85.9,88.9,85.9z M89.2,77.6c-0.6,0-1.3,0.2-1.9,0.6
					c-0.7,0.4-1.1,0.8-1.4,1.2c-0.4,0.7-0.6,1.5-0.6,2.4c0,1.2,0.3,2.1,1,2.8c0.7,0.7,1.5,1,2.6,1c0.5,0,1-0.1,1.5-0.2
					c0.5-0.1,0.9-0.3,1.3-0.6l0.1-0.4c-0.3,0.2-0.6,0.3-1,0.4c-0.4,0.1-0.8,0.2-1.2,0.2c-0.9,0-1.7-0.3-2.3-0.9
					c-0.6-0.6-0.9-1.5-0.9-2.7l0-0.2h2.3c1.1,0,1.9,0,2.5-0.1c0.3,0,0.6-0.1,0.9-0.1l0-0.3c0-1-0.3-1.8-0.8-2.3
					C90.9,77.8,90.1,77.6,89.2,77.6z M89.6,81.1c-1.1,0-2,0-2.9-0.1l-0.2,0l0-0.2c0-1,0.2-1.8,0.6-2.3c0.4-0.5,1-0.8,1.7-0.8
					c0.4,0,0.8,0.1,1.2,0.3c0.3,0.2,0.6,0.5,0.7,0.8c0.2,0.5,0.3,1,0.3,1.5V81l-0.2,0C90.5,81.1,90.1,81.1,89.6,81.1z M86.9,80.6
					c0.8,0,1.7,0.1,2.7,0.1c0.4,0,0.7,0,1,0v-0.3c0-0.5-0.1-0.9-0.3-1.3c-0.1-0.2-0.3-0.4-0.6-0.6c-0.3-0.2-0.6-0.2-1-0.2
					c-0.6,0-1,0.2-1.4,0.6C87.2,79.2,87,79.8,86.9,80.6z"/>
			</g>
			<g>
				<path class="st5" d="M38,95.8v2.4c0,0.4,0,0.9,0,1.4c0,0.8,0.1,1.2,0.1,1.3c0,0.1,0.1,0.2,0.2,0.3c0.1,0.1,0.4,0.1,0.7,0.1h0.6
					v0.5c-0.7,0-1.4-0.1-2.1-0.1c-0.7,0-1.6,0-2.8,0.1v-0.5h0.5c0.6,0,0.9-0.1,1.1-0.3c0.1-0.2,0.2-1.1,0.2-2.8V93
					c0-1.5-0.1-2.3-0.2-2.5c-0.1-0.2-0.4-0.3-0.9-0.3h-0.6v-0.5c0.9,0,1.8,0.1,2.6,0.1c0.8,0,1.6,0,2.4-0.1v0.5h-0.4
					c-0.5,0-0.9,0-1,0.1c-0.1,0.1-0.2,0.2-0.2,0.4c0,0.3-0.1,1.1-0.1,2.3V95c1,0,2.3,0.1,3.8,0.1c1.3,0,2.4,0,3.2-0.1v-1.7
					c0-1,0-1.8-0.1-2.4c0-0.2-0.1-0.4-0.2-0.5c-0.1-0.1-0.4-0.2-0.8-0.2h-0.6v-0.5c0.9,0,1.7,0.1,2.5,0.1c0.8,0,1.7,0,2.6-0.1v0.5
					h-0.6c-0.4,0-0.7,0-0.8,0.1c-0.1,0.1-0.2,0.3-0.2,0.5s0,1.1,0,2.4V98c0,1.7,0,2.7,0.1,2.9c0.1,0.2,0.4,0.3,0.9,0.3h0.7v0.5
					c-0.8,0-1.6-0.1-2.4-0.1c-1,0-1.8,0-2.7,0.1v-0.5h0.6c0.4,0,0.7,0,0.8-0.1c0.1-0.1,0.2-0.3,0.2-0.6c0.1-0.6,0.1-1.4,0.1-2.5
					v-2.2c-0.8,0-1.8-0.1-3.1-0.1C40.2,95.7,38.9,95.7,38,95.8z"/>
				<path class="st0" d="M39.8,102l-0.2,0c-0.7,0-1.4-0.1-2.1-0.1c-0.7,0-1.6,0-2.8,0.1l-0.2,0V101h0.7c0.7,0,0.9-0.2,0.9-0.2
					c0-0.1,0.1-0.4,0.1-2.7V93c0-2-0.1-2.4-0.1-2.4c0-0.1-0.2-0.2-0.8-0.2h-0.8v-0.9l0.2,0c1.9,0.1,3.4,0.1,5,0l0.2,0v0.9h-0.6
					c-0.7,0-0.8,0.1-0.9,0.1c-0.1,0.1-0.1,0.1-0.1,0.3c0,0.3-0.1,1.1-0.1,2.2v1.7c1,0,2.2,0.1,3.6,0.1c1.2,0,2.2,0,3-0.1v-1.5
					c0-1,0-1.8-0.1-2.4c0-0.2-0.1-0.3-0.2-0.4c0,0-0.2-0.1-0.7-0.1h-0.8v-0.9l0.2,0c0.9,0,1.7,0.1,2.5,0.1c0.8,0,1.7,0,2.6-0.1
					l0.2,0v0.9h-0.8c-0.5,0-0.7,0.1-0.7,0.1c-0.1,0.1-0.1,0.2-0.1,0.4c0,0.2,0,1.1,0,2.4V98c0,2.3,0.1,2.7,0.1,2.8
					c0,0,0.1,0.2,0.8,0.2h0.9v0.9l-0.2,0c-0.8,0-1.6-0.1-2.4-0.1c-0.9,0-1.8,0-2.6,0.1l-0.2,0V101h0.8c0.5,0,0.7-0.1,0.7-0.1
					c0.1-0.1,0.1-0.2,0.2-0.4c0.1-0.6,0.1-1.4,0.1-2.5v-2c-0.8,0-1.7-0.1-2.9-0.1c-1.6,0-2.9,0-3.8,0.1v2.2c0,0.4,0,0.9,0,1.4
					c0,1,0.1,1.2,0.1,1.2c0,0,0,0,0.2,0.1c0.1,0,0.2,0.1,0.6,0.1h0.8V102z M34.9,101.4v0.1c1.1,0,2-0.1,2.6-0.1c0.6,0,1.3,0,1.9,0
					v-0.1h-0.4c-0.4,0-0.6-0.1-0.8-0.2c-0.2-0.1-0.3-0.2-0.3-0.4c0-0.1,0-0.3-0.1-1.3c0-0.5,0-1,0-1.4v-2.6l0.2,0
					c0.9,0,2.3-0.1,4-0.1c1.2,0,2.3,0,3.1,0.1l0.2,0V98c0,1.1,0,2-0.1,2.6c0,0.3-0.1,0.6-0.3,0.7c-0.2,0.1-0.5,0.2-1,0.2h-0.4v0.1
					c1.4-0.1,3.1-0.1,4.7,0v-0.1h-0.5c-0.6,0-1-0.1-1.1-0.4c-0.1-0.2-0.2-0.6-0.2-3v-4.7c0-1.4,0-2.2,0-2.5c0-0.3,0.1-0.5,0.3-0.7
					c0.2-0.1,0.5-0.2,1-0.2h0.4v-0.1c-0.8,0-1.6,0.1-2.4,0.1c-0.7,0-1.5,0-2.3-0.1V90h0.4c0.5,0,0.7,0.1,0.9,0.2
					c0.2,0.1,0.3,0.4,0.3,0.6c0.1,0.7,0.1,1.5,0.1,2.5v1.8l-0.2,0c-0.8,0-1.9,0.1-3.2,0.1c-1.6,0-2.9,0-3.9-0.1l-0.2,0V93
					c0-1.2,0-2,0.1-2.3c0-0.2,0.1-0.4,0.3-0.6c0.1-0.1,0.3-0.2,1.1-0.2h0.2v-0.1c-1.4,0.1-2.9,0.1-4.6,0V90h0.4c0.6,0,1,0.1,1.1,0.4
					c0.1,0.2,0.2,0.6,0.2,2.6v5.1c0,2.2-0.1,2.7-0.2,2.9c-0.1,0.3-0.5,0.4-1.2,0.4H34.9z"/>
			</g>
			<g>
				<path class="st5" d="M50.4,97.6c0,1.1,0.3,2,0.9,2.5c0.5,0.6,1.3,0.9,2.1,0.9c0.4,0,0.8-0.1,1.2-0.2c0.4-0.1,0.8-0.3,1.2-0.6
					l0.1,0.1l-0.3,0.7c-0.5,0.3-1,0.5-1.5,0.6c-0.5,0.1-1,0.2-1.5,0.2c-1.1,0-2.1-0.4-2.8-1.1c-0.7-0.7-1.1-1.7-1.1-3
					c0-1,0.2-1.8,0.6-2.5c0.3-0.5,0.7-0.9,1.4-1.3s1.4-0.6,2-0.6c1,0,1.8,0.3,2.4,0.9c0.6,0.6,0.9,1.4,0.9,2.5l0,0.5
					c-0.4,0.1-0.7,0.2-1.1,0.2c-0.6,0-1.4,0.1-2.5,0.1H50.4z M50.4,97c0.9,0,1.8,0.1,2.9,0.1c0.4,0,0.8,0,1.2-0.1v-0.5
					c0-0.5-0.1-1-0.3-1.4c-0.1-0.3-0.3-0.5-0.7-0.7c-0.3-0.2-0.7-0.3-1.1-0.3c-0.6,0-1.1,0.2-1.5,0.7C50.6,95.3,50.4,96,50.4,97z"/>
				<path class="st0" d="M52.6,102.1c-1.2,0-2.2-0.4-2.9-1.2c-0.7-0.8-1.1-1.8-1.1-3.1c0-1,0.2-1.8,0.6-2.6c0.3-0.5,0.8-0.9,1.5-1.3
					c0.7-0.4,1.4-0.6,2.1-0.6c1.1,0,1.9,0.3,2.5,0.9c0.6,0.6,0.9,1.5,0.9,2.6l0,0.7l-0.1,0c-0.4,0.1-0.8,0.2-1.1,0.2
					c-0.6,0-1.5,0.1-2.5,0.1h-1.9c0.1,1,0.3,1.7,0.8,2.2c0.5,0.5,1.2,0.8,2,0.8c0.4,0,0.7-0.1,1.1-0.2c0.4-0.1,0.7-0.3,1.1-0.6
					l0.1-0.1l0.4,0.3l-0.3,0.9l-0.1,0c-0.5,0.3-1,0.5-1.5,0.6C53.7,102.1,53.2,102.1,52.6,102.1z M52.9,93.7c-0.6,0-1.3,0.2-1.9,0.6
					c-0.7,0.4-1.1,0.8-1.4,1.2C49.2,96.2,49,97,49,97.9c0,1.2,0.3,2.1,1,2.8c0.7,0.7,1.5,1,2.6,1c0.5,0,1-0.1,1.5-0.2
					c0.5-0.1,0.9-0.3,1.3-0.6l0.1-0.4c-0.3,0.2-0.6,0.3-1,0.4c-0.4,0.1-0.8,0.2-1.2,0.2c-0.9,0-1.7-0.3-2.3-0.9
					c-0.6-0.6-0.9-1.5-0.9-2.7l0-0.2h2.3c1.1,0,1.9,0,2.5-0.1c0.3,0,0.6-0.1,0.9-0.1l0-0.3c0-1-0.3-1.8-0.8-2.3
					C54.6,94,53.8,93.7,52.9,93.7z M53.3,97.3c-1.1,0-2,0-2.9-0.1l-0.2,0l0-0.2c0-1,0.2-1.8,0.6-2.3c0.4-0.5,1-0.8,1.7-0.8
					c0.4,0,0.8,0.1,1.2,0.3c0.3,0.2,0.6,0.5,0.7,0.8c0.2,0.5,0.3,1,0.3,1.5v0.7l-0.2,0C54.2,97.2,53.8,97.3,53.3,97.3z M50.6,96.8
					c0.8,0,1.7,0.1,2.7,0.1c0.4,0,0.7,0,1,0v-0.3c0-0.5-0.1-0.9-0.3-1.3c-0.1-0.2-0.3-0.4-0.6-0.6c-0.3-0.2-0.6-0.2-1-0.2
					c-0.6,0-1,0.2-1.4,0.6C50.8,95.4,50.7,96,50.6,96.8z"/>
			</g>
			<g>
				<path class="st5" d="M59.4,95.5c0.2-0.2,0.5-0.5,0.7-0.8c0.3-0.4,0.6-0.7,0.9-0.8c0.3-0.2,0.6-0.2,0.9-0.2c0.3,0,0.6,0,0.7,0.1
					c0.1,0,0.1,0.1,0.1,0.2l0,0.1c-0.1,0.5-0.1,1.1-0.2,1.9h-0.4c-0.1-0.3-0.3-0.5-0.5-0.6c-0.2-0.1-0.4-0.2-0.6-0.2
					c-0.3,0-0.6,0.1-0.9,0.3c-0.3,0.2-0.5,0.5-0.6,0.9c-0.1,0.4-0.1,1.2-0.1,2.4c0,0.8,0,1.4,0.1,2c0,0.2,0.1,0.3,0.2,0.4
					c0.2,0.1,0.5,0.2,1,0.2h0.5v0.5c-0.9,0-1.7-0.1-2.5-0.1c-0.8,0-1.5,0-2.2,0.1v-0.5l0.8-0.1c0.3,0,0.5-0.1,0.5-0.2
					c0.1-0.1,0.1-0.4,0.1-0.8c0-0.8,0.1-1.8,0.1-2.9c0-1.4-0.1-2.2-0.2-2.4c-0.1-0.2-0.3-0.2-0.7-0.2h-0.7v-0.5
					c0.5-0.1,1-0.1,1.5-0.2c0.4-0.1,0.8-0.2,1.1-0.4c0.1,0,0.1-0.1,0.2-0.1c0.1,0,0.1,0,0.1,0.1c0,0,0,0.1,0,0.2L59.4,95.5z"/>
				<path class="st0" d="M56.3,102v-0.9l1-0.1c0.4,0,0.4-0.1,0.4-0.1c0,0,0.1-0.1,0.1-0.7c0-0.8,0.1-1.8,0.1-2.9
					c0-1.7-0.1-2.2-0.1-2.3c0,0-0.2-0.1-0.5-0.1h-0.9V94l0.2,0c0.5-0.1,1-0.1,1.4-0.2c0.4-0.1,0.8-0.2,1.1-0.4
					c0.3-0.2,0.5,0,0.6,0.1c0,0.1,0.1,0.2,0.1,0.3l0,1.2c0.1-0.1,0.2-0.3,0.4-0.5c0.3-0.4,0.6-0.7,0.9-0.9c0.3-0.2,0.6-0.3,1-0.3
					c0.3,0,0.6,0,0.8,0.1c0.1,0.1,0.2,0.2,0.2,0.3l0,0.1c-0.1,0.5-0.1,1.1-0.2,1.9l0,0.2h-0.7L62,95.9c-0.1-0.3-0.2-0.4-0.4-0.5
					c-0.1-0.1-0.3-0.1-0.5-0.1c-0.3,0-0.6,0.1-0.8,0.3s-0.4,0.5-0.5,0.8c-0.1,0.4-0.1,1.2-0.1,2.4c0,0.8,0,1.4,0.1,2
					c0,0.2,0.1,0.2,0.1,0.2c0.2,0.1,0.5,0.2,0.9,0.2h0.7v0.9l-0.2,0c-1.7-0.1-3.2-0.1-4.7,0L56.3,102z M58.7,101.5
					c0.7,0,1.5,0,2.3,0.1v-0.1h-0.3c-0.5,0-0.8-0.1-1-0.2c-0.2-0.1-0.2-0.3-0.3-0.5c-0.1-0.5-0.1-1.2-0.1-2c0-1.2,0-2,0.1-2.4
					c0.1-0.4,0.3-0.8,0.6-1.1c0.3-0.3,0.7-0.4,1-0.4c0.3,0,0.5,0.1,0.7,0.2c0.2,0.1,0.3,0.3,0.5,0.6h0.1c0-0.7,0.1-1.3,0.2-1.8l0,0
					c-0.2-0.1-0.4-0.1-0.6-0.1c-0.3,0-0.5,0.1-0.8,0.2c-0.2,0.1-0.5,0.4-0.8,0.8c-0.3,0.4-0.5,0.7-0.8,0.9l-0.3,0.3l0-2.2
					c0,0,0-0.1,0-0.1c0,0,0,0-0.1,0c-0.3,0.2-0.7,0.3-1.2,0.4c-0.4,0.1-0.8,0.2-1.3,0.2v0.1h0.5c0.5,0,0.8,0.1,0.9,0.3
					c0.1,0.2,0.2,0.6,0.2,2.5c0,1.1,0,2.1-0.1,2.9c0,0.7-0.1,0.9-0.2,0.9c-0.1,0.1-0.3,0.2-0.7,0.2l-0.6,0.1v0.1
					C57.3,101.5,58,101.5,58.7,101.5z"/>
			</g>
			<g>
				<path class="st5" d="M65.8,93.5l0.2,0.1c0,0.4-0.1,0.9-0.1,1.4c0,1.7-0.1,2.9-0.1,3.7c0,0.7,0,1.4,0.1,1.9
					c0,0.2,0.1,0.3,0.2,0.4c0.1,0.1,0.3,0.1,0.6,0.2l0.6,0.1v0.5c-0.8,0-1.6-0.1-2.3-0.1c-0.7,0-1.3,0-2,0.1v-0.5l0.7-0.1
					c0.3,0,0.5-0.1,0.5-0.2c0.1-0.1,0.1-0.4,0.1-0.8c0-0.7,0-1.7,0-3c0-0.9,0-1.6,0-2c0-0.2-0.1-0.3-0.1-0.4
					c-0.1-0.1-0.3-0.1-0.6-0.1h-0.6v-0.5c0.7-0.1,1.2-0.2,1.5-0.3C64.9,93.9,65.3,93.7,65.8,93.5z M65.2,89.8c0.3,0,0.5,0.1,0.7,0.3
					c0.2,0.2,0.3,0.4,0.3,0.7c0,0.3-0.1,0.5-0.3,0.7c-0.2,0.2-0.4,0.3-0.7,0.3c-0.3,0-0.5-0.1-0.7-0.3c-0.2-0.2-0.3-0.4-0.3-0.7
					c0-0.3,0.1-0.5,0.3-0.7S64.9,89.8,65.2,89.8z"/>
				<path class="st0" d="M62.9,102v-0.9l0.9-0.1c0.3,0,0.4-0.1,0.4-0.1c0,0,0.1-0.1,0.1-0.7c0-0.7,0-1.7,0-3c0-0.9,0-1.6,0-2
					c0-0.1,0-0.2-0.1-0.2c0,0-0.1-0.1-0.5-0.1h-0.8V94l0.2,0c0.7-0.1,1.2-0.2,1.5-0.3c0.3-0.1,0.7-0.2,1.2-0.4l0.1,0l0.4,0.2l0,0.1
					c0,0.4-0.1,0.9-0.1,1.4c0,1.7-0.1,2.9-0.1,3.7c0,0.7,0,1.4,0.1,1.9c0,0.2,0.1,0.3,0.1,0.3c0,0,0.1,0.1,0.5,0.1l0.8,0.1v0.9
					l-0.2,0c-0.8,0-1.6-0.1-2.2-0.1c-0.7,0-1.3,0-2,0.1L62.9,102z M65.1,101.5c0.6,0,1.3,0,2.1,0.1v-0.1l-0.4-0.1
					c-0.4,0-0.6-0.1-0.7-0.2c-0.1-0.1-0.2-0.3-0.2-0.5c-0.1-0.5-0.1-1.2-0.1-1.9c0-0.8,0-2,0.1-3.7c0-0.5,0-0.9,0.1-1.3l0,0
					c-0.5,0.2-0.9,0.3-1.2,0.4c-0.3,0.1-0.8,0.2-1.4,0.3v0.1h0.4c0.4,0,0.6,0,0.7,0.2c0.1,0.1,0.2,0.3,0.2,0.5c0,0.5,0,1.2,0,2
					c0,1.3,0,2.3,0,3c0,0.7-0.1,0.8-0.2,0.9c-0.1,0.1-0.3,0.2-0.7,0.2l-0.5,0.1v0.1C63.9,101.5,64.5,101.5,65.1,101.5z M65.2,91.9
					c-0.3,0-0.6-0.1-0.8-0.3S64,91,64,90.7c0-0.3,0.1-0.6,0.3-0.8c0.2-0.2,0.5-0.3,0.8-0.3c0.3,0,0.6,0.1,0.8,0.3
					c0.2,0.2,0.3,0.5,0.3,0.8c0,0.3-0.1,0.6-0.3,0.8C65.7,91.8,65.5,91.9,65.2,91.9z M65.2,90c-0.2,0-0.4,0.1-0.5,0.2
					c-0.2,0.2-0.2,0.3-0.2,0.5c0,0.2,0.1,0.4,0.2,0.5c0.3,0.3,0.8,0.3,1.1,0c0.1-0.1,0.2-0.3,0.2-0.5c0-0.2-0.1-0.4-0.2-0.5
					C65.5,90,65.4,90,65.2,90z"/>
			</g>
			<g>
				<path class="st5" d="M70.4,95.1v3.3c0,0.9,0,1.4,0.1,1.7c0.1,0.2,0.2,0.4,0.3,0.6c0.2,0.1,0.4,0.2,0.7,0.2c0.2,0,0.3,0,0.5-0.1
					c0.2-0.1,0.3-0.2,0.5-0.3l0.2,0.3l-0.8,1c-0.2,0.1-0.4,0.1-0.5,0.1c-0.2,0-0.3,0.1-0.5,0.1c-0.4,0-0.8-0.1-1.1-0.2
					c-0.3-0.1-0.5-0.3-0.6-0.6c-0.1-0.2-0.2-0.6-0.2-1.1l0-1.6v-3.2c-0.4,0-0.9,0-1.3,0.1v-0.4c0.5-0.2,0.9-0.4,1.3-0.6
					c0-0.8,0-1.7-0.1-2.6c0.7-0.3,1.1-0.5,1.4-0.7l0.2,0.2c0,0.4-0.1,1.5-0.1,3.1c0.7,0,1.3,0,1.7,0l0.7,0l-0.1,0.9l-0.3,0l-1.6,0
					H70.4z"/>
				<path class="st0" d="M70.8,102.1c-0.5,0-0.8-0.1-1.2-0.2c-0.3-0.2-0.6-0.4-0.7-0.7c-0.1-0.3-0.2-0.7-0.2-1.2l0-1.6v-3
					c-0.4,0-0.7,0-1.1,0.1l-0.2,0v-0.7l0.1,0c0.4-0.2,0.8-0.3,1.2-0.5c0-0.8,0-1.6-0.1-2.5l0-0.1l0.1-0.1c0.6-0.3,1.1-0.5,1.4-0.7
					l0.1-0.1l0.4,0.3l0,0.1c0,0.4-0.1,1.4-0.1,2.9c0.6,0,1.1,0,1.5,0l0.9,0l-0.1,1.3l-0.5,0l-1.7,0v3.1c0,1.1,0,1.5,0.1,1.6
					c0,0.2,0.1,0.4,0.3,0.5c0.1,0.1,0.3,0.2,0.5,0.2c0.1,0,0.3,0,0.4-0.1c0.1-0.1,0.3-0.1,0.4-0.3l0.2-0.1l0.5,0.6l-1,1.1l-0.1,0
					c-0.2,0.1-0.4,0.1-0.6,0.2C71.2,102.1,71,102.1,70.8,102.1z M69,95h0.2v3.4l0,1.6c0,0.4,0.1,0.8,0.2,1c0.1,0.2,0.3,0.4,0.5,0.5
					c0.4,0.2,0.9,0.3,1.4,0.2c0.1,0,0.3-0.1,0.5-0.1l0.7-0.8l0,0c-0.1,0.1-0.2,0.2-0.4,0.2c-0.2,0.1-0.4,0.1-0.6,0.1
					c-0.3,0-0.6-0.1-0.8-0.2c-0.2-0.2-0.3-0.4-0.4-0.7c-0.1-0.3-0.1-0.8-0.1-1.7v-3.5l2.3,0l0-0.5l-0.4,0c-0.4,0-1,0-1.7,0h-0.2
					l0-0.2c0-1.5,0.1-2.5,0.1-3l0,0c-0.3,0.2-0.7,0.3-1.2,0.6c0,0.9,0.1,1.7,0.1,2.5l0,0.1l-0.1,0.1c-0.4,0.2-0.8,0.4-1.2,0.5v0
					C68.2,95,68.6,95,69,95z"/>
			</g>
			<g>
				<path class="st5" d="M73.7,95.9l0-0.6l0-0.6l0.9-0.5c0.4-0.2,0.8-0.4,1.1-0.5c0.3-0.1,0.6-0.1,1-0.1c0.8,0,1.4,0.2,1.9,0.5
					c0.5,0.4,0.8,0.8,0.9,1.3c0.1,0.4,0.1,1.4,0.1,3c0,1.5,0,2.4,0.1,2.5c0.1,0.2,0.2,0.2,0.4,0.2h0.7v0.6c-0.6,0-1.1-0.1-1.3-0.1
					c-0.3,0-0.7,0-1.3,0.1l0-0.8c0-0.2,0-0.5,0-0.7l-1.8,1.3c-0.2,0.1-0.3,0.2-0.5,0.2c-0.2,0-0.4,0.1-0.6,0.1
					c-0.7,0-1.3-0.2-1.7-0.5c-0.4-0.4-0.6-0.8-0.6-1.4c0-0.6,0.1-1.1,0.4-1.5c0.3-0.4,0.7-0.7,1.2-0.9c0.5-0.2,1.7-0.5,3.5-0.8
					c0-0.7-0.2-1.3-0.5-1.6c-0.4-0.4-0.9-0.7-1.6-0.7c-0.3,0-0.5,0-0.8,0.1c-0.2,0.1-0.5,0.2-0.7,0.3c-0.2,0.4-0.3,0.8-0.4,1.2
					L73.7,95.9z M78.2,97.2c-1.6,0.3-2.6,0.7-3,1c-0.4,0.3-0.6,0.8-0.6,1.4c0,0.4,0.1,0.8,0.4,1c0.2,0.3,0.6,0.4,0.9,0.4
					c0.4,0,0.8-0.1,1.2-0.4c0.4-0.2,0.8-0.6,1.1-1.1l0-1.9L78.2,97.2z"/>
				<path class="st0" d="M75.3,102.1c-0.8,0-1.4-0.2-1.8-0.6c-0.4-0.4-0.6-0.9-0.6-1.6c0-0.6,0.1-1.1,0.4-1.6c0.3-0.5,0.7-0.8,1.3-1
					c0.5-0.2,1.6-0.5,3.4-0.8c0-0.6-0.2-1-0.4-1.3c-0.3-0.4-0.8-0.6-1.5-0.6c-0.3,0-0.5,0-0.7,0.1c-0.2,0.1-0.4,0.1-0.6,0.2
					c-0.2,0.4-0.3,0.7-0.4,1.1l-0.1,0.2L73.5,96l0-0.7l0-0.7l1-0.6c0.4-0.2,0.8-0.4,1.1-0.5c0.3-0.1,0.7-0.1,1.1-0.1
					c0.8,0,1.5,0.2,2,0.6c0.5,0.4,0.8,0.9,0.9,1.5c0.1,0.4,0.1,1.4,0.1,3.1c0,2,0.1,2.4,0.1,2.5c0,0,0,0.1,0.2,0.1H81v1l-0.2,0
					c-0.6,0-1.1-0.1-1.3-0.1c-0.3,0-0.7,0-1.3,0.1l-0.2,0l0-1c0-0.1,0-0.2,0-0.3l-1.4,1.1c-0.2,0.1-0.4,0.2-0.5,0.3
					C75.8,102.1,75.6,102.1,75.3,102.1z M76,94.2c0.8,0,1.4,0.2,1.8,0.7c0.3,0.4,0.5,1,0.5,1.7l0,0.2l-0.2,0c-1.8,0.3-3,0.6-3.5,0.8
					c-0.5,0.2-0.8,0.5-1.1,0.9c-0.3,0.4-0.4,0.9-0.4,1.4c0,0.6,0.2,1,0.5,1.3c0.3,0.3,0.9,0.5,1.5,0.5c0.2,0,0.4,0,0.6-0.1
					c0.1,0,0.3-0.1,0.4-0.2l2.1-1.6l0,0.4c0,0.3,0,0.5,0,0.7l0,0.5c0.4,0,0.8,0,1.1,0c0.2,0,0.6,0,1.2,0v-0.2h-0.5
					c-0.4,0-0.6-0.2-0.6-0.4c0-0.1-0.1-0.3-0.1-2.6c0-1.6-0.1-2.6-0.1-3c-0.1-0.5-0.3-0.9-0.8-1.2c-0.4-0.3-1-0.5-1.8-0.5
					c-0.3,0-0.7,0-1,0.1c-0.3,0.1-0.7,0.2-1.1,0.5l-0.8,0.5l0,0.5l0,0.4l0.2,0c0.1-0.3,0.2-0.7,0.4-1l0-0.1l0.1,0
					c0.2-0.1,0.5-0.3,0.7-0.3C75.5,94.3,75.8,94.2,76,94.2z M75.8,101.1c-0.4,0-0.8-0.1-1.1-0.4c-0.3-0.3-0.4-0.7-0.4-1.1
					c0-0.7,0.2-1.2,0.7-1.5c0.4-0.3,1.5-0.6,3.1-1l0.2-0.1l0,0.7l0,1.9l0,0.1c-0.4,0.5-0.8,0.9-1.2,1.1
					C76.7,101,76.3,101.1,75.8,101.1z M78,97.5c-1.4,0.3-2.3,0.6-2.7,0.9c-0.4,0.3-0.6,0.7-0.6,1.2c0,0.4,0.1,0.7,0.3,0.9
					c0.2,0.2,0.5,0.3,0.8,0.3c0.4,0,0.8-0.1,1.1-0.3c0.3-0.2,0.7-0.5,1-1l0-1.8L78,97.5z"/>
			</g>
			<g>
				<path class="st5" d="M88.3,95.1c0.1,0.4,0.2,0.7,0.2,0.9c0,0.5-0.2,1-0.5,1.5c-0.3,0.5-0.7,0.8-1.3,1.1
					c-0.6,0.3-1.2,0.4-1.8,0.4l-0.4,0c-0.4,0.3-0.6,0.5-0.7,0.6c-0.1,0.1-0.1,0.3-0.1,0.4c0,0.2,0.1,0.4,0.3,0.5
					c0.2,0.1,0.7,0.2,1.3,0.2c0.3,0,0.6,0,1.1,0c0.7,0,1.2,0,1.5,0c0.4,0,0.8,0.1,1,0.2c0.2,0.1,0.4,0.4,0.6,0.8
					c0.2,0.4,0.3,0.8,0.3,1.2c0,0.6-0.2,1.2-0.6,1.8c-0.4,0.6-0.9,1-1.7,1.4c-0.7,0.4-1.6,0.5-2.5,0.5c-1.2,0-2.1-0.3-2.7-0.8
					c-0.6-0.5-0.9-1.1-0.9-1.9c0-0.5,0.2-0.9,0.5-1.4c0.6-0.3,1.1-0.6,1.5-0.8c-0.5-0.2-0.8-0.3-0.9-0.4c-0.1-0.1-0.2-0.3-0.2-0.5
					c0-0.2,0.1-0.5,0.2-0.7c0.1-0.1,0.3-0.3,0.6-0.5l0.8-0.6c-0.7-0.2-1.2-0.4-1.5-0.7c-0.4-0.4-0.6-1-0.6-1.6
					c0-0.6,0.1-1.1,0.4-1.6c0.3-0.5,0.7-0.8,1.3-1.1c0.7-0.3,1.4-0.5,2.1-0.5c0.4,0,0.8,0.1,1.1,0.2c0.3,0.1,0.7,0.3,1,0.6h0.7
					c0.7,0,1.3,0,1.7-0.1l0.1,0.2c-0.2,0.2-0.3,0.5-0.4,0.8H88.3z M84.7,101.9c-0.4,0-0.7,0-0.8,0.1c-0.5,0.3-0.8,0.6-0.9,0.7
					c-0.2,0.3-0.3,0.7-0.3,1.1c0,0.6,0.2,1.1,0.7,1.5c0.5,0.4,1.1,0.6,1.9,0.6c0.6,0,1.2-0.1,1.7-0.3c0.5-0.2,0.8-0.6,1.1-1
					c0.3-0.4,0.4-0.8,0.4-1.3c0-0.4-0.1-0.7-0.3-1c-0.2-0.3-0.4-0.5-0.7-0.5c-0.1,0-0.4-0.1-0.9-0.1H84.7z M87,96.5
					c0-0.7-0.2-1.3-0.5-1.7c-0.4-0.4-0.8-0.6-1.4-0.6c-0.5,0-1,0.2-1.3,0.5c-0.3,0.4-0.5,0.8-0.5,1.5c0,0.8,0.2,1.3,0.5,1.8
					c0.4,0.4,0.8,0.6,1.4,0.6c0.5,0,1-0.2,1.3-0.5C86.9,97.6,87,97.1,87,96.5z"/>
				<path class="st0" d="M85.1,106.8c-1.2,0-2.2-0.3-2.8-0.8c-0.7-0.5-1-1.2-1-2c0-0.5,0.2-1,0.5-1.5l0,0l0,0
					c0.4-0.2,0.8-0.4,1.1-0.6c-0.3-0.1-0.5-0.2-0.6-0.3c-0.2-0.2-0.3-0.4-0.3-0.6c0-0.3,0.1-0.5,0.2-0.8c0.1-0.2,0.3-0.4,0.6-0.6
					l0.5-0.3c-0.5-0.2-0.9-0.4-1.2-0.7c-0.4-0.5-0.6-1-0.6-1.7c0-0.6,0.2-1.2,0.5-1.7c0.3-0.5,0.8-0.9,1.4-1.2
					c0.8-0.4,1.5-0.5,2.2-0.5c0.4,0,0.9,0.1,1.2,0.2c0.3,0.1,0.7,0.3,1,0.6h0.6c0.7,0,1.3,0,1.7-0.1l0.1,0l0.2,0.4l-0.1,0.1
					c-0.2,0.2-0.3,0.5-0.4,0.7L90,95.3h-1.4c0.1,0.3,0.1,0.5,0.1,0.7c0,0.5-0.2,1.1-0.5,1.6c-0.3,0.5-0.8,0.9-1.4,1.2
					c-0.6,0.3-1.2,0.5-1.9,0.5l-0.3,0c-0.4,0.3-0.6,0.5-0.6,0.5c-0.1,0.1-0.1,0.2-0.1,0.3c0,0.1,0,0.2,0.2,0.3
					c0.1,0.1,0.5,0.2,1.3,0.2c0.3,0,0.6,0,1.1,0c0.7,0,1.2,0,1.5,0c0.5,0,0.9,0.1,1.1,0.2c0.3,0.2,0.5,0.4,0.7,0.8
					c0.2,0.4,0.3,0.8,0.3,1.3c0,0.7-0.2,1.3-0.6,1.9c-0.4,0.6-1,1.1-1.8,1.5C86.9,106.6,86.1,106.8,85.1,106.8z M82.1,102.7
					c-0.3,0.4-0.4,0.8-0.4,1.2c0,0.7,0.3,1.2,0.9,1.7c0.6,0.5,1.5,0.7,2.6,0.7c0.9,0,1.7-0.2,2.5-0.5c0.7-0.3,1.2-0.8,1.6-1.3
					c0.4-0.5,0.5-1.1,0.5-1.7c0-0.4-0.1-0.8-0.2-1.1c-0.2-0.3-0.3-0.5-0.5-0.7c-0.2-0.1-0.5-0.2-0.9-0.2c-0.3,0-0.8,0-1.5,0
					c-0.5,0-0.9,0-1.1,0c-0.7,0-1.2-0.1-1.4-0.2c-0.4-0.2-0.4-0.5-0.4-0.7c0-0.2,0.1-0.3,0.2-0.5c0.1-0.1,0.1-0.2,0.2-0.3l-0.7,0.5
					c-0.4,0.2-0.5,0.4-0.5,0.4c-0.1,0.2-0.2,0.4-0.2,0.6c0,0.1,0,0.3,0.1,0.3c0.1,0.1,0.3,0.2,0.8,0.4l0.4,0.1l-0.3,0.2
					C83.1,102.2,82.6,102.5,82.1,102.7z M85.7,93.7c-0.6,0-1.3,0.2-2,0.5c-0.5,0.3-0.9,0.6-1.2,1c-0.3,0.4-0.4,0.9-0.4,1.5
					c0,0.6,0.2,1.1,0.5,1.5c0.3,0.3,0.7,0.5,1.4,0.7l0.4,0.1c0,0,0.1,0,0.1-0.1l0.1,0l0.5,0c0.6,0,1.2-0.1,1.7-0.4
					c0.5-0.3,0.9-0.6,1.2-1.1c0.3-0.4,0.4-0.9,0.4-1.4c0-0.2-0.1-0.5-0.2-0.8L88,94.9h1.7c0.1-0.2,0.2-0.4,0.3-0.5
					c-0.4,0-0.9,0.1-1.5,0.1h-0.8l-0.1,0c-0.3-0.3-0.6-0.4-0.9-0.5C86.5,93.8,86.1,93.7,85.7,93.7z M85.4,106.2
					c-0.9,0-1.5-0.2-2-0.7c-0.5-0.4-0.8-1-0.8-1.7c0-0.5,0.1-0.9,0.3-1.2c0.1-0.2,0.4-0.5,0.9-0.8c0.2-0.1,0.5-0.2,0.9-0.2h2
					c0.6,0,0.9,0,0.9,0.1c0.3,0.1,0.6,0.3,0.8,0.6c0.2,0.3,0.3,0.7,0.3,1.1c0,0.5-0.1,0.9-0.4,1.4c-0.3,0.4-0.7,0.8-1.2,1
					C86.6,106.1,86,106.2,85.4,106.2z M84.7,102.1c-0.5,0-0.7,0.1-0.7,0.1c-0.6,0.4-0.7,0.6-0.8,0.7c-0.2,0.3-0.2,0.6-0.2,1
					c0,0.6,0.2,1,0.6,1.4c0.4,0.4,1,0.6,1.8,0.6c0.6,0,1.1-0.1,1.6-0.3c0.4-0.2,0.8-0.5,1-0.9c0.2-0.4,0.4-0.8,0.4-1.1
					c0-0.3-0.1-0.6-0.2-0.9c-0.2-0.2-0.3-0.4-0.6-0.5c-0.1,0-0.3-0.1-0.8-0.1H84.7z M85.2,98.7c-0.6,0-1.1-0.2-1.5-0.7
					c-0.4-0.5-0.6-1.1-0.6-1.9c0-0.7,0.2-1.2,0.6-1.6c0.4-0.4,0.9-0.6,1.5-0.6c0.6,0,1.1,0.2,1.5,0.7c0.4,0.5,0.6,1.1,0.6,1.8
					c0,0.7-0.2,1.3-0.6,1.6C86.3,98.5,85.8,98.7,85.2,98.7z M85.1,94.3c-0.5,0-0.9,0.2-1.2,0.5c-0.3,0.3-0.4,0.8-0.4,1.3
					c0,0.7,0.2,1.3,0.5,1.6c0.3,0.4,0.7,0.6,1.2,0.6c0.5,0,0.9-0.2,1.2-0.5c0.3-0.3,0.5-0.8,0.5-1.4c0-0.7-0.2-1.2-0.5-1.6
					C86,94.5,85.6,94.3,85.1,94.3z"/>
			</g>
			<g>
				<path class="st5" d="M92.1,97.6c0,1.1,0.3,2,0.9,2.5c0.5,0.6,1.3,0.9,2.1,0.9c0.4,0,0.8-0.1,1.2-0.2c0.4-0.1,0.8-0.3,1.2-0.6
					l0.1,0.1l-0.3,0.7c-0.5,0.3-1,0.5-1.5,0.6c-0.5,0.1-1,0.2-1.5,0.2c-1.1,0-2.1-0.4-2.8-1.1c-0.7-0.7-1.1-1.7-1.1-3
					c0-1,0.2-1.8,0.6-2.5c0.3-0.5,0.7-0.9,1.4-1.3c0.7-0.4,1.4-0.6,2-0.6c1,0,1.8,0.3,2.4,0.9c0.6,0.6,0.9,1.4,0.9,2.5l0,0.5
					c-0.4,0.1-0.7,0.2-1.1,0.2c-0.6,0-1.4,0.1-2.5,0.1H92.1z M92.1,97c0.9,0,1.8,0.1,2.9,0.1c0.4,0,0.8,0,1.2-0.1v-0.5
					c0-0.5-0.1-1-0.3-1.4c-0.1-0.3-0.3-0.5-0.7-0.7c-0.3-0.2-0.7-0.3-1.1-0.3c-0.6,0-1.1,0.2-1.5,0.7C92.3,95.3,92.1,96,92.1,97z"/>
				<path class="st0" d="M94.3,102.1c-1.2,0-2.2-0.4-2.9-1.2c-0.7-0.8-1.1-1.8-1.1-3.1c0-1,0.2-1.8,0.6-2.6c0.3-0.5,0.8-0.9,1.5-1.3
					c0.7-0.4,1.4-0.6,2.1-0.6c1.1,0,1.9,0.3,2.5,0.9c0.6,0.6,0.9,1.5,0.9,2.6l0,0.7l-0.1,0c-0.4,0.1-0.8,0.2-1.1,0.2
					c-0.6,0-1.5,0.1-2.5,0.1h-1.9c0.1,1,0.3,1.7,0.8,2.2c0.5,0.5,1.2,0.8,2,0.8c0.4,0,0.7-0.1,1.1-0.2c0.4-0.1,0.7-0.3,1.1-0.6
					l0.1-0.1l0.4,0.3l-0.3,0.9l-0.1,0c-0.5,0.3-1,0.5-1.5,0.6C95.4,102.1,94.8,102.1,94.3,102.1z M94.5,93.7c-0.6,0-1.3,0.2-1.9,0.6
					c-0.7,0.4-1.1,0.8-1.4,1.2c-0.4,0.7-0.6,1.5-0.6,2.4c0,1.2,0.3,2.1,1,2.8c0.7,0.7,1.5,1,2.6,1c0.5,0,1-0.1,1.5-0.2
					c0.5-0.1,0.9-0.3,1.3-0.6l0.1-0.4c-0.3,0.2-0.6,0.3-1,0.4c-0.4,0.1-0.8,0.2-1.2,0.2c-0.9,0-1.7-0.3-2.3-0.9
					c-0.6-0.6-0.9-1.5-0.9-2.7l0-0.2h2.3c1.1,0,1.9,0,2.5-0.1c0.3,0,0.6-0.1,0.9-0.1l0-0.3c0-1-0.3-1.8-0.8-2.3
					C96.2,94,95.5,93.7,94.5,93.7z M95,97.3c-1.1,0-2,0-2.9-0.1l-0.2,0l0-0.2c0-1,0.2-1.8,0.6-2.3c0.4-0.5,1-0.8,1.7-0.8
					c0.4,0,0.8,0.1,1.2,0.3c0.3,0.2,0.6,0.5,0.7,0.8c0.2,0.5,0.3,1,0.3,1.5v0.7l-0.2,0C95.8,97.2,95.4,97.3,95,97.3z M92.3,96.8
					c0.8,0,1.7,0.1,2.7,0.1c0.4,0,0.7,0,1,0v-0.3c0-0.5-0.1-0.9-0.3-1.3c-0.1-0.2-0.3-0.4-0.6-0.6c-0.3-0.2-0.6-0.2-1-0.2
					c-0.6,0-1,0.2-1.4,0.6C92.5,95.4,92.3,96,92.3,96.8z"/>
			</g>
			<g>
				<path class="st5" d="M50.2,106.4c-0.2,0.6-0.2,1.4-0.3,2.3h-0.6v-0.7c0-0.4-0.1-0.7-0.2-0.9c-0.1-0.2-0.4-0.3-0.9-0.5
					c-0.5-0.2-1-0.3-1.6-0.3c-0.9,0-1.6,0.2-2.1,0.7c-0.5,0.5-0.8,1-0.8,1.8c0,0.5,0.1,0.8,0.3,1.2c0.2,0.3,0.5,0.6,0.9,0.7
					c0.4,0.1,1.1,0.3,2.3,0.4c1.2,0.1,2,0.3,2.4,0.4c0.4,0.2,0.7,0.5,1,0.9c0.2,0.4,0.4,0.9,0.4,1.5c0,1.1-0.5,2.1-1.4,2.9
					c-1,0.8-2.2,1.2-3.8,1.2c-0.5,0-1.1-0.1-1.6-0.2c-0.6-0.1-1.1-0.3-1.7-0.5c0.1-0.7,0.2-1.5,0.1-2.6h0.6v0.4c0,0.5,0,0.9,0.1,1
					c0.1,0.1,0.2,0.3,0.4,0.4c0.3,0.2,0.7,0.4,1.1,0.5c0.4,0.1,0.9,0.2,1.4,0.2c1.1,0,1.9-0.3,2.5-0.8c0.6-0.5,0.9-1.1,0.9-1.9
					c0-0.5-0.1-0.8-0.3-1.1s-0.5-0.5-0.8-0.7c-0.4-0.2-1-0.3-2-0.3c-1.3-0.1-2.1-0.3-2.6-0.5c-0.5-0.2-0.8-0.5-1.1-1
					c-0.3-0.4-0.4-1-0.4-1.6c0-1.1,0.4-2,1.2-2.7c0.8-0.7,1.9-1.1,3.3-1.1c0.6,0,1.1,0.1,1.7,0.2C49,106,49.6,106.2,50.2,106.4z"/>
				<path class="st0" d="M45.7,118.3c-0.6,0-1.1-0.1-1.7-0.2c-0.6-0.1-1.1-0.3-1.7-0.5l-0.1-0.1l0-0.2c0.1-0.7,0.1-1.5,0.1-2.6
					l0-0.2h1v0.6c0,0.7,0,0.9,0.1,0.9c0,0.1,0.1,0.2,0.3,0.3c0.3,0.2,0.6,0.4,1,0.5c0.4,0.1,0.9,0.2,1.3,0.2c1,0,1.8-0.2,2.3-0.7
					c0.5-0.5,0.8-1,0.8-1.8c0-0.4-0.1-0.8-0.3-1c-0.2-0.3-0.4-0.5-0.7-0.6c-0.3-0.1-1-0.3-1.9-0.3c-1.3-0.1-2.2-0.3-2.7-0.5
					c-0.5-0.2-0.9-0.6-1.2-1c-0.3-0.5-0.4-1.1-0.4-1.7c0-1.2,0.4-2.1,1.3-2.9c0.8-0.7,2-1.1,3.4-1.1c0.6,0,1.2,0.1,1.7,0.2
					c0.6,0.1,1.2,0.3,1.7,0.6l0.2,0.1l0,0.2c-0.2,0.6-0.2,1.3-0.2,2.3l0,0.2h-1v-0.9c0-0.5-0.1-0.7-0.1-0.8
					c-0.1-0.1-0.2-0.2-0.8-0.4c-0.5-0.2-1-0.3-1.5-0.3c-0.9,0-1.5,0.2-2,0.6c-0.5,0.4-0.7,1-0.7,1.6c0,0.4,0.1,0.8,0.3,1.1
					c0.2,0.3,0.4,0.5,0.8,0.6c0.3,0.1,1.1,0.3,2.2,0.4c1.2,0.1,2,0.3,2.4,0.5c0.4,0.2,0.8,0.5,1.1,1c0.3,0.4,0.4,1,0.4,1.6
					c0,1.2-0.5,2.2-1.5,3.1C48.6,117.9,47.3,118.3,45.7,118.3z M42.6,117.3c0.5,0.2,1,0.3,1.5,0.4c0.5,0.1,1.1,0.2,1.6,0.2
					c1.5,0,2.8-0.4,3.7-1.2c0.9-0.8,1.4-1.7,1.4-2.8c0-0.5-0.1-1-0.3-1.4c-0.2-0.4-0.5-0.7-0.9-0.8c-0.4-0.2-1.2-0.3-2.3-0.4
					c-1.2-0.1-2-0.2-2.3-0.4c-0.4-0.2-0.7-0.4-0.9-0.8c-0.2-0.4-0.4-0.8-0.4-1.3c0-0.8,0.3-1.4,0.8-1.9c0.6-0.5,1.3-0.7,2.3-0.7
					c0.6,0,1.1,0.1,1.6,0.3c0.6,0.2,0.9,0.4,1,0.6c0.1,0.2,0.2,0.5,0.2,1v0.5h0.2c0-0.8,0.1-1.5,0.2-2c-0.5-0.2-1-0.4-1.5-0.5
					c-0.6-0.1-1.1-0.2-1.7-0.2c-1.4,0-2.4,0.3-3.2,1c-0.8,0.7-1.1,1.5-1.1,2.6c0,0.6,0.1,1.1,0.4,1.5c0.2,0.4,0.6,0.7,1,0.9
					c0.4,0.2,1.3,0.3,2.5,0.4c1,0.1,1.7,0.2,2,0.4c0.4,0.2,0.7,0.4,0.9,0.8c0.2,0.3,0.3,0.8,0.3,1.3c0,0.8-0.3,1.5-0.9,2.1
					c-0.6,0.5-1.5,0.8-2.6,0.8c-0.5,0-1-0.1-1.4-0.2c-0.4-0.1-0.8-0.3-1.2-0.5c-0.2-0.2-0.4-0.3-0.5-0.5c0-0.1-0.1-0.3-0.1-1.1v-0.2
					h-0.2C42.7,116,42.7,116.7,42.6,117.3z"/>
			</g>
			<g>
				<path class="st5" d="M51.3,113.9c0-0.8,0.2-1.5,0.5-2.1c0.4-0.6,0.9-1.1,1.5-1.5s1.4-0.5,2.2-0.5c1.2,0,2.2,0.4,2.9,1.1
					c0.7,0.7,1.1,1.7,1.1,2.9c0,1.4-0.5,2.5-1.4,3.3c-0.8,0.7-1.9,1.1-3,1.1c-1.1,0-2.1-0.4-2.8-1.1
					C51.7,116.2,51.3,115.2,51.3,113.9z M52.9,113.3c0,1.2,0.2,2.2,0.7,3c0.5,0.8,1.2,1.2,2.1,1.2c0.7,0,1.2-0.3,1.7-0.8
					c0.4-0.5,0.6-1.3,0.6-2.4c0-0.9-0.1-1.6-0.4-2.2c-0.2-0.6-0.6-1.1-1-1.4c-0.4-0.3-0.9-0.4-1.4-0.4c-0.4,0-0.9,0.1-1.2,0.3
					c-0.4,0.2-0.6,0.5-0.8,0.9C53,112.1,52.9,112.7,52.9,113.3z"/>
				<path class="st0" d="M55.1,118.3c-1.2,0-2.2-0.4-2.9-1.2c-0.7-0.8-1.1-1.9-1.1-3.2c0-0.8,0.2-1.6,0.6-2.2
					c0.4-0.7,0.9-1.2,1.6-1.6c0.7-0.4,1.5-0.6,2.3-0.6c1.3,0,2.3,0.4,3,1.1c0.8,0.7,1.1,1.8,1.1,3c0,1.5-0.5,2.6-1.5,3.5
					C57.4,117.9,56.4,118.3,55.1,118.3z M55.6,109.9c-0.8,0-1.5,0.2-2.1,0.5c-0.6,0.3-1.1,0.8-1.4,1.4c-0.3,0.6-0.5,1.3-0.5,2
					c0,1.2,0.3,2.2,1,3c0.7,0.7,1.5,1.1,2.6,1.1c1.1,0,2.1-0.4,2.9-1.1c0.9-0.8,1.4-1.9,1.4-3.2c0-1.1-0.3-2-1-2.7
					C57.7,110.3,56.8,109.9,55.6,109.9z M55.7,117.7c-1,0-1.7-0.5-2.2-1.3c-0.5-0.9-0.7-1.9-0.7-3.1c0-0.6,0.1-1.2,0.4-1.8
					c0.2-0.4,0.5-0.7,0.9-1c0.4-0.2,0.8-0.4,1.3-0.4c0.5,0,1,0.2,1.5,0.5c0.4,0.3,0.8,0.8,1.1,1.5c0.3,0.6,0.4,1.4,0.4,2.3
					c0,1.1-0.2,1.9-0.7,2.5C57.1,117.4,56.4,117.7,55.7,117.7z M55.3,110.5c-0.4,0-0.8,0.1-1.1,0.3c-0.3,0.2-0.6,0.5-0.7,0.8
					c-0.2,0.5-0.3,1-0.3,1.6c0,1.1,0.2,2.1,0.7,2.9c0.4,0.8,1.1,1.1,1.9,1.1c0.6,0,1.1-0.2,1.5-0.7c0.4-0.5,0.6-1.2,0.6-2.2
					c0-0.8-0.1-1.5-0.4-2.1c-0.2-0.6-0.5-1-0.9-1.3C56.1,110.7,55.7,110.5,55.3,110.5z"/>
			</g>
			<g>
				<path class="st5" d="M66.6,116.7l0.2,0.2l-0.3,0.5c-0.4,0.2-0.8,0.4-1.2,0.5s-0.8,0.2-1.2,0.2c-0.8,0-1.5-0.2-2.1-0.5
					s-1-0.8-1.3-1.4c-0.3-0.6-0.5-1.3-0.5-2.1c0-0.7,0.1-1.4,0.4-1.9c0.2-0.5,0.6-1,1-1.3c0.4-0.3,1-0.6,1.6-0.9
					c0.5-0.2,1-0.3,1.6-0.3c0.4,0,0.8,0,1.1,0.1c0.3,0.1,0.7,0.2,1,0.4c-0.1,0.7-0.2,1.5-0.2,2.2h-0.5v-0.4c0-0.4-0.1-0.6-0.2-0.8
					c-0.1-0.1-0.3-0.3-0.7-0.4c-0.4-0.1-0.8-0.2-1.2-0.2c-0.8,0-1.4,0.2-1.8,0.7c-0.4,0.5-0.6,1.2-0.6,2.1c0,1.2,0.3,2.1,0.9,2.9
					c0.5,0.6,1.3,1,2.1,1c0.3,0,0.7,0,1-0.1C66,117,66.3,116.9,66.6,116.7z"/>
				<path class="st0" d="M64.1,118.3c-0.9,0-1.6-0.2-2.2-0.5c-0.6-0.3-1.1-0.8-1.4-1.5c-0.3-0.6-0.5-1.4-0.5-2.2
					c0-0.8,0.1-1.4,0.4-2c0.3-0.6,0.6-1,1.1-1.3c0.4-0.3,1-0.6,1.7-0.9c0.5-0.2,1-0.3,1.6-0.3c0.4,0,0.8,0,1.2,0.1
					c0.3,0.1,0.7,0.2,1.1,0.4l0.1,0.1l0,0.1c-0.1,0.7-0.2,1.5-0.2,2.2l0,0.2h-0.9v-0.6c0-0.4-0.1-0.6-0.1-0.7c0-0.1-0.2-0.2-0.6-0.4
					c-0.3-0.1-0.7-0.2-1.1-0.2c-0.7,0-1.2,0.2-1.6,0.6c-0.4,0.4-0.6,1.1-0.6,2c0,1.1,0.3,2.1,0.9,2.7c0.5,0.6,1.2,0.9,2,0.9
					c0.3,0,0.6,0,1-0.1c0.3-0.1,0.6-0.2,0.9-0.4l0.1-0.1l0.5,0.4l-0.5,0.7l0,0c-0.4,0.2-0.8,0.4-1.2,0.5
					C65,118.3,64.5,118.3,64.1,118.3z M64.7,109.9c-0.5,0-1,0.1-1.5,0.3c-0.6,0.3-1.2,0.6-1.6,0.9c-0.4,0.3-0.7,0.7-1,1.2
					c-0.2,0.5-0.3,1.1-0.3,1.8c0,0.8,0.2,1.5,0.5,2c0.3,0.6,0.7,1,1.3,1.3c0.5,0.3,1.2,0.5,2,0.5c0.4,0,0.8-0.1,1.2-0.2
					c0.4-0.1,0.7-0.2,1.1-0.4l0.2-0.4l0,0c-0.3,0.1-0.6,0.3-0.9,0.3c-0.3,0.1-0.7,0.1-1.1,0.1c-0.9,0-1.7-0.4-2.3-1
					c-0.6-0.8-1-1.8-1-3c0-1,0.2-1.7,0.7-2.2c0.4-0.5,1.1-0.8,1.9-0.8c0.5,0,0.9,0.1,1.3,0.2c0.4,0.2,0.7,0.3,0.8,0.5
					c0.1,0.2,0.2,0.5,0.2,0.9v0.2h0.1c0-0.6,0.1-1.3,0.2-1.9c-0.3-0.1-0.6-0.2-0.8-0.3C65.5,110,65.1,109.9,64.7,109.9z"/>
			</g>
			<g>
				<path class="st5" d="M70.3,109.7l0.2,0.1c0,0.4-0.1,0.9-0.1,1.4c0,1.7-0.1,2.9-0.1,3.7c0,0.7,0,1.4,0.1,1.9
					c0,0.2,0.1,0.3,0.2,0.4c0.1,0.1,0.3,0.1,0.6,0.2l0.6,0.1v0.5c-0.8,0-1.6-0.1-2.3-0.1c-0.7,0-1.3,0-2,0.1v-0.5l0.7-0.1
					c0.3,0,0.5-0.1,0.5-0.2c0.1-0.1,0.1-0.4,0.1-0.8c0-0.7,0-1.7,0-3c0-0.9,0-1.6,0-2c0-0.2-0.1-0.3-0.1-0.4
					c-0.1-0.1-0.3-0.1-0.6-0.1h-0.6v-0.5c0.7-0.1,1.2-0.2,1.5-0.3C69.3,110.1,69.7,109.9,70.3,109.7z M69.6,106
					c0.3,0,0.5,0.1,0.7,0.3c0.2,0.2,0.3,0.4,0.3,0.7c0,0.3-0.1,0.5-0.3,0.7c-0.2,0.2-0.4,0.3-0.7,0.3c-0.3,0-0.5-0.1-0.7-0.3
					c-0.2-0.2-0.3-0.4-0.3-0.7c0-0.3,0.1-0.5,0.3-0.7C69.1,106,69.3,106,69.6,106z"/>
				<path class="st0" d="M67.3,118.2v-0.9l0.9-0.1c0.3,0,0.4-0.1,0.4-0.1c0,0,0.1-0.1,0.1-0.7c0-0.7,0-1.7,0-3c0-0.9,0-1.5,0-2
					c0-0.1,0-0.2-0.1-0.2c0,0-0.1-0.1-0.5-0.1h-0.8v-0.9l0.2,0c0.7-0.1,1.2-0.2,1.5-0.3c0.3-0.1,0.7-0.2,1.2-0.4l0.1,0l0.4,0.2
					l0,0.1c0,0.4-0.1,0.9-0.1,1.4c0,1.6-0.1,2.9-0.1,3.7c0,0.7,0,1.4,0.1,1.9c0,0.2,0.1,0.3,0.1,0.3c0,0,0.1,0.1,0.5,0.1l0.8,0.1
					v0.9l-0.2,0c-0.8,0-1.6-0.1-2.2-0.1c-0.7,0-1.3,0-2,0.1L67.3,118.2z M69.5,117.7c0.6,0,1.3,0,2.1,0.1v-0.1l-0.4-0.1
					c-0.4,0-0.6-0.1-0.7-0.2c-0.1-0.1-0.2-0.3-0.2-0.5c-0.1-0.5-0.1-1.2-0.1-1.9c0-0.8,0-2,0.1-3.7c0-0.5,0-0.9,0.1-1.3l0,0
					c-0.5,0.2-0.9,0.3-1.2,0.4c-0.3,0.1-0.8,0.2-1.4,0.3v0.1h0.4c0.4,0,0.6,0,0.7,0.2c0.1,0.1,0.2,0.3,0.2,0.5c0,0.5,0,1.2,0,2
					c0,1.3,0,2.3,0,3c0,0.7-0.1,0.8-0.2,0.9c-0.1,0.1-0.3,0.2-0.7,0.2l-0.5,0.1v0.1C68.3,117.7,68.9,117.7,69.5,117.7z M69.6,108.1
					c-0.3,0-0.6-0.1-0.8-0.3c-0.2-0.2-0.3-0.5-0.3-0.8c0-0.3,0.1-0.6,0.3-0.8c0.2-0.2,0.5-0.3,0.8-0.3c0.3,0,0.6,0.1,0.8,0.3
					c0.2,0.2,0.3,0.5,0.3,0.8c0,0.3-0.1,0.6-0.3,0.8C70.2,108,69.9,108.1,69.6,108.1z M69.6,106.1c-0.2,0-0.4,0.1-0.5,0.2
					c-0.2,0.2-0.2,0.3-0.2,0.5c0,0.2,0.1,0.4,0.2,0.5c0.3,0.3,0.8,0.3,1.1,0c0.1-0.1,0.2-0.3,0.2-0.5c0-0.2-0.1-0.4-0.2-0.5
					C70,106.2,69.8,106.1,69.6,106.1z"/>
			</g>
			<g>
				<path class="st5" d="M73.8,113.8c0,1.1,0.3,2,0.9,2.5c0.5,0.6,1.3,0.9,2.1,0.9c0.4,0,0.8-0.1,1.2-0.2c0.4-0.1,0.8-0.3,1.2-0.6
					l0.1,0.1l-0.3,0.7c-0.5,0.3-1,0.5-1.5,0.6c-0.5,0.1-1,0.2-1.5,0.2c-1.1,0-2.1-0.4-2.8-1.1c-0.7-0.7-1.1-1.7-1.1-3
					c0-1,0.2-1.8,0.6-2.5c0.3-0.5,0.7-0.9,1.4-1.3c0.7-0.4,1.4-0.6,2-0.6c1,0,1.8,0.3,2.4,0.9c0.6,0.6,0.9,1.4,0.9,2.5l0,0.5
					c-0.4,0.1-0.7,0.2-1.1,0.2c-0.6,0-1.4,0.1-2.5,0.1H73.8z M73.8,113.2c0.9,0,1.8,0.1,2.9,0.1c0.4,0,0.8,0,1.2-0.1v-0.5
					c0-0.5-0.1-1-0.3-1.4c-0.1-0.3-0.3-0.5-0.7-0.7c-0.3-0.2-0.7-0.3-1.1-0.3c-0.6,0-1.1,0.2-1.5,0.7
					C74,111.5,73.8,112.2,73.8,113.2z"/>
				<path class="st0" d="M76,118.3c-1.2,0-2.2-0.4-2.9-1.2c-0.7-0.8-1.1-1.8-1.1-3.1c0-1,0.2-1.8,0.6-2.6c0.3-0.5,0.8-0.9,1.5-1.3
					c0.7-0.4,1.4-0.6,2.1-0.6c1.1,0,1.9,0.3,2.5,0.9c0.6,0.6,0.9,1.5,0.9,2.6l0,0.7l-0.1,0c-0.4,0.1-0.8,0.2-1.1,0.2
					c-0.6,0-1.5,0.1-2.5,0.1H74c0.1,1,0.3,1.7,0.8,2.2c0.5,0.5,1.2,0.8,2,0.8c0.4,0,0.7-0.1,1.1-0.2c0.4-0.1,0.7-0.3,1.1-0.6
					l0.1-0.1l0.4,0.3l-0.3,0.9l-0.1,0c-0.5,0.3-1,0.5-1.5,0.6C77.1,118.2,76.5,118.3,76,118.3z M76.2,109.9c-0.6,0-1.3,0.2-1.9,0.6
					c-0.7,0.4-1.1,0.8-1.4,1.2c-0.4,0.7-0.6,1.5-0.6,2.4c0,1.2,0.3,2.1,1,2.8c0.7,0.7,1.5,1,2.6,1c0.5,0,1-0.1,1.5-0.2
					c0.5-0.1,0.9-0.3,1.3-0.6l0.1-0.4c-0.3,0.2-0.6,0.3-1,0.4c-0.4,0.1-0.8,0.2-1.2,0.2c-0.9,0-1.7-0.3-2.3-0.9
					c-0.6-0.6-0.9-1.5-0.9-2.7l0-0.2h2.3c1.1,0,1.9,0,2.5-0.1c0.3,0,0.6-0.1,0.9-0.1l0-0.3c0-1-0.3-1.8-0.8-2.3
					C77.9,110.2,77.2,109.9,76.2,109.9z M76.7,113.5c-1.1,0-2,0-2.9-0.1l-0.2,0l0-0.2c0-1,0.2-1.8,0.6-2.3c0.4-0.5,1-0.8,1.7-0.8
					c0.4,0,0.8,0.1,1.2,0.3c0.3,0.2,0.6,0.5,0.7,0.8c0.2,0.5,0.3,1,0.3,1.5v0.7l-0.2,0C77.5,113.4,77.1,113.5,76.7,113.5z M74,113
					c0.8,0,1.7,0.1,2.7,0.1c0.4,0,0.7,0,1,0v-0.3c0-0.5-0.1-0.9-0.3-1.3c-0.1-0.2-0.3-0.4-0.6-0.6c-0.3-0.2-0.6-0.2-1-0.2
					c-0.6,0-1,0.2-1.4,0.6C74.2,111.6,74,112.2,74,113z"/>
			</g>
			<g>
				<path class="st5" d="M82.7,111.3v3.3c0,0.9,0,1.4,0.1,1.7c0.1,0.2,0.2,0.4,0.3,0.6c0.2,0.1,0.4,0.2,0.7,0.2c0.2,0,0.3,0,0.5-0.1
					c0.2-0.1,0.3-0.2,0.5-0.3L85,117l-0.8,1c-0.2,0.1-0.4,0.1-0.5,0.1c-0.2,0-0.3,0.1-0.5,0.1c-0.4,0-0.8-0.1-1.1-0.2
					c-0.3-0.1-0.5-0.3-0.6-0.6c-0.1-0.2-0.2-0.6-0.2-1.1l0-1.6v-3.2c-0.4,0-0.9,0-1.3,0.1v-0.4c0.5-0.2,0.9-0.4,1.3-0.6
					c0-0.8,0-1.7-0.1-2.6c0.7-0.3,1.1-0.5,1.4-0.7l0.2,0.2c0,0.4-0.1,1.5-0.1,3.1c0.7,0,1.3,0,1.7,0l0.7,0l-0.1,0.9l-0.3,0l-1.6,0
					H82.7z"/>
				<path class="st0" d="M83.1,118.3c-0.5,0-0.8-0.1-1.2-0.2c-0.3-0.2-0.6-0.4-0.7-0.7c-0.1-0.3-0.2-0.7-0.2-1.2l0-1.6v-3
					c-0.4,0-0.7,0-1.1,0.1l-0.2,0v-0.7l0.1,0c0.4-0.2,0.8-0.3,1.2-0.5c0-0.8,0-1.6-0.1-2.5l0-0.1l0.1-0.1c0.6-0.3,1.1-0.5,1.4-0.7
					l0.1-0.1l0.4,0.3l0,0.1c0,0.4-0.1,1.4-0.1,2.9c0.6,0,1.1,0,1.5,0l0.9,0l-0.1,1.3l-0.5,0l-1.7,0v3.1c0,1.1,0,1.5,0.1,1.6
					c0,0.2,0.1,0.4,0.3,0.5c0.2,0.2,0.6,0.2,0.9,0.1c0.1-0.1,0.3-0.1,0.4-0.3l0.2-0.1l0.5,0.6l-1,1.1l-0.1,0
					c-0.2,0.1-0.4,0.1-0.6,0.2C83.5,118.3,83.3,118.3,83.1,118.3z M81.3,111.2h0.2v3.4l0,1.6c0,0.4,0.1,0.8,0.2,1
					c0.1,0.2,0.3,0.4,0.5,0.5c0.4,0.2,0.9,0.3,1.4,0.2c0.1,0,0.3-0.1,0.5-0.1l0.7-0.8l0,0c-0.1,0.1-0.2,0.2-0.4,0.2
					c-0.2,0.1-0.4,0.1-0.6,0.1c-0.3,0-0.6-0.1-0.8-0.2c-0.2-0.2-0.3-0.4-0.4-0.7c-0.1-0.3-0.1-0.8-0.1-1.7v-3.5l2.3,0l0-0.5l-0.4,0
					c-0.4,0-1,0-1.7,0h-0.2l0-0.2c0-1.5,0.1-2.5,0.1-3l0,0c-0.3,0.2-0.7,0.3-1.2,0.6c0,0.9,0.1,1.7,0.1,2.5l0,0.1l-0.1,0.1
					c-0.4,0.2-0.8,0.4-1.2,0.5v0C80.5,111.2,80.9,111.2,81.3,111.2z"/>
			</g>
			<g>
				<path class="st5" d="M85.2,122.5l0.4-1.3h0.2c0.2,0.2,0.3,0.3,0.5,0.4c0.2,0.1,0.3,0.1,0.5,0.1c0.4,0,0.7-0.2,1-0.5
					c0.3-0.3,0.7-1.3,1.3-2.8c-0.2-0.7-0.7-1.9-1.5-3.8l-0.8-1.9l-0.6-1.5c-0.2-0.5-0.5-0.8-0.9-0.8h-0.3v-0.5
					c0.6,0,1.1,0.1,1.6,0.1c0.4,0,1.2,0,2.5-0.1v0.5h-0.6c-0.2,0-0.4,0-0.5,0.1c-0.1,0.1-0.1,0.2-0.1,0.3c0,0.1,0.1,0.3,0.2,0.6
					c0.6,1.6,1.2,3.3,2,5.1c0.7-1.6,1.4-3.2,1.9-4.8c0.2-0.4,0.2-0.7,0.2-0.8c0-0.2-0.2-0.3-0.6-0.4l-0.6-0.1v-0.5
					c0.7,0,1.3,0.1,1.8,0.1c0.5,0,1,0,1.5-0.1v0.5h-0.3c-0.1,0-0.3,0-0.4,0.1s-0.2,0.2-0.3,0.3c-0.2,0.3-0.7,1.4-1.6,3.3
					c-0.2,0.5-0.8,1.9-1.8,4.3c-0.9,2-1.3,3-1.5,3.2c-0.2,0.4-0.5,0.7-0.8,0.9c-0.3,0.2-0.7,0.3-1.1,0.3c-0.2,0-0.3,0-0.5-0.1
					C85.6,122.7,85.4,122.6,85.2,122.5z"/>
				<path class="st0" d="M86.3,123c-0.2,0-0.4,0-0.6-0.1c-0.2-0.1-0.4-0.1-0.6-0.2l-0.1-0.1l0.5-1.6h0.4l0.1,0.1
					c0.1,0.2,0.3,0.3,0.4,0.4c0.1,0.1,0.2,0.1,0.4,0.1c0.3,0,0.6-0.1,0.8-0.4c0.3-0.3,0.7-1.2,1.3-2.7c-0.3-0.7-0.7-1.9-1.5-3.7
					l-0.8-1.9l-0.6-1.5c-0.3-0.7-0.6-0.7-0.7-0.7h-0.5v-0.9l0.2,0c0.6,0,1.1,0.1,1.5,0.1c0.4,0,1.2,0,2.4-0.1l0.2,0v0.9h-0.8
					c-0.2,0-0.3,0-0.4,0.1c-0.1,0-0.1,0.1-0.1,0.1c0,0,0,0.1,0.1,0.5c0.5,1.4,1.1,3,1.8,4.6c0.7-1.5,1.3-2.9,1.8-4.3
					c0.2-0.6,0.2-0.7,0.2-0.7c0,0-0.1-0.1-0.4-0.2l-0.8-0.1v-0.9l0.2,0c0.7,0,1.3,0.1,1.8,0.1c0.5,0,1,0,1.5-0.1l0.2,0v0.9h-0.5
					c-0.1,0-0.2,0-0.3,0.1c-0.1,0.1-0.2,0.1-0.3,0.3c-0.2,0.3-0.7,1.4-1.6,3.3c-0.2,0.5-0.8,1.9-1.8,4.3c-0.9,2-1.4,3-1.5,3.2
					c-0.2,0.4-0.5,0.7-0.9,0.9C87.1,122.9,86.7,123,86.3,123z M85.5,122.4c0.1,0.1,0.2,0.1,0.3,0.1c0.5,0.2,1,0,1.5-0.2
					c0.3-0.2,0.6-0.4,0.8-0.8c0.1-0.1,0.4-0.8,1.4-3.2c1-2.3,1.6-3.7,1.8-4.3c0.9-1.9,1.4-3,1.6-3.3c0.1-0.2,0.2-0.3,0.4-0.4
					c0.2-0.1,0.3-0.1,0.5-0.1h0.1v-0.1c-0.9,0.1-1.8,0.1-2.9,0v0.1l0.5,0.1c0.5,0.1,0.7,0.3,0.7,0.6c0,0.1,0,0.3-0.3,0.9
					c-0.6,1.5-1.2,3.1-2,4.8l-0.2,0.4l-0.2-0.4c-0.8-1.8-1.5-3.5-2-5.1c-0.2-0.4-0.2-0.6-0.2-0.7c0-0.1,0-0.3,0.2-0.4
					c0.1-0.1,0.3-0.1,0.6-0.1h0.4v-0.1c-1.2,0-1.9,0.1-2.3,0.1c-0.4,0-0.9,0-1.4,0v0.1h0.1c0.5,0,0.8,0.3,1.1,0.9l0.6,1.5l0.8,1.9
					c0.8,1.9,1.2,3.1,1.5,3.8l0,0.1l0,0.1c-0.6,1.6-1.1,2.5-1.4,2.9c-0.3,0.4-0.7,0.6-1.1,0.6c-0.2,0-0.4-0.1-0.6-0.2
					c-0.1-0.1-0.3-0.2-0.4-0.4L85.5,122.4z"/>
			</g>
		</g>
		<g id="bottom_point_1_">
			<g>
				<polygon class="st2" points="58.3,132.2 66.3,133.3 74.6,132.2 66.3,171.8 				"/>
				<path d="M74.2,132.5l-7.9,37.8l-7.6-37.8l7.5,1.1l0.1,0l0.1,0L74.2,132.5 M75,131.8l-8.7,1.2l-8.3-1.2l8.3,41.5L75,131.8
					L75,131.8z"/>
			</g>
			<polygon class="st4" points="66.3,133 66.3,172.9 75,131.8 			"/>
			<path d="M74,132.7l-7.7,36.7l-7.3-36.7l7.3,0.6l0.1,0l0.1,0L74,132.7 M75,131.8l-8.7,0.7l-8.3-0.7l8.3,41.5L75,131.8L75,131.8z"
				/>
		</g>
		<g id="inner_circle_1_">
			<g>
				<path d="M66.3,133.6c-8.4,0-16.4-2.6-23.1-7.7c-6.4-4.8-11.2-11.5-13.6-19H7.5v-1.2h23l0.1,0.4c4.9,15.7,19.2,26.2,35.7,26.2
					s30.8-10.5,35.7-26.2l0.1-0.4h23v1.2h-22.1c-2.4,7.5-7.2,14.2-13.6,19C82.6,130.9,74.6,133.6,66.3,133.6z"/>
			</g>
			<g>
				<path d="M125,84.4h-23l-0.1-0.4C97,68.3,82.7,57.8,66.3,57.8S35.5,68.3,30.6,84l-0.1,0.4h-23v-1.2h22.1
					c2.4-7.5,7.2-14.2,13.6-19c6.7-5,14.7-7.7,23.1-7.7s16.4,2.6,23.1,7.7c6.4,4.8,11.2,11.5,13.6,19H125V84.4z"/>
			</g>
		</g>
	</g>
</g>
</svg>
