<?xml version="1.0" encoding="utf-8"?>
<!-- Generator: Adobe Illustrator 21.0.2, SVG Export Plug-In . SVG Version: 6.00 Build 0)  -->
<svg version="1.1" id="Layer_1" xmlns="http://www.w3.org/2000/svg" xmlns:xlink="http://www.w3.org/1999/xlink" x="0px" y="0px"
	 viewBox="0 0 57.8 75.1" style="enable-background:new 0 0 57.8 75.1;" xml:space="preserve">
<style type="text/css">
	.st0{fill:#981B1E;}
	.st1{fill:#CCCCCC;}
	.st2{fill:#FFFFFF;}
	.st3{fill:#BF1E2E;}
	.st4{fill:#475A84;}
	.st5{fill:#C1272D;}
</style>
<g>
	<g id="red_circle_2_">
		<path class="st0" d="M28.8,65.2c-13.3,0-24.1-10.8-24.1-24.1c0-13.2,10.8-24,24.1-24s24.1,10.8,24.1,24.1
			C52.8,54.4,42,65.2,28.8,65.2z M28.8,18.7c-12.4,0-22.5,10.1-22.5,22.5s10.1,22.5,22.5,22.5s22.5-10.1,22.5-22.5
			S41.2,18.7,28.8,18.7z"/>
	</g>
	<g id="lighthouse_2_">
		<polyline class="st1" points="26.3,3.3 26.3,8.5 31.2,8.5 31.2,3.3 		"/>
		<path d="M31.1,3.3v1c-0.4-0.1-0.7-0.1-1-0.2v-1h-0.3v1c-0.7-0.1-1.4-0.1-1.9,0V3.2h-0.3v1c-0.5,0.1-0.8,0.1-1,0.2v-1h-0.5v5.3h5.3
			V3.4h-0.3V3.3z M27.8,6.6c0.5,0,1.2-0.1,1.9,0v0.7h-1.9V6.6z M27.8,6.2V5.5c0.5,0,1.2-0.1,1.9,0v0.7C29,6.2,28.3,6.2,27.8,6.2z
			 M26.4,5.8c0.2,0,0.5-0.1,1-0.2v0.7c-0.5,0.1-0.8,0.1-1,0.2V5.8z M30,5.6c0.3,0,0.7,0.1,1,0.2v0.7c-0.4-0.1-0.7-0.1-1-0.2V5.6z
			 M31.1,4.7v0.7c-0.4-0.1-0.7-0.1-1-0.2V4.5C30.4,4.5,30.7,4.6,31.1,4.7z M29.7,4.4v0.7C29,5,28.3,5,27.8,5.1V4.4
			C28.3,4.4,29,4.4,29.7,4.4z M27.5,4.5v0.7c-0.5,0.1-0.8,0.1-1,0.2V4.7C26.6,4.6,27,4.5,27.5,4.5z M26.4,8.3V6.8
			c0.2,0,0.5-0.1,1-0.2v1.1H30v-1c0.3,0,0.7,0.1,1,0.2v1.5h-4.6V8.3z"/>
		<polyline class="st2" points="24.4,25.5 25.3,9.7 32.2,9.7 33.1,25.3 		"/>
		<polygon points="24.6,25.5 24.3,25.5 25.2,9.5 32.3,9.5 33.3,25.3 32.9,25.4 32,9.8 25.5,9.8 		"/>
		<g id="Window_2_">
			<rect x="26.2" y="16.2" width="0.5" height="1.9"/>
		</g>
		<g id="Window_1_">
			<rect x="30.7" y="21.5" width="0.5" height="1.9"/>
		</g>
		<g>
			<path class="st3" d="M25.8,9.9c-0.5,0-0.9-0.3-1.1-0.8c-0.2-0.6,0.1-1.2,0.7-1.4c2.2-0.7,4.4-0.7,6.7,0c0.6,0.2,0.9,0.8,0.8,1.4
				c-0.2,0.6-0.8,0.9-1.4,0.8c-1.8-0.5-3.6-0.5-5.4,0C26,9.9,25.9,9.9,25.8,9.9z"/>
		</g>
		<g>
			<path d="M24.9,10.7c-0.3,0-0.6-0.2-0.7-0.5c-0.1-0.4,0.1-0.7,0.5-0.8c2.6-0.6,5.4-0.6,8.1,0c0.4,0.1,0.6,0.5,0.5,0.8
				c-0.1,0.4-0.5,0.6-0.8,0.5C30,10.1,27.5,10.1,24.9,10.7C25,10.7,24.9,10.7,24.9,10.7z"/>
		</g>
		<path class="st3" d="M31.8,3.1c-0.2,0-0.3-0.1-0.5-0.1c-0.4-0.8-1.2-1.6-2.3-1.7V1.1c0.2-0.1,0.4-0.3,0.4-0.5
			c0-0.3-0.3-0.6-0.7-0.6S28,0.3,28,0.6c0,0.2,0.2,0.4,0.4,0.5v0.2C27.2,1.4,26.5,2.2,26,3c-0.2,0-0.3,0.1-0.5,0.1s-0.3,0.2-0.3,0.4
			s0.2,0.3,0.3,0.3h0.1c1.9-0.5,3.9-0.5,5.9,0c0.2,0,0.4-0.1,0.4-0.3C32.1,3.3,32,3.1,31.8,3.1z"/>
	</g>
	<g id="white_circle_outside_1_">
		<path class="st2" d="M28.9,70.1C13,70.1,0,57.1,0,41.2s13-28.9,28.9-28.9s28.9,13,28.9,28.9S44.9,70.1,28.9,70.1z M28.9,15.7
			c-14,0-25.5,11.4-25.5,25.5c0,14,11.4,25.5,25.5,25.5c14,0,25.5-11.4,25.5-25.5S43,15.7,28.9,15.7z"/>
	</g>
	<g>
		<g>
			<path class="st4" d="M12.6,17.9c0,0,0.1,0.1,0.3,0.2c0.1,0.1,0.1,0.1,0.2,0.2c-0.1,0-0.1,0.1-0.2,0.1c-0.2-0.1-0.4-0.1-0.6,0
				c-0.2,0-0.3,0.1-0.5,0.2s-0.3,0.3-0.3,0.6c0,0.3,0.1,0.6,0.3,0.9c0.1,0.2,0.3,0.3,0.3,0.3c0.1,0.1,0.3,0.1,0.4,0.2
				c0.1,0,0.2,0,0.3,0s0.3-0.1,0.4-0.2c0.1-0.1,0.2-0.2,0.3-0.4c0.1-0.2,0.1-0.4,0.1-0.6c0,0,0.1-0.1,0.2-0.1c0,0,0,0.1,0.1,0.1
				c0,0,0,0.1,0.1,0.2c0,0,0,0,0,0.1v0.1c0,0.1-0.1,0.2-0.2,0.3c-0.1,0.1-0.3,0.2-0.4,0.4c-0.1,0.1-0.3,0.2-0.4,0.3
				c-0.1,0.1-0.3,0.1-0.4,0.1c-0.2,0-0.4,0-0.5,0s-0.3-0.1-0.4-0.1c-0.1-0.1-0.2-0.2-0.3-0.3c-0.3-0.3-0.4-0.7-0.3-1.1
				c0.1-0.4,0.3-0.8,0.7-1c0.2-0.1,0.3-0.2,0.5-0.3C12.3,18,12.4,17.9,12.6,17.9z"/>
			<path class="st4" d="M14.3,19.6l0.1-0.1l0.1-0.1c0,0,0-0.1-0.1-0.1c0,0,0-0.1-0.1-0.1c0-0.1,0-0.1-0.1-0.1c0-0.1-0.1-0.1-0.1-0.1
				l0,0c0,0,0,0-0.1-0.1l0,0c-0.2-0.2-0.2-0.4-0.4-0.6l0,0c-0.1-0.2-0.2-0.3-0.3-0.4h-0.1c0,0-0.1,0-0.2,0.1l0,0c0,0,0,0,0-0.1
				c0.1-0.1,0.1-0.1,0.1-0.1l0.1-0.1c0.1-0.1,0.1-0.2,0.2-0.3c0,0,0,0,0-0.1c0,0,0.1,0,0.1-0.1c0.3,0.4,0.4,0.6,0.6,1
				c0.1-0.2,0.1-0.3,0.2-0.4c0.1-0.1,0.2-0.2,0.3-0.2c0.1-0.1,0.2-0.1,0.3-0.1s0.2,0,0.2,0c0.1,0,0.1,0.1,0.2,0.1
				c0,0,0.1,0.1,0.2,0.3c0,0,0,0.1,0.1,0.1c0.1,0.1,0.1,0.1,0.1,0.2c0.1,0.1,0.1,0.2,0.2,0.4l0,0H16h0.1l0,0l0,0c0,0,0,0,0,0.1l0,0
				c0,0-0.1,0-0.1,0.1c-0.1,0-0.2,0.1-0.3,0.1c0,0-0.1,0.1-0.2,0.1c-0.1,0-0.1,0.1-0.2,0.1l0,0l0,0l0,0l0,0c0,0,0-0.1,0.1-0.1
				l0.1-0.1l0,0c-0.1-0.1-0.1-0.2-0.1-0.3c-0.1-0.2-0.2-0.3-0.3-0.4S15,18,14.9,18c0,0-0.1-0.1-0.2-0.1c-0.1,0-0.1,0-0.2,0.1
				c-0.1,0-0.1,0.1-0.2,0.2c-0.1,0.1-0.1,0.2-0.1,0.2c0.1,0.1,0.1,0.2,0.2,0.3c0.1,0.2,0.2,0.3,0.2,0.4c0,0,0,0.1,0.1,0.1
				c0,0.1,0.1,0.1,0.1,0.2c0,0,0,0,0.1,0c0,0,0.1,0,0.1-0.1h0.1c0,0,0,0,0,0.1c0,0,0,0,0,0.1c-0.1,0-0.1,0.1-0.2,0.1
				c-0.1,0-0.1,0.1-0.2,0.1c-0.1,0.1-0.1,0.1-0.2,0.2c-0.1,0-0.1,0.1-0.2,0.1C14.4,19.7,14.4,19.7,14.3,19.6L14.3,19.6z"/>
			<path class="st4" d="M17.9,17.3C18,17.3,18,17.3,17.9,17.3C18,17.3,18,17.3,17.9,17.3C18,17.3,18,17.3,17.9,17.3
				c0.1,0.2,0.1,0.3,0.1,0.3c0,0.1-0.1,0.1-0.2,0.1c-0.1,0-0.1,0-0.2,0c-0.1,0-0.2-0.1-0.2-0.1c0,0.1-0.1,0.2-0.1,0.3
				c-0.1,0.1-0.2,0.2-0.3,0.3c-0.1,0.1-0.2,0.1-0.3,0.1s-0.2-0.1-0.2-0.2V18c0-0.1,0-0.1,0-0.2s0.1-0.1,0.1-0.2c0,0,0-0.1,0.1-0.1
				c0.2-0.2,0.2-0.3,0.4-0.4c0,0,0-0.1-0.1-0.1c-0.1-0.2-0.2-0.3-0.2-0.3s-0.1,0-0.2,0c-0.1,0-0.1,0.1-0.2,0.1
				c0,0.1-0.1,0.1-0.1,0.2c0,0,0,0.1,0,0.2s0,0.1,0,0.1s0,0.1-0.1,0.1l-0.1,0.1C16,17.6,16,17.6,16,17.6s0,0-0.1,0
				c0-0.1-0.1-0.1,0-0.2c0-0.1,0-0.2,0.1-0.3c0.1-0.1,0.1-0.2,0.2-0.3c0.1-0.1,0.2-0.2,0.4-0.3c0.1-0.1,0.2-0.1,0.3-0.1
				s0.2,0,0.2,0.1c0.1,0.1,0.1,0.2,0.2,0.4c0.1,0.1,0.1,0.2,0.1,0.3c0,0.1,0.1,0.1,0.1,0.2c0,0,0,0,0,0.1s0,0.1,0.1,0.1
				c0,0,0,0,0.1,0l0,0C17.9,17.4,17.9,17.3,17.9,17.3L17.9,17.3z M17.1,17.1c-0.1,0.1-0.1,0.1-0.2,0.2c-0.1,0.1-0.1,0.2-0.1,0.3
				c0,0.1,0,0.1,0,0.2s0.1,0.1,0.1,0.1H17c0.1,0,0.1-0.1,0.2-0.1c0-0.1,0.1-0.1,0.1-0.2s0-0.1-0.1-0.3
				C17.2,17.3,17.1,17.2,17.1,17.1z"/>
			<path class="st4" d="M18.2,17.4C18.3,17.4,18.3,17.4,18.2,17.4c0.1-0.1,0.2-0.1,0.2-0.2c0,0,0,0,0-0.1c0,0,0-0.1-0.1-0.2
				c0-0.1,0-0.1-0.1-0.2c0-0.1,0-0.1-0.1-0.1c0-0.1-0.1-0.1-0.1-0.2c0,0,0-0.1-0.1-0.1c0-0.1-0.1-0.1-0.1-0.2c0,0,0,0-0.1,0
				c0,0-0.1,0-0.2,0V16l0,0c0,0,0.1,0,0.1-0.1c0.1-0.1,0.1-0.1,0.1-0.1l0,0c0,0,0,0,0-0.1c0,0,0.1-0.1,0.1-0.2c0,0,0.1,0,0.1-0.1
				c0,0.1,0.1,0.1,0.1,0.2c0,0,0,0,0,0.1c0,0,0,0,0,0.1c0.1-0.1,0.2-0.2,0.2-0.3c0.1-0.1,0.2-0.2,0.3-0.2c0.1-0.1,0.3-0.1,0.4,0
				c0.1,0,0.2,0.1,0.3,0.1c0.1,0.1,0.1,0.2,0.2,0.4c0.1,0.2,0.1,0.4,0.2,0.6v0.1h0.1h0.1c0,0,0,0,0,0.1c0,0,0,0,0,0.1
				c-0.2,0-0.2,0.1-0.4,0.1h-0.1h-0.1c-0.1,0-0.1,0.1-0.2,0.1c0,0,0,0-0.1,0l0,0v-0.1c0,0,0.1,0,0.1-0.1c0,0,0,0,0.1,0l0,0v-0.1
				c0-0.1-0.1-0.2-0.1-0.2c0-0.1,0-0.1-0.1-0.2c-0.1-0.3-0.2-0.4-0.2-0.5c-0.1-0.1-0.2-0.1-0.3,0c-0.1,0-0.1,0.1-0.2,0.1
				c-0.1,0.1-0.1,0.2-0.2,0.3l0,0c0,0,0,0.1,0.1,0.1c0,0.1,0,0.1,0,0.1c0.1,0.1,0.1,0.2,0.1,0.3l0,0c0.1,0.2,0.1,0.3,0.2,0.3
				c0,0,0.1,0,0.2,0l0,0c0,0,0,0,0,0.1h-0.1h-0.1c-0.1,0-0.1,0-0.2,0.1C18.6,17.4,18.5,17.4,18.2,17.4
				C18.3,17.5,18.3,17.5,18.2,17.4C18.3,17.5,18.2,17.5,18.2,17.4z"/>
			<path class="st4" d="M20,15.2c0.1-0.1,0.2-0.2,0.3-0.3c0.1-0.1,0.1-0.2,0.1-0.4h0.1c0,0,0,0.1,0.1,0.1c0,0.1,0,0.1,0,0.2v0.1l0,0
				l0,0c0,0,0.1,0,0.2-0.1c0,0,0.1,0,0.2-0.1v0.1v0.1h-0.1c0,0,0,0-0.1,0h-0.1l0,0h-0.1c0.1,0.3,0.1,0.4,0.2,0.7
				c0,0.1,0.1,0.2,0.1,0.3c0,0,0,0.1,0.1,0.1h0.1h0.1c0,0,0,0,0.1-0.1l0,0h0.1l0,0c0,0.1-0.1,0.2-0.1,0.2c-0.1,0.1-0.2,0.1-0.2,0.1
				c-0.1,0-0.2,0-0.3,0s-0.2-0.2-0.2-0.3c0-0.1-0.1-0.2-0.1-0.3c-0.1-0.2-0.1-0.3-0.2-0.5c0,0,0,0-0.1,0S20.1,15.1,20,15.2L20,15.2
				C20,15.3,20,15.3,20,15.2C20,15.3,20,15.2,20,15.2z"/>
			<path class="st4" d="M21.7,16.2C21.7,16.1,21.7,16.1,21.7,16.2c0.1-0.1,0.2-0.1,0.2-0.2c0,0,0-0.1-0.1-0.3
				c-0.1-0.3-0.2-0.5-0.2-0.7l0,0c0,0-0.1,0-0.2,0h-0.1c0,0,0,0,0-0.1c0.1,0,0.2-0.1,0.3-0.2s0.1-0.1,0.1-0.2v-0.1
				c0.1,0,0.1,0,0.1,0v0.1c0,0,0,0,0,0.1v0.1c0,0,0,0.1,0,0.2c0-0.1,0.1-0.2,0.1-0.2s0-0.1,0.1-0.1c0,0,0.1-0.1,0.2-0.1
				c0.1,0,0.1,0,0.2,0c0.1,0,0.1,0.1,0.1,0.1c0,0.1,0,0.1,0,0.2s-0.1,0.1-0.1,0.1c-0.1,0-0.1,0-0.2,0h-0.1l0,0c0,0,0,0-0.1,0.1
				c0,0.1,0,0.1,0,0.2c0,0,0,0,0,0.1s0.1,0.3,0.2,0.7c0,0,0,0.1,0.1,0.1h0.1h0.1c0.1,0,0.1,0,0.1,0l0,0c0,0,0,0,0,0.1
				c-0.1,0-0.1,0-0.2,0c-0.2,0-0.2,0-0.4,0.1c-0.1,0-0.2,0.1-0.3,0.1l0,0C21.9,16.2,21.8,16.2,21.7,16.2L21.7,16.2L21.7,16.2z"/>
			<path class="st4" d="M22.8,14.3L22.8,14.3c0.1,0,0.1,0,0.2,0s0.2,0,0.3-0.1h0.1c0.1,0,0.2,0,0.3-0.1l0,0c0,0.1,0,0.1,0,0.1l0,0
				h-0.1l0,0l0,0v0.1c0.1,0.1,0.1,0.1,0.1,0.2c0.1,0.2,0.2,0.3,0.3,0.5c0.1,0.1,0.1,0.1,0.2,0.2c0,0,0-0.2,0.1-0.4
				c0.1-0.3,0.1-0.5,0.1-0.5s0,0,0-0.1c0,0,0,0,0-0.1h-0.1h-0.1c0,0,0,0-0.1,0l0,0l0,0c0,0,0,0,0-0.1h0.1c0.1,0,0.1,0,0.2,0h0.1
				c0,0,0.1,0,0.3-0.1c0.1,0,0.1,0,0.2,0V14l0,0h-0.1c0,0-0.1,0-0.1,0.1l0,0c0,0.1,0,0.2-0.1,0.4c0,0.2-0.1,0.2-0.1,0.4
				c-0.1,0.3-0.1,0.5-0.2,0.9c-0.1,0.2-0.1,0.3-0.1,0.6c0,0.1-0.1,0.2-0.1,0.3c0,0,0,0.1-0.1,0.1c0,0-0.1,0.1-0.2,0.1c0,0,0,0-0.1,0
				s-0.1,0-0.2-0.1l-0.1-0.1c0-0.1,0-0.1,0-0.2l0.1-0.1c0.1,0,0.1,0,0.2,0h0.1l0,0c0.2-0.3,0.2-0.5,0.2-0.6
				c-0.2-0.3-0.3-0.4-0.5-0.7c-0.2-0.3-0.4-0.5-0.5-0.6S23,14.4,23,14.4s0,0-0.1,0C22.9,14.4,22.9,14.4,22.8,14.3
				C22.8,14.4,22.8,14.3,22.8,14.3z"/>
			<path class="st4" d="M26.4,15.4c0-0.1,0-0.1,0-0.1h0.1c0.1,0,0.2-0.1,0.2-0.1s0-0.1,0-0.2s0-0.1,0-0.2c0-0.2,0-0.3,0-0.5v-0.1
				c0-0.3,0-0.4,0-0.4c0-0.1,0-0.2,0-0.3v-0.1c0-0.1,0-0.1,0-0.2v-0.1c0,0,0,0,0-0.1c-0.1,0-0.2,0-0.3,0h-0.1c0-0.1,0-0.1,0-0.2
				c0.3,0,0.4,0,0.6,0c0.1,0,0.1,0,0.1,0c0.1,0,0.2,0,0.4,0c0.1,0,0.2,0,0.2,0s0,0,0,0.1V13c-0.1,0-0.1,0-0.2,0.1
				c-0.1,0-0.1,0-0.2,0.1c0,0,0,0.1,0,0.2s0,0.1,0,0.1c0,0.2,0,0.4,0,0.5c0,0.2,0,0.3,0,0.5c0,0.1,0,0.2,0,0.3c0,0.2,0,0.2,0,0.4
				c0,0,0,0,0,0.1l0,0c0.1,0,0.2,0,0.2,0h0.1v0.1c0,0,0,0,0,0.1l0,0h-0.1c0,0,0,0-0.1,0c0,0-0.1,0-0.3,0c-0.1,0-0.2,0-0.4,0
				C26.5,15.5,26.4,15.5,26.4,15.4S26.4,15.3,26.4,15.4z"/>
			<path class="st4" d="M28,14.7C28.1,14.7,28.1,14.7,28,14.7C28.1,14.7,28.1,14.7,28,14.7L28,14.7c0.2,0.1,0.2,0.2,0.3,0.2
				c0,0.1,0.1,0.1,0.1,0.1s0.1,0,0.1,0.1h0.1c0.1,0,0.2,0,0.2-0.1c0.1-0.1,0.1-0.1,0.1-0.2v-0.1l-0.1-0.1c0,0-0.1,0-0.3-0.1
				c-0.1,0-0.2-0.1-0.3-0.1s-0.1-0.1-0.2-0.1c-0.1,0-0.1-0.1-0.1-0.1c0-0.1-0.1-0.1-0.1-0.2s0-0.2,0-0.3c0-0.1,0.1-0.1,0.1-0.2
				c0,0,0.1-0.1,0.2-0.1c0.1,0,0.2,0,0.3-0.1c0.1,0,0.3,0,0.4,0c0.1,0,0.2,0,0.3,0.1c0,0,0,0.1,0,0.2s0,0.2,0,0.2l0,0H29
				c0,0,0,0-0.1,0c0,0,0,0-0.1-0.1s-0.1-0.2-0.2-0.3c-0.1,0-0.2-0.1-0.3-0.1s-0.2,0-0.2,0.1c0,0-0.1,0.1-0.1,0.2c0,0,0,0.1,0.1,0.1
				s0.1,0.1,0.3,0.1s0.3,0.1,0.4,0.1c0.1,0.1,0.2,0.1,0.3,0.2s0.1,0.2,0.1,0.3c0,0.2-0.1,0.3-0.2,0.4c-0.1,0.1-0.3,0.2-0.5,0.2
				c0,0-0.1,0-0.2,0c-0.1,0-0.1,0-0.2,0c0,0-0.1,0-0.2-0.1l0,0c0,0,0-0.1,0-0.2C28,14.8,28,14.7,28,14.7z"/>
			<path class="st4" d="M29.6,15.1L29.6,15.1c0.2,0,0.3,0,0.3,0s0-0.1,0-0.2c0-0.2,0-0.3,0-0.6c0-0.1,0-0.1,0-0.1c0-0.2,0-0.2,0-0.4
				c0-0.2,0-0.3,0-0.5c0,0,0,0,0-0.1s0-0.2,0-0.2s-0.1,0-0.2,0h-0.1v-0.1l0,0c0.1,0,0.2,0,0.4-0.1c0.1,0,0.2-0.1,0.3-0.1
				c0,0,0,0,0.1,0c0,0,0,0,0.1,0c0,0.5,0,0.8,0,1c0,0.1,0,0.1,0,0.1l0,0l0,0c0,0.4,0,0.5,0,0.9c0,0.1,0,0.2,0,0.3l0,0
				c0,0.1,0,0.1,0,0.1s0,0,0.1,0c0,0,0.1,0,0.2,0v0.1c0,0,0,0,0,0.1c-0.1,0-0.1,0-0.2,0c-0.1,0-0.2,0-0.3,0c0,0,0,0-0.1,0
				s-0.2,0-0.3,0C29.7,15.2,29.7,15.2,29.6,15.1C29.6,15.2,29.6,15.2,29.6,15.1z"/>
			<path class="st4" d="M32.6,15.1L32.6,15.1C32.7,15.1,32.7,15.2,32.6,15.1C32.7,15.2,32.7,15.2,32.6,15.1c0,0.2,0,0.3-0.1,0.3
				s-0.1,0.1-0.2,0c-0.1,0-0.1,0-0.2-0.1C32,15.2,32,15.2,32,15.1c-0.1,0.1-0.2,0.2-0.3,0.2s-0.2,0.1-0.4,0c-0.1,0-0.2-0.1-0.3-0.1
				c-0.1-0.1-0.1-0.1-0.1-0.2v-0.1l0.1-0.1c0,0,0.1-0.1,0.2-0.1c0,0,0.1,0,0.2-0.1c0.2-0.1,0.3-0.1,0.5-0.1c0-0.1,0-0.1,0-0.2
				c0-0.2,0-0.3,0-0.4l-0.1-0.1c-0.1,0-0.1,0-0.2,0c-0.1,0-0.1,0-0.1,0.1c0,0,0,0.1-0.1,0.2c0,0.1,0,0.1,0,0.1s-0.1,0-0.1,0.1
				c-0.1,0-0.1,0-0.1,0c-0.1,0-0.1,0-0.2,0c0,0,0,0,0-0.1s0-0.1,0.1-0.2s0.1-0.1,0.3-0.2s0.2-0.1,0.3-0.1s0.3,0,0.5,0
				c0.1,0,0.2,0,0.3,0.1c0.1,0,0.1,0.1,0.1,0.2s0,0.2,0,0.4c0,0.1,0,0.2,0,0.3c0,0.1,0,0.1,0,0.2c0,0,0,0,0,0.1S32.6,15.1,32.6,15.1
				c0,0,0,0,0.1,0l0,0C32.5,15.2,32.5,15.1,32.6,15.1L32.6,15.1z M32,14.5c-0.1,0-0.2,0-0.3,0.1c-0.1,0-0.2,0.1-0.2,0.2
				c0,0-0.1,0.1-0.1,0.2s0,0.1,0,0.1l0.1,0.1c0.1,0,0.1,0,0.2,0c0.1,0,0.1-0.1,0.1-0.1s0-0.1,0.1-0.3C32,14.7,32,14.6,32,14.5z"/>
			<path class="st4" d="M32.8,15.4L32.8,15.4c0.2,0,0.2,0,0.2,0l0,0c0,0,0-0.1,0-0.2s0-0.1,0-0.2s0-0.1,0-0.1c0-0.1,0-0.1,0-0.2
				s0-0.1,0-0.1c0-0.1,0-0.2,0-0.2s0,0,0-0.1c0,0-0.1-0.1-0.2-0.1v-0.1c0,0,0,0,0.1,0c0,0,0.1,0,0.2,0c0.1,0,0.1,0,0.2,0l0,0
				c0,0,0,0,0.1,0c0,0,0.1-0.1,0.2-0.1h0.1c0,0.1,0,0.1,0,0.2c0,0,0,0,0,0.1c0,0,0,0,0,0.1c0.1-0.3,0.3-0.3,0.4-0.3s0.3,0,0.4,0
				s0.2,0.1,0.3,0.2s0.1,0.2,0.2,0.3c0,0.1,0,0.3-0.1,0.5c-0.1,0.3-0.1,0.4-0.2,0.6v0.1c0,0,0,0,0.1,0.1h0.1c0,0,0,0,0,0.1
				c0,0,0,0,0,0.1c-0.2,0-0.2-0.1-0.4-0.1h-0.1h-0.1c-0.1,0-0.2,0-0.3,0c0,0,0,0-0.1,0l0,0v-0.1H34c0,0,0,0,0.1,0c0,0,0,0,0.1,0
				v-0.1c0-0.1,0-0.2,0.1-0.3c0-0.1,0-0.1,0-0.2c0.1-0.3,0.1-0.5,0.1-0.5c0-0.1-0.1-0.2-0.2-0.2s-0.2,0-0.3,0s-0.2,0.1-0.3,0.1l0,0
				c0,0.1,0,0.1,0,0.1c0,0.1,0,0.1,0,0.1c0,0.1,0,0.2,0,0.3l0,0c0,0.2-0.1,0.3,0,0.4c0,0,0.1,0.1,0.2,0.1c0,0,0,0,0,0.1
				c0,0,0,0,0,0.1h-0.1h-0.1c-0.1,0-0.1,0-0.2,0s-0.3,0-0.5-0.1C32.8,15.5,32.8,15.5,32.8,15.4C32.8,15.5,32.8,15.4,32.8,15.4z"/>
			<path class="st4" d="M35.9,14.6c0.1,0,0.2,0,0.2,0c0.1,0,0.2,0,0.3,0h0.1c0.2,0,0.3,0.1,0.4,0.3l0,0c0-0.1,0-0.1,0-0.1
				c0-0.1,0-0.1,0.1-0.2c0.1-0.3,0.1-0.5,0.1-0.6c0,0,0-0.1-0.1-0.1s-0.1,0-0.1-0.1v-0.1H37c0,0,0.1,0,0.3,0c0,0,0,0,0.1,0
				s0.1,0,0.2,0h0.1l0,0v0.1l0,0l0,0c0,0,0,0.1-0.1,0.3v0.1c0,0,0,0,0,0.1v0.1c0,0.1,0,0.1-0.1,0.2v0.1c0,0.1,0,0.1-0.1,0.2l0,0
				c0,0,0,0,0,0.1l0,0c0,0,0,0,0,0.1v0.1l0,0c0,0,0,0.1-0.1,0.2c0,0.1,0,0.1-0.1,0.2c0,0,0,0,0,0.1s0,0.1,0,0.1s-0.1,0.1,0,0.2
				c0,0,0.1,0.1,0.2,0.1h0.1l0,0l0,0c-0.1,0-0.1,0-0.2,0c-0.2,0-0.3,0-0.4,0h-0.1l0,0l0,0c0-0.1,0-0.1,0-0.2h-0.1
				c-0.1,0-0.2,0-0.3,0s-0.2,0-0.3,0c-0.2,0-0.3-0.1-0.4-0.2c-0.1-0.1-0.2-0.3-0.2-0.4s0-0.3,0-0.4C35.4,14.9,35.6,14.7,35.9,14.6z
				 M36.1,16C36.2,16,36.2,16,36.1,16c0.1,0,0.2,0,0.2,0c0.1,0,0.1,0,0.2,0v-0.1c0.1-0.4,0.2-0.7,0.2-0.7c0-0.1,0-0.2-0.1-0.3
				c-0.1-0.1-0.1-0.1-0.2-0.2c-0.1,0-0.1,0-0.2,0s-0.1,0-0.2,0.1c-0.1,0-0.1,0.1-0.2,0.2s-0.1,0.2-0.1,0.3c-0.1,0.2-0.1,0.4,0,0.5
				C35.9,15.9,36,16,36.1,16z"/>
			<path class="st4" d="M39.4,14.5c0.1,0,0.1,0,0.1,0.1l0,0c0,0.1,0,0.1,0,0.2c0,0,0.1,0.1,0.3,0.1c0.1,0,0.2,0.1,0.3,0.1l0,0
				c0.1,0,0.2,0.1,0.3,0.1c0.2,0.1,0.3,0.1,0.5,0.2c0.3,0.1,0.4,0.2,0.6,0.3c0.1,0,0.1,0,0.1,0s0.1,0,0.1-0.1l0,0h0.1c0,0,0,0,0.1,0
				c0,0.1-0.1,0.2-0.2,0.4c0,0.1,0,0.1-0.1,0.2v0.1v0.1c-0.1,0-0.1,0-0.2,0c0-0.1,0-0.2,0-0.3c0-0.1,0-0.2,0-0.2s0,0,0-0.1
				c0,0-0.2-0.1-0.4-0.2l-0.1-0.1l-0.1,0.1c0,0.1-0.1,0.1-0.1,0.2c-0.1,0.2-0.1,0.3-0.2,0.5s-0.2,0.3-0.3,0.6c0,0.1-0.1,0.1-0.1,0.2
				S40,17.2,40,17.2s0.1,0,0.1,0.1c0,0,0.1,0,0.1,0.1l0.1,0.1v0.1l0,0h-0.1c-0.1-0.1-0.2-0.1-0.3-0.2s-0.2-0.1-0.5-0.2
				c0,0-0.2-0.1-0.3-0.1S39,17.1,39,17l0,0l0,0l0,0c0,0,0.1,0,0.2,0c0.1,0,0.3,0,0.3,0s0,0,0.1-0.1s0.2-0.4,0.3-0.7
				c0.1-0.3,0.2-0.4,0.3-0.7c0.1-0.2,0.1-0.3,0.1-0.4l0,0l0,0c0,0-0.2-0.1-0.4-0.2c-0.1-0.1-0.2-0.1-0.3-0.1s-0.2,0.1-0.4,0.1
				c-0.1,0-0.1,0-0.1,0C39,14.8,39,14.8,39,14.8C39.1,14.7,39.2,14.6,39.4,14.5C39.3,14.5,39.4,14.5,39.4,14.5z"/>
			<path class="st4" d="M42.8,17.5c0,0.1,0.1,0.2,0,0.4c0,0.1,0,0.2-0.1,0.3c-0.1,0.2-0.2,0.3-0.3,0.3c-0.2,0.1-0.3,0.1-0.5,0.1
				c-0.2,0-0.3-0.1-0.5-0.1c-0.1-0.1-0.3-0.2-0.3-0.4C41,17.9,41,17.8,41,17.7s0-0.3,0.1-0.4c0-0.1,0.1-0.2,0.2-0.2
				c0.1-0.1,0.1-0.1,0.2-0.2c0.1,0,0.2-0.1,0.2-0.1c0.1,0,0.2,0,0.3,0s0.2,0.1,0.3,0.1C42.6,17.1,42.8,17.3,42.8,17.5z M41.5,17.5
				c-0.1,0.1-0.1,0.2-0.1,0.3c0,0.1,0,0.2,0,0.2s0,0.1,0.1,0.2c0,0.1,0.1,0.1,0.2,0.1c0.1,0,0.2,0.1,0.3,0c0.1,0,0.2-0.1,0.3-0.2
				s0.1-0.2,0.2-0.4c0.1-0.2,0.2-0.4,0.1-0.5c0-0.1-0.1-0.2-0.2-0.3c-0.1-0.1-0.2-0.1-0.3-0.1s-0.2,0.1-0.3,0.2
				C41.7,17.2,41.6,17.3,41.5,17.5z"/>
			<path class="st4" d="M43.4,17.7L43.4,17.7c0.3,0.2,0.4,0.2,0.6,0.4l0,0c0,0,0,0.1-0.1,0.1c0,0.1-0.1,0.1-0.1,0.2
				c0,0,0,0.1-0.1,0.1c-0.1,0.1-0.1,0.2-0.2,0.3c0,0.1-0.1,0.1-0.1,0.2c-0.1,0.1-0.1,0.2-0.2,0.3c0,0.1,0,0.1,0,0.2s0.1,0.1,0.1,0.1
				c0.1,0,0.1,0.1,0.1,0.1s0.1,0,0.2,0s0.1,0,0.1,0c0.1,0,0.1,0,0.1,0c0.1-0.2,0.2-0.2,0.3-0.4l0.1-0.1c0,0,0-0.1,0.1-0.1V19
				c0,0,0,0,0-0.1l0,0l-0.1-0.1l-0.1-0.1l0,0c0,0,0,0,0-0.1c0,0,0,0,0-0.1c0,0,0.1,0,0.1,0.1c0.1,0.1,0.2,0.1,0.3,0.2
				c0.1,0.1,0.2,0.1,0.3,0.2l-0.1,0.1c0,0.1-0.1,0.1-0.1,0.2c-0.1,0.1-0.1,0.1-0.1,0.2c-0.1,0.1-0.1,0.2-0.2,0.3l-0.1,0.1
				c0,0,0,0.1-0.1,0.1c0,0.1-0.1,0.1-0.1,0.1v0.1l0,0c0.1,0,0.1,0.1,0.2,0.1l0,0v0.1l0,0l-0.1-0.1c-0.1-0.1-0.3-0.1-0.5-0.2
				c0,0,0,0-0.1-0.1c0.1-0.1,0.1-0.2,0.2-0.3h-0.1c-0.2,0-0.3,0-0.4,0s-0.2-0.1-0.3-0.1c-0.1-0.1-0.2-0.1-0.2-0.2s-0.1-0.2-0.1-0.2
				c0-0.1,0-0.1,0.1-0.2c0,0,0.1-0.1,0.2-0.3c0,0,0,0,0-0.1c0.1-0.1,0.1-0.2,0.2-0.2c0.1-0.1,0.1-0.2,0.1-0.2s0,0,0-0.1
				c0,0,0,0-0.1-0.1S43,17.9,43,17.9C43.3,17.8,43.3,17.8,43.4,17.7C43.3,17.7,43.3,17.7,43.4,17.7L43.4,17.7z"/>
			<path class="st4" d="M44.6,20.3L44.6,20.3c0.1,0,0.2,0.1,0.3,0.1c0,0,0.1-0.1,0.2-0.2c0.2-0.3,0.3-0.5,0.4-0.6c0,0,0,0,0-0.1
				l-0.1-0.1c0,0,0,0,0-0.1c0,0,0,0,0-0.1c0.1,0.1,0.2,0.1,0.3,0.1s0.2,0,0.3,0h0.1c0.1,0,0.1,0.1,0.1,0.1v0.1l0,0l-0.1,0.1
				c0,0,0,0.1-0.1,0.1c0.1,0,0.2-0.1,0.2-0.1s0.1,0,0.2,0s0.1,0,0.2,0.1s0.1,0.1,0.1,0.2s0,0.1,0,0.2c0,0-0.1,0.1-0.2,0.1
				s-0.1,0-0.2-0.1c0,0-0.1-0.1-0.1-0.2c0,0,0-0.1-0.1-0.1l0,0H46c-0.1,0-0.1,0.1-0.2,0.1l0,0c-0.1,0.1-0.2,0.3-0.4,0.6v0.1v0.1
				c0,0,0,0.1,0.1,0.1l0.1,0.1c0,0,0,0,0,0.1l0,0c-0.1-0.1-0.1-0.1-0.2-0.1c-0.1-0.1-0.2-0.2-0.3-0.3c-0.1-0.1-0.2-0.1-0.2-0.2l0,0
				C44.7,20.5,44.6,20.5,44.6,20.3C44.5,20.4,44.5,20.4,44.6,20.3C44.5,20.3,44.6,20.3,44.6,20.3z"/>
			<path class="st4" d="M46.2,21C46.2,21.1,46.3,21.1,46.2,21c0.1,0.1,0.1,0.1,0.1,0.1l0,0c0,0.1,0,0.2,0,0.3s0,0.1,0,0.2
				c0,0,0,0.1,0.1,0.2l0.1,0.1c0.1,0.1,0.1,0.1,0.2,0.1s0.1,0,0.2-0.1v-0.1c0,0,0-0.1,0-0.2c0,0-0.1-0.1-0.2-0.2
				c-0.1-0.1-0.1-0.2-0.2-0.2c0-0.1-0.1-0.1-0.1-0.2s0-0.1,0-0.2s0-0.1,0.1-0.2s0.1-0.1,0.2-0.2c0.1,0,0.1,0,0.2,0s0.1,0,0.2,0.1
				s0.2,0.1,0.2,0.2c0.1,0.1,0.2,0.2,0.3,0.3c0.1,0.1,0.1,0.2,0.2,0.3c0,0-0.1,0.1-0.1,0.2s-0.1,0.1-0.1,0.2l0,0c0,0-0.1,0-0.1-0.1
				l0,0v-0.1c0-0.1,0-0.3,0-0.3c0-0.1-0.1-0.2-0.1-0.2c-0.1-0.1-0.2-0.1-0.3-0.1c-0.1,0-0.1,0-0.2,0.1c0,0,0,0.1,0,0.2
				c0,0.1,0.1,0.2,0.1,0.3c0.1,0.2,0.2,0.3,0.2,0.4c0.1,0.1,0.1,0.2,0.1,0.3s-0.1,0.2-0.1,0.2c-0.1,0.1-0.2,0.2-0.4,0.1
				c-0.2,0-0.3-0.1-0.5-0.3c0,0-0.1-0.1-0.2-0.2c0,0-0.1-0.1-0.1-0.2c0,0,0-0.1-0.1-0.1l0,0c0,0,0-0.1,0.1-0.1
				C46.1,21.2,46.2,21.1,46.2,21z"/>
		</g>
	</g>
	<g>
		<path class="st4" d="M41.1,30.3l2.6-3.9L39.8,29C40.3,29.4,40.7,29.9,41.1,30.3z"/>
		<path class="st4" d="M17.9,28.9l-3.7-2.4l2.4,3.7C17,29.7,17.4,29.3,17.9,28.9z"/>
		<path class="st4" d="M39.8,53.4l3.9,2.6l-2.6-4C40.7,52.5,40.3,53,39.8,53.4z"/>
		<path class="st4" d="M16.6,52.2l-2.4,3.7l3.7-2.4C17.4,53.1,17,52.7,16.6,52.2z"/>
	</g>
	<rect id="white_rectangle_bg_2_" x="3.3" y="36.3" class="st2" width="50.9" height="9.8"/>
	<g>
		<g>
			<path class="st5" d="M22.8,32.6l-1.1,2.3c-0.4,0.9-0.7,1.6-1,2.2h-0.1c-0.1-0.2-0.4-0.8-0.8-1.7l-1.3-2.7v2.8c0,0.7,0,1,0.1,1.1
				s0.2,0.1,0.5,0.1h0v0.4c-0.3,0-0.6,0-0.8,0s-0.5,0-0.9,0v-0.2h0.2c0.2,0,0.3,0,0.3-0.1c0.1,0,0.1-0.1,0.1-0.3c0-0.3,0-0.7,0-1.1
				v-2.1c0-0.5,0-0.8,0-1c0-0.1,0-0.1-0.1-0.2c-0.1,0-0.2-0.1-0.4-0.1h-0.2v-0.2c0.4,0,0.7,0,0.8,0s0.3,0,0.6,0
				c0.3,0.7,0.6,1.4,1,2.2l1,2l0.9-1.8c0.3-0.6,0.7-1.4,1.1-2.3c0.3,0,0.5,0,0.6,0s0.4,0,0.8,0v0.2h-0.2c-0.2,0-0.3,0-0.4,0.1
				c0,0.1-0.1,0.3-0.1,0.8v2.7c0,0.6,0,0.9,0.1,1s0.2,0.1,0.4,0.1h0.2v0.3c-0.3,0-0.7,0-1,0s-0.7,0-1.1,0v-0.2h0.2
				c0.2,0,0.3,0,0.4-0.1c0-0.1,0.1-0.4,0.1-1.1v-3.1H22.8z"/>
			<path class="st0" d="M20.7,37.2h-0.3v-0.1c-0.1-0.2-0.4-0.8-0.8-1.7l-1.1-2.3v2.5c0,0.9,0,1.1,0.1,1.1c0,0,0.1,0.1,0.4,0.1h0.2
				v0.3h-0.1c-0.3,0-0.6,0-0.8,0s-0.5,0-0.9,0h-0.1v-0.4h0.3c0.2,0,0.3,0,0.3,0s0.1-0.1,0.1-0.2c0-0.3,0-0.7,0-1.1v-2.1
				c0-0.5,0-0.8,0-1c0-0.1,0-0.1-0.1-0.1c0,0-0.1-0.1-0.3-0.1h-0.3v-0.4h0.1c0.4,0,0.7,0,0.8,0s0.3,0,0.6,0h0.1v0.1
				c0.3,0.7,0.6,1.4,1,2.2l0.9,1.8l0.8-1.7c0.3-0.6,0.7-1.4,1.1-2.3v-0.1h0.1c0.3,0,0.5,0,0.6,0s0.4,0,0.8,0h0.1v0.4H24
				c-0.3,0-0.3,0.1-0.3,0.1s-0.1,0.1-0.1,0.8v2.7c0,0.8,0,1,0.1,1c0,0,0.1,0.1,0.3,0.1h0.3v0.3h-0.1c-0.3,0-0.7,0-1,0s-0.7,0-1.1,0
				H22v-0.4h0.3c0.2,0,0.3,0,0.3-0.1c0,0,0.1-0.2,0.1-1.1v-2.6l-0.9,1.9C21.4,35.8,21,36.5,20.7,37.2L20.7,37.2z M20.6,37L20.6,37
				c0.3-0.6,0.6-1.4,1-2.2l1.3-2.6v3.4c0,0.9,0,1.1-0.1,1.1c-0.1,0.1-0.2,0.2-0.4,0.2h-0.2V37c0.3,0,0.7,0,1,0s0.6,0,0.9,0v-0.1H24
				c-0.3,0-0.4-0.1-0.5-0.2c0-0.1-0.1-0.3-0.1-1.1v-2.7c0-0.6,0-0.8,0.1-0.9c0.1-0.1,0.2-0.2,0.5-0.2h0.1v-0.1c-0.3,0-0.6,0-0.7,0
				c-0.1,0-0.3,0-0.6,0c-0.4,0.9-0.7,1.6-1.1,2.3l-1,2l-1-2.2c-0.4-0.8-0.7-1.5-1-2.1c-0.2,0-0.4,0-0.5,0s-0.3,0-0.7,0v0.1h0.1
				c0.2,0,0.3,0,0.4,0.1c0.1,0.2,0.1,0.3,0.1,0.4c0,0.2,0,0.5,0,1v2.1c0,0.4,0,0.8,0,1.1c0,0.1-0.1,0.2-0.1,0.3s-0.2,0.1-0.4,0.1
				h-0.2V37c0.4,0,0.7,0,0.8,0c0.2,0,0.4,0,0.7,0v-0.1h-0.1c-0.3,0-0.5-0.1-0.6-0.2c0-0.1-0.1-0.3-0.1-1.2v-3.2l1.5,3.1
				C20.2,36.2,20.5,36.8,20.6,37z"/>
		</g>
		<g>
			<path class="st5" d="M24.7,34.5v-0.2V34l0.4-0.2c0.2-0.1,0.3-0.2,0.5-0.2c0.1,0,0.3-0.1,0.4-0.1c0.3,0,0.6,0.1,0.8,0.2
				c0.2,0.2,0.3,0.3,0.4,0.6c0,0.2,0,0.6,0.1,1.3c0,0.7,0,1,0,1.1s0.1,0.1,0.2,0.1h0.3v0.3c-0.3,0-0.5,0-0.6,0s-0.3,0-0.6,0v-0.3
				c0-0.1,0-0.2,0-0.3l-0.8,0.6c-0.1,0.1-0.1,0.1-0.2,0.1c-0.1,0-0.2,0-0.3,0c-0.3,0-0.6-0.1-0.7-0.2c-0.2-0.2-0.3-0.4-0.3-0.6
				c0-0.2,0.1-0.5,0.2-0.6c0.1-0.2,0.3-0.3,0.5-0.4s0.7-0.2,1.5-0.3c0-0.3-0.1-0.5-0.2-0.7c-0.2-0.2-0.4-0.3-0.7-0.3
				c-0.1,0-0.2,0-0.3,0s-0.2,0.1-0.3,0.1c-0.1,0.2-0.1,0.3-0.2,0.5L24.7,34.5z M26.6,35.1c-0.7,0.1-1.1,0.3-1.3,0.4
				c-0.2,0.1-0.3,0.3-0.3,0.6c0,0.2,0.1,0.3,0.2,0.4c0.1,0.1,0.2,0.2,0.4,0.2s0.4-0.1,0.5-0.2c0.2-0.1,0.3-0.3,0.5-0.5v-0.8
				L26.6,35.1z"/>
			<path class="st0" d="M25.4,37.2c-0.3,0-0.6-0.1-0.8-0.3c-0.2-0.2-0.3-0.4-0.3-0.7c0-0.3,0.1-0.5,0.2-0.7c0.1-0.2,0.3-0.3,0.5-0.4
				s0.7-0.2,1.5-0.3c0-0.3-0.1-0.4-0.2-0.6c-0.2-0.2-0.4-0.3-0.6-0.3c-0.1,0-0.2,0-0.3,0S25.2,34,25.2,34c-0.1,0.2-0.1,0.3-0.2,0.5
				v0.1l-0.3-0.1v-0.3v-0.3l0.4-0.3c0.2-0.1,0.4-0.2,0.5-0.2s0.3-0.1,0.5-0.1c0.4,0,0.6,0.1,0.9,0.2c0.2,0.2,0.4,0.4,0.4,0.6
				c0,0.2,0,0.6,0.1,1.3c0,0.9,0,1,0,1.1c0,0,0,0,0.1,0H28v0.6h-0.1c-0.3,0-0.5,0-0.6,0s-0.3,0-0.5,0h-0.1v-0.4v-0.1l-0.8,0.5
				c-0.1,0.1-0.2,0.1-0.2,0.1C25.6,37.2,25.5,37.2,25.4,37.2z M25.7,33.8c0.3,0,0.6,0.1,0.8,0.3c0.1,0.2,0.2,0.4,0.2,0.8V35h-0.1
				c-0.8,0.1-1.3,0.3-1.5,0.3c-0.2,0.1-0.4,0.2-0.5,0.4c-0.1,0.2-0.2,0.4-0.2,0.6c0,0.2,0.1,0.4,0.2,0.6c0.1,0.1,0.4,0.2,0.7,0.2
				c0.1,0,0.2,0,0.3,0s0.1,0,0.2-0.1l0.9-0.7v0.2c0,0.1,0,0.2,0,0.3V37c0.2,0,0.3,0,0.5,0c0.1,0,0.3,0,0.5,0v-0.1h-0.2
				c-0.2,0-0.2-0.1-0.3-0.2c0,0,0-0.1,0-1.1c0-0.7,0-1.1-0.1-1.3c0-0.2-0.1-0.4-0.3-0.5s-0.4-0.2-0.8-0.2c-0.1,0-0.3,0-0.4,0.1
				c-0.1,0-0.3,0.1-0.5,0.2l-0.4,0.2v0.2v0.2h0.1c0.1-0.1,0.1-0.3,0.2-0.4l0,0l0,0c0.1-0.1,0.2-0.1,0.3-0.1
				C25.4,33.8,25.6,33.8,25.7,33.8z M25.6,36.8c-0.2,0-0.3-0.1-0.5-0.2c-0.1-0.1-0.2-0.3-0.2-0.5c0-0.3,0.1-0.5,0.3-0.7
				c0.2-0.1,0.6-0.3,1.3-0.4h0.1v0.3v0.8l0,0c-0.2,0.2-0.3,0.4-0.5,0.5C26,36.7,25.8,36.8,25.6,36.8z M26.5,35.2
				c-0.6,0.1-1,0.3-1.2,0.4c-0.1,0.1-0.2,0.3-0.2,0.5c0,0.2,0,0.3,0.1,0.4s0.2,0.1,0.3,0.1c0.2,0,0.3,0,0.5-0.1s0.3-0.2,0.4-0.4
				L26.5,35.2L26.5,35.2z"/>
		</g>
		<g>
			<path class="st5" d="M29.1,34.3c0.1-0.1,0.2-0.2,0.3-0.4c0.1-0.2,0.3-0.3,0.4-0.4c0.1-0.1,0.2-0.1,0.4-0.1c0.1,0,0.2,0,0.3,0
				c0,0,0.1,0,0.1,0.1l0,0c0,0.2-0.1,0.5-0.1,0.8h-0.2c-0.1-0.1-0.1-0.2-0.2-0.3c-0.1-0.1-0.2-0.1-0.3-0.1s-0.3,0-0.4,0.1
				C29.3,34.1,29.2,34.2,29.1,34.3c0.1,0.3,0,0.6,0,1.1c0,0.3,0,0.6,0,0.9c0,0.1,0,0.1,0.1,0.2s0.2,0.1,0.4,0.1h0.2v0.5
				c-0.4,0-0.7,0-1.1,0c-0.3,0-0.6,0-1,0v-0.2h0.4c0.1,0,0.2,0,0.2-0.1s0.1-0.2,0.1-0.4c0-0.4,0-0.8,0-1.3c0-0.6,0-0.9-0.1-1
				c0-0.1-0.1-0.1-0.3-0.1h-0.3v-0.2c0.2,0,0.5-0.1,0.6-0.1c0.2,0,0.4-0.1,0.5-0.2h0.1c0,0,0,0,0.1,0c0,0,0,0,0,0.1L29.1,34.3z"/>
			<path class="st0" d="M27.8,37.1v-0.4h0.4c0.2,0,0.2,0,0.2,0s0-0.1,0-0.3c0-0.3,0-0.8,0-1.3c0-0.8,0-1-0.1-1c0,0,0,0-0.2,0h-0.4
				v-0.4h0.1c0.2,0,0.4-0.1,0.6-0.1c0.2,0,0.3-0.1,0.5-0.2H29c0.1,0,0.1,0,0.1,0.1v0.1v0.5c0.1-0.1,0.1-0.1,0.2-0.2
				c0.1-0.2,0.3-0.3,0.4-0.4c0.1-0.1,0.3-0.1,0.4-0.1c0.1,0,0.3,0,0.3,0.1c0.1,0,0.1,0.1,0.1,0.1l0,0c0,0.2-0.1,0.5-0.1,0.8v0.1
				h-0.3v-0.1c0-0.1-0.1-0.2-0.2-0.2c-0.1,0-0.1-0.1-0.2-0.1c-0.1,0-0.2,0-0.3,0.1s-0.2,0.2-0.2,0.4c0,0.2-0.1,0.5-0.1,1
				c0,0.3,0,0.6,0,0.8c0,0.1,0,0.1,0,0.1c0.1,0,0.2,0.1,0.4,0.1h0.3v0.5h-0.1C29.1,37.1,28.5,37.1,27.8,37.1L27.8,37.1z M28.8,36.9
				c0.3,0,0.6,0,1,0l0,0h-0.1c-0.2,0-0.3,0-0.5-0.1c-0.1,0-0.1-0.1-0.1-0.2c0-0.2,0-0.5,0-0.9c0-0.5,0-0.9,0.1-1.1
				c0-0.2,0.1-0.3,0.3-0.5c0.1-0.1,0.3-0.2,0.5-0.2c0.1,0,0.2,0,0.3,0.1s0.1,0.1,0.2,0.3l0,0c0-0.3,0-0.6,0.1-0.8l0,0
				c-0.1,0-0.2,0-0.3,0s-0.2,0-0.3,0.1s-0.2,0.2-0.4,0.3c-0.1,0.2-0.2,0.3-0.3,0.4l-0.1,0.1v-0.9l0,0l0,0c-0.2,0.1-0.3,0.1-0.5,0.2
				c-0.2,0-0.4,0.1-0.6,0.1v0.1h0.2c0.2,0,0.3,0,0.4,0.1c0,0.1,0.1,0.3,0.1,1.1c0,0.5,0,0.9,0,1.3c0,0.3,0,0.4-0.1,0.4
				c0,0.1-0.1,0.1-0.3,0.1h-0.3l0,0C28.2,37,28.5,36.9,28.8,36.9z"/>
		</g>
		<g>
			<path class="st5" d="M31.9,33.5L31.9,33.5c0.1,0.2,0.1,0.4,0.1,0.7c0,0.7,0,1.2,0,1.6c0,0.3,0,0.6,0,0.8c0,0.1,0,0.1,0.1,0.2
				c0,0,0.1,0.1,0.3,0.1h0.3v0.2c-0.4,0-0.7,0-1,0s-0.6,0-0.9,0v-0.2h0.3c0.1,0,0.2,0,0.2-0.1c0,0,0-0.2,0.1-0.4c0-0.3,0-0.7,0-1.3
				c0-0.4,0-0.7,0-0.9c0-0.1,0-0.1-0.1-0.2c0,0-0.1,0-0.3,0h-0.3v-0.2c0.3,0,0.5-0.1,0.7-0.1C31.5,33.6,31.7,33.6,31.9,33.5z
				 M31.6,31.9c0.1,0,0.2,0,0.3,0.1c0.1,0.1,0.1,0.2,0.1,0.3s0,0.2-0.1,0.3s-0.2,0.1-0.3,0.1s-0.2,0-0.3-0.1s-0.1-0.2-0.1-0.3
				s0-0.2,0.1-0.3C31.4,31.9,31.5,31.9,31.6,31.9z"/>
			<path class="st0" d="M30.6,37.1v-0.4H31c0.1,0,0.2,0,0.2,0s0-0.1,0-0.3c0-0.3,0-0.7,0-1.3c0-0.4,0-0.7,0-0.9v-0.1c0,0,0,0-0.2,0
				h-0.4v-0.4h0.1c0.3,0,0.5-0.1,0.7-0.1c0.1,0,0.3-0.1,0.5-0.2l0,0l0.2,0.1v0.1c0,0.2,0,0.4,0,0.6c0,0.7,0,1.2,0,1.6
				c0,0.3,0,0.6,0,0.8c0,0.1,0,0.1,0,0.1s0,0,0.2,0.1h0.3v0.3h-0.1c-0.4,0-0.7,0-1,0C31.3,37.1,31,37.1,30.6,37.1L30.6,37.1z
				 M31.6,36.9c0.3,0,0.6,0,0.9,0l0,0h-0.2c-0.2,0-0.3-0.1-0.3-0.1c-0.1,0-0.1-0.1-0.1-0.2c0-0.2,0-0.5,0-0.8c0-0.3,0-0.9,0-1.6
				c0-0.2,0-0.4,0-0.6l0,0c-0.2,0.1-0.4,0.1-0.5,0.2c-0.1,0-0.3,0.1-0.6,0.1V34H31c0.2,0,0.3,0,0.3,0.1c0.1,0,0.1,0.1,0.1,0.2
				c0,0.2,0,0.5,0,0.9c0,0.5,0,1,0,1.3c0,0.3,0,0.4-0.1,0.4c0,0.1-0.1,0.1-0.3,0.1h-0.2l0,0C31.1,37,31.3,36.9,31.6,36.9z
				 M31.6,32.8c-0.1,0-0.3,0-0.4-0.1c-0.1-0.1-0.1-0.2-0.1-0.4c0-0.1,0-0.3,0.1-0.4c0.1-0.1,0.2-0.1,0.4-0.1c0.1,0,0.3,0.1,0.4,0.1
				c0.1,0.1,0.1,0.2,0.1,0.4c0,0.1,0,0.3-0.1,0.4C31.9,32.7,31.8,32.8,31.6,32.8z M31.6,31.9c-0.1,0-0.2,0-0.2,0.1
				c-0.1,0.1-0.1,0.1-0.1,0.2s0,0.2,0.1,0.2c0.1,0.1,0.3,0.1,0.5,0c0.1-0.1,0.1-0.1,0.1-0.2c0-0.1,0-0.2-0.1-0.2
				C31.8,32,31.7,31.9,31.6,31.9z"/>
		</g>
		<g>
			<path class="st5" d="M33.8,34.2l0.6-0.5c0.1-0.1,0.1-0.1,0.2-0.1c0.2-0.1,0.3-0.1,0.5-0.1c0.3,0,0.5,0.1,0.7,0.2
				c0.2,0.1,0.3,0.2,0.4,0.4c0.1,0.2,0.1,0.4,0.1,0.8v1.2c0,0.4,0,0.6,0.1,0.7c0,0.1,0.1,0.1,0.3,0.1H37v0.2c-0.3,0-0.5,0-0.7,0
				c-0.2,0-0.4,0-0.6,0c0-0.5,0.1-1.1,0.1-1.9c0-0.3,0-0.6-0.1-0.7s-0.2-0.2-0.3-0.3s-0.3-0.1-0.5-0.1c-0.2,0-0.4,0.1-0.6,0.2
				c-0.2,0.1-0.3,0.3-0.3,0.4c0,0.1,0,0.3,0,0.8c0,0.4,0,0.9,0,1.3c0,0.1,0,0.2,0.1,0.2c0.1,0.1,0.2,0.1,0.3,0.1h0.3l0,0
				c-0.4,0-0.7,0-1,0c-0.3,0-0.6,0-0.9,0v-0.2h0.3c0.2,0,0.3,0,0.3-0.1s0-0.6,0-1.5c0-0.4,0-0.7,0-1c0-0.1,0-0.1-0.1-0.2
				c0,0-0.1,0-0.3,0h-0.3v-0.2c0.2,0,0.4-0.1,0.6-0.1c0.2,0,0.4-0.1,0.6-0.2c0,0,0,0,0.1,0c0,0,0.1,0,0.1,0.1v0.1L33.8,34.2z"/>
			<path class="st0" d="M35.5,37.1L35.5,37.1c0-0.6,0.1-1.2,0.1-2c0-0.3,0-0.5-0.1-0.7c-0.1-0.1-0.1-0.2-0.3-0.3
				C35.1,34,34.9,34,34.8,34c-0.2,0-0.4,0.1-0.6,0.2c-0.1,0.1-0.2,0.2-0.3,0.4c0,0.1,0,0.2,0,0.7c0,0.4,0,0.9,0,1.2
				c0,0.1,0,0.2,0,0.2s0.1,0.1,0.2,0.1h0.3v0.3h-0.1c-0.4,0-0.7,0-1,0c-0.3,0-0.6,0-0.9,0h-0.1v-0.4h0.4c0.1,0,0.2,0,0.2-0.1
				c0,0,0-0.3,0-1.5c0-0.4,0-0.7,0-1c0-0.1,0-0.1,0-0.1s0,0-0.2,0h-0.4v-0.4h0.1c0.2,0,0.4-0.1,0.6-0.1c0.2,0,0.3-0.1,0.5-0.2h0.1
				c0.1,0,0.1,0,0.1,0.2v0.4l0.4-0.4c0.1-0.1,0.2-0.1,0.2-0.1c0.2-0.1,0.3-0.1,0.5-0.1c0.3,0,0.5,0.1,0.7,0.2
				c0.2,0.1,0.4,0.3,0.4,0.5c0.1,0.2,0.1,0.5,0.1,0.8V36c0,0.5,0,0.6,0,0.6s0,0.1,0.2,0.1h0.3v0.4h-0.1c-0.3,0-0.5,0-0.7,0
				c-0.2,0-0.4,0-0.6,0H35.5z M33.5,36.9c0.2,0,0.5,0,0.9,0l0,0h-0.2c-0.2,0-0.3,0-0.4-0.1c-0.1,0-0.1-0.1-0.1-0.3
				c0-0.4,0-0.8,0-1.3c0-0.4,0-0.7,0-0.8c0-0.2,0.2-0.3,0.3-0.4c0.2-0.1,0.4-0.2,0.7-0.2c0.2,0,0.4,0,0.5,0.1
				c0.2,0.1,0.3,0.2,0.3,0.4c0.1,0.1,0.1,0.4,0.1,0.7c0,0.8,0,1.4-0.1,1.8c0.2,0,0.3,0,0.5,0c0.2,0,0.4,0,0.6,0l0,0h-0.2
				c-0.2,0-0.3-0.1-0.3-0.2c0-0.1-0.1-0.2-0.1-0.7v-1.2c0-0.3,0-0.6-0.1-0.8c-0.1-0.2-0.2-0.3-0.4-0.4c-0.2-0.1-0.4-0.1-0.6-0.1
				s-0.3,0-0.5,0.1c-0.1,0-0.1,0.1-0.2,0.1l-0.7,0.6v-0.8l0,0c-0.2,0.1-0.4,0.2-0.6,0.2c-0.1,0-0.3,0.1-0.5,0.1v0.1h0.2
				c0.2,0,0.3,0,0.3,0.1c0.1,0,0.1,0.1,0.1,0.2c0,0.2,0,0.6,0,1c0,1.4,0,1.5-0.1,1.6c0,0.1-0.2,0.2-0.4,0.2h-0.2l0,0
				C33,37,33.3,36.9,33.5,36.9z M33.8,33.5L33.8,33.5L33.8,33.5z"/>
		</g>
		<g>
			<path class="st5" d="M37.6,35.3c0,0.5,0.1,0.8,0.4,1.1c0.2,0.3,0.5,0.4,0.9,0.4c0.2,0,0.3,0,0.5-0.1c0.2-0.1,0.3-0.1,0.5-0.3
				l0.1,0.1l-0.1,0.3c-0.2,0.1-0.4,0.2-0.6,0.3c-0.3,0-0.5,0-0.7,0c-0.5,0-0.9-0.2-1.2-0.5c-0.3-0.3-0.5-0.7-0.5-1.3
				c0-0.4,0.1-0.8,0.3-1.1c0.1-0.2,0.3-0.4,0.6-0.6c0.3-0.2,0.6-0.3,0.9-0.3c0.4,0,0.8,0.1,1,0.4c0.3,0.3,0.4,0.6,0.4,1.1V35
				c-0.2,0-0.3,0.1-0.5,0.1c-0.3,0-0.6,0-1.1,0h-0.9V35.3z M37.6,35c0.4,0,0.8,0,1.3,0c0.2,0,0.4,0,0.5,0v-0.2c0-0.2,0-0.4-0.1-0.6
				c-0.1-0.1-0.1-0.2-0.3-0.3c-0.1-0.1-0.3-0.1-0.5-0.1c-0.3,0-0.5,0.1-0.7,0.3C37.7,34.3,37.6,34.6,37.6,35z"/>
			<path class="st0" d="M38.6,37.2c-0.5,0-0.9-0.2-1.3-0.5c-0.3-0.3-0.5-0.8-0.5-1.3c0-0.4,0.1-0.8,0.3-1.1c0.1-0.2,0.3-0.4,0.7-0.6
				c0.3-0.2,0.6-0.3,0.9-0.3c0.5,0,0.8,0.1,1.1,0.4c0.3,0.3,0.4,0.7,0.4,1.1v0.3h-0.1c-0.2,0-0.3,0.1-0.5,0.1c-0.3,0-0.6,0-1.1,0
				h-0.8c0,0.4,0.1,0.7,0.3,1c0.2,0.2,0.5,0.3,0.9,0.3c0.2,0,0.3,0,0.5-0.1c0.2-0.1,0.3-0.1,0.5-0.2H40l0.2,0.1l-0.1,0.4l0,0
				c-0.2,0.1-0.4,0.2-0.6,0.3C39.1,37.2,38.8,37.2,38.6,37.2z M38.7,33.6c-0.3,0-0.6,0.1-0.8,0.2c-0.3,0.2-0.5,0.3-0.6,0.5
				c-0.2,0.3-0.2,0.6-0.2,1c0,0.5,0.1,0.9,0.4,1.2c0.3,0.3,0.7,0.4,1.1,0.4c0.2,0,0.4,0,0.6-0.1c0.2-0.1,0.4-0.1,0.6-0.2l0.1-0.2
				c-0.1,0.1-0.3,0.1-0.4,0.2c-0.2,0.1-0.4,0.1-0.5,0.1c-0.4,0-0.7-0.1-1-0.4c-0.2-0.3-0.4-0.7-0.4-1.2V35h1c0.5,0,0.8,0,1.1,0
				c0.1,0,0.3,0,0.4-0.1v-0.2c0-0.4-0.1-0.8-0.4-1C39.4,33.7,39.1,33.6,38.7,33.6z M38.9,35.1c-0.5,0-0.9,0-1.3,0h-0.1V35
				c0-0.4,0.1-0.8,0.3-1c0.2-0.2,0.4-0.3,0.7-0.3c0.2,0,0.4,0,0.5,0.1s0.3,0.2,0.3,0.3c0.1,0.2,0.1,0.4,0.1,0.6v0.4h-0.1
				C39.3,35.1,39.1,35.1,38.9,35.1z M37.7,34.9c0.4,0,0.7,0,1.2,0c0.2,0,0.3,0,0.4,0v-0.1c0-0.2,0-0.4-0.1-0.6
				c0-0.1-0.1-0.2-0.2-0.3c-0.1-0.1-0.3-0.1-0.4-0.1c-0.3,0-0.4,0.1-0.6,0.3C37.8,34.3,37.7,34.6,37.7,34.9z"/>
		</g>
		<g>
			<path class="st5" d="M16.5,41.5v1c0,0.2,0,0.4,0,0.6c0,0.3,0,0.5,0,0.6c0,0,0,0.1,0.1,0.1s0.2,0.1,0.3,0.1h0.3v0.2
				c-0.3,0-0.6,0-0.9,0c-0.3,0-0.7,0-1.2,0v-0.2h0.2c0.3,0,0.4,0,0.5-0.1c0-0.1,0.1-0.5,0.1-1.2v-2.2c0-0.6,0-1-0.1-1.1
				c0-0.1-0.2-0.1-0.4-0.1h-0.3V39c0.4,0,0.8,0,1.1,0c0.4,0,0.7,0,1,0v0.1h-0.1c-0.2,0-0.4,0-0.4,0.1c-0.1,0-0.1,0.1-0.1,0.2
				c0,0.1,0,0.5,0,1v0.7c0.4,0,1,0,1.7,0c0.6,0,1,0,1.4,0v-0.7c0-0.4,0-0.8,0-1.1c0-0.1,0-0.2-0.1-0.2c-0.2,0-0.4,0-0.5,0h-0.3v-0.2
				c0.4,0,0.7,0,1.1,0c0.4,0,0.7,0,1.1,0v0.2h-0.3c-0.2,0-0.3,0-0.4,0.1c-0.1,0-0.1,0.1-0.1,0.2c0,0.1,0,0.5,0,1.1v2
				c0,0.8,0,1.2,0.1,1.3c0,0.1,0.2,0.1,0.4,0.1H21v0.2c-0.3,0-0.7,0-1,0c-0.4,0-0.8,0-1.2,0v-0.2h0.3c0.2,0,0.3,0,0.4-0.1
				c0.1,0,0.1-0.1,0.1-0.2c0-0.3,0-0.6,0-1.1v-1c-0.3,0-0.8,0-1.3,0C17.5,41.4,16.9,41.5,16.5,41.5z"/>
			<path class="st0" d="M17.3,44.2L17.3,44.2c-0.4,0-0.7,0-1,0s-0.7,0-1.2,0H15v-0.4h0.3c0.3,0,0.4-0.1,0.4-0.1s0.1-0.2,0.1-1.2
				v-2.2c0-0.8,0-1-0.1-1.1c0,0-0.1-0.1-0.3-0.1H15v-0.4h0.1c0.8,0,1.5,0,2.1,0h0.1v0.4h-0.2c-0.3,0-0.4,0-0.4,0l-0.1,0.1
				c0,0.1,0,0.5,0,1v0.9c0.4,0,1,0,1.6,0c0.5,0,1,0,1.3,0v-0.6c0-0.4,0-0.8,0-1c0-0.1,0-0.1-0.1-0.2c0,0-0.1,0-0.3,0h-0.4v-0.4h0.1
				c0.4,0,0.7,0,1.1,0c0.4,0,0.7,0,1.1,0h0.1v0.4h-0.4c-0.2,0-0.3,0-0.3,0s-0.1,0.1-0.1,0.2s0,0.5,0,1v2c0,1,0,1.2,0.1,1.2
				c0,0,0.1,0.1,0.3,0.1h0.4v0.4H21c-0.3,0-0.7,0-1,0c-0.4,0-0.8,0-1.1,0h-0.1v-0.4h0.3c0.2,0,0.3,0,0.3,0s0.1-0.1,0.1-0.2
				c0-0.3,0-0.6,0-1.1v-0.9c-0.3,0-0.7,0-1.2,0c-0.7,0-1.3,0-1.7,0v0.9c0,0.2,0,0.4,0,0.6c0,0.4,0,0.5,0,0.5s0,0,0.1,0.1
				c0,0,0.1,0,0.3,0h0.3C17.3,43.7,17.3,44.2,17.3,44.2z M15.1,43.9L15.1,43.9c0.5,0,0.9,0,1.1,0c0.3,0,0.6,0,0.8,0v-0.1h-0.2
				c-0.2,0-0.3,0-0.3-0.1c-0.1,0-0.1-0.1-0.1-0.2c0,0,0-0.1,0-0.6c0-0.2,0-0.4,0-0.6v-1.1h0.1c0.4,0,1,0,1.7,0c0.5,0,1,0,1.3,0h0.1
				v1c0,0.5,0,0.9,0,1.1c0,0.1-0.1,0.2-0.1,0.3c-0.1,0.1-0.2,0.1-0.4,0.1h-0.2v0.1c0.6,0,1.4,0,2,0v-0.1h-0.2
				c-0.3,0-0.4-0.1-0.5-0.2c0-0.1-0.1-0.3-0.1-1.3v-2c0-0.6,0-0.9,0-1.1c0-0.1,0.1-0.2,0.1-0.3c0.1-0.1,0.2-0.1,0.4-0.1h0.2v-0.1
				c-0.4,0-0.7,0-1,0s-0.6,0-1,0v0.1h0.3c0.2,0,0.3,0,0.4,0.1c0.1,0.1,0.1,0.2,0.1,0.3c0,0.3,0,0.6,0,1.1V41h-0.1
				c-0.4,0-0.8,0-1.4,0c-0.7,0-1.2,0-1.7,0h-0.1v-0.9c0-0.5,0-0.9,0-1s0.1-0.2,0.1-0.2s0.1-0.1,0.5-0.1h0.2v-0.1c-0.6,0-1.2,0-2,0
				v0.1h0.2c0.3,0,0.4,0.1,0.5,0.2c0,0.1,0.1,0.3,0.1,1.1v2.2c0,1,0,1.2-0.1,1.2c-0.1,0.1-0.2,0.2-0.5,0.2h-0.2V43.9z"/>
		</g>
		<g>
			<path class="st5" d="M21.9,42.3c0,0.5,0.1,0.8,0.4,1.1c0.2,0.3,0.5,0.4,0.9,0.4c0.2,0,0.3,0,0.5-0.1s0.3-0.1,0.5-0.3l0.1,0.1
				l-0.2,0.3c-0.2,0.1-0.4,0.2-0.6,0.3c-0.2,0.1-0.4,0.1-0.7,0.1c-0.5,0-0.9-0.2-1.2-0.5c-0.3-0.3-0.5-0.7-0.5-1.3
				c0-0.4,0.1-0.8,0.3-1.1c0.1-0.2,0.3-0.4,0.6-0.6c0.3-0.2,0.6-0.3,0.9-0.3c0.4,0,0.8,0.1,1,0.4c0.3,0.3,0.4,0.6,0.4,1.1v0.2
				c-0.2,0-0.3,0.1-0.5,0.1c-0.3,0-0.6,0-1.1,0L21.9,42.3L21.9,42.3z M21.9,42c0.4,0,0.8,0,1.3,0c0.2,0,0.4,0,0.5,0v-0.2
				c0-0.2,0-0.4-0.1-0.6c-0.1-0.1-0.1-0.2-0.3-0.3c-0.1-0.1-0.3-0.1-0.5-0.1c-0.3,0-0.5,0.1-0.7,0.3C22,41.3,21.9,41.6,21.9,42z"/>
			<path class="st0" d="M22.8,44.2c-0.5,0-0.9-0.2-1.3-0.5c-0.3-0.3-0.5-0.8-0.5-1.3c0-0.4,0.1-0.8,0.3-1.1c0.1-0.2,0.3-0.4,0.7-0.6
				c0.3-0.2,0.6-0.3,0.9-0.3c0.5,0,0.8,0.1,1.1,0.4s0.4,0.7,0.4,1.1v0.3h-0.1c-0.2,0-0.3,0.1-0.5,0.1c-0.3,0-0.6,0-1.1,0h-0.8
				c0,0.4,0.1,0.7,0.3,1c0.2,0.2,0.5,0.3,0.9,0.3c0.2,0,0.3,0,0.5-0.1s0.3-0.1,0.5-0.2h0.1l0.2,0.1l-0.1,0.4l0,0
				c-0.2,0.1-0.4,0.2-0.6,0.3C23.3,44.2,23.1,44.2,22.8,44.2z M22.9,40.6c-0.3,0-0.6,0.1-0.8,0.2c-0.3,0.2-0.5,0.3-0.6,0.5
				c-0.2,0.3-0.2,0.6-0.2,1c0,0.5,0.1,0.9,0.4,1.2c0.3,0.3,0.7,0.4,1.1,0.4c0.2,0,0.4,0,0.6-0.1c0.2-0.1,0.4-0.1,0.6-0.2l0.1-0.2
				c-0.1,0.1-0.3,0.1-0.4,0.2c-0.2,0.1-0.4,0.1-0.5,0.1c-0.4,0-0.7-0.1-1-0.4c-0.2-0.3-0.4-0.7-0.4-1.2V42h1c0.5,0,0.8,0,1.1,0
				c0.1,0,0.3,0,0.4-0.1v-0.2c0-0.4-0.1-0.8-0.4-1C23.7,40.7,23.4,40.6,22.9,40.6z M23.1,42.1c-0.5,0-0.9,0-1.3,0h-0.1V42
				c0-0.4,0.1-0.8,0.3-1c0.2-0.2,0.4-0.3,0.7-0.3c0.2,0,0.4,0,0.5,0.1s0.3,0.2,0.3,0.3c0.1,0.2,0.1,0.4,0.1,0.6v0.4h-0.1
				C23.5,42.1,23.3,42.1,23.1,42.1z M22,41.9c0.4,0,0.7,0,1.2,0c0.2,0,0.3,0,0.4,0v-0.1c0-0.2,0-0.4-0.1-0.6c0-0.1-0.1-0.2-0.2-0.3
				c-0.1-0.1-0.3-0.1-0.4-0.1c-0.2,0-0.4,0.1-0.6,0.3C22.1,41.3,22,41.6,22,41.9z"/>
		</g>
		<g>
			<path class="st5" d="M25.8,41.4c0.1-0.1,0.2-0.2,0.3-0.4c0.1-0.2,0.3-0.3,0.4-0.4c0.1-0.1,0.2-0.1,0.4-0.1c0.1,0,0.2,0,0.3,0
				c0,0,0.1,0,0.1,0.1l0,0c0,0.2-0.1,0.5-0.1,0.8H27c-0.1-0.1-0.1-0.2-0.2-0.3C26.7,41,26.6,41,26.5,41s-0.3,0-0.4,0.1
				C26,41.2,25.9,41.3,25.8,41.4c0.1,0.3,0,0.6,0,1.1c0,0.3,0,0.6,0,0.9c0,0.1,0,0.1,0.1,0.2s0.2,0.1,0.4,0.1h0.2v0.4
				c-0.4,0-0.7,0-1.1,0c-0.3,0-0.6,0-1,0v-0.2h0.4c0.1,0,0.2,0,0.2-0.1c0,0,0.1-0.2,0.1-0.4c0-0.4,0-0.8,0-1.3c0-0.6,0-0.9-0.1-1
				c0-0.1-0.1-0.1-0.3-0.1h-0.3v-0.2c0.2,0,0.5-0.1,0.6-0.1c0.2,0,0.4-0.1,0.5-0.2h0.1c0,0,0,0,0.1,0c0,0,0,0,0,0.1L25.8,41.4z"/>
			<path class="st0" d="M24.4,44.2v-0.4h0.4c0.2,0,0.2,0,0.2,0s0-0.1,0-0.3c0-0.3,0-0.8,0-1.3c0-0.8,0-1-0.1-1c0,0-0.1,0-0.2,0h-0.4
				v-0.4h0.1c0.2,0,0.4-0.1,0.6-0.1c0.2,0,0.3-0.1,0.5-0.2c0.1-0.1,0.2,0,0.2,0v0.1v0.5c0.1-0.1,0.1-0.1,0.2-0.2
				c0.1-0.2,0.3-0.3,0.4-0.4c0.1-0.1,0.3-0.1,0.4-0.1c0.1,0,0.3,0,0.3,0.1c0.1,0,0.1,0.1,0.1,0.1l0,0c0,0.2-0.1,0.5-0.1,0.8v0.1
				h-0.3v-0.1c0-0.1-0.1-0.2-0.2-0.2c-0.1,0-0.1-0.1-0.2-0.1c-0.1,0-0.2,0-0.3,0.1s-0.2,0.2-0.2,0.4c0,0.2-0.1,0.5-0.1,1
				c0,0.3,0,0.6,0,0.8c0,0.1,0,0.1,0,0.1c0.1,0,0.2,0.1,0.4,0.1h0.3V44h-0.1C25.8,44.1,25.2,44.1,24.4,44.2L24.4,44.2z M25.5,44
				c0.3,0,0.6,0,1,0l0,0h-0.1c-0.2,0-0.3,0-0.5-0.1c-0.1,0-0.1-0.1-0.1-0.2c0-0.2,0-0.5,0-0.9c0-0.5,0-0.9,0.1-1.1
				c0-0.2,0.1-0.3,0.3-0.5c0.1-0.1,0.3-0.2,0.5-0.2c0.1,0,0.2,0,0.3,0.1s0.1,0.1,0.2,0.3l0,0c0-0.3,0-0.6,0.1-0.8l0,0
				c-0.1,0-0.2,0-0.3,0s-0.2,0-0.3,0.1s-0.2,0.2-0.4,0.3c-0.1,0.2-0.2,0.3-0.3,0.4l-0.1,0.1v-0.9l0,0l0,0c-0.2,0.1-0.3,0.1-0.5,0.2
				c-0.2,0-0.4,0.1-0.6,0.1V41H25c0.2,0,0.3,0,0.4,0.1c0,0.1,0.1,0.3,0.1,1.1c0,0.5,0,0.9,0,1.3c0,0.3,0,0.4-0.1,0.4
				c0,0.1-0.1,0.1-0.3,0.1h-0.3l0,0C24.9,44,25.2,44,25.5,44z"/>
		</g>
		<g>
			<path class="st5" d="M28.6,40.5L28.6,40.5c0.1,0.2,0.1,0.4,0.1,0.7c0,0.7,0,1.2,0,1.6c0,0.3,0,0.6,0,0.8c0,0.1,0,0.1,0.1,0.2
				c0,0,0.1,0.1,0.3,0.1h0.3v0.2c-0.4,0-0.7,0-1,0s-0.6,0-0.9,0v-0.2h0.3c0.1,0,0.2,0,0.2-0.1c0,0,0-0.2,0.1-0.4c0-0.3,0-0.7,0-1.3
				c0-0.4,0-0.7,0-0.9c0-0.1,0-0.1-0.1-0.2c0,0-0.1,0-0.3,0h-0.3v-0.2c0.3,0,0.5-0.1,0.7-0.1C28.2,40.7,28.4,40.6,28.6,40.5z
				 M28.3,38.9c0.1,0,0.2,0,0.3,0.1s0.1,0.2,0.1,0.3s0,0.2-0.1,0.3s-0.2,0.1-0.3,0.1s-0.2,0-0.3-0.1s-0.1-0.2-0.1-0.3s0-0.2,0.1-0.3
				S28.2,38.9,28.3,38.9z"/>
			<path class="st0" d="M27.3,44.2v-0.4h0.4c0.1,0,0.2,0,0.2,0s0-0.1,0-0.3c0-0.3,0-0.7,0-1.3c0-0.4,0-0.7,0-0.9v-0.1c0,0,0,0-0.2,0
				h-0.4v-0.4h0.1c0.3,0,0.5-0.1,0.7-0.1c0.1,0,0.3-0.1,0.5-0.2l0,0l0.2,0.1v0.1c0,0.2,0,0.4,0,0.6c0,0.7,0,1.2,0,1.6
				c0,0.3,0,0.6,0,0.8c0,0.1,0,0.1,0,0.1s0,0,0.2,0.1h0.3v0.4h-0.1c-0.4,0-0.7,0-1,0C28,44.1,27.7,44.1,27.3,44.2L27.3,44.2z
				 M28.2,44c0.3,0,0.6,0,0.9,0l0,0h-0.2c-0.2,0-0.3-0.1-0.3-0.1c-0.1,0-0.1-0.1-0.1-0.2c0-0.2,0-0.5,0-0.8c0-0.3,0-0.9,0-1.6
				c0-0.2,0-0.4,0-0.6l0,0c-0.2,0.1-0.4,0.1-0.5,0.2c-0.1,0-0.3,0.1-0.6,0.1v0.1h0.2c0.2,0,0.3,0,0.3,0.1c0.1,0,0.1,0.1,0.1,0.2
				c0,0.2,0,0.5,0,0.9c0,0.5,0,1,0,1.3c0,0.3,0,0.4-0.1,0.4c0,0.1-0.1,0.1-0.3,0.1h-0.2l0,0C27.7,44,28,44,28.2,44z M28.3,39.8
				c-0.1,0-0.3,0-0.4-0.1s-0.1-0.2-0.1-0.4c0-0.1,0-0.3,0.1-0.4s0.2-0.1,0.4-0.1c0.1,0,0.3,0.1,0.4,0.1c0.1,0.1,0.1,0.2,0.1,0.4
				c0,0.1,0,0.3-0.1,0.4C28.6,39.8,28.4,39.8,28.3,39.8z M28.3,39c-0.1,0-0.2,0-0.2,0.1C28,39.2,28,39.2,28,39.3
				c0,0.1,0,0.2,0.1,0.2c0.1,0.1,0.3,0.1,0.5,0c0.1-0.1,0.1-0.1,0.1-0.2s0-0.2-0.1-0.2C28.4,39,28.4,39,28.3,39z"/>
		</g>
		<g>
			<path class="st5" d="M30.6,41.2v1.4c0,0.4,0,0.6,0,0.7c0,0.1,0.1,0.2,0.1,0.2c0.1,0.1,0.2,0.1,0.3,0.1s0.1,0,0.2,0
				c0.1,0,0.1-0.1,0.2-0.1l0.1,0.1l-0.3,0.5c-0.1,0-0.2,0-0.2,0.1s-0.1,0-0.2,0c-0.2,0-0.3,0-0.5-0.1C30.2,44,30.1,44,30,43.8
				c-0.1-0.1-0.1-0.3-0.1-0.5v-0.7v-1.4c-0.2,0-0.4,0-0.6,0v-0.1c0.2-0.1,0.4-0.2,0.6-0.3c0-0.4,0-0.7,0-1.1
				c0.3-0.1,0.5-0.2,0.6-0.3l0.1,0.1c0,0.2,0,0.6-0.1,1.4c0.3,0,0.5,0,0.7,0h0.3v0.4h-0.2h-0.7h0V41.2z"/>
			<path class="st0" d="M30.7,44.2c-0.2,0-0.4,0-0.5-0.1s-0.2-0.2-0.3-0.3s-0.1-0.3-0.1-0.5v-0.7v-1.3c-0.2,0-0.3,0-0.5,0h-0.1V41
				h0.1c0.2-0.1,0.4-0.1,0.5-0.2c0-0.3,0-0.7,0-1.1v-0.1h0.1c0.3-0.1,0.5-0.2,0.6-0.3l0,0l0.2,0.1l0,0c0,0.2,0,0.6-0.1,1.3
				c0.3,0,0.5,0,0.6,0h0.4l-0.1,0.6h-0.2h-0.7v1.4c0,0.5,0,0.6,0,0.7s0.1,0.2,0.1,0.2c0.1,0,0.1,0.1,0.2,0.1c0.1,0,0.1,0,0.2,0
				c0.1,0,0.1-0.1,0.2-0.1l0.1-0.1l0.2,0.3l-0.4,0.3l0,0c-0.1,0-0.2,0.1-0.2,0.1C30.9,44.2,30.8,44.2,30.7,44.2z M29.9,41.1
				L29.9,41.1l0.1,1.5v0.7c0,0.2,0,0.3,0.1,0.4c0,0.1,0.1,0.2,0.2,0.2c0.2,0.1,0.4,0.1,0.6,0.1c0.1,0,0.1,0,0.2-0.1l0.3-0.3l0,0
				c-0.1,0-0.1,0.1-0.2,0.1c-0.1,0-0.2,0-0.2,0c-0.1,0-0.2,0-0.3-0.1s-0.2-0.2-0.2-0.3s0-0.4,0-0.7v-1.5h1v-0.2h-0.2
				c-0.2,0-0.4,0-0.7,0h-0.1v-0.1c0-0.7,0-1.1,0.1-1.3l0,0c-0.1,0.1-0.3,0.1-0.5,0.2c0,0.4,0,0.8,0,1.1v0.1l0,0
				c-0.2,0.1-0.3,0.2-0.5,0.2l0,0C29.6,41.1,29.8,41.1,29.9,41.1z"/>
		</g>
		<g>
			<path class="st5" d="M32,41.5v-0.2V41l0.4-0.2c0.2-0.1,0.3-0.2,0.5-0.2c0.1,0,0.3-0.1,0.4-0.1c0.3,0,0.6,0.1,0.8,0.2
				c0.2,0.2,0.3,0.3,0.4,0.6c0,0.2,0,0.6,0.1,1.3c0,0.7,0,1,0,1.1s0.1,0.1,0.2,0.1h0.3v0.3c-0.3,0-0.5,0-0.6,0s-0.3,0-0.6,0v-0.3
				c0-0.1,0-0.2,0-0.3l-0.8,0.6c0,0-0.1,0-0.1,0c-0.1,0-0.2,0-0.3,0c-0.3,0-0.6-0.1-0.7-0.2c-0.2-0.2-0.3-0.4-0.3-0.6
				c0-0.2,0.1-0.5,0.2-0.6c0.1-0.2,0.3-0.3,0.5-0.4c0.2-0.1,0.7-0.2,1.5-0.3c0-0.3-0.1-0.5-0.2-0.7C33.5,41.1,33.3,41,33,41
				c-0.1,0-0.2,0-0.3,0s-0.2,0.1-0.3,0.1c-0.1,0.2-0.1,0.3-0.2,0.5L32,41.5z M33.9,42.1c-0.7,0.1-1.1,0.3-1.3,0.4
				c-0.2,0.1-0.3,0.3-0.3,0.6c0,0.2,0.1,0.3,0.2,0.4s0.2,0.2,0.4,0.2c0.2,0,0.4-0.1,0.5-0.2c0.2-0.1,0.3-0.3,0.5-0.5v-0.8V42.1z"/>
			<path class="st0" d="M32.7,44.2c-0.3,0-0.6-0.1-0.8-0.3c-0.2-0.2-0.3-0.4-0.3-0.7c0-0.3,0.1-0.5,0.2-0.7c0.1-0.2,0.3-0.3,0.5-0.4
				c0.2-0.1,0.7-0.2,1.5-0.3c0-0.3-0.1-0.4-0.2-0.6c-0.2-0.2-0.4-0.3-0.6-0.3c-0.1,0-0.2,0-0.3,0S32.5,41,32.5,41
				c-0.1,0.2-0.1,0.3-0.2,0.5v0.1L32,41.5v-0.3v-0.3l0.4-0.3c0.2-0.1,0.4-0.2,0.5-0.2s0.3-0.1,0.5-0.1c0.4,0,0.6,0.1,0.9,0.2
				c0.2,0.2,0.4,0.4,0.4,0.6c0,0.2,0,0.6,0.1,1.3c0,0.9,0,1,0,1.1c0,0,0,0,0.1,0h0.2v0.4H35c-0.3,0-0.5,0-0.6,0s-0.3,0-0.5,0h-0.1
				v-0.4v-0.1l-0.6,0.7c-0.1,0-0.1,0.1-0.2,0.1S32.8,44.2,32.7,44.2z M33,40.8c0.3,0,0.6,0.1,0.8,0.3c0.1,0.2,0.2,0.4,0.2,0.8V42
				h-0.1c-0.8,0.1-1.3,0.3-1.5,0.3c-0.2,0.1-0.4,0.2-0.5,0.4c-0.1,0.2-0.2,0.4-0.2,0.6c0,0.2,0.1,0.4,0.2,0.6
				c0.1,0.1,0.4,0.2,0.7,0.2c0.1,0,0.2,0,0.3,0s0.1,0,0.2-0.1l0.9-0.7v0.2c0,0.1,0,0.2,0,0.3V44c0.2,0,0.3,0,0.5,0
				c0.1,0,0.3,0,0.5,0v-0.1h-0.2c-0.2,0-0.2-0.1-0.3-0.2c0,0,0-0.1,0-1.1c0-0.7,0-1.1-0.1-1.3c0-0.2-0.1-0.4-0.3-0.5
				c-0.2-0.1-0.4-0.2-0.8-0.2c-0.1,0-0.3,0-0.4,0.1c-0.1,0-0.3,0.1-0.5,0.2l-0.3,0.2v0.2v0.2h0.1c0.1-0.1,0.1-0.3,0.2-0.4l0,0l0,0
				c0.1-0.1,0.2-0.1,0.3-0.1C32.8,40.8,32.9,40.8,33,40.8z M32.9,43.8c-0.2,0-0.3-0.1-0.5-0.2c-0.1-0.1-0.2-0.3-0.2-0.5
				c0-0.3,0.1-0.5,0.3-0.7c0.2-0.1,0.6-0.3,1.3-0.4h0.1v0.3v0.8l0,0c-0.2,0.2-0.3,0.4-0.5,0.5C33.3,43.7,33.1,43.8,32.9,43.8z
				 M33.8,42.2c-0.6,0.1-1,0.3-1.2,0.4c-0.2,0.1-0.2,0.3-0.2,0.5c0,0.2,0,0.3,0.1,0.4s0.2,0.1,0.3,0.1c0.2,0,0.3,0,0.5-0.1
				c0.2-0.1,0.3-0.2,0.4-0.4L33.8,42.2L33.8,42.2z"/>
		</g>
		<g>
			<path class="st5" d="M38.3,41.2c0.1,0.2,0.1,0.3,0.1,0.4c0,0.2-0.1,0.4-0.2,0.6c-0.1,0.2-0.3,0.4-0.6,0.5
				c-0.2,0.1-0.5,0.2-0.8,0.2h-0.2c-0.2,0.1-0.3,0.2-0.3,0.3s-0.1,0.1-0.1,0.2c0,0.1,0,0.2,0.1,0.2c0.1,0.1,0.3,0.1,0.6,0.1
				c0.1,0,0.3,0,0.5,0c0.3,0,0.5,0,0.7,0c0.2,0,0.3,0,0.4,0.1s0.2,0.2,0.3,0.3c0.1,0.2,0.1,0.3,0.1,0.5c0,0.3-0.1,0.5-0.3,0.8
				c-0.2,0.3-0.4,0.5-0.7,0.6c-0.3,0.2-0.7,0.2-1.1,0.2c-0.5,0-0.9-0.1-1.2-0.3c-0.3-0.2-0.4-0.5-0.4-0.8c0-0.2,0.1-0.4,0.2-0.6
				c0.3-0.1,0.5-0.2,0.6-0.4c-0.2-0.1-0.3-0.1-0.4-0.2c-0.1-0.1-0.1-0.1-0.1-0.2s0-0.2,0.1-0.3c0-0.1,0.1-0.1,0.2-0.2l0.4-0.3
				c-0.3-0.1-0.5-0.2-0.6-0.3c-0.2-0.2-0.3-0.4-0.3-0.7c0-0.2,0.1-0.5,0.2-0.7c0.1-0.2,0.3-0.4,0.6-0.5c0.3-0.1,0.6-0.2,0.9-0.2
				c0.2,0,0.4,0,0.5,0.1c0.1,0,0.3,0.1,0.4,0.3h0.3c0.3,0,0.6,0,0.7,0V41c0.2,0,0.2,0.1,0.1,0.2H38.3z M36.8,44.1
				c-0.2,0-0.3,0-0.4,0.1c-0.2,0.1-0.3,0.2-0.4,0.3s-0.1,0.3-0.1,0.5c0,0.3,0.1,0.5,0.3,0.7c0.2,0.2,0.5,0.3,0.8,0.3
				c0.3,0,0.5-0.1,0.7-0.2c0.2-0.1,0.4-0.2,0.5-0.4c0.1-0.2,0.2-0.4,0.2-0.5c0-0.2,0-0.3-0.1-0.4c-0.1-0.1-0.2-0.2-0.3-0.2
				s-0.2,0-0.4,0h-0.8V44.1z M37.8,41.8c0-0.3-0.1-0.6-0.2-0.7c-0.2-0.2-0.4-0.3-0.6-0.3s-0.4,0.1-0.6,0.2c-0.1,0.2-0.2,0.4-0.2,0.6
				c0,0.3,0.1,0.6,0.2,0.8c0.2,0.2,0.4,0.3,0.6,0.3c0.2,0,0.4-0.1,0.6-0.2C37.7,42.3,37.8,42.1,37.8,41.8z"/>
			<path class="st0" d="M36.9,46.3c-0.5,0-0.9-0.1-1.2-0.3c-0.3-0.2-0.4-0.5-0.4-0.9c0-0.2,0.1-0.4,0.2-0.7l0,0l0,0
				c0.2-0.1,0.3-0.2,0.5-0.3c-0.1,0-0.2-0.1-0.3-0.1c-0.1-0.1-0.1-0.2-0.1-0.3s0-0.2,0.1-0.3c0-0.1,0.1-0.2,0.3-0.3l0.2-0.1
				c-0.2-0.1-0.4-0.2-0.5-0.3c-0.2-0.2-0.3-0.5-0.3-0.8c0-0.3,0.1-0.5,0.2-0.7c0.1-0.2,0.3-0.4,0.6-0.5c0.3-0.2,0.6-0.2,1-0.2
				c0.2,0,0.4,0,0.5,0.1c0.1,0,0.3,0.1,0.4,0.2h0.3c0.3,0,0.6,0,0.7,0h0.1l0.1,0.2l0,0c-0.1,0-0.2,0.1-0.2,0.2l0,0h-0.6
				c0,0.1,0.1,0.2,0.1,0.3c0,0.2-0.1,0.5-0.2,0.7c-0.1,0.2-0.3,0.4-0.6,0.5c-0.3,0.1-0.5,0.2-0.8,0.2h-0.1c-0.2,0.1-0.2,0.2-0.3,0.2
				v0.1c0,0,0,0.1,0.1,0.1s0.2,0.1,0.5,0.1c0.1,0,0.3,0,0.5,0c0.3,0,0.5,0,0.7,0c0.2,0,0.4,0,0.5,0.1s0.2,0.2,0.3,0.4
				c0.1,0.2,0.1,0.4,0.1,0.6c0,0.3-0.1,0.6-0.3,0.8c-0.2,0.3-0.4,0.5-0.8,0.6C37.7,46.2,37.3,46.3,36.9,46.3z M35.6,44.5
				c-0.1,0.2-0.2,0.4-0.2,0.5c0,0.3,0.1,0.5,0.4,0.7c0.3,0.2,0.6,0.3,1.1,0.3c0.4,0,0.8-0.1,1.1-0.2c0.3-0.1,0.5-0.3,0.7-0.6
				c0.2-0.2,0.2-0.5,0.2-0.7c0-0.2,0-0.3-0.1-0.5c-0.1-0.1-0.1-0.2-0.2-0.3c-0.1-0.1-0.2-0.1-0.4-0.1c-0.1,0-0.4,0-0.7,0
				c-0.2,0-0.4,0-0.5,0c-0.3,0-0.5,0-0.6-0.1c-0.2-0.1-0.2-0.2-0.2-0.3s0-0.1,0.1-0.2l0.1-0.1l-0.3,0.3c-0.2,0.1-0.2,0.2-0.2,0.2
				c-0.1,0.1-0.1,0.2-0.1,0.3s0,0.1,0.1,0.1c0,0,0.1,0.1,0.4,0.2l0.2,0.1h-0.3C36.1,44.3,35.9,44.4,35.6,44.5z M37.2,40.6
				c-0.3,0-0.6,0.1-0.9,0.2c-0.2,0.1-0.4,0.3-0.5,0.5c-0.1,0.2-0.2,0.4-0.2,0.6c0,0.3,0.1,0.5,0.2,0.6s0.3,0.2,0.6,0.3h0.2l0,0l0,0
				h0.2c0.3,0,0.5-0.1,0.8-0.2c0.2-0.1,0.4-0.3,0.5-0.5c0.1-0.2,0.2-0.4,0.2-0.6c0-0.1,0-0.2-0.1-0.4V41h0.7c0-0.1,0.1-0.2,0.1-0.2
				c-0.2,0-0.4,0-0.7,0h-0.2l0,0c-0.1-0.1-0.3-0.2-0.4-0.2C37.5,40.6,37.4,40.6,37.2,40.6z M37,46c-0.4,0-0.7-0.1-0.9-0.3
				c-0.2-0.2-0.3-0.4-0.3-0.7c0-0.2,0-0.4,0.1-0.5s0.2-0.2,0.4-0.3c0.1-0.1,0.2-0.1,0.4-0.1h0.9c0.3,0,0.4,0,0.4,0
				c0.1,0,0.2,0.1,0.3,0.3c0.1,0.1,0.1,0.3,0.1,0.5c0,0.2-0.1,0.4-0.2,0.6c-0.1,0.2-0.3,0.3-0.5,0.4C37.6,45.9,37.3,46,37,46z
				 M36.8,44.2c-0.2,0-0.3,0-0.3,0c-0.3,0.2-0.3,0.3-0.3,0.3c-0.1,0.1-0.1,0.3-0.1,0.4c0,0.2,0.1,0.4,0.3,0.6
				c0.2,0.2,0.4,0.2,0.8,0.2c0.3,0,0.5,0,0.7-0.1c0.2-0.1,0.3-0.2,0.4-0.4c0.1-0.2,0.2-0.3,0.2-0.5c0-0.1,0-0.3-0.1-0.4
				c-0.1-0.1-0.1-0.2-0.2-0.2c0,0-0.1,0-0.4,0L36.8,44.2L36.8,44.2z M37,42.8c-0.3,0-0.5-0.1-0.7-0.3C36.1,42.3,36,42,36,41.7
				c0-0.3,0.1-0.5,0.2-0.7c0.2-0.2,0.4-0.3,0.6-0.3c0.3,0,0.5,0.1,0.7,0.3c0.2,0.2,0.3,0.5,0.3,0.8c0,0.3-0.1,0.5-0.2,0.7
				C37.5,42.7,37.2,42.8,37,42.8z M36.9,40.8c-0.2,0-0.4,0.1-0.5,0.2s-0.2,0.3-0.2,0.6c0,0.3,0.1,0.5,0.2,0.7
				c0.1,0.2,0.3,0.2,0.5,0.2c0.2,0,0.4-0.1,0.5-0.2s0.2-0.3,0.2-0.6c0-0.3-0.1-0.5-0.2-0.7C37.3,40.9,37.2,40.8,36.9,40.8z"/>
		</g>
		<g>
			<path class="st5" d="M39.9,42.3c0,0.5,0.1,0.8,0.4,1.1c0.2,0.3,0.5,0.4,0.9,0.4c0.2,0,0.3,0,0.5-0.1c0.2-0.1,0.3-0.1,0.5-0.3
				l0.1,0.1l-0.1,0.3c-0.2,0.1-0.4,0.2-0.6,0.3c-0.2,0.1-0.4,0.1-0.7,0.1c-0.5,0-0.9-0.2-1.2-0.5c-0.3-0.3-0.5-0.7-0.5-1.3
				c0-0.4,0.1-0.8,0.3-1.1c0.1-0.2,0.3-0.4,0.6-0.6c0.3-0.2,0.6-0.3,0.9-0.3c0.4,0,0.8,0.1,1,0.4c0.3,0.3,0.4,0.6,0.4,1.1v0.2
				c-0.2,0-0.3,0.1-0.5,0.1c-0.3,0-0.6,0-1.1,0L39.9,42.3L39.9,42.3z M40,42c0.4,0,0.8,0,1.3,0c0.2,0,0.4,0,0.5,0v-0.2
				c0-0.2,0-0.4-0.1-0.6c-0.1-0.1-0.1-0.2-0.3-0.3c-0.1-0.1-0.3-0.1-0.5-0.1c-0.3,0-0.5,0.1-0.7,0.3C40,41.3,40,41.6,40,42z"/>
			<path class="st0" d="M40.9,44.2c-0.5,0-0.9-0.2-1.3-0.5c-0.3-0.3-0.5-0.8-0.5-1.3c0-0.4,0.1-0.8,0.3-1.1c0.1-0.2,0.3-0.4,0.7-0.6
				c0.3-0.2,0.6-0.3,0.9-0.3c0.5,0,0.8,0.1,1.1,0.4c0.3,0.3,0.4,0.7,0.4,1.1v0.3h-0.1c-0.2,0-0.3,0.1-0.5,0.1c-0.3,0-0.6,0-1.1,0H40
				c0,0.4,0.1,0.7,0.3,1c0.2,0.2,0.5,0.3,0.9,0.3c0.2,0,0.3,0,0.5-0.1c0.2-0.1,0.3-0.1,0.5-0.2h0.1l0.2,0.1l-0.1,0.4l0,0
				c-0.2,0.1-0.4,0.2-0.6,0.3C41.4,44.2,41.1,44.2,40.9,44.2z M41,40.6c-0.3,0-0.6,0.1-0.8,0.2c-0.3,0.2-0.5,0.3-0.6,0.5
				c-0.2,0.3-0.2,0.6-0.2,1c0,0.5,0.1,0.9,0.4,1.2c0.3,0.3,0.7,0.4,1.1,0.4c0.2,0,0.4,0,0.6-0.1c0.2-0.1,0.4-0.1,0.6-0.2l0.1-0.2
				c-0.1,0.1-0.3,0.1-0.4,0.2c-0.2,0.1-0.4,0.1-0.5,0.1c-0.4,0-0.7-0.1-1-0.4c-0.2-0.3-0.4-0.7-0.4-1.2V42h1c0.5,0,0.8,0,1.1,0
				c0.1,0,0.3,0,0.4-0.1v-0.2c0-0.4-0.1-0.8-0.4-1C41.7,40.7,41.4,40.6,41,40.6z M41.2,42.1c-0.5,0-0.9,0-1.3,0h-0.1V42
				c0-0.4,0.1-0.8,0.3-1c0.2-0.2,0.4-0.3,0.7-0.3c0.2,0,0.4,0,0.5,0.1s0.3,0.2,0.3,0.3c0.1,0.2,0.1,0.4,0.1,0.6v0.4h-0.1
				C41.6,42.1,41.4,42.1,41.2,42.1z M40,41.9c0.4,0,0.7,0,1.2,0c0.2,0,0.3,0,0.4,0v-0.1c0-0.2,0-0.4-0.1-0.6c0-0.1-0.1-0.2-0.2-0.3
				c-0.1-0.1-0.3-0.1-0.4-0.1c-0.2,0-0.4,0.1-0.6,0.3C40.1,41.3,40.1,41.6,40,41.9z"/>
		</g>
		<g>
			<path class="st5" d="M21.8,46.1c-0.1,0.3-0.1,0.6-0.1,1h-0.3v-0.3c0-0.2,0-0.3-0.1-0.4s-0.2-0.1-0.4-0.2
				c-0.2-0.1-0.4-0.1-0.7-0.1c-0.4,0-0.7,0.1-0.9,0.3c-0.2,0.2-0.3,0.5-0.3,0.8c0,0.2,0,0.4,0.1,0.5s0.2,0.2,0.4,0.3s0.5,0.1,1,0.2
				c0.5,0,0.8,0.1,1,0.2c0.2,0.1,0.3,0.2,0.4,0.4c0.1,0.2,0.2,0.4,0.2,0.6c0,0.5-0.2,0.9-0.6,1.3c-0.4,0.4-1,0.5-1.6,0.5
				c-0.2,0-0.5,0-0.7-0.1c-0.2,0-0.5-0.1-0.7-0.2c0-0.3,0.1-0.7,0.1-1.1h0.3V50c0,0.2,0,0.4,0,0.4c0,0.1,0.1,0.1,0.2,0.2
				c0.1,0.1,0.3,0.2,0.5,0.2c0.2,0.1,0.4,0.1,0.6,0.1c0.5,0,0.8-0.1,1.1-0.3c0.3-0.2,0.4-0.5,0.4-0.8c0-0.2,0-0.4-0.1-0.5
				s-0.2-0.2-0.4-0.3s-0.4-0.1-0.9-0.2c-0.6,0-0.9-0.1-1.1-0.2c-0.2-0.1-0.4-0.2-0.5-0.4c-0.1-0.2-0.2-0.4-0.2-0.7
				c0-0.5,0.2-0.9,0.5-1.2c0.3-0.3,0.8-0.5,1.4-0.5c0.2,0,0.5,0,0.7,0.1C21.3,45.9,21.5,46,21.8,46.1z"/>
			<path class="st0" d="M19.8,51.3c-0.2,0-0.5,0-0.7-0.1c-0.2,0-0.5-0.1-0.7-0.2h-0.1v-0.1c0-0.3,0.1-0.7,0.1-1.1v-0.1h0.4V50
				c0,0.3,0,0.4,0,0.4s0,0.1,0.1,0.1c0.1,0.1,0.3,0.2,0.5,0.2s0.4,0.1,0.6,0.1c0.4,0,0.8-0.1,1-0.3c0.2-0.2,0.3-0.5,0.3-0.8
				c0-0.2,0-0.3-0.1-0.5c-0.1-0.1-0.2-0.2-0.3-0.3s-0.4-0.1-0.8-0.1c-0.6,0-0.9-0.1-1.2-0.2c-0.2-0.1-0.4-0.2-0.5-0.5
				c-0.1-0.2-0.2-0.5-0.2-0.8c0-0.5,0.2-0.9,0.5-1.2c0.4-0.3,0.9-0.5,1.5-0.5c0.2,0,0.5,0,0.8,0.1s0.5,0.1,0.8,0.2h0.1V46
				c-0.1,0.2-0.1,0.6-0.1,1v0.1h-0.4v-0.4c0-0.2,0-0.3-0.1-0.3c0,0-0.1-0.1-0.4-0.2c-0.2-0.1-0.4-0.1-0.7-0.1
				c-0.4,0-0.7,0.1-0.9,0.3c-0.2,0.2-0.3,0.4-0.3,0.7c0,0.2,0,0.3,0.1,0.5c0.1,0.1,0.2,0.2,0.3,0.3s0.5,0.1,1,0.2
				c0.5,0.1,0.9,0.1,1.1,0.2c0.2,0.1,0.3,0.2,0.5,0.4c0.1,0.2,0.2,0.4,0.2,0.7c0,0.5-0.2,1-0.6,1.3C21.1,51.1,20.5,51.3,19.8,51.3z
				 M18.5,50.8c0.2,0.1,0.4,0.1,0.6,0.2c0.2,0,0.5,0.1,0.7,0.1c0.7,0,1.2-0.2,1.6-0.5c0.4-0.3,0.6-0.7,0.6-1.2c0-0.2,0-0.4-0.1-0.6
				c-0.1-0.2-0.2-0.3-0.4-0.4s-0.5-0.1-1-0.2c-0.5,0-0.9-0.1-1-0.2c-0.2-0.1-0.3-0.2-0.4-0.3c-0.1-0.2-0.2-0.3-0.2-0.6
				c0-0.3,0.1-0.6,0.4-0.8c0.2-0.2,0.6-0.3,1-0.3c0.2,0,0.5,0,0.7,0.1s0.4,0.2,0.4,0.2c0.1,0.1,0.1,0.2,0.1,0.4v0.2h0.1
				c0-0.4,0-0.6,0.1-0.9c-0.2-0.1-0.4-0.2-0.7-0.2c-0.2-0.1-0.5-0.1-0.7-0.1c-0.6,0-1.1,0.1-1.4,0.4c-0.3,0.3-0.5,0.7-0.5,1.1
				c0,0.3,0.1,0.5,0.2,0.7c0.1,0.2,0.2,0.3,0.4,0.4s0.6,0.1,1.1,0.2c0.4,0,0.7,0.1,0.9,0.2s0.3,0.2,0.4,0.3c0.1,0.1,0.1,0.3,0.1,0.5
				c0,0.4-0.1,0.7-0.4,0.9c-0.3,0.2-0.6,0.3-1.1,0.3c-0.2,0-0.4,0-0.6-0.1c-0.2-0.1-0.4-0.1-0.5-0.2s-0.2-0.1-0.2-0.2
				c0,0,0-0.1,0-0.5v-0.1h-0.1C18.5,50.2,18.5,50.6,18.5,50.8z"/>
		</g>
		<g>
			<path class="st5" d="M22.3,49.3c0-0.3,0.1-0.6,0.2-0.9c0.2-0.3,0.4-0.5,0.7-0.6c0.3-0.2,0.6-0.2,1-0.2c0.5,0,0.9,0.2,1.3,0.5
				c0.3,0.3,0.5,0.7,0.5,1.2c0,0.6-0.2,1.1-0.6,1.4c-0.4,0.3-0.8,0.5-1.3,0.5s-0.9-0.2-1.2-0.5C22.4,50.3,22.3,49.9,22.3,49.3z
				 M23,49.1c0,0.5,0.1,0.9,0.3,1.3s0.5,0.5,0.9,0.5c0.3,0,0.5-0.1,0.7-0.3c0.2-0.2,0.3-0.6,0.3-1s-0.1-0.7-0.2-1
				c-0.1-0.3-0.3-0.5-0.4-0.6c-0.2-0.1-0.4-0.2-0.6-0.2c-0.2,0-0.4,0-0.5,0.1c-0.2,0.1-0.3,0.2-0.3,0.4C23,48.6,23,48.8,23,49.1z"/>
			<path class="st0" d="M23.9,51.3c-0.5,0-0.9-0.2-1.3-0.5c-0.3-0.3-0.5-0.8-0.5-1.4c0-0.4,0.1-0.7,0.2-1c0.2-0.3,0.4-0.5,0.7-0.7
				c0.3-0.2,0.6-0.2,1-0.2c0.5,0,1,0.2,1.3,0.5c0.3,0.3,0.5,0.8,0.5,1.3c0,0.6-0.2,1.1-0.6,1.5C24.9,51.1,24.5,51.3,23.9,51.3z
				 M24.1,47.6c-0.3,0-0.7,0.1-0.9,0.2c-0.3,0.1-0.5,0.4-0.6,0.6c-0.1,0.3-0.2,0.6-0.2,0.9c0,0.5,0.1,1,0.4,1.3
				c0.3,0.3,0.7,0.5,1.1,0.5c0.5,0,0.9-0.2,1.3-0.5c0.4-0.3,0.6-0.8,0.6-1.4c0-0.5-0.1-0.9-0.4-1.2C25,47.8,24.6,47.6,24.1,47.6z
				 M24.2,51c-0.4,0-0.7-0.2-1-0.6c-0.2-0.4-0.3-0.8-0.3-1.3c0-0.3,0.1-0.5,0.2-0.8c0.1-0.2,0.2-0.3,0.4-0.4
				c0.2-0.1,0.4-0.2,0.6-0.2c0.2,0,0.5,0.1,0.6,0.2c0.2,0.1,0.3,0.3,0.5,0.6c0.1,0.3,0.2,0.6,0.2,1c0,0.5-0.1,0.8-0.3,1.1
				C24.8,50.9,24.5,51,24.2,51z M24,47.9c-0.2,0-0.3,0-0.5,0.1c-0.1,0.1-0.2,0.2-0.3,0.4c-0.1,0.2-0.1,0.4-0.1,0.7
				c0,0.5,0.1,0.9,0.3,1.3c0.2,0.3,0.5,0.5,0.8,0.5s0.5-0.1,0.7-0.3c0.2-0.2,0.3-0.5,0.3-1c0-0.4-0.1-0.7-0.2-0.9
				c-0.1-0.3-0.2-0.4-0.4-0.6C24.4,47.9,24.2,47.9,24,47.9z"/>
		</g>
		<g>
			<path class="st5" d="M28.9,50.6L28.9,50.6l-0.1,0.3c-0.2,0.1-0.3,0.2-0.5,0.2s-0.4,0.1-0.5,0.1c-0.4,0-0.7-0.1-0.9-0.2
				c-0.3-0.1-0.4-0.3-0.6-0.6c-0.1-0.3-0.2-0.6-0.2-1c0-0.3,0.1-0.6,0.2-0.8c0.1-0.2,0.3-0.4,0.4-0.6c0.2-0.1,0.4-0.3,0.7-0.4
				c0.2-0.1,0.4-0.1,0.7-0.1c0.2,0,0.4,0,0.5,0s0.3,0.1,0.4,0.2c-0.1,0.3-0.1,0.6-0.1,1h-0.2v-0.2c0-0.2,0-0.3-0.1-0.3
				c0-0.1-0.1-0.1-0.3-0.2c-0.2-0.1-0.3-0.1-0.5-0.1c-0.3,0-0.6,0.1-0.8,0.3c-0.2,0.2-0.3,0.5-0.3,0.9c0,0.5,0.1,0.9,0.4,1.2
				c0.2,0.3,0.5,0.4,0.9,0.4c0.1,0,0.3,0,0.4-0.1C28.6,50.7,28.8,50.6,28.9,50.6z"/>
			<path class="st0" d="M27.8,51.3c-0.4,0-0.7-0.1-1-0.2c-0.3-0.1-0.5-0.4-0.6-0.6c-0.1-0.3-0.2-0.6-0.2-1c0-0.3,0.1-0.6,0.2-0.9
				c0.1-0.2,0.3-0.4,0.5-0.6c0.2-0.1,0.4-0.3,0.7-0.4c0.2-0.1,0.4-0.1,0.7-0.1c0.2,0,0.4,0,0.5,0s0.3,0.1,0.5,0.2h0.1v0.1
				c-0.1,0.3-0.1,0.6-0.1,1v0.1h-0.4v-0.3c0-0.2,0-0.2-0.1-0.3c0,0-0.1-0.1-0.3-0.2C28.1,48,28,48,27.8,48c-0.3,0-0.5,0.1-0.7,0.3
				c-0.2,0.2-0.2,0.5-0.2,0.8c0,0.5,0.1,0.9,0.4,1.2c0.2,0.3,0.5,0.4,0.9,0.4c0.1,0,0.3,0,0.4-0.1c0.1,0,0.3-0.1,0.4-0.2h0.1
				l0.2,0.2l-0.2,0.3l0,0c-0.2,0.1-0.4,0.2-0.5,0.2C28.2,51.2,28,51.3,27.8,51.3z M28.1,47.6c-0.2,0-0.4,0-0.6,0.1
				c-0.3,0.1-0.5,0.3-0.7,0.4s-0.3,0.3-0.4,0.5c-0.1,0.2-0.2,0.5-0.2,0.8c0,0.3,0.1,0.6,0.2,0.9c0.1,0.2,0.3,0.4,0.5,0.6
				c0.2,0.1,0.5,0.2,0.9,0.2c0.2,0,0.4,0,0.5-0.1c0.2,0,0.3-0.1,0.5-0.2l0.1-0.2l0,0c-0.1,0.1-0.3,0.1-0.4,0.1
				c-0.1,0-0.3,0.1-0.5,0.1c-0.4,0-0.7-0.2-1-0.5c-0.3-0.3-0.4-0.8-0.4-1.3c0-0.4,0.1-0.7,0.3-1c0.2-0.2,0.5-0.3,0.8-0.3
				c0.2,0,0.4,0,0.6,0.1c0.2,0.1,0.3,0.1,0.3,0.2c0.1,0.1,0.1,0.2,0.1,0.4v0.1h0.1c0-0.3,0-0.6,0.1-0.8c-0.1-0.1-0.3-0.1-0.4-0.1
				C28.4,47.6,28.3,47.6,28.1,47.6z"/>
		</g>
		<g>
			<path class="st5" d="M30.5,47.5L30.5,47.5c0.1,0.2,0.1,0.4,0.1,0.7c0,0.7,0,1.2,0,1.6c0,0.3,0,0.6,0,0.8c0,0.1,0,0.1,0.1,0.2
				c0,0,0.1,0.1,0.3,0.1h0.3v0.2c-0.4,0-0.7,0-1,0s-0.6,0-0.9,0v-0.2h0.3c0.1,0,0.2,0,0.2-0.1c0,0,0-0.2,0.1-0.4c0-0.3,0-0.7,0-1.3
				c0-0.4,0-0.7,0-0.9c0-0.1,0-0.1-0.1-0.2c0,0-0.1,0-0.3,0h-0.3v-0.2c0.3,0,0.5-0.1,0.7-0.1C30.1,47.7,30.3,47.6,30.5,47.5z
				 M30.2,45.9c0.1,0,0.2,0,0.3,0.1s0.1,0.2,0.1,0.3s0,0.2-0.1,0.3s-0.2,0.1-0.3,0.1s-0.2,0-0.3-0.1s-0.1-0.2-0.1-0.3s0-0.2,0.1-0.3
				C30,45.9,30.1,45.9,30.2,45.9z"/>
			<path class="st0" d="M29.2,51.2v-0.4h0.4c0.1,0,0.2,0,0.2,0s0-0.1,0-0.3c0-0.3,0-0.7,0-1.3c0-0.4,0-0.7,0-0.9v-0.1c0,0,0,0-0.2,0
				h-0.4v-0.4h0.1c0.3,0,0.5-0.1,0.7-0.1c0.1,0,0.3-0.1,0.5-0.2l0,0l0.2,0.1v0.1c0,0.2,0,0.4,0,0.6c0,0.7,0,1.2,0,1.6
				c0,0.3,0,0.6,0,0.8c0,0.1,0,0.1,0,0.1s0,0,0.2,0.1h0.3v0.4h-0.1c-0.4,0-0.7,0-1,0C29.9,51.2,29.6,51.2,29.2,51.2L29.2,51.2z
				 M30.2,51c0.3,0,0.6,0,0.9,0l0,0h-0.2c-0.2,0-0.3-0.1-0.3-0.1c-0.1,0-0.1-0.1-0.1-0.2c0-0.2,0-0.5,0-0.8c0-0.3,0-0.9,0-1.6
				c0-0.2,0-0.4,0-0.6l0,0c-0.2,0.1-0.4,0.1-0.5,0.2c-0.1,0-0.3,0.1-0.6,0.1v0.1h0.2c0.2,0,0.3,0,0.3,0.1c0.1,0,0.1,0.1,0.1,0.2
				c0,0.2,0,0.5,0,0.9c0,0.5,0,1,0,1.3c0,0.3,0,0.4-0.1,0.4c0,0.1-0.1,0.1-0.3,0.1h-0.2l0,0C29.6,51,29.9,51,30.2,51z M30.2,46.8
				c-0.1,0-0.3,0-0.4-0.1s-0.1-0.2-0.1-0.4c0-0.1,0-0.3,0.1-0.4s0.2-0.1,0.4-0.1c0.1,0,0.3,0.1,0.4,0.1c0.1,0.1,0.1,0.2,0.1,0.4
				c0,0.1,0,0.3-0.1,0.4C30.5,46.8,30.3,46.8,30.2,46.8z M30.2,46c-0.1,0-0.2,0-0.2,0.1c-0.1,0.1-0.1,0.1-0.1,0.2
				c0,0.1,0,0.2,0.1,0.2c0.1,0.1,0.3,0.1,0.5,0c0.1-0.1,0.1-0.1,0.1-0.2s0-0.2-0.1-0.2C30.4,46,30.3,46,30.2,46z"/>
		</g>
		<g>
			<path class="st5" d="M32,49.3c0,0.5,0.1,0.8,0.4,1.1c0.2,0.3,0.5,0.4,0.9,0.4c0.2,0,0.3,0,0.5-0.1c0.2-0.1,0.3-0.1,0.5-0.3
				l0.1,0.1l-0.1,0.3c-0.2,0.1-0.4,0.2-0.6,0.3s-0.4,0.1-0.7,0.1c-0.5,0-0.9-0.2-1.2-0.5c-0.3-0.3-0.5-0.7-0.5-1.3
				c0-0.4,0.1-0.8,0.3-1.1c0.1-0.2,0.3-0.4,0.6-0.6c0.3-0.2,0.6-0.3,0.9-0.3c0.4,0,0.8,0.1,1,0.4c0.3,0.3,0.4,0.6,0.4,1.1v0.2
				c-0.2,0-0.3,0.1-0.5,0.1c-0.3,0-0.6,0-1.1,0L32,49.3L32,49.3z M32,49c0.4,0,0.8,0,1.3,0c0.2,0,0.4,0,0.5,0v-0.2
				c0-0.2,0-0.4-0.1-0.6c-0.1-0.1-0.1-0.2-0.3-0.3c-0.1-0.1-0.3-0.1-0.5-0.1c-0.3,0-0.5,0.1-0.7,0.3C32.1,48.3,32,48.6,32,49z"/>
			<path class="st0" d="M33,51.3c-0.5,0-0.9-0.2-1.3-0.5c-0.3-0.3-0.5-0.8-0.5-1.3c0-0.4,0.1-0.8,0.3-1.1c0.1-0.2,0.3-0.4,0.7-0.6
				c0.3-0.2,0.6-0.3,0.9-0.3c0.5,0,0.8,0.1,1.1,0.4c0.3,0.3,0.4,0.7,0.4,1.1v0.3h-0.1c-0.2,0-0.3,0.1-0.5,0.1c-0.3,0-0.6,0-1.1,0
				h-0.8c0,0.4,0.1,0.7,0.3,1c0.2,0.2,0.5,0.3,0.9,0.3c0.2,0,0.3,0,0.5-0.1c0.2-0.1,0.3-0.1,0.5-0.2h0.1l0.2,0.1l-0.1,0.4l0,0
				c-0.2,0.1-0.4,0.2-0.6,0.3C33.4,51.2,33.2,51.3,33,51.3z M33.1,47.6c-0.3,0-0.6,0.1-0.8,0.2c-0.3,0.2-0.5,0.3-0.6,0.5
				c-0.2,0.3-0.2,0.6-0.2,1c0,0.5,0.1,0.9,0.4,1.2c0.3,0.3,0.7,0.4,1.1,0.4c0.2,0,0.4,0,0.6-0.1c0.2-0.1,0.4-0.1,0.6-0.2l0.1-0.2
				c-0.1,0.1-0.3,0.1-0.4,0.2c-0.2,0.1-0.4,0.1-0.5,0.1c-0.4,0-0.7-0.1-1-0.4C32.2,50,32,49.6,32,49.1V49h1c0.5,0,0.8,0,1.1,0
				c0.1,0,0.3,0,0.4-0.1v-0.2c0-0.4-0.1-0.8-0.4-1C33.8,47.7,33.5,47.6,33.1,47.6z M33.3,49.2c-0.5,0-0.9,0-1.3,0h-0.1v-0.1
				c0-0.4,0.1-0.8,0.3-1c0.2-0.2,0.4-0.3,0.7-0.3c0.2,0,0.4,0,0.5,0.1s0.3,0.2,0.3,0.3c0.1,0.2,0.1,0.4,0.1,0.6v0.3h-0.1
				C33.6,49.1,33.5,49.2,33.3,49.2z M32.1,49c0.4,0,0.7,0,1.2,0c0.2,0,0.3,0,0.4,0v-0.1c0-0.2,0-0.4-0.1-0.6c0-0.1-0.1-0.2-0.2-0.3
				c-0.1-0.1-0.3-0.1-0.4-0.1c-0.3,0-0.4,0.1-0.6,0.3C32.2,48.3,32.1,48.6,32.1,49z"/>
		</g>
		<g>
			<path class="st5" d="M35.9,48.2v1.4c0,0.4,0,0.6,0,0.7c0,0.1,0.1,0.2,0.1,0.2c0.1,0.1,0.2,0.1,0.3,0.1s0.1,0,0.2,0
				c0.1,0,0.1-0.1,0.2-0.1l0.1,0.1l-0.3,0.5c-0.1,0-0.2,0-0.2,0.1c-0.1,0-0.1,0-0.2,0c-0.2,0-0.3,0-0.5-0.1
				c-0.1-0.1-0.2-0.1-0.3-0.3c-0.1-0.1-0.1-0.3-0.1-0.5v-0.7v-1.4c-0.2,0-0.4,0-0.6,0v-0.1c0.2-0.1,0.4-0.2,0.6-0.3
				c0-0.4,0-0.7,0-1.1c0.3-0.1,0.5-0.2,0.6-0.3l0.1,0.1c0,0.2,0,0.6-0.1,1.4c0.3,0,0.5,0,0.7,0h0.3v0.4h-0.2h-0.7l0,0V48.2z"/>
			<path class="st0" d="M36.1,51.3c-0.2,0-0.4,0-0.5-0.1s-0.2-0.2-0.3-0.3s-0.1-0.3-0.1-0.5v-0.7v-1.3c-0.2,0-0.3,0-0.5,0h-0.1v-0.3
				h0.1c0.2-0.1,0.4-0.1,0.5-0.2c0-0.3,0-0.7,0-1.1v-0.1h0.1c0.3-0.1,0.5-0.2,0.6-0.3l0,0l0.2,0.1l0,0c0,0.2,0,0.6-0.1,1.3
				c0.3,0,0.5,0,0.6,0H37l-0.1,0.6h-0.2H36v1.4c0,0.5,0,0.6,0,0.7c0,0.1,0.1,0.2,0.1,0.2c0.1,0.1,0.3,0.1,0.4,0
				c0.1,0,0.1-0.1,0.2-0.1l0.1-0.1l0.2,0.3l-0.4,0.5l0,0c-0.1,0-0.2,0.1-0.2,0.1C36.2,51.2,36.1,51.3,36.1,51.3z M35.3,48.2
				L35.3,48.2l0.1,1.5v0.7c0,0.2,0,0.3,0.1,0.4c0,0.1,0.1,0.2,0.2,0.2c0.2,0.1,0.4,0.1,0.6,0.1c0.1,0,0.1,0,0.2-0.1l0.3-0.3l0,0
				c-0.1,0-0.1,0.1-0.2,0.1s-0.2,0-0.2,0c-0.1,0-0.2,0-0.3-0.1s-0.2-0.2-0.2-0.3s0-0.4,0-0.7v-1.6h1v-0.2h-0.2c-0.2,0-0.4,0-0.7,0
				h-0.1v-0.1c0-0.7,0-1.1,0.1-1.3l0,0c-0.1,0.1-0.3,0.1-0.5,0.2c0,0.4,0,0.7,0,1.1v0.1l0,0c-0.2,0.1-0.3,0.2-0.5,0.2l0,0
				C34.9,48.2,35.1,48.2,35.3,48.2z"/>
		</g>
		<g>
			<path class="st5" d="M37,53.1l0.2-0.6h0.1c0.1,0.1,0.1,0.1,0.2,0.2c0.1,0,0.1,0.1,0.2,0.1c0.2,0,0.3-0.1,0.4-0.2
				c0.1-0.1,0.3-0.6,0.6-1.2c-0.1-0.3-0.3-0.8-0.6-1.6L37.8,49l-0.3-0.6c-0.1-0.2-0.2-0.3-0.4-0.3H37v-0.2c0.3,0,0.5,0,0.7,0
				c0.2,0,0.5,0,1.1,0v0.2h-0.3c-0.1,0-0.2,0-0.2,0l-0.1,0.1c0,0,0,0.1,0.1,0.3c0.2,0.7,0.5,1.4,0.9,2.2c0.3-0.7,0.6-1.4,0.8-2.1
				c0.1-0.2,0.1-0.3,0.1-0.4S40,48.1,39.8,48h-0.3v-0.2c0.3,0,0.5,0,0.8,0c0.2,0,0.4,0,0.6,0V48h-0.1c-0.1,0-0.1,0-0.2,0
				s-0.1,0.1-0.1,0.1c-0.1,0.1-0.3,0.6-0.7,1.4c-0.1,0.2-0.4,0.8-0.8,1.9c-0.4,0.8-0.6,1.3-0.6,1.4c-0.1,0.2-0.2,0.3-0.4,0.4
				c-0.1,0.1-0.3,0.1-0.5,0.1c-0.1,0-0.1,0-0.2,0C37.1,53.1,37.1,53.1,37,53.1z"/>
			<path class="st0" d="M37.4,53.3c-0.1,0-0.2,0-0.2,0c-0.1,0-0.2-0.1-0.2-0.1h-0.1l0.2-0.7h0.2l0,0c0.1,0.1,0.1,0.1,0.2,0.2
				c0.1,0,0.1,0,0.2,0c0.1,0,0.2-0.1,0.4-0.2c0.1-0.1,0.3-0.5,0.6-1.2c-0.1-0.3-0.3-0.8-0.6-1.6l-0.3-0.8l-0.3-0.6
				C37.4,48,37.2,48,37.2,48H37v-0.4h0.1c0.3,0,0.5,0,0.7,0c0.2,0,0.5,0,1.1,0H39V48h-0.4c-0.1,0-0.1,0-0.2,0l0,0c0,0,0,0.1,0.1,0.2
				c0.2,0.6,0.5,1.3,0.8,2c0.3-0.6,0.5-1.3,0.8-1.9c0.1-0.3,0.1-0.3,0.1-0.3s0-0.1-0.2-0.1l-0.3-0.1v-0.4h0.1c0.3,0,0.5,0,0.8,0
				c0.2,0,0.4,0,0.6,0h0.1v0.4h-0.2H41l-0.1,0.1c-0.1,0.1-0.3,0.6-0.7,1.4c-0.1,0.2-0.4,0.8-0.8,1.9c-0.4,0.9-0.6,1.3-0.6,1.4
				c-0.1,0.2-0.2,0.3-0.4,0.4C37.8,53.2,37.6,53.3,37.4,53.3z M37.1,53C37.2,53,37.2,53,37.1,53c0.3,0.2,0.5,0.1,0.7,0
				c0.1-0.1,0.2-0.2,0.3-0.3c0-0.1,0.2-0.3,0.6-1.4c0.4-1,0.7-1.6,0.8-1.9c0.4-0.8,0.6-1.3,0.7-1.4c0-0.1,0.1-0.1,0.2-0.2
				c0.1,0,0.1-0.1,0.2-0.1l0,0l0,0c-0.4,0-0.8,0-1.2,0l0,0h0.2c0.2,0,0.3,0.1,0.3,0.2c0,0,0,0.1-0.1,0.4c-0.2,0.7-0.5,1.4-0.8,2.1
				l-0.1,0.2l-0.1-0.2c-0.3-0.8-0.6-1.5-0.9-2.2c-0.1-0.2-0.1-0.2-0.1-0.3s0-0.1,0.1-0.2c0.1,0,0.1-0.1,0.3-0.1h0.2l0,0
				c-0.5,0-0.8,0-1,0c-0.2,0-0.4,0-0.6,0l0,0h0.1c0.2,0,0.4,0.1,0.5,0.4l0.3,0.6l0.3,0.8c0.3,0.8,0.5,1.3,0.6,1.6l0,0l0,0
				c-0.3,0.7-0.5,1.1-0.6,1.3c-0.1,0.2-0.3,0.3-0.5,0.3c-0.1,0-0.2,0-0.2-0.1c-0.1,0-0.1-0.1-0.2-0.2V53z"/>
		</g>
	</g>
	<g id="bottom_point_2_">
		<g>
			<polygon class="st2" points="25.3,57.3 28.8,57.8 32.4,57.3 28.8,74.5 			"/>
			<path d="M32.2,57.4l-3.4,16.4l-3.3-16.4l3.2,0.5l0,0l0,0L32.2,57.4 M32.5,57.1l-3.8,0.5l-3.5-0.5l3.6,18L32.5,57.1L32.5,57.1z"/>
		</g>
		<polygon class="st4" points="28.8,57.6 28.8,74.9 32.5,57.1 		"/>
		<path d="M32.1,57.5l-3.3,15.9l-3.2-15.9l3.1,0.3l0,0l0,0L32.1,57.5 M32.5,57.1l-3.8,0.3l-3.5-0.3l3.6,18L32.5,57.1L32.5,57.1z"/>
	</g>
	<g id="inner_circle_2_">
		<g>
			<path d="M28.8,57.9c-3.6,0-7.1-1.1-10-3.3c-2.8-2.1-4.8-5-5.9-8.2H3.3v-0.5h10l0.1,0.2c2.1,6.8,8.3,11.4,15.5,11.4
				S42.1,52.8,44.2,46l0.1-0.2h10v0.5h-9.6c-1.1,3.3-3.1,6.2-5.9,8.2C35.8,56.7,32.4,57.9,28.8,57.9z"/>
		</g>
		<g>
			<path d="M54.2,36.6h-10l-0.1-0.2C42,29.6,35.8,25,28.6,25s-13.3,4.6-15.5,11.4L13,36.6H3v-0.5h9.6c1.1-3.3,3.1-6.2,5.9-8.2
				c2.9-2.2,6.4-3.3,10-3.3s7.1,1.1,10,3.3c2.8,2.1,4.8,5,5.9,8.2H54v0.5H54.2z"/>
		</g>
	</g>
</g>
</svg>
