<?xml version="1.0" encoding="utf-8"?>
<!-- Generator: Adobe Illustrator 21.0.2, SVG Export Plug-In . SVG Version: 6.00 Build 0)  -->
<svg version="1.1" xmlns="http://www.w3.org/2000/svg" xmlns:xlink="http://www.w3.org/1999/xlink" x="0px" y="0px"
	 viewBox="0 0 224 224" style="enable-background:new 0 0 224 224;" xml:space="preserve">
<style type="text/css">
	.st0{fill:#FFFFFF;}
	.st1{fill:#981B1E;}
	.st2{fill:#CCCCCC;}
	.st3{fill:#BF1E2E;}
	.st4{fill:#475A84;}
	.st5{fill:#C1272D;}
</style>
<g id="Layer_2">
	<circle class="st0" cx="112" cy="112" r="112"/>
</g>
<g id="Layer_1">
	<g>
		<g id="red_circle_1_">
			<path class="st1" d="M113.5,169.6c-30.6,0-55.5-24.9-55.5-55.5c0-30.6,24.9-55.5,55.5-55.5S169,83.5,169,114.1
				C169,144.7,144.1,169.6,113.5,169.6z M113.5,62.1c-28.6,0-51.9,23.3-51.9,51.9c0,28.6,23.3,51.9,51.9,51.9s51.9-23.3,51.9-51.9
				C165.4,85.4,142.1,62.1,113.5,62.1z"/>
		</g>
		<g id="lighthouse_1_">
			<polyline class="st2" points="107.7,26.8 107.7,38.6 119.2,38.6 119.2,26.8 			"/>
			<path d="M118.8,26.8v2.3c-0.8-0.2-1.6-0.3-2.4-0.4v-2.2h-0.8v2.1c-1.6-0.2-3.1-0.1-4.3,0v-2.1h-0.8v2.2c-1.1,0.1-1.9,0.3-2.4,0.4
				v-2.3h-0.8V39h12.2V26.8H118.8z M111.3,34.3c1.2-0.1,2.7-0.2,4.3,0V36h-4.3V34.3z M111.3,33.5v-1.7c1.2-0.1,2.7-0.2,4.3,0v1.7
				C114,33.4,112.5,33.4,111.3,33.5z M108.1,32.4c0.4-0.1,1.2-0.3,2.4-0.5v1.7c-1.1,0.1-1.9,0.3-2.4,0.4V32.4z M116.4,31.9
				c0.8,0.1,1.6,0.3,2.4,0.5v1.7c-0.8-0.2-1.6-0.3-2.4-0.4V31.9z M118.8,29.9v1.7c-0.8-0.2-1.6-0.3-2.4-0.4v-1.7
				C117.2,29.5,118,29.7,118.8,29.9z M115.6,29.3V31c-1.6-0.2-3.1-0.1-4.3,0v-1.7C112.5,29.2,114,29.2,115.6,29.3z M110.5,29.4v1.7
				c-1.1,0.1-1.9,0.3-2.4,0.4v-1.7C108.5,29.8,109.4,29.6,110.5,29.4z M108.1,38.2v-3.4c0.4-0.1,1.2-0.3,2.4-0.5v2.4h5.9v-2.4
				c0.8,0.1,1.6,0.3,2.4,0.5v3.4H108.1z"/>
			<polyline class="st0" points="103.5,77.9 105.6,41.4 121.4,41.4 123.4,77.6 			"/>
			<polygon points="103.9,77.9 103.1,77.8 105.2,41 121.7,41 123.8,77.5 123.1,77.6 121,41.8 105.9,41.8 			"/>
			<g id="Window_4_">
				<rect x="107.6" y="56.4" width="1.2" height="4.3"/>
			</g>
			<g id="Window_3_">
				<rect x="118" y="68.7" width="1.2" height="4.3"/>
			</g>
			<g>
				<path class="st3" d="M106.5,41.9c-1.1,0-2.1-0.7-2.5-1.8c-0.4-1.4,0.3-2.8,1.7-3.2c5-1.5,10.2-1.5,15.3,0
					c1.4,0.4,2.1,1.8,1.7,3.2c-0.4,1.4-1.8,2.1-3.2,1.7c-4.3-1.3-8.3-1.3-12.4,0C107,41.9,106.8,41.9,106.5,41.9z"/>
			</g>
			<g>
				<path d="M104.5,43.7c-0.7,0-1.4-0.5-1.5-1.2c-0.2-0.8,0.3-1.7,1.2-1.9c6.1-1.4,12.4-1.4,18.7,0c0.9,0.2,1.4,1,1.2,1.9
					c-0.2,0.9-1,1.4-1.9,1.2c-5.8-1.3-11.6-1.3-17.2,0C104.7,43.7,104.6,43.7,104.5,43.7z"/>
			</g>
			<path class="st3" d="M120.6,26.2c-0.4-0.1-0.7-0.2-1.1-0.2c-1-1.8-2.7-3.6-5.3-3.9v-0.5c0.5-0.2,0.9-0.7,0.9-1.2
				c0-0.7-0.7-1.3-1.6-1.3c-0.9,0-1.6,0.6-1.6,1.3c0,0.5,0.4,1,0.9,1.2V22c-2.7,0.2-4.3,2-5.5,3.9c-0.4,0.1-0.7,0.1-1.1,0.2
				c-0.4,0.1-0.7,0.5-0.6,1c0.1,0.4,0.4,0.6,0.8,0.6c0.1,0,0.1,0,0.2,0c4.4-1,8.9-1,13.5,0c0.4,0.1,0.8-0.2,0.9-0.6
				C121.3,26.7,121,26.2,120.6,26.2z"/>
		</g>
		<g id="white_circle_outside_2_">
			<path class="st0" d="M113.9,180.7c-36.8,0-66.7-29.9-66.7-66.7s29.9-66.7,66.7-66.7s66.7,29.9,66.7,66.7S150.6,180.7,113.9,180.7
				z M113.9,55.3c-32.4,0-58.8,26.4-58.8,58.8c0,32.4,26.4,58.8,58.8,58.8c32.4,0,58.8-26.4,58.8-58.8
				C172.6,81.7,146.3,55.3,113.9,55.3z"/>
		</g>
		<g>
			<g>
				<path class="st4" d="M76.1,60.3c0.1,0,0.3,0.2,0.7,0.5c0.2,0.1,0.3,0.3,0.4,0.5c-0.2,0.1-0.2,0.2-0.4,0.3
					c-0.5-0.1-1-0.2-1.4-0.1c-0.4,0.1-0.8,0.2-1.2,0.5c-0.4,0.3-0.7,0.8-0.7,1.3c0,0.7,0.2,1.4,0.8,2.1c0.3,0.4,0.6,0.7,0.8,0.8
					c0.3,0.2,0.6,0.3,0.9,0.4c0.2,0,0.5,0,0.7,0c0.3-0.1,0.6-0.2,0.9-0.4c0.3-0.2,0.5-0.5,0.7-0.9c0.2-0.4,0.2-0.8,0.3-1.3
					c0.1-0.1,0.2-0.2,0.4-0.3c0.1,0.1,0.1,0.2,0.2,0.3c0,0,0.1,0.2,0.2,0.5c0,0.1,0,0.1,0,0.1c0,0.1,0,0.1,0.1,0.2
					c-0.1,0.2-0.3,0.5-0.5,0.8c-0.3,0.3-0.6,0.6-1,0.9c-0.3,0.2-0.7,0.5-1,0.6c-0.3,0.2-0.6,0.3-0.9,0.3c-0.4,0.1-0.8,0.1-1.2,0
					c-0.3-0.1-0.6-0.2-0.9-0.3c-0.3-0.2-0.5-0.4-0.8-0.7c-0.6-0.7-0.8-1.5-0.7-2.4c0.2-0.9,0.7-1.7,1.6-2.4c0.4-0.3,0.7-0.5,1.1-0.7
					C75.4,60.6,75.8,60.4,76.1,60.3z"/>
				<path class="st4" d="M80.2,64.3c0,0,0.2-0.1,0.3-0.3c0.1-0.1,0.1-0.1,0.1-0.2c0-0.1,0-0.2-0.1-0.3c-0.1-0.1-0.1-0.2-0.2-0.3
					c-0.1-0.1-0.1-0.2-0.2-0.3c-0.1-0.1-0.1-0.2-0.2-0.3c0,0,0,0,0-0.1c-0.1-0.1-0.1-0.1-0.1-0.2c0,0,0,0,0-0.1
					c-0.4-0.6-0.5-0.8-0.9-1.4c0,0,0-0.1-0.1-0.1c-0.3-0.5-0.5-0.8-0.6-0.9c-0.1-0.1-0.1-0.1-0.2-0.1c-0.1,0-0.3,0.1-0.5,0.2
					c0,0,0,0-0.1-0.1c0,0-0.1-0.1-0.1-0.1c0.1-0.1,0.2-0.2,0.3-0.3c0.1-0.1,0.1-0.1,0.2-0.2c0.1-0.1,0.3-0.3,0.5-0.6
					c0-0.1,0.1-0.1,0.1-0.1c0.1-0.1,0.2-0.1,0.3-0.1c0.6,0.9,0.9,1.4,1.5,2.3c0.1-0.4,0.3-0.6,0.5-0.9c0.2-0.2,0.4-0.4,0.6-0.5
					c0.2-0.1,0.4-0.2,0.7-0.2c0.2,0,0.4,0,0.5,0c0.2,0.1,0.3,0.2,0.4,0.3c0.1,0.1,0.2,0.3,0.4,0.6c0.1,0.1,0.1,0.2,0.1,0.3
					c0.1,0.2,0.2,0.3,0.3,0.6c0.2,0.3,0.3,0.5,0.4,0.8c0,0,0,0,0.1,0c0,0,0.1,0,0.3-0.1c0.1,0,0.2-0.1,0.2-0.1c0,0,0.1,0.1,0.1,0.1
					c0,0,0,0,0,0c0,0,0,0.1,0.1,0.1c0,0-0.1,0-0.1,0.1c0,0-0.1,0.1-0.3,0.1c-0.2,0.1-0.5,0.2-0.6,0.3c-0.1,0.1-0.2,0.2-0.4,0.3
					c-0.1,0.1-0.3,0.2-0.5,0.3c0,0-0.1,0-0.1,0c0,0,0-0.1-0.1-0.1c0,0,0,0,0,0c0,0,0-0.1,0-0.1c0-0.1,0.1-0.1,0.2-0.2
					s0.2-0.1,0.2-0.2c0,0,0-0.1,0-0.1c-0.1-0.2-0.2-0.4-0.3-0.6c-0.2-0.4-0.3-0.6-0.6-1c-0.2-0.3-0.3-0.5-0.4-0.6
					C81.7,60,81.6,60,81.4,60c-0.2,0-0.3,0.1-0.5,0.2c-0.2,0.1-0.3,0.3-0.5,0.5c-0.1,0.2-0.2,0.4-0.3,0.6c0.2,0.3,0.3,0.4,0.4,0.7
					c0.2,0.4,0.4,0.7,0.5,0.9c0.1,0.1,0.1,0.2,0.1,0.2c0.1,0.2,0.2,0.3,0.3,0.3c0,0,0.1,0,0.1,0c0.1,0,0.2-0.1,0.3-0.1
					c0.1,0,0.2-0.1,0.2-0.1c0,0,0.1,0.1,0.1,0.1c0,0,0,0.1,0.1,0.1c-0.2,0.1-0.3,0.2-0.5,0.3c-0.2,0.1-0.3,0.2-0.5,0.3
					c-0.2,0.2-0.3,0.2-0.6,0.4c-0.2,0.1-0.2,0.2-0.4,0.3C80.4,64.5,80.3,64.4,80.2,64.3C80.2,64.4,80.2,64.3,80.2,64.3z"/>
				<path class="st4" d="M88.5,58.9c0.1,0,0.1,0,0.1,0c0,0,0.1,0,0.1,0c0,0,0,0,0,0c0,0.3,0,0.5,0,0.6c-0.1,0.1-0.2,0.3-0.4,0.3
					c-0.2,0.1-0.3,0.1-0.5,0.1c-0.2,0-0.4-0.1-0.6-0.3c0,0.3-0.1,0.5-0.3,0.7c-0.2,0.2-0.4,0.4-0.7,0.6c-0.3,0.2-0.5,0.2-0.8,0.2
					c-0.2,0-0.4-0.2-0.5-0.4c0-0.1-0.1-0.2-0.1-0.3c0-0.1,0-0.2,0.1-0.4c0-0.1,0.1-0.3,0.3-0.5c0,0,0.1-0.1,0.3-0.3
					c0.4-0.4,0.5-0.6,0.9-1c0-0.1-0.1-0.2-0.1-0.3c-0.2-0.4-0.4-0.6-0.5-0.7c-0.1-0.1-0.2,0-0.4,0c-0.2,0.1-0.3,0.2-0.4,0.3
					c-0.1,0.1-0.2,0.2-0.2,0.3c0,0.1,0,0.2,0.1,0.4c0,0.1,0.1,0.2,0.1,0.2c0,0.1-0.1,0.2-0.2,0.3c-0.1,0.1-0.2,0.2-0.2,0.2
					c-0.1,0.2-0.2,0.3-0.3,0.3c-0.1,0-0.1,0-0.1-0.1C84,59.2,84,59,84,58.9c0-0.2,0.1-0.5,0.2-0.7c0.1-0.3,0.3-0.5,0.5-0.6
					c0.2-0.2,0.5-0.4,0.9-0.6c0.2-0.1,0.5-0.2,0.7-0.2s0.4,0.1,0.5,0.2c0.1,0.1,0.3,0.4,0.5,0.8c0.1,0.3,0.2,0.4,0.3,0.7
					c0.1,0.2,0.1,0.3,0.2,0.5c0,0.1,0,0.1,0.1,0.1c0.1,0.1,0.1,0.2,0.2,0.2c0.1,0,0.1,0,0.2,0c0,0,0.1,0,0.1-0.1
					C88.4,59.1,88.4,59.1,88.5,58.9C88.5,59,88.5,58.9,88.5,58.9z M86.6,58.6c-0.1,0.1-0.3,0.3-0.4,0.6c-0.1,0.2-0.2,0.4-0.2,0.6
					c0,0.1,0,0.2,0.1,0.4c0.1,0.1,0.2,0.2,0.3,0.2s0.2,0,0.3,0c0.2-0.1,0.3-0.2,0.3-0.3c0.1-0.2,0.1-0.3,0.1-0.4
					c0-0.1-0.1-0.3-0.3-0.6C86.7,58.9,86.6,58.8,86.6,58.6z"/>
				<path class="st4" d="M89.2,59.3c0.1-0.1,0.1-0.1,0.2-0.2c0.1-0.1,0.2-0.2,0.3-0.2c0,0,0.1-0.1,0-0.1c0-0.1-0.1-0.2-0.1-0.4
					c-0.1-0.1-0.1-0.2-0.2-0.4c-0.1-0.1-0.1-0.2-0.1-0.3c-0.1-0.2-0.1-0.3-0.2-0.4c0-0.1-0.1-0.2-0.1-0.3c-0.1-0.2-0.2-0.3-0.2-0.4
					c0,0-0.1-0.1-0.2-0.1c-0.1,0-0.3,0-0.5,0c0-0.1-0.1-0.1-0.1-0.2c0,0,0.1-0.1,0.1-0.1c0,0,0.2-0.1,0.3-0.3
					c0.1-0.1,0.2-0.2,0.3-0.3c0,0,0,0,0.1-0.1c0,0,0.1-0.1,0.1-0.1c0.1-0.1,0.1-0.3,0.2-0.5c0.1-0.1,0.1-0.1,0.2-0.1
					c0.1,0.2,0.1,0.3,0.2,0.5c0,0.1,0,0.1,0,0.1c0,0,0,0.1,0.1,0.2c0.2-0.3,0.4-0.6,0.5-0.7c0.2-0.2,0.5-0.4,0.7-0.5
					c0.3-0.1,0.6-0.1,0.9-0.1c0.3,0.1,0.5,0.2,0.6,0.3c0.1,0.2,0.3,0.5,0.5,1c0.2,0.6,0.3,0.9,0.5,1.4c0,0.1,0.1,0.1,0.1,0.2
					c0,0,0.1,0,0.3,0c0.1,0,0.1,0,0.2,0c0,0,0.1,0.1,0.1,0.1c0,0,0,0.1,0,0.1c-0.4,0.1-0.5,0.2-0.9,0.3C93,57.9,93,58,92.9,58
					c-0.1,0-0.1,0-0.2,0.1c-0.2,0.1-0.3,0.2-0.6,0.3c-0.1,0-0.1,0-0.2,0.1c0,0,0-0.1,0-0.1c0-0.1-0.1-0.1-0.1-0.2
					c0,0,0.1-0.1,0.3-0.2c0,0,0.1-0.1,0.1-0.1c0.1,0,0.1-0.1,0.1-0.1c0-0.1,0-0.2-0.1-0.3c-0.1-0.2-0.2-0.4-0.2-0.6
					c-0.1-0.2-0.1-0.3-0.2-0.5c-0.2-0.6-0.4-1-0.6-1.1c-0.2-0.2-0.4-0.2-0.7-0.1c-0.2,0.1-0.3,0.2-0.5,0.3c-0.2,0.2-0.3,0.4-0.4,0.6
					c0,0,0,0,0,0.1c0,0.1,0.1,0.2,0.1,0.3c0,0.1,0.1,0.2,0.1,0.3c0.1,0.3,0.2,0.4,0.3,0.7c0,0,0,0.1,0,0.1c0.2,0.5,0.3,0.7,0.4,0.8
					c0.1,0,0.2,0,0.5,0c0,0,0,0.1,0.1,0.1c0,0,0,0.1,0,0.2c-0.1,0-0.2,0.1-0.2,0.1c-0.1,0-0.2,0.1-0.3,0.1c-0.2,0.1-0.3,0.1-0.5,0.2
					c-0.2,0.1-0.6,0.3-1,0.5c0,0,0,0-0.1-0.1C89.2,59.4,89.2,59.4,89.2,59.3z"/>
				<path class="st4" d="M93.3,54.1c0.3-0.3,0.6-0.5,0.7-0.7c0.1-0.2,0.2-0.5,0.3-0.9c0.1,0,0.2-0.1,0.3-0.1
					c0.1,0.1,0.1,0.1,0.1,0.2c0,0.2,0.1,0.3,0.1,0.4c0,0.1,0,0.2,0.1,0.3c0,0,0,0,0,0.1c0,0,0.1,0,0.1,0c0,0,0.2-0.1,0.4-0.2
					c0,0,0.1,0,0.4-0.1c0,0.1,0.1,0.1,0.1,0.2c0,0.1,0.1,0.2,0,0.2c0,0-0.2,0.1-0.2,0.1c0,0-0.1,0-0.2,0c-0.1,0-0.1,0-0.2,0.1
					c0,0-0.1,0-0.1,0c-0.1,0-0.1,0.1-0.2,0.1c0.2,0.7,0.3,1,0.5,1.7c0.1,0.3,0.2,0.5,0.2,0.6c0,0.1,0.1,0.2,0.2,0.2
					c0.1,0,0.2,0,0.2,0c0.1,0,0.1-0.1,0.2-0.1c0,0,0.1-0.1,0.2-0.2c0,0,0,0,0.1-0.1c0.1,0,0.2,0.1,0.2,0.1c0,0,0,0,0,0
					c-0.1,0.2-0.2,0.4-0.3,0.5c-0.2,0.2-0.4,0.3-0.6,0.3c-0.3,0.1-0.5,0.1-0.8,0c-0.2-0.1-0.4-0.4-0.5-0.7c-0.1-0.3-0.1-0.5-0.2-0.8
					c-0.2-0.5-0.3-0.8-0.4-1.3c-0.1,0-0.1,0-0.2,0c-0.1,0-0.2,0.1-0.3,0.1c0,0,0,0-0.1,0c0,0,0,0-0.1-0.1
					C93.3,54.3,93.3,54.3,93.3,54.1z"/>
				<path class="st4" d="M97.2,56.4c0,0,0.1-0.1,0.1-0.1c0.1-0.1,0.3-0.2,0.4-0.3c0-0.1,0-0.3-0.2-0.7c-0.2-0.8-0.4-1.3-0.5-1.5
					c0,0-0.1-0.1-0.1-0.1c-0.1,0-0.2,0-0.4,0c-0.1,0-0.1,0-0.1-0.1c0-0.1,0-0.1-0.1-0.2c0.2-0.1,0.4-0.2,0.6-0.4
					c0.2-0.2,0.3-0.3,0.3-0.5c0-0.1,0.1-0.1,0.1-0.2c0.1,0,0.2-0.1,0.3-0.1c0,0.1,0.1,0.1,0.1,0.2c0,0,0,0.1,0,0.1
					c0,0.1,0,0.2,0.1,0.3c0,0,0,0.2,0.1,0.4c0.1-0.2,0.1-0.4,0.2-0.5c0,0,0.1-0.1,0.2-0.3c0.1-0.1,0.2-0.2,0.4-0.2
					c0.2,0,0.3,0,0.5,0.1c0.2,0.1,0.2,0.2,0.3,0.3s0,0.3-0.1,0.4c-0.1,0.1-0.2,0.2-0.3,0.3c-0.1,0-0.3,0-0.5-0.1
					c-0.1,0-0.2-0.1-0.2,0c0,0,0,0,0,0c-0.1,0-0.1,0.1-0.1,0.2c-0.1,0.2-0.1,0.3,0,0.5c0,0,0,0.1,0,0.1c0.1,0.2,0.2,0.8,0.4,1.5
					c0,0.1,0.1,0.2,0.1,0.2c0.1,0,0.1,0,0.2,0c0.1,0,0.2,0,0.3,0c0.1,0,0.2,0,0.3,0c0,0,0.1,0.1,0.1,0.1c0,0,0,0.1,0,0.1
					c-0.2,0-0.3,0.1-0.4,0.1c-0.4,0.1-0.5,0.1-0.9,0.2c-0.2,0.1-0.4,0.1-0.6,0.2c0,0,0,0-0.1,0c0,0-0.2,0.1-0.5,0.2c0,0,0-0.1,0-0.1
					C97.2,56.4,97.2,56.4,97.2,56.4z"/>
				<path class="st4" d="M99.8,52c0.1,0,0.2-0.1,0.3-0.1c0,0,0.1,0,0.1,0c0.3,0,0.5-0.1,0.7-0.1c0.1,0,0.2,0,0.3-0.1
					c0.3-0.1,0.4-0.1,0.7-0.2c0,0,0.1,0,0.1,0c0,0.1,0,0.2,0,0.3c0,0-0.1,0-0.1,0c-0.1,0-0.1,0-0.2,0.1c0,0-0.1,0-0.1,0
					c0,0-0.1,0-0.1,0.1c0,0.1,0.1,0.1,0.1,0.2c0.1,0.2,0.2,0.2,0.3,0.4c0.3,0.4,0.5,0.7,0.8,1.1c0.1,0.2,0.2,0.3,0.4,0.5
					c0,0,0.1-0.4,0.2-1c0.2-0.7,0.2-1.1,0.3-1.2c0,0,0-0.1,0-0.1c0,0,0-0.1-0.1-0.1c-0.1,0-0.1-0.1-0.2-0.1c0,0-0.2,0-0.3,0
					c-0.1,0-0.1,0-0.2,0c0,0,0,0,0-0.1c0,0,0-0.1,0-0.1c0,0,0-0.1,0-0.1c0,0,0.2,0,0.2,0c0.2,0,0.2,0,0.4,0c0.1,0,0.2,0,0.3,0
					c0.1,0,0.3-0.1,0.6-0.1c0.2,0,0.3-0.1,0.4-0.1c0,0.1,0,0.1,0,0.2c0,0,0,0,0,0.1c-0.1,0-0.1,0.1-0.2,0.1c-0.1,0-0.2,0.1-0.3,0.1
					c0,0-0.1,0.1-0.1,0.1c0,0.1-0.1,0.4-0.2,0.8c-0.1,0.4-0.1,0.6-0.2,0.9c-0.2,0.8-0.3,1.2-0.5,2c-0.1,0.5-0.2,0.8-0.3,1.3
					c-0.1,0.3-0.2,0.5-0.3,0.7c0,0.1-0.1,0.1-0.2,0.2c-0.1,0.1-0.2,0.1-0.4,0.2c0,0-0.1,0-0.3,0c-0.1,0-0.2,0-0.4-0.1
					c-0.1-0.1-0.1-0.1-0.1-0.2c0-0.2,0-0.3,0.1-0.5c0.1-0.1,0.2-0.2,0.3-0.2c0.1,0,0.3,0,0.5,0.1c0.1,0.1,0.2,0.1,0.2,0.1
					c0.1,0,0.1,0,0.1-0.1c0.2-0.6,0.3-1,0.3-1.2c-0.5-0.7-0.7-1-1.2-1.7c-0.5-0.7-0.9-1.1-1.1-1.4c-0.1-0.1-0.2-0.2-0.3-0.2
					c0,0-0.1,0-0.2,0c0,0-0.1,0-0.2,0C99.8,52.2,99.8,52.1,99.8,52z"/>
				<path class="st4" d="M107.9,54.5c0-0.1,0-0.2,0-0.3c0.1,0,0.2-0.1,0.3-0.1c0.2-0.1,0.4-0.1,0.4-0.2c0.1-0.1,0.1-0.2,0.1-0.4
					c0-0.2,0-0.3-0.1-0.5c0-0.4,0-0.6-0.1-1.1c0-0.1,0-0.1,0-0.2c0-0.6,0-0.9,0-0.9c0-0.2,0-0.4-0.1-0.6c0-0.1,0-0.2,0-0.3
					c0-0.2,0-0.3-0.1-0.5c0-0.1,0-0.1,0-0.2c0,0,0-0.1,0-0.1c-0.1,0-0.4-0.1-0.7,0c-0.1,0-0.1,0-0.2,0c0-0.2,0-0.2-0.1-0.4
					c0.6,0,0.9-0.1,1.5-0.1c0.2,0,0.3,0,0.3,0c0.2,0,0.5,0,1-0.1c0.3,0,0.4,0,0.5-0.1c0,0.1,0,0.1,0,0.1c0,0.1,0,0.1,0,0.2
					c-0.1,0.1-0.3,0.1-0.5,0.1c-0.2,0-0.3,0.1-0.4,0.1c0,0.1,0,0.2,0,0.3c0,0.1,0,0.2,0,0.3c0.1,0.5,0,0.9,0.1,1.2
					c0,0.5,0.1,0.7,0.1,1.2c0,0.2,0,0.4,0,0.6c0,0.4,0,0.6,0.1,0.9c0,0.1,0,0.1,0,0.2c0,0,0,0.1,0,0.1c0.2,0,0.4,0,0.5,0.1
					c0,0,0.1,0,0.3,0c0,0.1,0,0.2,0,0.2c0,0,0,0.1,0,0.2c0,0-0.1,0-0.1,0c-0.1,0-0.2,0-0.2,0c0,0-0.1,0-0.1,0c0,0-0.3,0-0.6,0
					c-0.3,0-0.5,0-0.8,0.1c-0.2,0-0.4,0.1-0.7,0.1C108.1,54.5,108,54.5,107.9,54.5z"/>
				<path class="st4" d="M111.7,52.9c0.1,0,0.2,0,0.2,0c0,0,0.1,0,0.1,0c0,0,0,0,0,0c0.2,0.3,0.3,0.5,0.4,0.5
					c0.1,0.1,0.2,0.2,0.3,0.3c0.1,0,0.2,0.1,0.3,0.1c0.1,0,0.2,0.1,0.3,0.1c0.2,0,0.4-0.1,0.5-0.2c0.1-0.1,0.2-0.3,0.2-0.4
					c0-0.1,0-0.2-0.1-0.3s-0.2-0.1-0.3-0.2c-0.1,0-0.3-0.1-0.6-0.2s-0.5-0.1-0.6-0.1c-0.2-0.1-0.3-0.1-0.4-0.2
					c-0.1-0.1-0.2-0.2-0.3-0.3c-0.1-0.2-0.1-0.3-0.1-0.5c0-0.2,0-0.4,0.1-0.6c0.1-0.2,0.2-0.3,0.3-0.4c0.1-0.1,0.2-0.2,0.4-0.2
					c0.2-0.1,0.4-0.1,0.6-0.1c0.3,0,0.6,0,0.8,0.1c0.2,0,0.4,0.1,0.6,0.2c0,0.1,0,0.2,0.1,0.5c0,0.3,0,0.4,0,0.5c0,0,0,0,0,0.1
					c-0.1,0-0.2,0-0.2,0c0,0-0.1,0-0.1,0c0,0-0.1-0.1-0.1-0.2c-0.2-0.3-0.3-0.5-0.5-0.6c-0.2-0.1-0.4-0.2-0.6-0.2
					c-0.2,0-0.4,0.1-0.6,0.2c-0.1,0.1-0.2,0.2-0.2,0.4c0,0.1,0.1,0.2,0.2,0.3c0.1,0.1,0.3,0.2,0.6,0.2c0.4,0.1,0.7,0.2,0.9,0.3
					c0.3,0.1,0.5,0.3,0.6,0.5c0.1,0.2,0.2,0.4,0.2,0.6c0,0.4-0.2,0.7-0.4,0.9c-0.3,0.2-0.7,0.4-1.2,0.4c-0.1,0-0.3,0-0.5,0
					c-0.1,0-0.3,0-0.5-0.1c0,0-0.2-0.1-0.3-0.1c0,0-0.1,0-0.1-0.1c0,0,0-0.2-0.1-0.4C111.8,53.2,111.8,53,111.7,52.9z"/>
				<path class="st4" d="M115.4,54c0.1,0,0.2-0.1,0.3-0.1c0.2,0,0.3,0,0.4-0.1c0.1-0.1,0.1-0.2,0.1-0.5c0-0.5,0-0.8,0-1.3
					c0-0.1,0-0.2,0-0.3c0-0.4,0-0.6,0-0.9c0-0.4,0-0.6,0-1.1c0-0.1,0-0.1,0-0.2c0-0.3,0-0.5,0-0.6c-0.1-0.1-0.2-0.1-0.4-0.1
					c-0.1,0-0.2,0-0.2,0c0,0,0-0.1,0-0.2c0,0,0-0.1,0-0.1c0.3,0,0.6-0.1,0.9-0.2c0.3-0.1,0.5-0.2,0.7-0.3c0.1,0,0.1,0,0.1,0
					c0,0,0.1,0,0.1,0c0,1.1-0.1,1.8-0.1,2.2c0,0.1,0,0.2,0,0.3c0,0,0,0,0,0c0,0,0,0.1,0,0.1c0,0.8-0.1,1.2-0.1,2.1
					c0,0.3,0,0.4,0,0.7c0,0,0,0.1,0,0.1c0,0.1,0,0.2,0.1,0.3c0,0,0.1,0.1,0.2,0.1c0.1,0,0.2,0,0.4,0.1c0,0.1,0,0.1,0,0.2
					c0,0,0,0.1,0,0.1c-0.1,0-0.2,0-0.4,0c-0.2,0-0.5,0-0.8-0.1c-0.1,0-0.1,0-0.2,0c-0.2,0-0.4,0-0.8,0c-0.1,0-0.2,0-0.3,0
					C115.4,54.1,115.4,54.1,115.4,54z"/>
				<path class="st4" d="M122.4,53.9C122.4,53.9,122.4,54,122.4,53.9c0.1,0.1,0.1,0.1,0.1,0.2c0,0,0,0,0,0c-0.1,0.3-0.2,0.4-0.4,0.5
					c-0.1,0.1-0.3,0.1-0.5,0.1c-0.2,0-0.3-0.1-0.5-0.2c-0.1-0.1-0.2-0.3-0.3-0.6c-0.2,0.2-0.4,0.4-0.6,0.5c-0.3,0.1-0.6,0.1-0.9,0.1
					c-0.3,0-0.6-0.1-0.7-0.3c-0.1-0.1-0.2-0.3-0.2-0.5c0-0.1,0-0.2,0.1-0.3c0.1-0.1,0.1-0.2,0.2-0.3c0.1-0.1,0.3-0.2,0.5-0.3
					c0,0,0.2-0.1,0.4-0.1c0.5-0.1,0.8-0.2,1.3-0.3c0-0.1,0-0.2,0.1-0.4c0-0.4,0-0.7-0.1-0.9c-0.1-0.1-0.2-0.2-0.3-0.2
					c-0.2,0-0.3,0-0.5,0c-0.1,0-0.3,0.1-0.3,0.2c-0.1,0.1-0.1,0.2-0.2,0.4c0,0.1-0.1,0.2-0.1,0.2c-0.1,0.1-0.1,0.1-0.3,0.1
					c-0.1,0-0.2,0.1-0.3,0.1c-0.2,0.1-0.3,0.1-0.4,0.1c0,0-0.1-0.1-0.1-0.2c0-0.2,0.1-0.3,0.2-0.4c0.1-0.2,0.3-0.3,0.6-0.5
					c0.3-0.1,0.5-0.2,0.7-0.3c0.3-0.1,0.6-0.1,1.1,0c0.3,0,0.5,0.1,0.7,0.2c0.2,0.1,0.3,0.3,0.3,0.5c0.1,0.2,0,0.5,0,1
					c0,0.3-0.1,0.5-0.1,0.8c0,0.2,0,0.3-0.1,0.6c0,0.1,0,0.1,0,0.1c0,0.1,0,0.2,0,0.3c0,0.1,0.1,0.1,0.1,0.1c0,0,0.1,0,0.1,0
					C122.2,54,122.2,54,122.4,53.9C122.3,53.9,122.3,53.9,122.4,53.9z M120.9,52.6c-0.2,0-0.4,0.1-0.7,0.2c-0.2,0.1-0.4,0.2-0.5,0.4
					c-0.1,0.1-0.1,0.2-0.1,0.4c0,0.1,0,0.2,0.1,0.3c0.1,0.1,0.2,0.1,0.3,0.2c0.2,0,0.3,0,0.5-0.1c0.2-0.1,0.3-0.2,0.3-0.3
					c0-0.1,0.1-0.3,0.1-0.7C120.9,52.9,120.9,52.8,120.9,52.6z"/>
				<path class="st4" d="M122.7,54.6c0.1,0,0.2,0,0.2,0c0.2,0,0.3,0,0.3,0c0.1,0,0.1,0,0.1-0.1c0-0.1,0.1-0.2,0.1-0.4
					c0-0.2,0-0.2,0.1-0.4c0-0.1,0-0.2,0.1-0.3c0-0.2,0-0.3,0.1-0.5c0-0.1,0-0.2,0-0.3c0-0.2,0-0.4,0-0.5c0,0,0-0.1-0.1-0.2
					c-0.1-0.1-0.2-0.2-0.4-0.3c0-0.1,0-0.1,0-0.2c0,0,0.1,0,0.1,0c0,0,0.2,0,0.4,0c0.2,0,0.3-0.1,0.4-0.1c0,0,0.1,0,0.1,0
					c0,0,0.1,0,0.1-0.1c0.1,0,0.2-0.1,0.4-0.3c0.1,0,0.2,0,0.3,0c0,0.2-0.1,0.3-0.1,0.5c0,0.1,0,0.1,0,0.1c0,0,0,0.1,0,0.2
					c0.3-0.2,0.6-0.3,0.8-0.3c0.3-0.1,0.6-0.1,0.9,0c0.3,0.1,0.6,0.2,0.8,0.4c0.2,0.2,0.3,0.4,0.3,0.6c0,0.2,0,0.6-0.1,1.1
					c-0.1,0.6-0.2,0.9-0.4,1.5c0,0.1,0,0.1,0,0.2c0,0,0.1,0.1,0.2,0.1c0.1,0,0.1,0.1,0.2,0.1c0,0,0,0.1,0,0.2c0,0,0,0.1,0,0.1
					c-0.4-0.1-0.5-0.2-0.9-0.3c-0.1,0-0.2,0-0.3,0c-0.1,0-0.1,0-0.2,0c-0.2,0-0.4-0.1-0.6-0.1c-0.1,0-0.1,0-0.2,0c0,0,0-0.1,0-0.1
					c0-0.1,0-0.2,0-0.2c0,0,0.2,0,0.3,0c0,0,0.1,0,0.2,0c0.1,0,0.1,0,0.1-0.1c0,0,0.1-0.1,0.1-0.3c0.1-0.3,0.1-0.5,0.1-0.6
					c0-0.2,0.1-0.3,0.1-0.5c0.1-0.6,0.2-1,0.1-1.2c-0.1-0.3-0.2-0.4-0.5-0.5c-0.2,0-0.4,0-0.6,0c-0.2,0.1-0.4,0.1-0.7,0.3
					c0,0,0,0,0,0.1c0,0.1,0,0.2,0,0.3c0,0.1,0,0.2-0.1,0.3c0,0.3-0.1,0.4-0.1,0.7c0,0,0,0.1,0,0.1c-0.1,0.5-0.1,0.8-0.1,0.9
					c0,0.1,0.2,0.2,0.4,0.3c0,0.1,0,0.1,0,0.1c0,0,0,0.1-0.1,0.2c-0.1,0-0.2,0-0.2,0c-0.1,0-0.2,0-0.3-0.1c-0.2,0-0.3-0.1-0.5-0.1
					c-0.2,0-0.6-0.1-1.1-0.1c0,0,0-0.1,0-0.1C122.7,54.7,122.7,54.7,122.7,54.6z"/>
				<path class="st4" d="M129.9,52.7c0.2-0.1,0.4-0.1,0.5-0.1s0.4,0,0.7,0.1c0.1,0,0.2,0,0.3,0.1c0.4,0.1,0.7,0.3,0.9,0.6
					c0,0,0-0.1,0-0.1c0-0.1,0.1-0.2,0.1-0.3c0.1-0.2,0.1-0.3,0.2-0.5c0.2-0.5,0.2-0.8,0.2-1c0-0.1-0.1-0.2-0.2-0.2
					c-0.1,0-0.2-0.1-0.3-0.1c0-0.1,0-0.1,0.1-0.2c0.1,0,0.2,0,0.3,0c0.1,0,0.3,0.1,0.6,0.1c0.1,0,0.1,0,0.2,0c0.2,0,0.3,0,0.5,0.1
					c0.1,0,0.2,0,0.2,0c0,0,0,0,0.1,0c0,0.1,0,0.1,0,0.1c0,0,0,0,0,0.1c0,0,0,0,0,0.1c0,0.1-0.1,0.3-0.2,0.7c0,0.1,0,0.1-0.1,0.2
					c0,0.1,0,0.1,0,0.1c0,0.1,0,0.1-0.1,0.2c-0.1,0.2-0.1,0.3-0.1,0.5c0,0.1-0.1,0.2-0.1,0.3c0,0.1-0.1,0.3-0.2,0.6c0,0,0,0.1,0,0.1
					c0,0.1,0,0.1-0.1,0.2c0,0,0,0.1,0,0.1c0,0,0,0.1,0,0.2c0,0.1,0,0.1-0.1,0.2c0,0,0,0.1,0,0.1c0,0.1-0.1,0.2-0.1,0.4
					c0,0.2-0.1,0.3-0.1,0.4c0,0.1,0,0.1,0,0.1c0,0.1-0.1,0.2-0.1,0.3c0,0.1-0.1,0.3-0.1,0.4c0,0,0.2,0.1,0.4,0.2
					c0.1,0,0.2,0.1,0.2,0.1c0,0,0,0.1,0,0.1c0,0,0,0.1-0.1,0.1c-0.1,0-0.3,0-0.4-0.1c-0.4-0.1-0.7-0.1-1-0.1c-0.1,0-0.2,0-0.2,0
					c0,0-0.1,0-0.1,0c0-0.1,0-0.1,0-0.1c0.1-0.2,0.1-0.3,0.1-0.4c-0.1,0-0.1,0-0.2,0c-0.2,0.1-0.4,0.1-0.6,0.1c-0.2,0-0.4,0-0.6-0.1
					c-0.4-0.1-0.7-0.3-0.9-0.5c-0.3-0.3-0.5-0.6-0.5-0.9s0-0.7,0-1C128.7,53.4,129.1,52.9,129.9,52.7z M130.5,56
					c0.1,0,0.1,0,0.2,0.1c0.1,0,0.2,0,0.3,0c0.1,0,0.3,0,0.4-0.1c0-0.1,0.1-0.2,0.1-0.2c0.3-0.9,0.4-1.5,0.5-1.7
					c0-0.3,0-0.5-0.1-0.7c-0.1-0.2-0.3-0.3-0.6-0.4c-0.1,0-0.3-0.1-0.4,0c-0.1,0-0.3,0.1-0.4,0.1c-0.2,0.1-0.3,0.2-0.4,0.4
					c-0.1,0.2-0.2,0.4-0.3,0.6c-0.1,0.5-0.1,0.9,0,1.2C129.9,55.7,130.2,55.9,130.5,56z"/>
				<path class="st4" d="M138,52.4c0.1,0,0.2,0.1,0.3,0.1c0,0,0,0.1,0,0.1c0,0.2,0.1,0.3,0.1,0.4c0,0,0.3,0.1,0.7,0.3
					c0.2,0.1,0.5,0.2,0.7,0.3c0,0,0.1,0,0.1,0c0.2,0.1,0.4,0.1,0.6,0.2c0.4,0.2,0.7,0.3,1.1,0.5c0.6,0.3,0.9,0.4,1.5,0.7
					c0.1,0,0.2,0.1,0.3,0.1c0.1,0,0.1-0.1,0.2-0.1c0,0,0.1,0,0.1-0.1c0.1,0,0.1,0.1,0.2,0.1c0,0,0.1,0,0.1,0.1
					c-0.1,0.2-0.2,0.5-0.4,0.9c-0.1,0.1-0.1,0.2-0.2,0.4c0,0.1-0.1,0.1-0.1,0.2c0,0.1-0.1,0.1-0.1,0.2c-0.1,0-0.3-0.1-0.4-0.1
					c0-0.1,0-0.3,0-0.6c0-0.3,0-0.4,0-0.4c0-0.1-0.1-0.1-0.1-0.1c-0.1-0.1-0.4-0.2-1-0.5c-0.1,0-0.3-0.2-0.3-0.1
					c0,0-0.1,0.2-0.1,0.3c-0.1,0.2-0.2,0.3-0.3,0.6c-0.2,0.5-0.3,0.7-0.6,1.2c-0.2,0.5-0.4,0.8-0.6,1.3c-0.1,0.2-0.2,0.3-0.3,0.5
					c-0.1,0.2-0.1,0.3-0.1,0.5c0,0,0.1,0.1,0.2,0.2c0,0,0.1,0.1,0.3,0.2c0.1,0.1,0.2,0.1,0.2,0.2c0,0.1-0.1,0.2-0.1,0.2
					c0,0,0,0.1-0.1,0.1c-0.1,0-0.1-0.1-0.2-0.1c-0.3-0.1-0.5-0.3-0.7-0.4c-0.2-0.1-0.6-0.3-1.1-0.5c-0.1,0-0.4-0.1-0.8-0.3
					c-0.2-0.1-0.3-0.1-0.3-0.1c0,0,0-0.1,0-0.1c0,0,0-0.1,0-0.1c0,0,0,0,0,0c0.1-0.1,0.2-0.1,0.4,0c0.3,0.1,0.6,0.1,0.7,0.1
					c0.1,0,0.1-0.1,0.1-0.2c0.2-0.3,0.4-0.9,0.7-1.6c0.3-0.6,0.4-1,0.7-1.6c0.2-0.4,0.3-0.7,0.3-0.8c0,0,0-0.1,0-0.1
					c0,0,0,0-0.1-0.1c-0.1-0.1-0.4-0.2-1-0.4c-0.3-0.1-0.5-0.2-0.6-0.2c-0.2,0-0.5,0.1-0.9,0.3c-0.1,0.1-0.2,0.1-0.2,0.1
					c-0.1-0.1-0.2-0.2-0.2-0.3c0.2-0.2,0.5-0.5,0.9-1C137.8,52.6,137.9,52.5,138,52.4z"/>
				<path class="st4" d="M145.9,59.5c0.1,0.3,0.1,0.5,0.1,0.8c0,0.3-0.1,0.5-0.2,0.7c-0.2,0.4-0.4,0.6-0.7,0.8
					c-0.4,0.2-0.8,0.3-1.1,0.3c-0.4,0-0.8-0.1-1.2-0.3c-0.4-0.2-0.8-0.5-1-0.9c-0.2-0.4-0.3-0.7-0.3-1c0-0.3,0.1-0.7,0.3-1
					c0.1-0.2,0.2-0.4,0.4-0.5c0.2-0.2,0.3-0.3,0.5-0.3c0.2-0.1,0.4-0.1,0.6-0.1c0.3,0,0.5,0,0.8,0c0.2,0.1,0.5,0.2,0.8,0.3
					C145.4,58.5,145.8,59,145.9,59.5z M142.7,59.6c-0.2,0.3-0.2,0.6-0.3,0.6c-0.1,0.2-0.1,0.4-0.1,0.6c0,0.1,0.1,0.2,0.1,0.4
					c0.1,0.1,0.2,0.2,0.4,0.3c0.2,0.1,0.4,0.1,0.6,0.1c0.2,0,0.4-0.2,0.6-0.4c0.1-0.2,0.3-0.4,0.6-0.8c0.3-0.5,0.4-0.9,0.3-1.2
					c-0.1-0.3-0.2-0.5-0.5-0.7c-0.2-0.1-0.5-0.2-0.7-0.1c-0.2,0-0.4,0.2-0.6,0.4C143.2,58.8,143,59.1,142.7,59.6z"/>
				<path class="st4" d="M147.2,59.9C147.2,59.9,147.3,59.9,147.2,59.9c0.6,0.3,0.9,0.5,1.4,0.9c0,0,0.1,0,0.1,0.1
					c-0.1,0.1-0.1,0.2-0.2,0.3c-0.1,0.1-0.2,0.2-0.3,0.4c-0.1,0.1-0.1,0.1-0.1,0.2c-0.2,0.2-0.2,0.3-0.4,0.6
					c-0.1,0.2-0.2,0.2-0.3,0.4c-0.2,0.3-0.3,0.5-0.4,0.6c0,0.1,0,0.3,0,0.4c0.1,0.1,0.1,0.2,0.3,0.3c0.1,0.1,0.2,0.1,0.3,0.2
					c0.1,0,0.2,0,0.4,0.1c0.1,0,0.2,0,0.3,0c0.1,0,0.2-0.1,0.3-0.1c0.3-0.4,0.4-0.6,0.7-0.9c0.1-0.1,0.1-0.2,0.2-0.2
					c0-0.1,0.1-0.2,0.2-0.3c0.1-0.1,0.1-0.2,0.1-0.2c0-0.1,0.1-0.1,0.1-0.1c0,0,0-0.1,0-0.1c0-0.1-0.1-0.2-0.2-0.3
					c-0.1-0.1-0.2-0.1-0.3-0.2c0,0,0,0,0-0.1c0-0.1,0-0.1,0.1-0.1c0,0,0.1-0.1,0.1-0.1c0.1,0.1,0.2,0.1,0.3,0.1
					c0.3,0.2,0.4,0.3,0.7,0.5c0.2,0.1,0.4,0.3,0.7,0.5c-0.1,0.1-0.1,0.2-0.2,0.3c-0.1,0.1-0.2,0.2-0.3,0.3c-0.1,0.2-0.2,0.3-0.3,0.5
					c-0.2,0.3-0.3,0.4-0.5,0.6c-0.1,0.1-0.1,0.2-0.2,0.3c-0.1,0.1-0.1,0.1-0.1,0.2c-0.1,0.1-0.2,0.2-0.2,0.2c0,0.1-0.1,0.1-0.1,0.2
					c0,0,0,0.1,0,0.1c0.2,0.1,0.2,0.2,0.4,0.3c0,0,0,0,0,0c-0.1,0.1-0.1,0.1-0.1,0.2c0,0-0.1,0.1-0.1,0.1c-0.1,0-0.3-0.2-0.3-0.2
					c-0.3-0.1-0.7-0.3-1.1-0.4c-0.1,0-0.1-0.1-0.2-0.1c0.2-0.2,0.3-0.4,0.4-0.6c-0.1,0-0.1,0-0.2,0c-0.4,0-0.7,0-0.9,0
					c-0.2,0-0.4-0.1-0.6-0.3c-0.2-0.1-0.4-0.3-0.5-0.5c-0.1-0.2-0.2-0.4-0.2-0.6c0-0.1,0.1-0.3,0.2-0.5c0-0.1,0.2-0.3,0.5-0.8
					c0,0,0.1-0.1,0.1-0.1c0.2-0.2,0.3-0.4,0.4-0.6c0.1-0.2,0.2-0.4,0.3-0.4c0,0,0-0.1,0-0.1c0,0-0.1-0.1-0.1-0.1
					c-0.2-0.1-0.3-0.2-0.3-0.3c0,0,0,0,0-0.1c0,0,0,0,0-0.1C147.1,60,147.2,59.9,147.2,59.9z"/>
				<path class="st4" d="M149.9,66c0.1,0,0.1,0,0.2,0c0.2,0.1,0.3,0.1,0.5,0.1c0.1,0,0.2-0.2,0.5-0.6c0.5-0.6,0.8-1.1,0.9-1.3
					c0,0,0-0.1,0-0.2c0-0.1-0.1-0.2-0.2-0.3c0-0.1-0.1-0.1,0-0.2c0-0.1,0.1-0.1,0.1-0.1c0.2,0.1,0.5,0.2,0.7,0.2s0.4,0,0.6,0
					c0.1,0,0.2,0,0.2,0c0.1,0.1,0.2,0.1,0.3,0.2c0,0.1-0.1,0.1-0.1,0.2c0,0-0.1,0.1-0.1,0.1c-0.1,0.1-0.1,0.2-0.2,0.2
					c0,0-0.1,0.1-0.2,0.3c0.2-0.1,0.4-0.1,0.5-0.1c0,0,0.2,0,0.4,0c0.1,0,0.3,0.1,0.4,0.2c0.1,0.1,0.2,0.3,0.3,0.4
					c0,0.2,0,0.3-0.1,0.4c-0.1,0.1-0.2,0.2-0.4,0.2c-0.2,0-0.3,0-0.4-0.1c-0.1-0.1-0.2-0.2-0.3-0.4c0-0.1-0.1-0.2-0.1-0.2
					c0,0,0,0,0,0c-0.1,0-0.2,0-0.3,0c-0.2,0.1-0.3,0.2-0.4,0.3c0,0,0,0.1-0.1,0.1c-0.1,0.2-0.5,0.6-1,1.3c0,0.1-0.1,0.2-0.1,0.2
					c0,0.1,0,0.1,0.1,0.2c0,0.1,0.1,0.1,0.2,0.2c0.1,0.1,0.2,0.2,0.2,0.2c0,0,0,0.1,0,0.1c0,0-0.1,0.1-0.1,0.1
					c-0.1-0.1-0.2-0.2-0.4-0.3c-0.3-0.3-0.4-0.4-0.7-0.6c-0.2-0.1-0.4-0.3-0.5-0.4c0,0,0,0-0.1-0.1c0,0-0.2-0.1-0.4-0.3
					C149.8,66.1,149.8,66.1,149.9,66C149.9,66,149.9,66,149.9,66z"/>
				<path class="st4" d="M153.7,67.6c0.1,0.1,0.2,0.1,0.2,0.1c0,0,0,0,0.1,0.1c0,0,0,0,0,0.1c-0.1,0.3-0.1,0.6-0.1,0.6
					c0,0.2,0,0.3,0.1,0.5c0,0.1,0.1,0.2,0.2,0.4c0.1,0.1,0.1,0.2,0.2,0.3c0.2,0.1,0.3,0.2,0.5,0.2c0.2,0,0.3,0,0.4-0.1
					c0.1-0.1,0.1-0.2,0.1-0.2c0-0.1,0-0.2-0.1-0.4c0-0.1-0.2-0.3-0.4-0.6c-0.2-0.3-0.3-0.5-0.4-0.5c-0.1-0.1-0.1-0.3-0.2-0.5
					c0-0.2,0-0.3,0-0.4c0-0.2,0.1-0.3,0.2-0.4c0.2-0.2,0.3-0.3,0.5-0.4s0.3-0.1,0.5-0.1c0.1,0,0.3,0,0.5,0.1
					c0.2,0.1,0.4,0.2,0.6,0.4c0.3,0.2,0.5,0.4,0.6,0.6c0.2,0.2,0.3,0.4,0.4,0.6c0,0.1-0.1,0.2-0.3,0.4c-0.1,0.2-0.2,0.3-0.3,0.4
					c0,0,0,0-0.1,0c-0.1,0-0.1-0.1-0.2-0.1c0,0-0.1-0.1-0.1-0.1c0-0.1,0-0.1,0-0.2c0.1-0.3,0.1-0.6,0-0.8c-0.1-0.2-0.2-0.4-0.3-0.5
					c-0.2-0.2-0.4-0.3-0.6-0.3c-0.1,0-0.3,0-0.4,0.2c-0.1,0.1-0.1,0.2-0.1,0.4c0,0.2,0.1,0.4,0.3,0.6c0.3,0.4,0.5,0.7,0.6,0.9
					c0.1,0.3,0.2,0.6,0.2,0.8c0,0.2-0.1,0.4-0.3,0.6c-0.2,0.3-0.6,0.4-0.9,0.3c-0.4,0-0.8-0.2-1.2-0.6c-0.1,0-0.2-0.2-0.4-0.4
					c-0.1-0.1-0.2-0.2-0.3-0.4c0,0-0.1-0.2-0.2-0.3c0,0,0-0.1,0-0.1c0,0,0.1-0.1,0.2-0.3C153.5,67.9,153.6,67.7,153.7,67.6z"/>
			</g>
		</g>
		<g>
			<path class="st4" d="M142,89.1l5.9-9.1l-9.1,5.9C140,86.9,141,88,142,89.1z"/>
			<path class="st4" d="M88.4,85.6L79.8,80l5.6,8.6C86.3,87.5,87.3,86.6,88.4,85.6z"/>
			<path class="st4" d="M138.9,142.2l9.1,5.9l-5.9-9.1C141,140.2,140,141.2,138.9,142.2z"/>
			<path class="st4" d="M85.4,139.6l-5.6,8.6l8.6-5.6C87.3,141.6,86.3,140.6,85.4,139.6z"/>
		</g>
		<rect id="white_rectangle_bg_1_" x="54.7" y="102.8" class="st0" width="117.5" height="22.5"/>
		<g>
			<g>
				<path class="st5" d="M99.7,94.3l-2.5,5.2c-0.9,2-1.7,3.7-2.3,5.2h-0.3c-0.2-0.5-0.8-1.8-1.8-3.9l-3-6.3v6.6
					c0,1.5,0.1,2.4,0.2,2.6c0.1,0.2,0.5,0.3,1.1,0.3h0.3v0.5c-0.8,0-1.4-0.1-1.9-0.1c-0.4,0-1.1,0-2.1,0.1V104h0.6
					c0.4,0,0.6-0.1,0.7-0.2c0.1-0.1,0.2-0.3,0.2-0.6c0.1-0.8,0.1-1.6,0.1-2.6v-4.8c0-1.2,0-1.9-0.1-2.3c0-0.2-0.1-0.3-0.3-0.4
					c-0.1-0.1-0.4-0.2-0.9-0.2h-0.4v-0.5c1,0,1.6,0.1,1.9,0.1c0.3,0,0.8,0,1.4-0.1c0.7,1.5,1.5,3.2,2.4,5l2.2,4.6l2.1-4.3
					c0.7-1.5,1.6-3.3,2.5-5.4c0.7,0,1.2,0.1,1.5,0.1c0.3,0,0.9,0,1.8-0.1V93h-0.6c-0.5,0-0.8,0.1-0.9,0.3c-0.1,0.2-0.2,0.8-0.2,1.9
					v6.2c0,1.4,0.1,2.2,0.2,2.4c0.1,0.2,0.4,0.3,1,0.3h0.5v0.5c-0.8,0-1.5-0.1-2.3-0.1c-0.8,0-1.6,0-2.5,0.1V104h0.6
					c0.4,0,0.7-0.1,0.8-0.3c0.1-0.2,0.1-1,0.1-2.5V94.3z"/>
				<path class="st1" d="M94.9,104.9h-0.6l-0.1-0.1c-0.2-0.5-0.8-1.8-1.8-3.9l-2.7-5.5v5.7c0,2,0.1,2.4,0.2,2.5c0,0.1,0.2,0.2,1,0.2
					h0.5v0.9l-0.2,0c-0.8,0-1.4-0.1-1.9-0.1c-0.4,0-1.1,0-2.1,0.1l-0.2,0v-0.9h0.7c0.4,0,0.6-0.1,0.6-0.1c0.1,0,0.1-0.2,0.2-0.5
					c0.1-0.8,0.1-1.6,0.1-2.5v-4.8c0-1.1,0-1.9-0.1-2.3c0-0.1-0.1-0.2-0.2-0.3c-0.1,0-0.2-0.1-0.7-0.1H87v-0.9l0.2,0
					c1,0,1.6,0.1,1.9,0.1c0.3,0,0.8,0,1.4-0.1l0.1,0l0.1,0.1c0.7,1.5,1.5,3.2,2.4,5l2.1,4.2l1.9-3.9c0.7-1.5,1.6-3.3,2.5-5.4
					l0.1-0.1l0.1,0c0.7,0,1.2,0.1,1.5,0.1c0.3,0,0.9,0,1.8-0.1l0.2,0v0.9h-0.8c-0.6,0-0.7,0.1-0.8,0.2c0,0-0.1,0.3-0.1,1.8v6.2
					c0,1.8,0.1,2.2,0.1,2.3c0,0.1,0.2,0.2,0.8,0.2h0.7v0.9l-0.2,0c-0.8,0-1.5-0.1-2.2-0.1c-0.8,0-1.6,0-2.5,0.1l-0.2,0v-0.9h0.8
					c0.3,0,0.6-0.1,0.6-0.2c0-0.1,0.1-0.5,0.1-2.4v-6l-2.1,4.5c-0.9,2-1.7,3.7-2.3,5.2L94.9,104.9z M94.6,104.5L94.6,104.5
					c0.7-1.4,1.4-3.1,2.4-5.1l2.9-6v7.8c0,2-0.1,2.4-0.2,2.6c-0.1,0.3-0.5,0.4-1,0.4h-0.4v0.1c0.8,0,1.6-0.1,2.3-0.1
					c0.7,0,1.3,0,2.1,0v-0.1h-0.3c-0.6,0-1-0.1-1.1-0.4c-0.1-0.2-0.2-0.6-0.2-2.5v-6.2c0-1.5,0.1-1.8,0.2-2c0.2-0.2,0.5-0.3,1.1-0.3
					h0.4v-0.1c-0.8,0-1.3,0.1-1.6,0.1c-0.3,0-0.7,0-1.4-0.1c-0.9,2-1.7,3.8-2.4,5.3l-2.2,4.6l-2.4-5c-0.9-1.8-1.6-3.4-2.3-4.9
					c-0.5,0-0.9,0.1-1.3,0.1c-0.2,0-0.8,0-1.7-0.1v0.1h0.3c0.5,0,0.8,0.1,1,0.2c0.2,0.1,0.3,0.3,0.3,0.6c0.1,0.4,0.1,1.1,0.1,2.3
					v4.8c0,0.9,0,1.8-0.1,2.6c0,0.3-0.1,0.6-0.3,0.7c-0.2,0.1-0.4,0.2-0.9,0.2h-0.4v0.1c0.9,0,1.6-0.1,1.9-0.1c0.5,0,1,0,1.7,0v-0.1
					H91c-0.7,0-1.1-0.1-1.3-0.4c-0.1-0.2-0.2-0.6-0.2-2.7v-7.4l3.4,7.1C93.8,102.7,94.4,104,94.6,104.5z"/>
			</g>
			<g>
				<path class="st5" d="M104,98.7l0-0.6l0-0.6L105,97c0.4-0.2,0.8-0.4,1.1-0.5c0.3-0.1,0.6-0.1,1-0.1c0.8,0,1.4,0.2,1.9,0.5
					c0.5,0.4,0.8,0.8,0.9,1.3c0.1,0.4,0.1,1.4,0.1,3c0,1.5,0,2.4,0.1,2.5c0.1,0.2,0.2,0.2,0.4,0.2h0.7v0.6c-0.6,0-1.1-0.1-1.3-0.1
					c-0.3,0-0.7,0-1.3,0.1l0-0.8c0-0.2,0-0.5,0-0.7l-1.8,1.3c-0.2,0.1-0.3,0.2-0.5,0.3c-0.2,0-0.4,0.1-0.6,0.1
					c-0.7,0-1.3-0.2-1.7-0.5c-0.4-0.4-0.6-0.8-0.6-1.4c0-0.6,0.1-1.1,0.4-1.5c0.3-0.4,0.7-0.7,1.2-0.9c0.5-0.2,1.7-0.5,3.5-0.8
					c0-0.7-0.2-1.3-0.5-1.6c-0.4-0.4-0.9-0.7-1.6-0.7c-0.3,0-0.5,0-0.8,0.1c-0.2,0.1-0.5,0.2-0.7,0.3c-0.2,0.4-0.3,0.8-0.4,1.2
					L104,98.7z M108.5,100c-1.6,0.3-2.6,0.7-3,1c-0.4,0.3-0.6,0.8-0.6,1.4c0,0.4,0.1,0.8,0.4,1c0.2,0.3,0.6,0.4,0.9,0.4
					c0.4,0,0.8-0.1,1.2-0.4c0.4-0.2,0.8-0.6,1.1-1.1l0-1.9L108.5,100z"/>
				<path class="st1" d="M105.6,104.9c-0.8,0-1.4-0.2-1.8-0.6c-0.4-0.4-0.6-0.9-0.6-1.6c0-0.6,0.1-1.1,0.4-1.6
					c0.3-0.5,0.7-0.8,1.3-1c0.5-0.2,1.6-0.5,3.4-0.8c0-0.6-0.2-1-0.4-1.3c-0.3-0.4-0.8-0.6-1.5-0.6c-0.3,0-0.5,0-0.7,0.1
					c-0.2,0.1-0.4,0.1-0.6,0.2c-0.2,0.4-0.3,0.7-0.4,1.1l-0.1,0.2l-0.8-0.2l0-0.7l0-0.7l1-0.6c0.4-0.2,0.8-0.4,1.1-0.5
					c0.3-0.1,0.7-0.1,1.1-0.1c0.8,0,1.5,0.2,2,0.6c0.5,0.4,0.8,0.9,0.9,1.5c0.1,0.4,0.1,1.4,0.1,3.1c0,2,0.1,2.4,0.1,2.5
					c0,0,0,0.1,0.2,0.1h0.9v1l-0.2,0c-0.6,0-1.1-0.1-1.3-0.1c-0.3,0-0.7,0-1.3,0.1l-0.2,0l0-1c0-0.1,0-0.2,0-0.3l-1.4,1.1
					c-0.2,0.1-0.4,0.2-0.5,0.3C106.2,104.9,105.9,104.9,105.6,104.9z M106.4,97c0.8,0,1.4,0.2,1.8,0.7c0.3,0.4,0.5,1,0.5,1.7l0,0.2
					l-0.2,0c-1.8,0.3-3,0.6-3.5,0.8c-0.5,0.2-0.8,0.5-1.1,0.9c-0.3,0.4-0.4,0.9-0.4,1.4c0,0.6,0.2,1,0.5,1.3
					c0.3,0.3,0.9,0.5,1.5,0.5c0.2,0,0.4,0,0.6-0.1c0.1,0,0.3-0.1,0.4-0.2l2.1-1.6l0,0.4c0,0.2,0,0.5,0,0.7l0,0.5c0.4,0,0.8,0,1.1,0
					c0.2,0,0.6,0,1.2,0v-0.2h-0.5c-0.4,0-0.6-0.2-0.6-0.4c0-0.1-0.1-0.3-0.1-2.6c0-1.6-0.1-2.6-0.1-3c-0.1-0.5-0.3-0.9-0.8-1.2
					c-0.4-0.3-1-0.5-1.8-0.5c-0.3,0-0.7,0-1,0.1c-0.3,0.1-0.7,0.2-1.1,0.5l-0.8,0.5l0,0.5l0,0.4l0.2,0c0.1-0.3,0.2-0.7,0.4-1l0-0.1
					l0.1,0c0.2-0.1,0.5-0.3,0.7-0.3C105.8,97.1,106.1,97,106.4,97z M106.2,103.9c-0.4,0-0.8-0.1-1.1-0.4c-0.3-0.3-0.4-0.7-0.4-1.1
					c0-0.7,0.2-1.2,0.7-1.5c0.5-0.3,1.5-0.6,3.1-1l0.2-0.1l0,0.7l0,1.9l0,0.1c-0.4,0.5-0.8,0.9-1.2,1.1
					C107.1,103.8,106.6,103.9,106.2,103.9z M108.3,100.3c-1.4,0.3-2.3,0.6-2.7,0.9c-0.4,0.3-0.6,0.7-0.6,1.2c0,0.4,0.1,0.7,0.3,0.9
					c0.2,0.2,0.5,0.3,0.8,0.3c0.4,0,0.8-0.1,1.1-0.3c0.3-0.2,0.7-0.5,1-1l0-1.8L108.3,100.3z"/>
			</g>
			<g>
				<path class="st5" d="M114.3,98.3c0.2-0.2,0.5-0.5,0.7-0.8c0.3-0.4,0.6-0.7,0.9-0.8s0.6-0.2,0.9-0.2c0.3,0,0.6,0,0.7,0.1
					c0.1,0,0.1,0.1,0.1,0.2l0,0.1c-0.1,0.5-0.1,1.1-0.2,1.9h-0.4c-0.1-0.3-0.3-0.5-0.5-0.6c-0.2-0.1-0.4-0.2-0.6-0.2
					c-0.3,0-0.6,0.1-0.9,0.3c-0.3,0.2-0.5,0.5-0.6,0.9c-0.1,0.4-0.1,1.2-0.1,2.4c0,0.8,0,1.4,0.1,2c0,0.2,0.1,0.3,0.2,0.4
					c0.2,0.1,0.5,0.2,1,0.2h0.5v0.5c-0.9,0-1.7-0.1-2.5-0.1c-0.8,0-1.5,0-2.2,0.1v-0.5l0.8-0.1c0.3,0,0.5-0.1,0.5-0.2
					c0.1-0.1,0.1-0.4,0.1-0.8c0-0.8,0.1-1.8,0.1-2.9c0-1.4-0.1-2.2-0.2-2.4c-0.1-0.2-0.3-0.2-0.7-0.2h-0.7V97c0.5-0.1,1-0.1,1.5-0.2
					c0.4-0.1,0.8-0.2,1.1-0.4c0.1,0,0.1-0.1,0.2-0.1c0.1,0,0.1,0,0.1,0.1c0,0,0,0.1,0,0.2L114.3,98.3z"/>
				<path class="st1" d="M111.2,104.8v-0.9l1-0.1c0.4,0,0.4-0.1,0.4-0.1c0,0,0.1-0.1,0.1-0.7c0-0.8,0.1-1.8,0.1-2.9
					c0-1.7-0.1-2.2-0.1-2.3c0,0-0.1-0.1-0.5-0.1h-0.9v-0.9l0.2,0c0.5-0.1,1-0.1,1.4-0.2c0.4-0.1,0.8-0.2,1.1-0.4
					c0.1-0.1,0.2-0.1,0.3-0.1c0.2,0,0.3,0.1,0.3,0.1c0,0.1,0.1,0.2,0.1,0.3l0,1.2c0.1-0.1,0.2-0.3,0.4-0.5c0.3-0.4,0.6-0.7,0.9-0.9
					c0.3-0.2,0.6-0.3,1-0.3c0.3,0,0.6,0,0.8,0.1c0.1,0.1,0.2,0.2,0.2,0.3l0,0.1c-0.1,0.5-0.1,1.1-0.2,1.9l0,0.2h-0.7l-0.1-0.1
					c-0.1-0.3-0.2-0.4-0.4-0.5c-0.1-0.1-0.3-0.1-0.5-0.1c-0.3,0-0.6,0.1-0.8,0.3c-0.3,0.2-0.4,0.5-0.5,0.8c-0.1,0.4-0.1,1.2-0.1,2.4
					c0,0.8,0,1.4,0.1,2c0,0.2,0.1,0.2,0.1,0.2c0.2,0.1,0.5,0.2,0.9,0.2h0.7v0.9l-0.2,0c-1.7-0.1-3.2-0.1-4.7,0L111.2,104.8z
					 M113.6,104.3c0.7,0,1.5,0,2.3,0.1v-0.1h-0.3c-0.5,0-0.8-0.1-1-0.2c-0.2-0.1-0.2-0.3-0.3-0.5c-0.1-0.5-0.1-1.2-0.1-2
					c0-1.2,0-2,0.1-2.4c0.1-0.4,0.3-0.8,0.6-1.1c0.3-0.3,0.7-0.4,1-0.4c0.3,0,0.5,0.1,0.7,0.2c0.2,0.1,0.3,0.3,0.5,0.6h0.1
					c0-0.7,0.1-1.3,0.2-1.8l0,0c-0.2-0.1-0.4-0.1-0.6-0.1c-0.3,0-0.5,0.1-0.8,0.2c-0.2,0.1-0.5,0.4-0.8,0.8
					c-0.3,0.4-0.5,0.7-0.8,0.9l-0.3,0.3l0-2.2c0,0,0-0.1,0-0.1c0,0,0,0-0.1,0c-0.4,0.2-0.7,0.3-1.2,0.4c-0.4,0.1-0.8,0.2-1.3,0.2
					v0.1h0.5c0.5,0,0.8,0.1,0.9,0.3c0.1,0.2,0.2,0.6,0.2,2.5c0,1.1,0,2.1-0.1,2.9c0,0.7-0.1,0.9-0.2,0.9c-0.1,0.1-0.3,0.2-0.7,0.2
					l-0.6,0.1v0.1C112.2,104.3,112.9,104.3,113.6,104.3z"/>
			</g>
			<g>
				<path class="st5" d="M120.7,96.3l0.2,0.1c0,0.4-0.1,0.9-0.1,1.4c0,1.7-0.1,2.9-0.1,3.7c0,0.7,0,1.4,0.1,1.9
					c0,0.2,0.1,0.3,0.2,0.4c0.1,0.1,0.3,0.1,0.6,0.2l0.6,0.1v0.5c-0.8,0-1.6-0.1-2.3-0.1c-0.7,0-1.3,0-2,0.1v-0.5l0.7-0.1
					c0.3,0,0.5-0.1,0.5-0.2c0.1-0.1,0.1-0.4,0.1-0.8c0-0.7,0-1.7,0-3c0-0.9,0-1.6,0-2c0-0.2-0.1-0.3-0.1-0.4
					c-0.1-0.1-0.3-0.1-0.6-0.1h-0.6V97c0.7-0.1,1.2-0.2,1.5-0.3C119.8,96.7,120.2,96.5,120.7,96.3z M120,92.6c0.3,0,0.5,0.1,0.7,0.3
					c0.2,0.2,0.3,0.4,0.3,0.7c0,0.3-0.1,0.5-0.3,0.7c-0.2,0.2-0.4,0.3-0.7,0.3c-0.3,0-0.5-0.1-0.7-0.3c-0.2-0.2-0.3-0.4-0.3-0.7
					c0-0.3,0.1-0.5,0.3-0.7C119.6,92.7,119.8,92.6,120,92.6z"/>
				<path class="st1" d="M117.7,104.8v-0.9l0.9-0.1c0.3,0,0.4-0.1,0.4-0.1c0,0,0.1-0.1,0.1-0.7c0-0.7,0-1.7,0-3c0-0.9,0-1.5,0-2
					c0-0.1,0-0.2-0.1-0.2c0,0-0.1-0.1-0.5-0.1h-0.8v-0.9l0.2,0c0.7-0.1,1.2-0.2,1.5-0.3c0.3-0.1,0.7-0.2,1.2-0.4l0.1,0l0.4,0.2
					l0,0.1c0,0.4-0.1,0.9-0.1,1.4c0,1.6-0.1,2.9-0.1,3.7c0,0.7,0,1.4,0.1,1.9c0,0.2,0.1,0.3,0.1,0.3c0,0,0.1,0.1,0.5,0.1l0.8,0.1
					v0.9l-0.2,0c-0.8,0-1.6-0.1-2.2-0.1c-0.7,0-1.3,0-2,0.1L117.7,104.8z M120,104.3c0.6,0,1.3,0,2.1,0v-0.1l-0.4-0.1
					c-0.4,0-0.6-0.1-0.7-0.2c-0.1-0.1-0.2-0.3-0.2-0.5c-0.1-0.5-0.1-1.2-0.1-1.9c0-0.8,0-2,0.1-3.7c0-0.5,0-0.9,0.1-1.3l0,0
					c-0.5,0.2-0.9,0.3-1.2,0.4c-0.3,0.1-0.8,0.2-1.4,0.3v0.1h0.4c0.4,0,0.6,0,0.7,0.2c0.1,0.1,0.2,0.3,0.2,0.5c0,0.5,0,1.2,0,2
					c0,1.3,0,2.3,0,3c0,0.7-0.1,0.8-0.2,0.9c-0.1,0.1-0.3,0.2-0.7,0.2l-0.5,0.1v0.1C118.7,104.3,119.4,104.3,120,104.3z M120,94.7
					c-0.3,0-0.6-0.1-0.8-0.3c-0.2-0.2-0.3-0.5-0.3-0.8c0-0.3,0.1-0.6,0.3-0.8c0.2-0.2,0.5-0.3,0.8-0.3c0.3,0,0.6,0.1,0.8,0.3
					c0.2,0.2,0.3,0.5,0.3,0.8c0,0.3-0.1,0.6-0.3,0.8C120.6,94.6,120.4,94.7,120,94.7z M120,92.8c-0.2,0-0.4,0.1-0.5,0.2
					c-0.2,0.2-0.2,0.3-0.2,0.5c0,0.2,0.1,0.4,0.2,0.5c0.3,0.3,0.8,0.3,1.1,0c0.1-0.1,0.2-0.3,0.2-0.5c0-0.2-0.1-0.4-0.2-0.5
					C120.4,92.8,120.3,92.8,120,92.8z"/>
			</g>
			<g>
				<path class="st5" d="M125.2,98l1.3-1.1c0.2-0.1,0.3-0.2,0.5-0.3c0.4-0.1,0.7-0.2,1.1-0.2c0.6,0,1.1,0.1,1.6,0.4
					c0.4,0.2,0.8,0.6,1,1c0.2,0.4,0.3,1,0.3,1.8l0,2.7c0,0.9,0,1.5,0.1,1.6c0.1,0.2,0.3,0.3,0.6,0.3h0.6v0.5c-0.6,0-1.1-0.1-1.6-0.1
					c-0.4,0-0.9,0-1.4,0.1c0.1-1.1,0.2-2.6,0.2-4.5c0-0.8-0.1-1.3-0.2-1.6c-0.1-0.3-0.4-0.6-0.7-0.8c-0.3-0.2-0.7-0.3-1.1-0.3
					c-0.6,0-1,0.1-1.4,0.4c-0.4,0.3-0.6,0.6-0.7,0.9c-0.1,0.2-0.1,0.8-0.1,1.7c0,1,0,2,0,2.9c0,0.3,0,0.4,0.1,0.5
					c0.1,0.1,0.4,0.2,0.7,0.2h0.6v0.5c-1,0-1.7-0.1-2.3-0.1c-0.6,0-1.3,0-2,0.1v-0.5h0.6c0.4,0,0.7-0.1,0.7-0.3
					c0.1-0.2,0.1-1.4,0.1-3.5c0-1,0-1.7,0-2.3c0-0.2-0.1-0.3-0.1-0.4c-0.1-0.1-0.3-0.1-0.7-0.1h-0.6V97c0.5-0.1,0.9-0.1,1.3-0.2
					c0.4-0.1,0.8-0.2,1.3-0.4c0.1,0,0.1,0,0.1,0c0.1,0,0.1,0.1,0.1,0.2l0,0.3L125.2,98z"/>
				<path class="st1" d="M129,104.8l0-0.2c0.1-1.1,0.2-2.6,0.2-4.5c0-0.7-0.1-1.2-0.2-1.5c-0.1-0.3-0.3-0.5-0.6-0.7
					c-0.3-0.2-0.6-0.3-1-0.3c-0.5,0-0.9,0.1-1.3,0.4c-0.3,0.2-0.6,0.5-0.6,0.8c0,0.1-0.1,0.5-0.1,1.7c0,1,0,2,0,2.9
					c0,0.3,0.1,0.4,0.1,0.4c0.1,0.1,0.3,0.1,0.6,0.1h0.8v0.9l-0.2,0c-0.9,0-1.7-0.1-2.3-0.1c-0.6,0-1.3,0-2,0.1l-0.2,0v-0.9h0.8
					c0.3,0,0.5-0.1,0.5-0.2c0-0.1,0.1-0.6,0.1-3.5c0-1,0-1.7,0-2.3c0-0.2-0.1-0.2-0.1-0.2c0,0-0.1-0.1-0.5-0.1h-0.8v-0.9l0.2,0
					c0.5-0.1,0.9-0.1,1.3-0.2c0.4-0.1,0.8-0.2,1.3-0.4c0.1,0,0.1,0,0.2,0c0.2,0,0.3,0.1,0.3,0.4l0,1l0.9-0.8
					c0.2-0.2,0.4-0.3,0.5-0.3c0.4-0.1,0.8-0.2,1.2-0.2c0.6,0,1.2,0.1,1.7,0.4c0.5,0.3,0.8,0.6,1,1c0.2,0.4,0.3,1.1,0.3,1.9l0,2.7
					c0,1.2,0.1,1.5,0.1,1.5c0,0,0.1,0.2,0.5,0.2h0.8v0.9l-0.2,0c-0.6,0-1.1-0.1-1.6-0.1c-0.4,0-0.9,0-1.4,0.1L129,104.8z
					 M124.4,104.3c0.5,0,1.2,0,2.1,0.1v-0.1h-0.4c-0.4,0-0.7-0.1-0.8-0.2c-0.1-0.1-0.2-0.3-0.2-0.6c0-0.9,0-1.9,0-2.9
					c0-1,0-1.5,0.1-1.8c0.1-0.4,0.4-0.7,0.8-1c0.4-0.3,0.9-0.5,1.5-0.5c0.5,0,0.9,0.1,1.2,0.3c0.3,0.2,0.6,0.5,0.8,0.9
					c0.1,0.3,0.2,0.9,0.2,1.7c0,1.7,0,3.2-0.1,4.3c0.4,0,0.8,0,1.2,0c0.4,0,0.9,0,1.4,0v-0.1h-0.4c-0.4,0-0.6-0.1-0.8-0.4
					c-0.1-0.1-0.1-0.4-0.1-1.7l0-2.7c0-0.8-0.1-1.4-0.3-1.8c-0.2-0.4-0.5-0.6-0.9-0.9c-0.4-0.2-0.9-0.3-1.5-0.3
					c-0.4,0-0.7,0.1-1.1,0.2c-0.1,0.1-0.3,0.1-0.4,0.3l-1.6,1.4l0-1.9c0,0,0,0,0,0c-0.5,0.2-0.9,0.4-1.3,0.5
					c-0.3,0.1-0.7,0.2-1.2,0.2v0.1h0.4c0.6,0,0.7,0.1,0.8,0.1c0.1,0.1,0.2,0.3,0.2,0.5c0,0.5,0,1.3,0,2.3c0,3.3-0.1,3.5-0.1,3.6
					c-0.1,0.3-0.4,0.4-0.9,0.4h-0.4v0.1C123.2,104.3,123.8,104.3,124.4,104.3z M125,96.5L125,96.5L125,96.5z"/>
			</g>
			<g>
				<path class="st5" d="M133.9,100.5c0,1.1,0.3,2,0.9,2.5c0.5,0.6,1.3,0.9,2.1,0.9c0.4,0,0.8-0.1,1.2-0.2c0.4-0.1,0.8-0.3,1.2-0.6
					l0.1,0.1l-0.3,0.7c-0.5,0.3-1,0.5-1.5,0.6c-0.5,0.1-1,0.2-1.5,0.2c-1.1,0-2.1-0.4-2.8-1.1c-0.7-0.7-1.1-1.7-1.1-3
					c0-1,0.2-1.8,0.6-2.5c0.3-0.5,0.7-0.9,1.4-1.3c0.7-0.4,1.4-0.6,2-0.6c1,0,1.8,0.3,2.4,0.9c0.6,0.6,0.9,1.4,0.9,2.5l0,0.5
					c-0.4,0.1-0.7,0.2-1.1,0.2c-0.6,0-1.4,0.1-2.5,0.1H133.9z M133.9,99.8c0.9,0,1.8,0.1,2.9,0.1c0.4,0,0.8,0,1.2-0.1v-0.5
					c0-0.5-0.1-1-0.3-1.4c-0.1-0.3-0.3-0.5-0.7-0.7c-0.3-0.2-0.7-0.3-1.1-0.3c-0.6,0-1.1,0.2-1.5,0.7
					C134.1,98.1,133.9,98.8,133.9,99.8z"/>
				<path class="st1" d="M136.1,104.9c-1.2,0-2.2-0.4-2.9-1.2c-0.7-0.8-1.1-1.8-1.1-3.1c0-1,0.2-1.8,0.6-2.6
					c0.3-0.5,0.8-0.9,1.5-1.3c0.7-0.4,1.4-0.6,2.1-0.6c1.1,0,1.9,0.3,2.5,0.9c0.6,0.6,0.9,1.5,0.9,2.6l0,0.7l-0.1,0
					c-0.4,0.1-0.8,0.2-1.1,0.2c-0.6,0-1.5,0.1-2.5,0.1h-1.9c0.1,1,0.3,1.7,0.8,2.2c0.5,0.5,1.2,0.8,2,0.8c0.4,0,0.7-0.1,1.1-0.2
					c0.4-0.1,0.7-0.3,1.1-0.6l0.1-0.1l0.4,0.3l-0.3,0.9l-0.1,0c-0.5,0.3-1,0.5-1.5,0.6C137.2,104.9,136.7,104.9,136.1,104.9z
					 M136.4,96.6c-0.6,0-1.3,0.2-1.9,0.6c-0.7,0.4-1.1,0.8-1.4,1.2c-0.4,0.7-0.6,1.5-0.6,2.4c0,1.2,0.3,2.1,1,2.8
					c0.7,0.7,1.5,1,2.6,1c0.5,0,1-0.1,1.5-0.2c0.5-0.1,0.9-0.3,1.3-0.6l0.1-0.4c-0.3,0.2-0.6,0.3-1,0.4c-0.4,0.1-0.8,0.2-1.2,0.2
					c-0.9,0-1.7-0.3-2.3-0.9c-0.6-0.6-0.9-1.5-0.9-2.7l0-0.2h2.3c1.1,0,1.9,0,2.5-0.1c0.3,0,0.6-0.1,0.9-0.1l0-0.3
					c0-1-0.3-1.8-0.8-2.3C138.1,96.8,137.3,96.6,136.4,96.6z M136.8,100.1c-1.1,0-2,0-2.9-0.1l-0.2,0l0-0.2c0-1,0.2-1.8,0.6-2.3
					c0.4-0.5,1-0.8,1.7-0.8c0.4,0,0.8,0.1,1.2,0.3c0.3,0.2,0.6,0.5,0.7,0.8c0.2,0.5,0.3,1,0.3,1.5v0.7l-0.2,0
					C137.7,100.1,137.3,100.1,136.8,100.1z M134.1,99.6c0.8,0,1.7,0.1,2.7,0.1c0.4,0,0.7,0,1,0v-0.3c0-0.5-0.1-0.9-0.3-1.3
					c-0.1-0.2-0.3-0.4-0.6-0.6c-0.3-0.2-0.6-0.2-1-0.2c-0.6,0-1,0.2-1.4,0.6C134.3,98.2,134.2,98.8,134.1,99.6z"/>
			</g>
			<g>
				<path class="st5" d="M85.2,114.8v2.4c0,0.4,0,0.9,0,1.4c0,0.8,0.1,1.2,0.1,1.3c0,0.1,0.1,0.2,0.2,0.3c0.1,0.1,0.4,0.1,0.7,0.1
					h0.6v0.5c-0.7,0-1.4-0.1-2.1-0.1c-0.7,0-1.6,0-2.8,0.1v-0.5h0.5c0.6,0,0.9-0.1,1.1-0.3c0.1-0.2,0.2-1.1,0.2-2.8V112
					c0-1.5-0.1-2.3-0.2-2.5c-0.1-0.2-0.4-0.3-0.9-0.3h-0.6v-0.5c0.9,0,1.8,0.1,2.6,0.1c0.8,0,1.6,0,2.4-0.1v0.5h-0.4
					c-0.5,0-0.9,0-1,0.1c-0.1,0.1-0.2,0.2-0.2,0.4c0,0.3-0.1,1.1-0.1,2.3v1.9c1,0,2.3,0.1,3.8,0.1c1.3,0,2.4,0,3.2-0.1v-1.7
					c0-1,0-1.8-0.1-2.4c0-0.2-0.1-0.4-0.2-0.5c-0.1-0.1-0.4-0.2-0.8-0.2h-0.6v-0.5c0.9,0,1.7,0.1,2.5,0.1c0.8,0,1.7,0,2.6-0.1v0.5
					h-0.6c-0.4,0-0.7,0-0.8,0.1c-0.1,0.1-0.2,0.3-0.2,0.5s0,1.1,0,2.4v4.7c0,1.7,0,2.7,0.1,2.9c0.1,0.2,0.4,0.3,0.9,0.3h0.7v0.5
					c-0.8,0-1.6-0.1-2.4-0.1c-1,0-1.8,0-2.7,0.1v-0.5h0.6c0.4,0,0.7,0,0.8-0.1c0.1-0.1,0.2-0.3,0.2-0.6c0.1-0.6,0.1-1.4,0.1-2.5
					v-2.2c-0.8,0-1.8-0.1-3.1-0.1C87.4,114.7,86.1,114.7,85.2,114.8z"/>
				<path class="st1" d="M87,121l-0.2,0c-0.7,0-1.4-0.1-2.1-0.1c-0.7,0-1.6,0-2.8,0.1l-0.2,0V120h0.7c0.7,0,0.9-0.2,0.9-0.2
					c0-0.1,0.1-0.4,0.1-2.7V112c0-2-0.1-2.4-0.1-2.4c0-0.1-0.2-0.2-0.8-0.2h-0.8v-0.9l0.2,0c1.9,0.1,3.4,0.1,5,0l0.2,0v0.9h-0.6
					c-0.7,0-0.8,0.1-0.9,0.1c-0.1,0.1-0.1,0.1-0.1,0.3c0,0.3-0.1,1.1-0.1,2.2v1.7c1,0,2.2,0.1,3.6,0.1c1.2,0,2.2,0,3-0.1v-1.5
					c0-1,0-1.8-0.1-2.4c0-0.2-0.1-0.3-0.2-0.4c0,0-0.2-0.1-0.7-0.1h-0.8v-0.9l0.2,0c0.9,0,1.7,0.1,2.5,0.1c0.8,0,1.7,0,2.6-0.1
					l0.2,0v0.9h-0.8c-0.5,0-0.7,0.1-0.7,0.1c-0.1,0.1-0.1,0.2-0.1,0.4c0,0.2,0,1.1,0,2.4v4.7c0,2.3,0.1,2.7,0.1,2.8
					c0,0,0.1,0.2,0.8,0.2h0.9v0.9l-0.2,0c-0.8,0-1.6-0.1-2.4-0.1c-0.9,0-1.8,0-2.6,0.1l-0.2,0V120h0.8c0.5,0,0.7-0.1,0.7-0.1
					c0.1-0.1,0.1-0.2,0.2-0.4c0.1-0.6,0.1-1.4,0.1-2.5v-2c-0.8,0-1.7-0.1-2.9-0.1c-1.6,0-2.9,0-3.8,0.1v2.2c0,0.4,0,0.9,0,1.4
					c0,1,0.1,1.2,0.1,1.2c0,0,0,0,0.2,0.1c0.1,0,0.2,0.1,0.6,0.1H87V121z M82,120.4v0.1c1.1,0,2-0.1,2.6-0.1c0.6,0,1.3,0,1.9,0v-0.1
					h-0.4c-0.4,0-0.6-0.1-0.8-0.2c-0.2-0.1-0.3-0.2-0.3-0.4c0-0.1,0-0.3-0.1-1.3c0-0.5,0-1,0-1.4v-2.6l0.2,0c0.9,0,2.3-0.1,4-0.1
					c1.2,0,2.3,0,3.1,0.1l0.2,0v2.4c0,1.1,0,2-0.1,2.6c0,0.3-0.1,0.6-0.3,0.7c-0.2,0.1-0.5,0.2-1,0.2h-0.4v0.1
					c1.4-0.1,3.1-0.1,4.7,0v-0.1h-0.5c-0.6,0-1-0.1-1.1-0.4c-0.1-0.2-0.2-0.6-0.2-3v-4.7c0-1.4,0-2.2,0-2.5c0-0.3,0.1-0.5,0.3-0.7
					c0.2-0.1,0.5-0.2,1-0.2h0.4v-0.1c-0.8,0-1.6,0.1-2.4,0.1c-0.7,0-1.5,0-2.3-0.1v0.1h0.4c0.5,0,0.7,0.1,0.9,0.2
					c0.2,0.1,0.3,0.4,0.3,0.6c0.1,0.7,0.1,1.5,0.1,2.5v1.8l-0.2,0c-0.8,0-1.9,0.1-3.2,0.1c-1.6,0-2.9,0-3.9-0.1l-0.2,0V112
					c0-1.2,0-2,0.1-2.3c0-0.2,0.1-0.4,0.3-0.6c0.1-0.1,0.3-0.2,1.1-0.2h0.2v-0.1c-1.4,0.1-2.9,0.1-4.6,0v0.1h0.4
					c0.6,0,1,0.1,1.1,0.4c0.1,0.2,0.2,0.6,0.2,2.6v5.1c0,2.2-0.1,2.7-0.2,2.9c-0.1,0.3-0.5,0.4-1.2,0.4H82z"/>
			</g>
			<g>
				<path class="st5" d="M97.6,116.6c0,1.1,0.3,2,0.9,2.5c0.5,0.6,1.3,0.9,2.1,0.9c0.4,0,0.8-0.1,1.2-0.2c0.4-0.1,0.8-0.3,1.2-0.6
					l0.1,0.1l-0.3,0.7c-0.5,0.3-1,0.5-1.5,0.6c-0.5,0.1-1,0.2-1.5,0.2c-1.1,0-2.1-0.4-2.8-1.1c-0.7-0.7-1.1-1.7-1.1-3
					c0-1,0.2-1.8,0.6-2.5c0.3-0.5,0.7-0.9,1.4-1.3c0.7-0.4,1.4-0.6,2-0.6c1,0,1.8,0.3,2.4,0.9c0.6,0.6,0.9,1.4,0.9,2.5l0,0.5
					c-0.4,0.1-0.7,0.2-1.1,0.2c-0.6,0-1.4,0.1-2.5,0.1H97.6z M97.6,116c0.9,0,1.8,0.1,2.9,0.1c0.4,0,0.8,0,1.2-0.1v-0.5
					c0-0.5-0.1-1-0.3-1.4c-0.1-0.3-0.3-0.5-0.7-0.7c-0.3-0.2-0.7-0.3-1.1-0.3c-0.6,0-1.1,0.2-1.5,0.7C97.8,114.3,97.6,115,97.6,116z
					"/>
				<path class="st1" d="M99.8,121.1c-1.2,0-2.2-0.4-2.9-1.2c-0.7-0.8-1.1-1.8-1.1-3.1c0-1,0.2-1.8,0.6-2.6c0.3-0.5,0.8-0.9,1.5-1.3
					c0.7-0.4,1.4-0.6,2.1-0.6c1.1,0,1.9,0.3,2.5,0.9c0.6,0.6,0.9,1.5,0.9,2.6l0,0.7l-0.1,0c-0.4,0.1-0.8,0.2-1.1,0.2
					c-0.6,0-1.5,0.1-2.5,0.1h-1.9c0.1,1,0.3,1.7,0.8,2.2c0.5,0.5,1.2,0.8,2,0.8c0.4,0,0.7-0.1,1.1-0.2c0.4-0.1,0.7-0.3,1.1-0.6
					l0.1-0.1l0.4,0.3l-0.3,0.9l-0.1,0c-0.5,0.3-1,0.5-1.5,0.6C100.9,121.1,100.4,121.1,99.8,121.1z M100.1,112.7
					c-0.6,0-1.3,0.2-1.9,0.6c-0.7,0.4-1.1,0.8-1.4,1.2c-0.4,0.7-0.6,1.5-0.6,2.4c0,1.2,0.3,2.1,1,2.8c0.7,0.7,1.5,1,2.6,1
					c0.5,0,1-0.1,1.5-0.2c0.5-0.1,0.9-0.3,1.3-0.6l0.1-0.4c-0.3,0.2-0.6,0.3-1,0.4c-0.4,0.1-0.8,0.2-1.2,0.2c-0.9,0-1.7-0.3-2.3-0.9
					c-0.6-0.6-0.9-1.5-0.9-2.7l0-0.2h2.3c1.1,0,1.9,0,2.5-0.1c0.3,0,0.6-0.1,0.9-0.1l0-0.3c0-1-0.3-1.8-0.8-2.3
					C101.8,113,101,112.7,100.1,112.7z M100.5,116.3c-1.1,0-2,0-2.9-0.1l-0.2,0l0-0.2c0-1,0.2-1.8,0.6-2.3c0.4-0.5,1-0.8,1.7-0.8
					c0.4,0,0.8,0.1,1.2,0.3c0.3,0.2,0.6,0.5,0.7,0.8c0.2,0.5,0.3,1,0.3,1.5v0.7l-0.2,0C101.4,116.2,100.9,116.3,100.5,116.3z
					 M97.8,115.8c0.8,0,1.7,0.1,2.7,0.1c0.4,0,0.7,0,1,0v-0.3c0-0.5-0.1-0.9-0.3-1.3c-0.1-0.2-0.3-0.4-0.6-0.6
					c-0.3-0.2-0.6-0.2-1-0.2c-0.6,0-1,0.2-1.4,0.6C98,114.4,97.9,115,97.8,115.8z"/>
			</g>
			<g>
				<path class="st5" d="M106.6,114.5c0.2-0.2,0.5-0.5,0.7-0.8c0.3-0.4,0.6-0.7,0.9-0.8c0.3-0.2,0.6-0.2,0.9-0.2
					c0.3,0,0.6,0,0.7,0.1c0.1,0,0.1,0.1,0.1,0.2l0,0.1c-0.1,0.5-0.1,1.1-0.2,1.9h-0.4c-0.1-0.3-0.3-0.5-0.5-0.6
					c-0.2-0.1-0.4-0.2-0.6-0.2c-0.3,0-0.6,0.1-0.9,0.3c-0.3,0.2-0.5,0.5-0.6,0.9c-0.1,0.4-0.1,1.2-0.1,2.4c0,0.8,0,1.4,0.1,2
					c0,0.2,0.1,0.3,0.2,0.4c0.2,0.1,0.5,0.2,1,0.2h0.5v0.5c-0.9,0-1.7-0.1-2.5-0.1c-0.8,0-1.5,0-2.2,0.1v-0.5l0.8-0.1
					c0.3,0,0.5-0.1,0.5-0.2c0.1-0.1,0.1-0.4,0.1-0.8c0-0.8,0.1-1.8,0.1-2.9c0-1.4-0.1-2.2-0.2-2.4c-0.1-0.2-0.3-0.2-0.7-0.2h-0.7
					v-0.5c0.5-0.1,1-0.1,1.5-0.2c0.4-0.1,0.8-0.2,1.1-0.4c0.1,0,0.1-0.1,0.2-0.1c0.1,0,0.1,0,0.1,0.1c0,0,0,0.1,0,0.2L106.6,114.5z"
					/>
				<path class="st1" d="M103.5,121v-0.9l1-0.1c0.4,0,0.4-0.1,0.4-0.1c0,0,0.1-0.1,0.1-0.7c0-0.8,0.1-1.8,0.1-2.9
					c0-1.7-0.1-2.2-0.1-2.3c0,0-0.2-0.1-0.5-0.1h-0.9V113l0.2,0c0.5-0.1,1-0.1,1.4-0.2c0.4-0.1,0.8-0.2,1.1-0.4
					c0.3-0.2,0.5,0,0.6,0.1c0,0.1,0.1,0.2,0.1,0.3l0,1.2c0.1-0.1,0.2-0.3,0.4-0.5c0.3-0.4,0.6-0.7,0.9-0.9c0.3-0.2,0.6-0.3,1-0.3
					c0.3,0,0.6,0,0.8,0.1c0.1,0.1,0.2,0.2,0.2,0.3l0,0.1c-0.1,0.5-0.1,1.1-0.2,1.9l0,0.2h-0.7l-0.1-0.1c-0.1-0.3-0.2-0.4-0.4-0.5
					c-0.1-0.1-0.3-0.1-0.5-0.1c-0.3,0-0.6,0.1-0.8,0.3s-0.4,0.5-0.5,0.8c-0.1,0.4-0.1,1.2-0.1,2.4c0,0.8,0,1.4,0.1,2
					c0,0.2,0.1,0.2,0.1,0.2c0.2,0.1,0.5,0.2,0.9,0.2h0.7v0.9l-0.2,0c-1.7-0.1-3.2-0.1-4.7,0L103.5,121z M105.9,120.5
					c0.7,0,1.5,0,2.3,0.1v-0.1h-0.3c-0.5,0-0.8-0.1-1-0.2c-0.2-0.1-0.2-0.3-0.3-0.5c-0.1-0.5-0.1-1.2-0.1-2c0-1.2,0-2,0.1-2.4
					c0.1-0.4,0.3-0.8,0.6-1.1c0.3-0.3,0.7-0.4,1-0.4c0.3,0,0.5,0.1,0.7,0.2c0.2,0.1,0.3,0.3,0.5,0.6h0.1c0-0.7,0.1-1.3,0.2-1.8l0,0
					c-0.2-0.1-0.4-0.1-0.6-0.1c-0.3,0-0.5,0.1-0.8,0.2c-0.2,0.1-0.5,0.4-0.8,0.8c-0.3,0.4-0.5,0.7-0.8,0.9l-0.3,0.3l0-2.2
					c0,0,0-0.1,0-0.1c0,0,0,0-0.1,0c-0.3,0.2-0.7,0.3-1.2,0.4c-0.4,0.1-0.8,0.2-1.3,0.2v0.1h0.5c0.5,0,0.8,0.1,0.9,0.3
					c0.1,0.2,0.2,0.6,0.2,2.5c0,1.1,0,2.1-0.1,2.9c0,0.7-0.1,0.9-0.2,0.9c-0.1,0.1-0.3,0.2-0.7,0.2l-0.6,0.1v0.1
					C104.5,120.5,105.2,120.5,105.9,120.5z"/>
			</g>
			<g>
				<path class="st5" d="M113,112.5l0.2,0.1c0,0.4-0.1,0.9-0.1,1.4c0,1.7-0.1,2.9-0.1,3.7c0,0.7,0,1.4,0.1,1.9
					c0,0.2,0.1,0.3,0.2,0.4c0.1,0.1,0.3,0.1,0.6,0.2l0.6,0.1v0.5c-0.8,0-1.6-0.1-2.3-0.1c-0.7,0-1.3,0-2,0.1v-0.5l0.7-0.1
					c0.3,0,0.5-0.1,0.5-0.2c0.1-0.1,0.1-0.4,0.1-0.8c0-0.7,0-1.7,0-3c0-0.9,0-1.6,0-2c0-0.2-0.1-0.3-0.1-0.4
					c-0.1-0.1-0.3-0.1-0.6-0.1h-0.6v-0.5c0.7-0.1,1.2-0.2,1.5-0.3C112.1,112.9,112.5,112.7,113,112.5z M112.4,108.8
					c0.3,0,0.5,0.1,0.7,0.3s0.3,0.4,0.3,0.7c0,0.3-0.1,0.5-0.3,0.7c-0.2,0.2-0.4,0.3-0.7,0.3c-0.3,0-0.5-0.1-0.7-0.3
					c-0.2-0.2-0.3-0.4-0.3-0.7c0-0.3,0.1-0.5,0.3-0.7C111.9,108.9,112.1,108.8,112.4,108.8z"/>
				<path class="st1" d="M110.1,121v-0.9l0.9-0.1c0.3,0,0.4-0.1,0.4-0.1c0,0,0.1-0.1,0.1-0.7c0-0.7,0-1.7,0-3c0-0.9,0-1.6,0-2
					c0-0.1,0-0.2-0.1-0.2c0,0-0.1-0.1-0.5-0.1h-0.8V113l0.2,0c0.7-0.1,1.2-0.2,1.5-0.3c0.3-0.1,0.7-0.2,1.2-0.4l0.1,0l0.4,0.2l0,0.1
					c0,0.4-0.1,0.9-0.1,1.4c0,1.7-0.1,2.9-0.1,3.7c0,0.7,0,1.4,0.1,1.9c0,0.2,0.1,0.3,0.1,0.3c0,0,0.1,0.1,0.5,0.1l0.8,0.1v0.9
					l-0.2,0c-0.8,0-1.6-0.1-2.2-0.1c-0.7,0-1.3,0-2,0.1L110.1,121z M112.3,120.5c0.6,0,1.3,0,2.1,0.1v-0.1l-0.4-0.1
					c-0.4,0-0.6-0.1-0.7-0.2c-0.1-0.1-0.2-0.3-0.2-0.5c-0.1-0.5-0.1-1.2-0.1-1.9c0-0.8,0-2,0.1-3.7c0-0.5,0-0.9,0.1-1.3l0,0
					c-0.5,0.2-0.9,0.3-1.2,0.4c-0.3,0.1-0.8,0.2-1.4,0.3v0.1h0.4c0.4,0,0.6,0,0.7,0.2c0.1,0.1,0.2,0.3,0.2,0.5c0,0.5,0,1.2,0,2
					c0,1.3,0,2.3,0,3c0,0.7-0.1,0.8-0.2,0.9c-0.1,0.1-0.3,0.2-0.7,0.2l-0.5,0.1v0.1C111.1,120.5,111.7,120.5,112.3,120.5z
					 M112.4,110.9c-0.3,0-0.6-0.1-0.8-0.3c-0.2-0.2-0.3-0.5-0.3-0.8c0-0.3,0.1-0.6,0.3-0.8c0.2-0.2,0.5-0.3,0.8-0.3
					c0.3,0,0.6,0.1,0.8,0.3c0.2,0.2,0.3,0.5,0.3,0.8c0,0.3-0.1,0.6-0.3,0.8S112.7,110.9,112.4,110.9z M112.4,109
					c-0.2,0-0.4,0.1-0.5,0.2c-0.2,0.2-0.2,0.3-0.2,0.5c0,0.2,0.1,0.4,0.2,0.5c0.3,0.3,0.8,0.3,1.1,0c0.1-0.1,0.2-0.3,0.2-0.5
					c0-0.2-0.1-0.4-0.2-0.5C112.7,109,112.6,109,112.4,109z"/>
			</g>
			<g>
				<path class="st5" d="M117.6,114.1v3.3c0,0.9,0,1.4,0.1,1.7c0.1,0.2,0.2,0.4,0.3,0.6c0.2,0.1,0.4,0.2,0.7,0.2
					c0.2,0,0.3,0,0.5-0.1c0.2-0.1,0.3-0.2,0.5-0.3l0.2,0.3l-0.8,1c-0.2,0.1-0.4,0.1-0.5,0.1c-0.2,0-0.3,0.1-0.5,0.1
					c-0.4,0-0.8-0.1-1.1-0.2c-0.3-0.1-0.5-0.3-0.6-0.6c-0.1-0.2-0.2-0.6-0.2-1.1l0-1.6v-3.2c-0.4,0-0.9,0-1.3,0.1v-0.4
					c0.5-0.2,0.9-0.4,1.3-0.6c0-0.8,0-1.7-0.1-2.6c0.7-0.3,1.1-0.5,1.4-0.7l0.2,0.2c0,0.4-0.1,1.5-0.1,3.1c0.7,0,1.3,0,1.7,0l0.7,0
					l-0.1,0.9l-0.3,0l-1.6,0H117.6z"/>
				<path class="st1" d="M118,121.1c-0.5,0-0.8-0.1-1.2-0.2c-0.3-0.2-0.6-0.4-0.7-0.7c-0.1-0.3-0.2-0.7-0.2-1.2l0-1.6v-3
					c-0.4,0-0.7,0-1.1,0.1l-0.2,0v-0.7l0.1,0c0.4-0.2,0.8-0.3,1.2-0.5c0-0.8,0-1.6-0.1-2.5l0-0.1l0.1-0.1c0.6-0.3,1.1-0.5,1.4-0.7
					l0.1-0.1l0.4,0.3l0,0.1c0,0.4-0.1,1.4-0.1,2.9c0.6,0,1.1,0,1.5,0l0.9,0l-0.1,1.3l-0.5,0l-1.7,0v3.1c0,1.1,0,1.5,0.1,1.6
					c0,0.2,0.1,0.4,0.3,0.5s0.3,0.2,0.5,0.2c0.1,0,0.3,0,0.4-0.1c0.1-0.1,0.3-0.1,0.4-0.3l0.2-0.1l0.5,0.6l-1,1.1l-0.1,0
					c-0.2,0.1-0.4,0.1-0.6,0.2C118.4,121.1,118.2,121.1,118,121.1z M116.2,114h0.2v3.4l0,1.6c0,0.4,0.1,0.8,0.2,1
					c0.1,0.2,0.3,0.4,0.5,0.5c0.4,0.2,0.9,0.3,1.4,0.2c0.1,0,0.3-0.1,0.5-0.1l0.7-0.8l0,0c-0.1,0.1-0.2,0.2-0.4,0.2
					c-0.2,0.1-0.4,0.1-0.6,0.1c-0.3,0-0.6-0.1-0.8-0.2c-0.2-0.2-0.3-0.4-0.4-0.7c-0.1-0.3-0.1-0.8-0.1-1.7v-3.5l2.3,0l0-0.5l-0.4,0
					c-0.4,0-1,0-1.7,0h-0.2l0-0.2c0-1.5,0.1-2.5,0.1-3l0,0c-0.3,0.2-0.7,0.3-1.2,0.6c0,0.9,0.1,1.7,0.1,2.5l0,0.1l-0.1,0.1
					c-0.4,0.2-0.8,0.4-1.2,0.5v0C115.4,114,115.8,114,116.2,114z"/>
			</g>
			<g>
				<path class="st5" d="M120.9,114.9l0-0.6l0-0.6l0.9-0.5c0.4-0.2,0.8-0.4,1.1-0.5c0.3-0.1,0.6-0.1,1-0.1c0.8,0,1.4,0.2,1.9,0.5
					c0.5,0.4,0.8,0.8,0.9,1.3c0.1,0.4,0.1,1.4,0.1,3c0,1.5,0,2.4,0.1,2.5c0.1,0.2,0.2,0.2,0.4,0.2h0.7v0.6c-0.6,0-1.1-0.1-1.3-0.1
					c-0.3,0-0.7,0-1.3,0.1l0-0.8c0-0.2,0-0.5,0-0.7l-1.8,1.3c-0.2,0.1-0.3,0.2-0.5,0.2c-0.2,0-0.4,0.1-0.6,0.1
					c-0.7,0-1.3-0.2-1.7-0.5c-0.4-0.4-0.6-0.8-0.6-1.4c0-0.6,0.1-1.1,0.4-1.5c0.3-0.4,0.7-0.7,1.2-0.9c0.5-0.2,1.7-0.5,3.5-0.8
					c0-0.7-0.2-1.3-0.5-1.6c-0.4-0.4-0.9-0.7-1.6-0.7c-0.3,0-0.5,0-0.8,0.1c-0.2,0.1-0.5,0.2-0.7,0.3c-0.2,0.4-0.3,0.8-0.4,1.2
					L120.9,114.9z M125.4,116.2c-1.6,0.3-2.6,0.7-3,1c-0.4,0.3-0.6,0.8-0.6,1.4c0,0.4,0.1,0.8,0.4,1c0.2,0.3,0.6,0.4,0.9,0.4
					c0.4,0,0.8-0.1,1.2-0.4c0.4-0.2,0.8-0.6,1.1-1.1l0-1.9L125.4,116.2z"/>
				<path class="st1" d="M122.5,121.1c-0.8,0-1.4-0.2-1.8-0.6c-0.4-0.4-0.6-0.9-0.6-1.6c0-0.6,0.1-1.1,0.4-1.6
					c0.3-0.5,0.7-0.8,1.3-1c0.5-0.2,1.6-0.5,3.4-0.8c0-0.6-0.2-1-0.4-1.3c-0.3-0.4-0.8-0.6-1.5-0.6c-0.3,0-0.5,0-0.7,0.1
					c-0.2,0.1-0.4,0.1-0.6,0.2c-0.2,0.4-0.3,0.7-0.4,1.1l-0.1,0.2l-0.8-0.2l0-0.7l0-0.7l1-0.6c0.4-0.2,0.8-0.4,1.1-0.5
					c0.3-0.1,0.7-0.1,1.1-0.1c0.8,0,1.5,0.2,2,0.6c0.5,0.4,0.8,0.9,0.9,1.5c0.1,0.4,0.1,1.4,0.1,3.1c0,2,0.1,2.4,0.1,2.5
					c0,0,0,0.1,0.2,0.1h0.9v1l-0.2,0c-0.6,0-1.1-0.1-1.3-0.1c-0.3,0-0.7,0-1.3,0.1l-0.2,0l0-1c0-0.1,0-0.2,0-0.3l-1.4,1.1
					c-0.2,0.1-0.4,0.2-0.5,0.3C123,121.1,122.8,121.1,122.5,121.1z M123.2,113.2c0.8,0,1.4,0.2,1.8,0.7c0.3,0.4,0.5,1,0.5,1.7l0,0.2
					l-0.2,0c-1.8,0.3-3,0.6-3.5,0.8c-0.5,0.2-0.8,0.5-1.1,0.9c-0.3,0.4-0.4,0.9-0.4,1.4c0,0.6,0.2,1,0.5,1.3
					c0.3,0.3,0.9,0.5,1.5,0.5c0.2,0,0.4,0,0.6-0.1c0.1,0,0.3-0.1,0.4-0.2l2.1-1.6l0,0.4c0,0.3,0,0.5,0,0.7l0,0.5c0.4,0,0.8,0,1.1,0
					c0.2,0,0.6,0,1.2,0v-0.2h-0.5c-0.4,0-0.6-0.2-0.6-0.4c0-0.1-0.1-0.3-0.1-2.6c0-1.6-0.1-2.6-0.1-3c-0.1-0.5-0.3-0.9-0.8-1.2
					c-0.4-0.3-1-0.5-1.8-0.5c-0.3,0-0.7,0-1,0.1c-0.3,0.1-0.7,0.2-1.1,0.5l-0.8,0.5l0,0.5l0,0.4l0.2,0c0.1-0.3,0.2-0.7,0.4-1l0-0.1
					l0.1,0c0.2-0.1,0.5-0.3,0.7-0.3C122.7,113.3,123,113.2,123.2,113.2z M123,120.1c-0.4,0-0.8-0.1-1.1-0.4
					c-0.3-0.3-0.4-0.7-0.4-1.1c0-0.7,0.2-1.2,0.7-1.5c0.4-0.3,1.5-0.6,3.1-1l0.2-0.1l0,0.7l0,1.9l0,0.1c-0.4,0.5-0.8,0.9-1.2,1.1
					C123.9,120,123.5,120.1,123,120.1z M125.2,116.5c-1.4,0.3-2.3,0.6-2.7,0.9c-0.4,0.3-0.6,0.7-0.6,1.2c0,0.4,0.1,0.7,0.3,0.9
					c0.2,0.2,0.5,0.3,0.8,0.3c0.4,0,0.8-0.1,1.1-0.3c0.3-0.2,0.7-0.5,1-1l0-1.8L125.2,116.5z"/>
			</g>
			<g>
				<path class="st5" d="M135.5,114.1c0.1,0.4,0.2,0.7,0.2,0.9c0,0.5-0.2,1-0.5,1.5c-0.3,0.5-0.7,0.8-1.3,1.1
					c-0.6,0.3-1.2,0.4-1.8,0.4l-0.4,0c-0.4,0.3-0.6,0.5-0.7,0.6c-0.1,0.1-0.1,0.3-0.1,0.4c0,0.2,0.1,0.4,0.3,0.5
					c0.2,0.1,0.7,0.2,1.3,0.2c0.3,0,0.6,0,1.1,0c0.7,0,1.2,0,1.5,0c0.4,0,0.8,0.1,1,0.2c0.2,0.1,0.4,0.4,0.6,0.8
					c0.2,0.4,0.3,0.8,0.3,1.2c0,0.6-0.2,1.2-0.6,1.8c-0.4,0.6-0.9,1-1.7,1.4c-0.7,0.4-1.6,0.5-2.5,0.5c-1.2,0-2.1-0.3-2.7-0.8
					c-0.6-0.5-0.9-1.1-0.9-1.9c0-0.5,0.2-0.9,0.5-1.4c0.6-0.3,1.1-0.6,1.5-0.8c-0.5-0.2-0.8-0.3-0.9-0.4c-0.1-0.1-0.2-0.3-0.2-0.5
					c0-0.2,0.1-0.5,0.2-0.7c0.1-0.1,0.3-0.3,0.6-0.5l0.8-0.6c-0.7-0.2-1.2-0.4-1.5-0.7c-0.4-0.4-0.6-1-0.6-1.6
					c0-0.6,0.1-1.1,0.4-1.6c0.3-0.5,0.7-0.8,1.3-1.1c0.7-0.3,1.4-0.5,2.1-0.5c0.4,0,0.8,0.1,1.1,0.2c0.3,0.1,0.7,0.3,1,0.6h0.7
					c0.7,0,1.3,0,1.7-0.1l0.1,0.2c-0.2,0.2-0.3,0.5-0.4,0.8H135.5z M131.9,120.9c-0.4,0-0.7,0-0.8,0.1c-0.5,0.3-0.8,0.6-0.9,0.7
					c-0.2,0.3-0.3,0.7-0.3,1.1c0,0.6,0.2,1.1,0.7,1.5c0.5,0.4,1.1,0.6,1.9,0.6c0.6,0,1.2-0.1,1.7-0.3c0.5-0.2,0.8-0.6,1.1-1
					c0.3-0.4,0.4-0.8,0.4-1.3c0-0.4-0.1-0.7-0.3-1c-0.2-0.3-0.4-0.5-0.7-0.5c-0.1,0-0.4-0.1-0.9-0.1H131.9z M134.2,115.5
					c0-0.7-0.2-1.3-0.5-1.7c-0.4-0.4-0.8-0.6-1.4-0.6c-0.5,0-1,0.2-1.3,0.5c-0.3,0.4-0.5,0.8-0.5,1.5c0,0.8,0.2,1.3,0.5,1.8
					c0.4,0.4,0.8,0.6,1.4,0.6c0.5,0,1-0.2,1.3-0.5C134.1,116.6,134.2,116.1,134.2,115.5z"/>
				<path class="st1" d="M132.3,125.8c-1.2,0-2.2-0.3-2.8-0.8c-0.7-0.5-1-1.2-1-2c0-0.5,0.2-1,0.5-1.5l0,0l0,0
					c0.4-0.2,0.8-0.4,1.1-0.6c-0.3-0.1-0.5-0.2-0.6-0.3c-0.2-0.2-0.3-0.4-0.3-0.6c0-0.3,0.1-0.5,0.2-0.8c0.1-0.2,0.3-0.4,0.6-0.6
					l0.5-0.3c-0.5-0.2-0.9-0.4-1.2-0.7c-0.4-0.5-0.6-1-0.6-1.7c0-0.6,0.2-1.2,0.5-1.7c0.3-0.5,0.8-0.9,1.4-1.2
					c0.8-0.4,1.5-0.5,2.2-0.5c0.4,0,0.9,0.1,1.2,0.2c0.3,0.1,0.7,0.3,1,0.6h0.6c0.7,0,1.3,0,1.7-0.1l0.1,0l0.2,0.4l-0.1,0.1
					c-0.2,0.2-0.3,0.5-0.4,0.7l-0.1,0.1h-1.4c0.1,0.3,0.1,0.5,0.1,0.7c0,0.5-0.2,1.1-0.5,1.6c-0.3,0.5-0.8,0.9-1.4,1.2
					c-0.6,0.3-1.2,0.5-1.9,0.5l-0.3,0c-0.4,0.3-0.6,0.5-0.6,0.5c-0.1,0.1-0.1,0.2-0.1,0.3c0,0.1,0,0.2,0.2,0.3
					c0.1,0.1,0.5,0.2,1.3,0.2c0.3,0,0.6,0,1.1,0c0.7,0,1.2,0,1.5,0c0.5,0,0.9,0.1,1.1,0.2c0.3,0.2,0.5,0.4,0.7,0.8
					c0.2,0.4,0.3,0.8,0.3,1.3c0,0.7-0.2,1.3-0.6,1.9c-0.4,0.6-1,1.1-1.8,1.5C134.1,125.6,133.3,125.8,132.3,125.8z M129.3,121.7
					c-0.3,0.4-0.4,0.8-0.4,1.2c0,0.7,0.3,1.2,0.9,1.7c0.6,0.5,1.5,0.7,2.6,0.7c0.9,0,1.7-0.2,2.5-0.5c0.7-0.3,1.2-0.8,1.6-1.3
					c0.4-0.5,0.5-1.1,0.5-1.7c0-0.4-0.1-0.8-0.2-1.1c-0.2-0.3-0.3-0.5-0.5-0.7c-0.2-0.1-0.5-0.2-0.9-0.2c-0.3,0-0.8,0-1.5,0
					c-0.5,0-0.9,0-1.1,0c-0.7,0-1.2-0.1-1.4-0.2c-0.4-0.2-0.4-0.5-0.4-0.7c0-0.2,0.1-0.3,0.2-0.5c0.1-0.1,0.1-0.2,0.2-0.3l-0.7,0.5
					c-0.4,0.2-0.5,0.4-0.5,0.4c-0.1,0.2-0.2,0.4-0.2,0.6c0,0.1,0,0.3,0.1,0.3c0.1,0.1,0.3,0.2,0.8,0.4l0.4,0.1l-0.3,0.2
					C130.3,121.2,129.8,121.5,129.3,121.7z M132.9,112.7c-0.6,0-1.3,0.2-2,0.5c-0.5,0.3-0.9,0.6-1.2,1c-0.3,0.4-0.4,0.9-0.4,1.5
					c0,0.6,0.2,1.1,0.5,1.5c0.3,0.3,0.7,0.5,1.4,0.7l0.4,0.1c0,0,0.1,0,0.1-0.1l0.1,0l0.5,0c0.6,0,1.2-0.1,1.7-0.4
					c0.5-0.3,0.9-0.6,1.2-1.1c0.3-0.4,0.4-0.9,0.4-1.4c0-0.2-0.1-0.5-0.2-0.8l-0.1-0.3h1.7c0.1-0.2,0.2-0.4,0.3-0.5
					c-0.4,0-0.9,0.1-1.5,0.1H135l-0.1,0c-0.3-0.3-0.6-0.4-0.9-0.5C133.7,112.8,133.3,112.7,132.9,112.7z M132.6,125.2
					c-0.9,0-1.5-0.2-2-0.7c-0.5-0.4-0.8-1-0.8-1.7c0-0.5,0.1-0.9,0.3-1.2c0.1-0.2,0.4-0.5,0.9-0.8c0.2-0.1,0.5-0.2,0.9-0.2h2
					c0.6,0,0.9,0,0.9,0.1c0.3,0.1,0.6,0.3,0.8,0.6c0.2,0.3,0.3,0.7,0.3,1.1c0,0.5-0.1,0.9-0.4,1.4c-0.3,0.4-0.7,0.8-1.2,1
					C133.8,125.1,133.2,125.2,132.6,125.2z M131.9,121.1c-0.5,0-0.7,0.1-0.7,0.1c-0.6,0.4-0.7,0.6-0.8,0.7c-0.2,0.3-0.2,0.6-0.2,1
					c0,0.6,0.2,1,0.6,1.4c0.4,0.4,1,0.6,1.8,0.6c0.6,0,1.1-0.1,1.6-0.3c0.4-0.2,0.8-0.5,1-0.9c0.2-0.4,0.4-0.8,0.4-1.1
					c0-0.3-0.1-0.6-0.2-0.9c-0.2-0.2-0.3-0.4-0.6-0.5c-0.1,0-0.3-0.1-0.8-0.1H131.9z M132.4,117.7c-0.6,0-1.1-0.2-1.5-0.7
					c-0.4-0.5-0.6-1.1-0.6-1.9c0-0.7,0.2-1.2,0.6-1.6c0.4-0.4,0.9-0.6,1.5-0.6c0.6,0,1.1,0.2,1.5,0.7c0.4,0.5,0.6,1.1,0.6,1.8
					c0,0.7-0.2,1.3-0.6,1.6C133.5,117.5,133,117.7,132.4,117.7z M132.3,113.3c-0.5,0-0.9,0.2-1.2,0.5c-0.3,0.3-0.4,0.8-0.4,1.3
					c0,0.7,0.2,1.3,0.5,1.6c0.3,0.4,0.7,0.6,1.2,0.6c0.5,0,0.9-0.2,1.2-0.5c0.3-0.3,0.5-0.8,0.5-1.4c0-0.7-0.2-1.2-0.5-1.6
					C133.2,113.5,132.8,113.3,132.3,113.3z"/>
			</g>
			<g>
				<path class="st5" d="M139.3,116.6c0,1.1,0.3,2,0.9,2.5c0.5,0.6,1.3,0.9,2.1,0.9c0.4,0,0.8-0.1,1.2-0.2c0.4-0.1,0.8-0.3,1.2-0.6
					l0.1,0.1l-0.3,0.7c-0.5,0.3-1,0.5-1.5,0.6c-0.5,0.1-1,0.2-1.5,0.2c-1.1,0-2.1-0.4-2.8-1.1c-0.7-0.7-1.1-1.7-1.1-3
					c0-1,0.2-1.8,0.6-2.5c0.3-0.5,0.7-0.9,1.4-1.3c0.7-0.4,1.4-0.6,2-0.6c1,0,1.8,0.3,2.4,0.9c0.6,0.6,0.9,1.4,0.9,2.5l0,0.5
					c-0.4,0.1-0.7,0.2-1.1,0.2c-0.6,0-1.4,0.1-2.5,0.1H139.3z M139.3,116c0.9,0,1.8,0.1,2.9,0.1c0.4,0,0.8,0,1.2-0.1v-0.5
					c0-0.5-0.1-1-0.3-1.4c-0.1-0.3-0.3-0.5-0.7-0.7c-0.3-0.2-0.7-0.3-1.1-0.3c-0.6,0-1.1,0.2-1.5,0.7
					C139.5,114.3,139.3,115,139.3,116z"/>
				<path class="st1" d="M141.5,121.1c-1.2,0-2.2-0.4-2.9-1.2c-0.7-0.8-1.1-1.8-1.1-3.1c0-1,0.2-1.8,0.6-2.6
					c0.3-0.5,0.8-0.9,1.5-1.3c0.7-0.4,1.4-0.6,2.1-0.6c1.1,0,1.9,0.3,2.5,0.9c0.6,0.6,0.9,1.5,0.9,2.6l0,0.7l-0.1,0
					c-0.4,0.1-0.8,0.2-1.1,0.2c-0.6,0-1.5,0.1-2.5,0.1h-1.9c0.1,1,0.3,1.7,0.8,2.2c0.5,0.5,1.2,0.8,2,0.8c0.4,0,0.7-0.1,1.1-0.2
					c0.4-0.1,0.7-0.3,1.1-0.6l0.1-0.1l0.4,0.3l-0.3,0.9l-0.1,0c-0.5,0.3-1,0.5-1.5,0.6C142.6,121.1,142,121.1,141.5,121.1z
					 M141.7,112.7c-0.6,0-1.3,0.2-1.9,0.6c-0.7,0.4-1.1,0.8-1.4,1.2c-0.4,0.7-0.6,1.5-0.6,2.4c0,1.2,0.3,2.1,1,2.8
					c0.7,0.7,1.5,1,2.6,1c0.5,0,1-0.1,1.5-0.2c0.5-0.1,0.9-0.3,1.3-0.6l0.1-0.4c-0.3,0.2-0.6,0.3-1,0.4c-0.4,0.1-0.8,0.2-1.2,0.2
					c-0.9,0-1.7-0.3-2.3-0.9c-0.6-0.6-0.9-1.5-0.9-2.7l0-0.2h2.3c1.1,0,1.9,0,2.5-0.1c0.3,0,0.6-0.1,0.9-0.1l0-0.3
					c0-1-0.3-1.8-0.8-2.3C143.4,113,142.7,112.7,141.7,112.7z M142.2,116.3c-1.1,0-2,0-2.9-0.1l-0.2,0l0-0.2c0-1,0.2-1.8,0.6-2.3
					c0.4-0.5,1-0.8,1.7-0.8c0.4,0,0.8,0.1,1.2,0.3c0.3,0.2,0.6,0.5,0.7,0.8c0.2,0.5,0.3,1,0.3,1.5v0.7l-0.2,0
					C143,116.2,142.6,116.3,142.2,116.3z M139.5,115.8c0.8,0,1.7,0.1,2.7,0.1c0.4,0,0.7,0,1,0v-0.3c0-0.5-0.1-0.9-0.3-1.3
					c-0.1-0.2-0.3-0.4-0.6-0.6c-0.3-0.2-0.6-0.2-1-0.2c-0.6,0-1,0.2-1.4,0.6C139.7,114.4,139.5,115,139.5,115.8z"/>
			</g>
			<g>
				<path class="st5" d="M97.4,125.4c-0.2,0.6-0.2,1.4-0.3,2.3h-0.6v-0.7c0-0.4-0.1-0.7-0.2-0.9c-0.1-0.2-0.4-0.3-0.9-0.5
					c-0.5-0.2-1-0.3-1.6-0.3c-0.9,0-1.6,0.2-2.1,0.7c-0.5,0.5-0.8,1-0.8,1.8c0,0.5,0.1,0.8,0.3,1.2c0.2,0.3,0.5,0.6,0.9,0.7
					c0.4,0.1,1.1,0.3,2.3,0.4c1.2,0.1,2,0.3,2.4,0.4c0.4,0.2,0.7,0.5,1,0.9c0.2,0.4,0.4,0.9,0.4,1.5c0,1.1-0.5,2.1-1.4,2.9
					c-1,0.8-2.2,1.2-3.8,1.2c-0.5,0-1.1-0.1-1.6-0.2c-0.6-0.1-1.1-0.3-1.7-0.5c0.1-0.7,0.2-1.5,0.1-2.6h0.6v0.4c0,0.5,0,0.9,0.1,1
					c0.1,0.1,0.2,0.3,0.4,0.4c0.3,0.2,0.7,0.4,1.1,0.5c0.4,0.1,0.9,0.2,1.4,0.2c1.1,0,1.9-0.3,2.5-0.8c0.6-0.5,0.9-1.1,0.9-1.9
					c0-0.5-0.1-0.8-0.3-1.1c-0.2-0.3-0.5-0.5-0.8-0.7s-1-0.3-2-0.3c-1.3-0.1-2.1-0.3-2.6-0.5c-0.5-0.2-0.8-0.5-1.1-1
					c-0.3-0.4-0.4-1-0.4-1.6c0-1.1,0.4-2,1.2-2.7c0.8-0.7,1.9-1.1,3.3-1.1c0.6,0,1.1,0.1,1.7,0.2C96.2,125,96.8,125.2,97.4,125.4z"
					/>
				<path class="st1" d="M92.9,137.3c-0.6,0-1.1-0.1-1.7-0.2c-0.6-0.1-1.1-0.3-1.7-0.5l-0.1-0.1l0-0.2c0.1-0.7,0.1-1.5,0.1-2.6
					l0-0.2h1v0.6c0,0.7,0,0.9,0.1,0.9c0,0.1,0.1,0.2,0.3,0.3c0.3,0.2,0.6,0.4,1,0.5c0.4,0.1,0.9,0.2,1.3,0.2c1,0,1.8-0.2,2.3-0.7
					c0.5-0.5,0.8-1,0.8-1.8c0-0.4-0.1-0.8-0.3-1c-0.2-0.3-0.4-0.5-0.7-0.6c-0.3-0.1-1-0.3-1.9-0.3c-1.3-0.1-2.2-0.3-2.7-0.5
					c-0.5-0.2-0.9-0.6-1.2-1c-0.3-0.5-0.4-1.1-0.4-1.7c0-1.2,0.4-2.1,1.3-2.9c0.8-0.7,2-1.1,3.4-1.1c0.6,0,1.2,0.1,1.7,0.2
					c0.6,0.1,1.2,0.3,1.7,0.6l0.2,0.1l0,0.2c-0.2,0.6-0.2,1.3-0.2,2.3l0,0.2h-1v-0.9c0-0.5-0.1-0.7-0.1-0.8
					c-0.1-0.1-0.2-0.2-0.8-0.4c-0.5-0.2-1-0.3-1.5-0.3c-0.9,0-1.5,0.2-2,0.6c-0.5,0.4-0.7,1-0.7,1.6c0,0.4,0.1,0.8,0.3,1.1
					c0.2,0.3,0.4,0.5,0.8,0.6c0.3,0.1,1.1,0.3,2.2,0.4c1.2,0.1,2,0.3,2.4,0.5c0.4,0.2,0.8,0.5,1.1,1c0.3,0.4,0.4,1,0.4,1.6
					c0,1.2-0.5,2.2-1.5,3.1C95.8,136.9,94.5,137.3,92.9,137.3z M89.8,136.3c0.5,0.2,1,0.3,1.5,0.4c0.5,0.1,1.1,0.2,1.6,0.2
					c1.5,0,2.8-0.4,3.7-1.2c0.9-0.8,1.4-1.7,1.4-2.8c0-0.5-0.1-1-0.3-1.4c-0.2-0.4-0.5-0.7-0.9-0.8c-0.4-0.2-1.2-0.3-2.3-0.4
					c-1.2-0.1-2-0.2-2.3-0.4c-0.4-0.2-0.7-0.4-0.9-0.8c-0.2-0.4-0.4-0.8-0.4-1.3c0-0.8,0.3-1.4,0.8-1.9c0.6-0.5,1.3-0.7,2.3-0.7
					c0.6,0,1.1,0.1,1.6,0.3c0.6,0.2,0.9,0.4,1,0.6c0.1,0.2,0.2,0.5,0.2,1v0.5h0.2c0-0.8,0.1-1.5,0.2-2c-0.5-0.2-1-0.4-1.5-0.5
					c-0.6-0.1-1.1-0.2-1.7-0.2c-1.4,0-2.4,0.3-3.2,1c-0.8,0.7-1.1,1.5-1.1,2.6c0,0.6,0.1,1.1,0.4,1.5c0.2,0.4,0.6,0.7,1,0.9
					c0.4,0.2,1.3,0.3,2.5,0.4c1,0.1,1.7,0.2,2,0.4c0.4,0.2,0.7,0.4,0.9,0.8c0.2,0.3,0.3,0.8,0.3,1.3c0,0.8-0.3,1.5-0.9,2.1
					c-0.6,0.5-1.5,0.8-2.6,0.8c-0.5,0-1-0.1-1.4-0.2c-0.4-0.1-0.8-0.3-1.2-0.5c-0.2-0.2-0.4-0.3-0.5-0.5c0-0.1-0.1-0.3-0.1-1.1v-0.2
					h-0.2C89.9,135,89.9,135.7,89.8,136.3z"/>
			</g>
			<g>
				<path class="st5" d="M98.5,132.9c0-0.8,0.2-1.5,0.5-2.1c0.4-0.6,0.9-1.1,1.5-1.5c0.7-0.4,1.4-0.5,2.2-0.5c1.2,0,2.2,0.4,2.9,1.1
					c0.7,0.7,1.1,1.7,1.1,2.9c0,1.4-0.5,2.5-1.4,3.3c-0.8,0.7-1.9,1.1-3,1.1c-1.1,0-2.1-0.4-2.8-1.1
					C98.9,135.2,98.5,134.2,98.5,132.9z M100.1,132.3c0,1.2,0.2,2.2,0.7,3c0.5,0.8,1.2,1.2,2.1,1.2c0.7,0,1.2-0.3,1.7-0.8
					c0.4-0.5,0.6-1.3,0.6-2.4c0-0.9-0.1-1.6-0.4-2.2c-0.2-0.6-0.6-1.1-1-1.4c-0.4-0.3-0.9-0.4-1.4-0.4c-0.4,0-0.9,0.1-1.2,0.3
					c-0.4,0.2-0.6,0.5-0.8,0.9C100.2,131.1,100.1,131.7,100.1,132.3z"/>
				<path class="st1" d="M102.3,137.3c-1.2,0-2.2-0.4-2.9-1.2c-0.7-0.8-1.1-1.9-1.1-3.2c0-0.8,0.2-1.6,0.6-2.2
					c0.4-0.7,0.9-1.2,1.6-1.6c0.7-0.4,1.5-0.6,2.3-0.6c1.3,0,2.3,0.4,3,1.1c0.8,0.7,1.1,1.8,1.1,3c0,1.5-0.5,2.6-1.5,3.5
					C104.6,136.9,103.6,137.3,102.3,137.3z M102.8,128.9c-0.8,0-1.5,0.2-2.1,0.5c-0.6,0.3-1.1,0.8-1.4,1.4c-0.3,0.6-0.5,1.3-0.5,2
					c0,1.2,0.3,2.2,1,3c0.7,0.7,1.5,1.1,2.6,1.1c1.1,0,2.1-0.4,2.9-1.1c0.9-0.8,1.4-1.9,1.4-3.2c0-1.1-0.3-2-1-2.7
					C104.9,129.3,104,128.9,102.8,128.9z M102.9,136.7c-1,0-1.7-0.5-2.2-1.3c-0.5-0.9-0.7-1.9-0.7-3.1c0-0.6,0.1-1.2,0.4-1.8
					c0.2-0.4,0.5-0.7,0.9-1c0.4-0.2,0.8-0.4,1.3-0.4c0.5,0,1,0.2,1.5,0.5c0.4,0.3,0.8,0.8,1.1,1.5c0.3,0.6,0.4,1.4,0.4,2.3
					c0,1.1-0.2,1.9-0.7,2.5C104.2,136.4,103.6,136.7,102.9,136.7z M102.5,129.5c-0.4,0-0.8,0.1-1.1,0.3c-0.3,0.2-0.6,0.5-0.7,0.8
					c-0.2,0.5-0.3,1-0.3,1.6c0,1.1,0.2,2.1,0.7,2.9c0.4,0.8,1.1,1.1,1.9,1.1c0.6,0,1.1-0.2,1.5-0.7c0.4-0.5,0.6-1.2,0.6-2.2
					c0-0.8-0.1-1.5-0.4-2.1c-0.2-0.6-0.5-1-0.9-1.3C103.3,129.7,102.9,129.5,102.5,129.5z"/>
			</g>
			<g>
				<path class="st5" d="M113.8,135.7l0.2,0.2l-0.3,0.5c-0.4,0.2-0.8,0.4-1.2,0.5c-0.4,0.1-0.8,0.2-1.2,0.2c-0.8,0-1.5-0.2-2.1-0.5
					c-0.6-0.3-1-0.8-1.3-1.4c-0.3-0.6-0.5-1.3-0.5-2.1c0-0.7,0.1-1.4,0.4-1.9c0.2-0.5,0.6-1,1-1.3s1-0.6,1.6-0.9
					c0.5-0.2,1-0.3,1.6-0.3c0.4,0,0.8,0,1.1,0.1c0.3,0.1,0.7,0.2,1,0.4c-0.1,0.7-0.2,1.5-0.2,2.2h-0.5v-0.4c0-0.4-0.1-0.6-0.2-0.8
					c-0.1-0.1-0.3-0.3-0.7-0.4c-0.4-0.1-0.8-0.2-1.2-0.2c-0.8,0-1.4,0.2-1.8,0.7c-0.4,0.5-0.6,1.2-0.6,2.1c0,1.2,0.3,2.1,0.9,2.9
					c0.5,0.6,1.3,1,2.1,1c0.3,0,0.7,0,1-0.1C113.2,136,113.5,135.9,113.8,135.7z"/>
				<path class="st1" d="M111.3,137.3c-0.9,0-1.6-0.2-2.2-0.5c-0.6-0.3-1.1-0.8-1.4-1.5c-0.3-0.6-0.5-1.4-0.5-2.2
					c0-0.8,0.1-1.4,0.4-2c0.3-0.6,0.6-1,1.1-1.3c0.4-0.3,1-0.6,1.7-0.9c0.5-0.2,1-0.3,1.6-0.3c0.4,0,0.8,0,1.2,0.1
					c0.3,0.1,0.7,0.2,1.1,0.4l0.1,0.1l0,0.1c-0.1,0.7-0.2,1.5-0.2,2.2l0,0.2h-0.9v-0.6c0-0.4-0.1-0.6-0.1-0.7c0-0.1-0.2-0.2-0.6-0.4
					c-0.3-0.1-0.7-0.2-1.1-0.2c-0.7,0-1.2,0.2-1.6,0.6c-0.4,0.4-0.6,1.1-0.6,2c0,1.1,0.3,2.1,0.9,2.7c0.5,0.6,1.2,0.9,2,0.9
					c0.3,0,0.6,0,1-0.1c0.3-0.1,0.6-0.2,0.9-0.4l0.1-0.1l0.5,0.4l-0.5,0.7l0,0c-0.4,0.2-0.8,0.4-1.2,0.5
					C112.2,137.3,111.7,137.3,111.3,137.3z M111.9,128.9c-0.5,0-1,0.1-1.5,0.3c-0.6,0.3-1.2,0.6-1.6,0.9c-0.4,0.3-0.7,0.7-1,1.2
					c-0.2,0.5-0.3,1.1-0.3,1.8c0,0.8,0.2,1.5,0.5,2c0.3,0.6,0.7,1,1.3,1.3c0.5,0.3,1.2,0.5,2,0.5c0.4,0,0.8-0.1,1.2-0.2
					c0.4-0.1,0.7-0.2,1.1-0.4l0.2-0.4l0,0c-0.3,0.1-0.6,0.3-0.9,0.3c-0.3,0.1-0.7,0.1-1.1,0.1c-0.9,0-1.7-0.4-2.3-1
					c-0.6-0.8-1-1.8-1-3c0-1,0.2-1.7,0.7-2.2c0.4-0.5,1.1-0.8,1.9-0.8c0.5,0,0.9,0.1,1.3,0.2c0.4,0.2,0.7,0.3,0.8,0.5
					c0.1,0.2,0.2,0.5,0.2,0.9v0.2h0.1c0-0.6,0.1-1.3,0.2-1.9c-0.3-0.1-0.6-0.2-0.8-0.3C112.7,129,112.3,128.9,111.9,128.9z"/>
			</g>
			<g>
				<path class="st5" d="M117.5,128.7l0.2,0.1c0,0.4-0.1,0.9-0.1,1.4c0,1.7-0.1,2.9-0.1,3.7c0,0.7,0,1.4,0.1,1.9
					c0,0.2,0.1,0.3,0.2,0.4c0.1,0.1,0.3,0.1,0.6,0.2l0.6,0.1v0.5c-0.8,0-1.6-0.1-2.3-0.1c-0.7,0-1.3,0-2,0.1v-0.5l0.7-0.1
					c0.3,0,0.5-0.1,0.5-0.2c0.1-0.1,0.1-0.4,0.1-0.8c0-0.7,0-1.7,0-3c0-0.9,0-1.6,0-2c0-0.2-0.1-0.3-0.1-0.4
					c-0.1-0.1-0.3-0.1-0.6-0.1h-0.6v-0.5c0.7-0.1,1.2-0.2,1.5-0.3C116.5,129.1,116.9,128.9,117.5,128.7z M116.8,125
					c0.3,0,0.5,0.1,0.7,0.3c0.2,0.2,0.3,0.4,0.3,0.7c0,0.3-0.1,0.5-0.3,0.7c-0.2,0.2-0.4,0.3-0.7,0.3c-0.3,0-0.5-0.1-0.7-0.3
					c-0.2-0.2-0.3-0.4-0.3-0.7c0-0.3,0.1-0.5,0.3-0.7C116.3,125,116.5,125,116.8,125z"/>
				<path class="st1" d="M114.5,137.2v-0.9l0.9-0.1c0.3,0,0.4-0.1,0.4-0.1c0,0,0.1-0.1,0.1-0.7c0-0.7,0-1.7,0-3c0-0.9,0-1.5,0-2
					c0-0.1,0-0.2-0.1-0.2c0,0-0.1-0.1-0.5-0.1h-0.8v-0.9l0.2,0c0.7-0.1,1.2-0.2,1.5-0.3c0.3-0.1,0.7-0.2,1.2-0.4l0.1,0l0.4,0.2
					l0,0.1c0,0.4-0.1,0.9-0.1,1.4c0,1.6-0.1,2.9-0.1,3.7c0,0.7,0,1.4,0.1,1.9c0,0.2,0.1,0.3,0.1,0.3c0,0,0.1,0.1,0.5,0.1l0.8,0.1
					v0.9l-0.2,0c-0.8,0-1.6-0.1-2.2-0.1c-0.7,0-1.3,0-2,0.1L114.5,137.2z M116.7,136.7c0.6,0,1.3,0,2.1,0.1v-0.1l-0.4-0.1
					c-0.4,0-0.6-0.1-0.7-0.2c-0.1-0.1-0.2-0.3-0.2-0.5c-0.1-0.5-0.1-1.2-0.1-1.9c0-0.8,0-2,0.1-3.7c0-0.5,0-0.9,0.1-1.3l0,0
					c-0.5,0.2-0.9,0.3-1.2,0.4c-0.3,0.1-0.8,0.2-1.4,0.3v0.1h0.4c0.4,0,0.6,0,0.7,0.2c0.1,0.1,0.2,0.3,0.2,0.5c0,0.5,0,1.2,0,2
					c0,1.3,0,2.3,0,3c0,0.7-0.1,0.8-0.2,0.9c-0.1,0.1-0.3,0.2-0.7,0.2l-0.5,0.1v0.1C115.5,136.7,116.1,136.7,116.7,136.7z
					 M116.8,127.1c-0.3,0-0.6-0.1-0.8-0.3c-0.2-0.2-0.3-0.5-0.3-0.8c0-0.3,0.1-0.6,0.3-0.8c0.2-0.2,0.5-0.3,0.8-0.3
					c0.3,0,0.6,0.1,0.8,0.3c0.2,0.2,0.3,0.5,0.3,0.8c0,0.3-0.1,0.6-0.3,0.8C117.4,127,117.1,127.1,116.8,127.1z M116.8,125.1
					c-0.2,0-0.4,0.1-0.5,0.2c-0.2,0.2-0.2,0.3-0.2,0.5c0,0.2,0.1,0.4,0.2,0.5c0.3,0.3,0.8,0.3,1.1,0c0.1-0.1,0.2-0.3,0.2-0.5
					c0-0.2-0.1-0.4-0.2-0.5C117.2,125.2,117,125.1,116.8,125.1z"/>
			</g>
			<g>
				<path class="st5" d="M121,132.8c0,1.1,0.3,2,0.9,2.5s1.3,0.9,2.1,0.9c0.4,0,0.8-0.1,1.2-0.2c0.4-0.1,0.8-0.3,1.2-0.6l0.1,0.1
					l-0.3,0.7c-0.5,0.3-1,0.5-1.5,0.6c-0.5,0.1-1,0.2-1.5,0.2c-1.1,0-2.1-0.4-2.8-1.1c-0.7-0.7-1.1-1.7-1.1-3c0-1,0.2-1.8,0.6-2.5
					c0.3-0.5,0.7-0.9,1.4-1.3c0.7-0.4,1.4-0.6,2-0.6c1,0,1.8,0.3,2.4,0.9c0.6,0.6,0.9,1.4,0.9,2.5l0,0.5c-0.4,0.1-0.7,0.2-1.1,0.2
					c-0.6,0-1.4,0.1-2.5,0.1H121z M121,132.2c0.9,0,1.8,0.1,2.9,0.1c0.4,0,0.8,0,1.2-0.1v-0.5c0-0.5-0.1-1-0.3-1.4
					c-0.1-0.3-0.3-0.5-0.7-0.7c-0.3-0.2-0.7-0.3-1.1-0.3c-0.6,0-1.1,0.2-1.5,0.7C121.2,130.5,121,131.2,121,132.2z"/>
				<path class="st1" d="M123.2,137.3c-1.2,0-2.2-0.4-2.9-1.2c-0.7-0.8-1.1-1.8-1.1-3.1c0-1,0.2-1.8,0.6-2.6
					c0.3-0.5,0.8-0.9,1.5-1.3c0.7-0.4,1.4-0.6,2.1-0.6c1.1,0,1.9,0.3,2.5,0.9c0.6,0.6,0.9,1.5,0.9,2.6l0,0.7l-0.1,0
					c-0.4,0.1-0.8,0.2-1.1,0.2c-0.6,0-1.5,0.1-2.5,0.1h-1.9c0.1,1,0.3,1.7,0.8,2.2c0.5,0.5,1.2,0.8,2,0.8c0.4,0,0.7-0.1,1.1-0.2
					c0.4-0.1,0.7-0.3,1.1-0.6l0.1-0.1l0.4,0.3l-0.3,0.9l-0.1,0c-0.5,0.3-1,0.5-1.5,0.6C124.3,137.2,123.7,137.3,123.2,137.3z
					 M123.4,128.9c-0.6,0-1.3,0.2-1.9,0.6c-0.7,0.4-1.1,0.8-1.4,1.2c-0.4,0.7-0.6,1.5-0.6,2.4c0,1.2,0.3,2.1,1,2.8
					c0.7,0.7,1.5,1,2.6,1c0.5,0,1-0.1,1.5-0.2c0.5-0.1,0.9-0.3,1.3-0.6l0.1-0.4c-0.3,0.2-0.6,0.3-1,0.4c-0.4,0.1-0.8,0.2-1.2,0.2
					c-0.9,0-1.7-0.3-2.3-0.9c-0.6-0.6-0.9-1.5-0.9-2.7l0-0.2h2.3c1.1,0,1.9,0,2.5-0.1c0.3,0,0.6-0.1,0.9-0.1l0-0.3
					c0-1-0.3-1.8-0.8-2.3C125.1,129.2,124.4,128.9,123.4,128.9z M123.9,132.5c-1.1,0-2,0-2.9-0.1l-0.2,0l0-0.2c0-1,0.2-1.8,0.6-2.3
					c0.4-0.5,1-0.8,1.7-0.8c0.4,0,0.8,0.1,1.2,0.3c0.3,0.2,0.6,0.5,0.7,0.8c0.2,0.5,0.3,1,0.3,1.5v0.7l-0.2,0
					C124.7,132.4,124.3,132.5,123.9,132.5z M121.2,132c0.8,0,1.7,0.1,2.7,0.1c0.4,0,0.7,0,1,0v-0.3c0-0.5-0.1-0.9-0.3-1.3
					c-0.1-0.2-0.3-0.4-0.6-0.6c-0.3-0.2-0.6-0.2-1-0.2c-0.6,0-1,0.2-1.4,0.6C121.4,130.6,121.2,131.2,121.2,132z"/>
			</g>
			<g>
				<path class="st5" d="M129.9,130.3v3.3c0,0.9,0,1.4,0.1,1.7s0.2,0.4,0.3,0.6c0.2,0.1,0.4,0.2,0.7,0.2c0.2,0,0.3,0,0.5-0.1
					c0.2-0.1,0.3-0.2,0.5-0.3l0.2,0.3l-0.8,1c-0.2,0.1-0.4,0.1-0.5,0.1s-0.3,0.1-0.5,0.1c-0.4,0-0.8-0.1-1.1-0.2
					c-0.3-0.1-0.5-0.3-0.6-0.6c-0.1-0.2-0.2-0.6-0.2-1.1l0-1.6v-3.2c-0.4,0-0.9,0-1.3,0.1v-0.4c0.5-0.2,0.9-0.4,1.3-0.6
					c0-0.8,0-1.7-0.1-2.6c0.7-0.3,1.1-0.5,1.4-0.7l0.2,0.2c0,0.4-0.1,1.5-0.1,3.1c0.7,0,1.3,0,1.7,0l0.7,0l-0.1,0.9l-0.3,0l-1.6,0
					H129.9z"/>
				<path class="st1" d="M130.3,137.3c-0.5,0-0.8-0.1-1.2-0.2c-0.3-0.2-0.6-0.4-0.7-0.7c-0.1-0.3-0.2-0.7-0.2-1.2l0-1.6v-3
					c-0.4,0-0.7,0-1.1,0.1l-0.2,0v-0.7l0.1,0c0.4-0.2,0.8-0.3,1.2-0.5c0-0.8,0-1.6-0.1-2.5l0-0.1l0.1-0.1c0.6-0.3,1.1-0.5,1.4-0.7
					l0.1-0.1l0.4,0.3l0,0.1c0,0.4-0.1,1.4-0.1,2.9c0.6,0,1.1,0,1.5,0l0.9,0l-0.1,1.3l-0.5,0l-1.7,0v3.1c0,1.1,0,1.5,0.1,1.6
					c0,0.2,0.1,0.4,0.3,0.5c0.2,0.2,0.6,0.2,0.9,0.1c0.1-0.1,0.3-0.1,0.4-0.3l0.2-0.1l0.5,0.6l-1,1.1l-0.1,0
					c-0.2,0.1-0.4,0.1-0.6,0.2C130.7,137.3,130.5,137.3,130.3,137.3z M128.5,130.2h0.2v3.4l0,1.6c0,0.4,0.1,0.8,0.2,1
					c0.1,0.2,0.3,0.4,0.5,0.5c0.4,0.2,0.9,0.3,1.4,0.2c0.1,0,0.3-0.1,0.5-0.1l0.7-0.8l0,0c-0.1,0.1-0.2,0.2-0.4,0.2
					c-0.2,0.1-0.4,0.1-0.6,0.1c-0.3,0-0.6-0.1-0.8-0.2c-0.2-0.2-0.3-0.4-0.4-0.7c-0.1-0.3-0.1-0.8-0.1-1.7v-3.5l2.3,0l0-0.5l-0.4,0
					c-0.4,0-1,0-1.7,0h-0.2l0-0.2c0-1.5,0.1-2.5,0.1-3l0,0c-0.3,0.2-0.7,0.3-1.2,0.6c0,0.9,0.1,1.7,0.1,2.5l0,0.1l-0.1,0.1
					c-0.4,0.2-0.8,0.4-1.2,0.5v0C127.7,130.2,128.1,130.2,128.5,130.2z"/>
			</g>
			<g>
				<path class="st5" d="M132.4,141.5l0.4-1.3h0.2c0.2,0.2,0.3,0.3,0.5,0.4c0.2,0.1,0.3,0.1,0.5,0.1c0.4,0,0.7-0.2,1-0.5
					c0.3-0.3,0.7-1.3,1.3-2.8c-0.2-0.7-0.7-1.9-1.5-3.8l-0.8-1.9l-0.6-1.5c-0.2-0.5-0.5-0.8-0.9-0.8h-0.3v-0.5
					c0.6,0,1.1,0.1,1.6,0.1c0.4,0,1.2,0,2.5-0.1v0.5h-0.6c-0.2,0-0.4,0-0.5,0.1c-0.1,0.1-0.1,0.2-0.1,0.3c0,0.1,0.1,0.3,0.2,0.6
					c0.6,1.6,1.2,3.3,2,5.1c0.7-1.6,1.4-3.2,1.9-4.8c0.2-0.4,0.2-0.7,0.2-0.8c0-0.2-0.2-0.3-0.6-0.4l-0.6-0.1v-0.5
					c0.7,0,1.3,0.1,1.8,0.1c0.5,0,1,0,1.5-0.1v0.5H141c-0.1,0-0.3,0-0.4,0.1c-0.1,0.1-0.2,0.2-0.3,0.3c-0.2,0.3-0.7,1.4-1.6,3.3
					c-0.2,0.5-0.8,1.9-1.8,4.3c-0.9,2-1.3,3-1.5,3.2c-0.2,0.4-0.5,0.7-0.8,0.9c-0.3,0.2-0.7,0.3-1.1,0.3c-0.2,0-0.3,0-0.5-0.1
					C132.8,141.7,132.6,141.6,132.4,141.5z"/>
				<path class="st1" d="M133.5,142c-0.2,0-0.4,0-0.6-0.1c-0.2-0.1-0.4-0.1-0.6-0.2l-0.1-0.1l0.5-1.6h0.4l0.1,0.1
					c0.1,0.2,0.3,0.3,0.4,0.4c0.1,0.1,0.2,0.1,0.4,0.1c0.3,0,0.6-0.1,0.8-0.4c0.3-0.3,0.7-1.2,1.3-2.7c-0.3-0.7-0.7-1.9-1.5-3.7
					l-0.8-1.9l-0.6-1.5c-0.3-0.7-0.6-0.7-0.7-0.7h-0.5v-0.9l0.2,0c0.6,0,1.1,0.1,1.5,0.1c0.4,0,1.2,0,2.4-0.1l0.2,0v0.9h-0.8
					c-0.2,0-0.3,0-0.4,0.1c-0.1,0-0.1,0.1-0.1,0.1c0,0,0,0.1,0.1,0.5c0.5,1.4,1.1,3,1.8,4.6c0.7-1.5,1.3-2.9,1.8-4.3
					c0.2-0.6,0.2-0.7,0.2-0.7c0,0-0.1-0.1-0.4-0.2l-0.8-0.1v-0.9l0.2,0c0.7,0,1.3,0.1,1.8,0.1c0.5,0,1,0,1.5-0.1l0.2,0v0.9H141
					c-0.1,0-0.2,0-0.3,0.1c-0.1,0.1-0.2,0.1-0.3,0.3c-0.2,0.3-0.7,1.4-1.6,3.3c-0.2,0.5-0.8,1.9-1.8,4.3c-0.9,2-1.4,3-1.5,3.2
					c-0.2,0.4-0.5,0.7-0.9,0.9C134.3,141.9,133.9,142,133.5,142z M132.7,141.4c0.1,0.1,0.2,0.1,0.3,0.1c0.5,0.2,1,0,1.5-0.2
					c0.3-0.2,0.6-0.4,0.8-0.8c0.1-0.1,0.4-0.8,1.4-3.2c1-2.3,1.6-3.7,1.8-4.3c0.9-1.9,1.4-3,1.6-3.3c0.1-0.2,0.2-0.3,0.4-0.4
					c0.2-0.1,0.3-0.1,0.5-0.1h0.1v-0.1c-0.9,0.1-1.8,0.1-2.9,0v0.1l0.5,0.1c0.5,0.1,0.7,0.3,0.7,0.6c0,0.1,0,0.3-0.3,0.9
					c-0.6,1.5-1.2,3.1-2,4.8l-0.2,0.4l-0.2-0.4c-0.8-1.8-1.5-3.5-2-5.1c-0.2-0.4-0.2-0.6-0.2-0.7c0-0.1,0-0.3,0.2-0.4
					c0.1-0.1,0.3-0.1,0.6-0.1h0.4v-0.1c-1.2,0-1.9,0.1-2.3,0.1c-0.4,0-0.9,0-1.4,0v0.1h0.1c0.5,0,0.8,0.3,1.1,0.9l0.6,1.5l0.8,1.9
					c0.8,1.9,1.2,3.1,1.5,3.8l0,0.1l0,0.1c-0.6,1.6-1.1,2.5-1.4,2.9c-0.3,0.4-0.7,0.6-1.1,0.6c-0.2,0-0.4-0.1-0.6-0.2
					c-0.1-0.1-0.3-0.2-0.4-0.4L132.7,141.4z"/>
			</g>
		</g>
		<g id="bottom_point_1_">
			<g>
				<polygon class="st0" points="105.5,151.2 113.5,152.3 121.8,151.2 113.5,190.8 				"/>
				<path d="M121.4,151.5l-7.9,37.8l-7.6-37.8l7.5,1.1l0.1,0l0.1,0L121.4,151.5 M122.1,150.8l-8.7,1.2l-8.3-1.2l8.3,41.5
					L122.1,150.8L122.1,150.8z"/>
			</g>
			<polygon class="st4" points="113.5,152 113.5,191.9 122.1,150.8 			"/>
			<path d="M121.2,151.7l-7.7,36.7l-7.3-36.7l7.3,0.6l0.1,0l0.1,0L121.2,151.7 M122.1,150.8l-8.7,0.7l-8.3-0.7l8.3,41.5L122.1,150.8
				L122.1,150.8z"/>
		</g>
		<g id="inner_circle_1_">
			<g>
				<path d="M113.5,152.6c-8.4,0-16.4-2.6-23.1-7.7c-6.4-4.8-11.2-11.5-13.6-19H54.7v-1.2h23l0.1,0.4c4.9,15.7,19.2,26.2,35.7,26.2
					s30.8-10.5,35.7-26.2l0.1-0.4h23v1.2h-22.1c-2.4,7.5-7.2,14.2-13.6,19C129.8,149.9,121.8,152.6,113.5,152.6z"/>
			</g>
			<g>
				<path d="M172.2,103.4h-23l-0.1-0.4c-4.9-15.7-19.2-26.2-35.7-26.2S82.7,87.3,77.8,103l-0.1,0.4h-23v-1.2h22.1
					c2.4-7.5,7.2-14.2,13.6-19c6.7-5,14.7-7.7,23.1-7.7s16.4,2.6,23.1,7.7c6.4,4.8,11.2,11.5,13.6,19h22.1V103.4z"/>
			</g>
		</g>
	</g>
</g>
</svg>
