<?xml version="1.0" encoding="utf-8"?>
<!-- Generator: Adobe Illustrator 21.0.2, SVG Export Plug-In . SVG Version: 6.00 Build 0)  -->
<svg version="1.1" id="Layer_1" xmlns="http://www.w3.org/2000/svg" xmlns:xlink="http://www.w3.org/1999/xlink" x="0px" y="0px"
	 viewBox="0 0 100 100" style="enable-background:new 0 0 100 100;" xml:space="preserve">
<style type="text/css">
	.st0{fill:#FFFFFF;}
	.st1{fill:#981B1E;}
	.st2{fill:#CCCCCC;}
	.st3{fill:#BF1E2E;}
	.st4{fill:#475A84;}
	.st5{fill:#C1272D;}
</style>
<g id="Layer_2">
	<circle class="st0" cx="50" cy="50" r="50"/>
</g>
<g>
	<g id="red_circle_2_">
		<path class="st1" d="M49.7,76.1c-13.3,0-24.1-10.8-24.1-24.1C25.6,38.8,36.4,28,49.7,28s24.1,10.8,24.1,24.1
			C73.7,65.3,62.9,76.1,49.7,76.1z M49.7,29.6c-12.4,0-22.5,10.1-22.5,22.5c0,12.4,10.1,22.5,22.5,22.5s22.5-10.1,22.5-22.5
			C72.2,39.7,62.1,29.6,49.7,29.6z"/>
	</g>
	<g id="lighthouse_2_">
		<polyline class="st2" points="47.2,14.2 47.2,19.4 52.1,19.4 52.1,14.2 		"/>
		<path d="M52,14.2v1c-0.4-0.1-0.7-0.1-1-0.2v-1h-0.3V15c-0.7-0.1-1.4-0.1-1.9,0v-0.9h-0.3v1c-0.5,0.1-0.8,0.1-1,0.2v-1H47v5.3h5.3
			v-5.3H52z M48.7,17.5c0.5,0,1.2-0.1,1.9,0v0.7h-1.9V17.5z M48.7,17.1v-0.7c0.5,0,1.2-0.1,1.9,0v0.7C49.9,17.1,49.2,17.1,48.7,17.1
			z M47.3,16.7c0.2,0,0.5-0.1,1-0.2v0.7c-0.5,0.1-0.8,0.1-1,0.2V16.7z M50.9,16.5c0.3,0,0.7,0.1,1,0.2v0.7c-0.4-0.1-0.7-0.1-1-0.2
			V16.5z M52,15.6v0.7c-0.4-0.1-0.7-0.1-1-0.2v-0.7C51.3,15.4,51.6,15.5,52,15.6z M50.6,15.3v0.7c-0.7-0.1-1.4-0.1-1.9,0v-0.7
			C49.2,15.3,49.9,15.3,50.6,15.3z M48.4,15.4v0.7c-0.5,0.1-0.8,0.1-1,0.2v-0.7C47.5,15.5,47.9,15.4,48.4,15.4z M47.3,19.2v-1.5
			c0.2,0,0.5-0.1,1-0.2v1.1h2.6v-1c0.3,0,0.7,0.1,1,0.2v1.5H47.3z"/>
		<polyline class="st0" points="45.3,36.4 46.2,20.6 53.1,20.6 54,36.2 		"/>
		<polygon points="45.5,36.4 45.2,36.4 46.1,20.4 53.2,20.4 54.2,36.2 53.8,36.3 52.9,20.7 46.4,20.7 		"/>
		<g id="Window_2_">
			<rect x="47.1" y="27.1" width="0.5" height="1.9"/>
		</g>
		<g id="Window_1_">
			<rect x="51.6" y="32.4" width="0.5" height="1.9"/>
		</g>
		<g>
			<path class="st3" d="M46.7,20.8c-0.5,0-0.9-0.3-1.1-0.8c-0.2-0.6,0.1-1.2,0.7-1.4c2.2-0.7,4.4-0.7,6.7,0c0.6,0.2,0.9,0.8,0.8,1.4
				c-0.2,0.6-0.8,0.9-1.4,0.8c-1.8-0.5-3.6-0.5-5.4,0C46.9,20.8,46.8,20.8,46.7,20.8z"/>
		</g>
		<g>
			<path d="M45.8,21.6c-0.3,0-0.6-0.2-0.7-0.5c-0.1-0.4,0.1-0.7,0.5-0.8c2.6-0.6,5.4-0.6,8.1,0c0.4,0.1,0.6,0.5,0.5,0.8
				c-0.1,0.4-0.5,0.6-0.8,0.5c-2.5-0.6-5-0.6-7.5,0C45.9,21.6,45.8,21.6,45.8,21.6z"/>
		</g>
		<path class="st3" d="M52.7,14c-0.2,0-0.3-0.1-0.5-0.1c-0.4-0.8-1.2-1.6-2.3-1.7V12c0.2-0.1,0.4-0.3,0.4-0.5c0-0.3-0.3-0.6-0.7-0.6
			c-0.4,0-0.7,0.3-0.7,0.6c0,0.2,0.2,0.4,0.4,0.5v0.2c-1.2,0.1-1.9,0.9-2.4,1.7c-0.2,0-0.3,0.1-0.5,0.1c-0.2,0-0.3,0.2-0.3,0.4
			c0,0.2,0.2,0.3,0.3,0.3c0,0,0.1,0,0.1,0c1.9-0.5,3.9-0.5,5.9,0c0.2,0,0.4-0.1,0.4-0.3C53,14.2,52.9,14,52.7,14z"/>
	</g>
	<g id="white_circle_outside_1_">
		<path class="st0" d="M49.8,81c-15.9,0-28.9-13-28.9-28.9s13-28.9,28.9-28.9s28.9,13,28.9,28.9S65.8,81,49.8,81z M49.8,26.6
			c-14,0-25.5,11.4-25.5,25.5c0,14,11.4,25.5,25.5,25.5c14,0,25.5-11.4,25.5-25.5C75.3,38,63.9,26.6,49.8,26.6z"/>
	</g>
	<g>
		<g>
			<path class="st4" d="M33.5,28.8c0,0,0.1,0.1,0.3,0.2c0.1,0.1,0.1,0.1,0.2,0.2c-0.1,0-0.1,0.1-0.2,0.1c-0.2-0.1-0.4-0.1-0.6,0
				c-0.2,0-0.3,0.1-0.5,0.2c-0.2,0.1-0.3,0.3-0.3,0.6c0,0.3,0.1,0.6,0.3,0.9c0.1,0.2,0.3,0.3,0.3,0.3c0.1,0.1,0.3,0.1,0.4,0.2
				c0.1,0,0.2,0,0.3,0c0.1,0,0.3-0.1,0.4-0.2c0.1-0.1,0.2-0.2,0.3-0.4c0.1-0.2,0.1-0.4,0.1-0.6c0,0,0.1-0.1,0.2-0.1
				c0,0,0,0.1,0.1,0.1c0,0,0,0.1,0.1,0.2c0,0,0,0,0,0.1c0,0,0,0.1,0,0.1c0,0.1-0.1,0.2-0.2,0.3c-0.1,0.1-0.3,0.2-0.4,0.4
				c-0.1,0.1-0.3,0.2-0.4,0.3c-0.1,0.1-0.3,0.1-0.4,0.1c-0.2,0-0.4,0-0.5,0c-0.1,0-0.3-0.1-0.4-0.1c-0.1-0.1-0.2-0.2-0.3-0.3
				c-0.3-0.3-0.4-0.7-0.3-1.1c0.1-0.4,0.3-0.8,0.7-1c0.2-0.1,0.3-0.2,0.5-0.3C33.2,28.9,33.3,28.8,33.5,28.8z"/>
			<path class="st4" d="M35.2,30.5c0,0,0.1-0.1,0.1-0.1c0,0,0.1-0.1,0.1-0.1c0,0,0-0.1-0.1-0.1c0,0,0-0.1-0.1-0.1
				c0-0.1,0-0.1-0.1-0.1c0-0.1-0.1-0.1-0.1-0.1c0,0,0,0,0,0c0,0,0,0-0.1-0.1c0,0,0,0,0,0c-0.2-0.2-0.2-0.4-0.4-0.6c0,0,0,0,0,0
				c-0.1-0.2-0.2-0.3-0.3-0.4c0,0-0.1,0-0.1,0c0,0-0.1,0-0.2,0.1c0,0,0,0,0,0c0,0,0,0,0-0.1c0.1-0.1,0.1-0.1,0.1-0.1
				c0,0,0.1-0.1,0.1-0.1c0.1-0.1,0.1-0.2,0.2-0.3c0,0,0,0,0-0.1c0,0,0.1,0,0.1-0.1c0.3,0.4,0.4,0.6,0.6,1c0.1-0.2,0.1-0.3,0.2-0.4
				c0.1-0.1,0.2-0.2,0.3-0.2c0.1-0.1,0.2-0.1,0.3-0.1c0.1,0,0.2,0,0.2,0c0.1,0,0.1,0.1,0.2,0.1c0,0,0.1,0.1,0.2,0.3
				c0,0,0,0.1,0.1,0.1c0.1,0.1,0.1,0.1,0.1,0.2c0.1,0.1,0.1,0.2,0.2,0.4c0,0,0,0,0,0c0,0,0.1,0,0.1,0c0,0,0.1,0,0.1,0c0,0,0,0,0,0
				c0,0,0,0,0,0c0,0,0,0,0,0.1c0,0,0,0,0,0c0,0-0.1,0-0.1,0.1c-0.1,0-0.2,0.1-0.3,0.1c0,0-0.1,0.1-0.2,0.1c-0.1,0-0.1,0.1-0.2,0.1
				c0,0,0,0,0,0c0,0,0,0,0,0c0,0,0,0,0,0c0,0,0,0,0,0c0,0,0-0.1,0.1-0.1c0,0,0.1-0.1,0.1-0.1c0,0,0,0,0,0c-0.1-0.1-0.1-0.2-0.1-0.3
				c-0.1-0.2-0.2-0.3-0.3-0.4c-0.1-0.1-0.1-0.2-0.2-0.2c0,0-0.1-0.1-0.2-0.1c-0.1,0-0.1,0-0.2,0.1c-0.1,0-0.1,0.1-0.2,0.2
				c-0.1,0.1-0.1,0.2-0.1,0.2c0.1,0.1,0.1,0.2,0.2,0.3c0.1,0.2,0.2,0.3,0.2,0.4c0,0,0,0.1,0.1,0.1c0,0.1,0.1,0.1,0.1,0.2
				c0,0,0,0,0.1,0c0,0,0.1,0,0.1-0.1c0,0,0.1,0,0.1,0c0,0,0,0,0,0.1c0,0,0,0,0,0.1c-0.1,0-0.1,0.1-0.2,0.1c-0.1,0-0.1,0.1-0.2,0.1
				c-0.1,0.1-0.1,0.1-0.2,0.2c-0.1,0-0.1,0.1-0.2,0.1C35.3,30.6,35.3,30.6,35.2,30.5C35.2,30.5,35.2,30.5,35.2,30.5z"/>
			<path class="st4" d="M38.8,28.2C38.9,28.2,38.9,28.2,38.8,28.2C38.9,28.2,38.9,28.2,38.8,28.2C38.9,28.2,38.9,28.2,38.8,28.2
				c0.1,0.2,0.1,0.3,0.1,0.3c0,0.1-0.1,0.1-0.2,0.1c-0.1,0-0.1,0-0.2,0c-0.1,0-0.2-0.1-0.2-0.1c0,0.1-0.1,0.2-0.1,0.3
				c-0.1,0.1-0.2,0.2-0.3,0.3c-0.1,0.1-0.2,0.1-0.3,0.1c-0.1,0-0.2-0.1-0.2-0.2c0,0,0-0.1,0-0.1c0-0.1,0-0.1,0-0.2
				c0-0.1,0.1-0.1,0.1-0.2c0,0,0-0.1,0.1-0.1c0.2-0.2,0.2-0.3,0.4-0.4c0,0,0-0.1-0.1-0.1c-0.1-0.2-0.2-0.3-0.2-0.3c0,0-0.1,0-0.2,0
				c-0.1,0-0.1,0.1-0.2,0.1c0,0.1-0.1,0.1-0.1,0.2c0,0,0,0.1,0,0.2c0,0.1,0,0.1,0,0.1c0,0,0,0.1-0.1,0.1c0,0-0.1,0.1-0.1,0.1
				c-0.1,0.1-0.1,0.1-0.1,0.1c0,0,0,0-0.1,0c0-0.1-0.1-0.1,0-0.2c0-0.1,0-0.2,0.1-0.3c0.1-0.1,0.1-0.2,0.2-0.3
				c0.1-0.1,0.2-0.2,0.4-0.3c0.1-0.1,0.2-0.1,0.3-0.1c0.1,0,0.2,0,0.2,0.1c0.1,0.1,0.1,0.2,0.2,0.4c0.1,0.1,0.1,0.2,0.1,0.3
				c0,0.1,0.1,0.1,0.1,0.2c0,0,0,0,0,0.1c0,0.1,0,0.1,0.1,0.1c0,0,0,0,0.1,0c0,0,0,0,0,0C38.8,28.3,38.8,28.2,38.8,28.2
				C38.8,28.2,38.8,28.2,38.8,28.2z M38,28c-0.1,0.1-0.1,0.1-0.2,0.2c-0.1,0.1-0.1,0.2-0.1,0.3c0,0.1,0,0.1,0,0.2
				c0,0.1,0.1,0.1,0.1,0.1s0.1,0,0.1,0c0.1,0,0.1-0.1,0.2-0.1c0-0.1,0.1-0.1,0.1-0.2s0-0.1-0.1-0.3C38.1,28.2,38,28.1,38,28z"/>
			<path class="st4" d="M39.1,28.3C39.2,28.3,39.2,28.3,39.1,28.3c0.1-0.1,0.2-0.1,0.2-0.2c0,0,0,0,0-0.1c0,0,0-0.1-0.1-0.2
				c0-0.1,0-0.1-0.1-0.2c0-0.1,0-0.1-0.1-0.1c0-0.1-0.1-0.1-0.1-0.2c0,0,0-0.1-0.1-0.1c0-0.1-0.1-0.1-0.1-0.2c0,0,0,0-0.1,0
				c0,0-0.1,0-0.2,0c0,0,0-0.1,0-0.1c0,0,0,0,0,0c0,0,0.1,0,0.1-0.1c0.1-0.1,0.1-0.1,0.1-0.1c0,0,0,0,0,0c0,0,0,0,0-0.1
				c0,0,0.1-0.1,0.1-0.2c0,0,0.1,0,0.1-0.1c0,0.1,0.1,0.1,0.1,0.2c0,0,0,0,0,0.1c0,0,0,0,0,0.1c0.1-0.1,0.2-0.2,0.2-0.3
				c0.1-0.1,0.2-0.2,0.3-0.2c0.1-0.1,0.3-0.1,0.4,0c0.1,0,0.2,0.1,0.3,0.1c0.1,0.1,0.1,0.2,0.2,0.4c0.1,0.2,0.1,0.4,0.2,0.6
				c0,0,0,0.1,0,0.1c0,0,0.1,0,0.1,0c0,0,0.1,0,0.1,0c0,0,0,0,0,0.1c0,0,0,0,0,0.1c-0.2,0-0.2,0.1-0.4,0.1c0,0-0.1,0-0.1,0
				c0,0-0.1,0-0.1,0c-0.1,0-0.1,0.1-0.2,0.1c0,0,0,0-0.1,0c0,0,0,0,0,0c0,0,0-0.1,0-0.1c0,0,0.1,0,0.1-0.1c0,0,0,0,0.1,0
				c0,0,0,0,0,0c0,0,0-0.1,0-0.1c0-0.1-0.1-0.2-0.1-0.2c0-0.1,0-0.1-0.1-0.2c-0.1-0.3-0.2-0.4-0.2-0.5c-0.1-0.1-0.2-0.1-0.3,0
				c-0.1,0-0.1,0.1-0.2,0.1c-0.1,0.1-0.1,0.2-0.2,0.3c0,0,0,0,0,0c0,0,0,0.1,0.1,0.1c0,0.1,0,0.1,0,0.1c0.1,0.1,0.1,0.2,0.1,0.3
				c0,0,0,0,0,0c0.1,0.2,0.1,0.3,0.2,0.3c0,0,0.1,0,0.2,0c0,0,0,0,0,0c0,0,0,0,0,0.1c0,0-0.1,0-0.1,0c0,0-0.1,0-0.1,0
				c-0.1,0-0.1,0-0.2,0.1C39.5,28.3,39.4,28.3,39.1,28.3C39.2,28.4,39.2,28.4,39.1,28.3C39.2,28.4,39.1,28.4,39.1,28.3z"/>
			<path class="st4" d="M40.9,26.1c0.1-0.1,0.2-0.2,0.3-0.3c0.1-0.1,0.1-0.2,0.1-0.4c0,0,0.1,0,0.1,0c0,0,0,0.1,0.1,0.1
				c0,0.1,0,0.1,0,0.2c0,0,0,0.1,0,0.1c0,0,0,0,0,0c0,0,0,0,0,0c0,0,0.1,0,0.2-0.1c0,0,0.1,0,0.2-0.1c0,0,0,0.1,0,0.1
				c0,0,0,0.1,0,0.1c0,0-0.1,0-0.1,0c0,0,0,0-0.1,0c0,0-0.1,0-0.1,0c0,0,0,0,0,0c0,0-0.1,0-0.1,0c0.1,0.3,0.1,0.4,0.2,0.7
				c0,0.1,0.1,0.2,0.1,0.3c0,0,0,0.1,0.1,0.1c0,0,0.1,0,0.1,0c0,0,0.1,0,0.1,0c0,0,0,0,0.1-0.1c0,0,0,0,0,0c0,0,0.1,0,0.1,0
				c0,0,0,0,0,0c0,0.1-0.1,0.2-0.1,0.2c-0.1,0.1-0.2,0.1-0.2,0.1c-0.1,0-0.2,0-0.3,0c-0.1,0-0.2-0.2-0.2-0.3c0-0.1-0.1-0.2-0.1-0.3
				c-0.1-0.2-0.1-0.3-0.2-0.5c0,0,0,0-0.1,0c-0.1,0-0.1,0-0.1,0.1c0,0,0,0,0,0C40.9,26.2,40.9,26.2,40.9,26.1
				C40.9,26.2,40.9,26.1,40.9,26.1z"/>
			<path class="st4" d="M42.6,27.1C42.6,27,42.6,27,42.6,27.1c0.1-0.1,0.2-0.1,0.2-0.2c0,0,0-0.1-0.1-0.3c-0.1-0.3-0.2-0.5-0.2-0.7
				c0,0,0,0,0,0c0,0-0.1,0-0.2,0c0,0-0.1,0-0.1,0c0,0,0,0,0-0.1c0.1,0,0.2-0.1,0.3-0.2c0.1-0.1,0.1-0.1,0.1-0.2c0,0,0-0.1,0-0.1
				c0.1,0,0.1,0,0.1,0c0,0,0,0.1,0,0.1c0,0,0,0,0,0.1c0,0,0,0.1,0,0.1c0,0,0,0.1,0,0.2c0-0.1,0.1-0.2,0.1-0.2c0,0,0-0.1,0.1-0.1
				c0,0,0.1-0.1,0.2-0.1c0.1,0,0.1,0,0.2,0c0.1,0,0.1,0.1,0.1,0.1c0,0.1,0,0.1,0,0.2c0,0.1-0.1,0.1-0.1,0.1c-0.1,0-0.1,0-0.2,0
				c0,0-0.1,0-0.1,0c0,0,0,0,0,0c0,0,0,0-0.1,0.1c0,0.1,0,0.1,0,0.2c0,0,0,0,0,0.1c0,0.1,0.1,0.3,0.2,0.7c0,0,0,0.1,0.1,0.1
				c0,0,0.1,0,0.1,0c0,0,0.1,0,0.1,0c0.1,0,0.1,0,0.1,0c0,0,0,0,0,0c0,0,0,0,0,0.1c-0.1,0-0.1,0-0.2,0c-0.2,0-0.2,0-0.4,0.1
				c-0.1,0-0.2,0.1-0.3,0.1c0,0,0,0,0,0C42.8,27.1,42.7,27.1,42.6,27.1C42.6,27.1,42.6,27.1,42.6,27.1
				C42.6,27.1,42.6,27.1,42.6,27.1z"/>
			<path class="st4" d="M43.7,25.2c0,0,0.1,0,0.1,0c0,0,0,0,0.1,0c0.1,0,0.2,0,0.3-0.1c0,0,0.1,0,0.1,0c0.1,0,0.2,0,0.3-0.1
				c0,0,0,0,0,0c0,0.1,0,0.1,0,0.1c0,0,0,0,0,0c0,0-0.1,0-0.1,0c0,0,0,0,0,0c0,0,0,0,0,0c0,0,0,0.1,0,0.1c0.1,0.1,0.1,0.1,0.1,0.2
				c0.1,0.2,0.2,0.3,0.3,0.5c0.1,0.1,0.1,0.1,0.2,0.2c0,0,0-0.2,0.1-0.4c0.1-0.3,0.1-0.5,0.1-0.5c0,0,0,0,0-0.1c0,0,0,0,0-0.1
				c0,0-0.1,0-0.1,0c0,0-0.1,0-0.1,0c0,0,0,0-0.1,0c0,0,0,0,0,0c0,0,0,0,0,0c0,0,0,0,0-0.1c0,0,0.1,0,0.1,0c0.1,0,0.1,0,0.2,0
				c0,0,0.1,0,0.1,0c0,0,0.1,0,0.3-0.1c0.1,0,0.1,0,0.2,0c0,0,0,0.1,0,0.1c0,0,0,0,0,0c0,0-0.1,0-0.1,0c0,0-0.1,0-0.1,0.1
				c0,0,0,0,0,0c0,0.1,0,0.2-0.1,0.4c0,0.2-0.1,0.2-0.1,0.4c-0.1,0.3-0.1,0.5-0.2,0.9c-0.1,0.2-0.1,0.3-0.1,0.6
				c0,0.1-0.1,0.2-0.1,0.3c0,0,0,0.1-0.1,0.1c0,0-0.1,0.1-0.2,0.1c0,0,0,0-0.1,0c-0.1,0-0.1,0-0.2-0.1c0,0-0.1-0.1-0.1-0.1
				c0-0.1,0-0.1,0-0.2c0,0,0.1-0.1,0.1-0.1c0.1,0,0.1,0,0.2,0c0,0,0.1,0,0.1,0c0,0,0,0,0,0C45,27,45,26.8,45,26.7
				c-0.2-0.3-0.3-0.4-0.5-0.7c-0.2-0.3-0.4-0.5-0.5-0.6c-0.1-0.1-0.1-0.1-0.1-0.1c0,0,0,0-0.1,0C43.8,25.3,43.8,25.3,43.7,25.2
				C43.7,25.3,43.7,25.2,43.7,25.2z"/>
			<path class="st4" d="M47.3,26.3c0-0.1,0-0.1,0-0.1c0,0,0.1,0,0.1,0c0.1,0,0.2-0.1,0.2-0.1c0,0,0-0.1,0-0.2c0-0.1,0-0.1,0-0.2
				c0-0.2,0-0.3,0-0.5c0,0,0-0.1,0-0.1c0-0.3,0-0.4,0-0.4c0-0.1,0-0.2,0-0.3c0,0,0-0.1,0-0.1c0-0.1,0-0.1,0-0.2c0,0,0-0.1,0-0.1
				c0,0,0,0,0-0.1c-0.1,0-0.2,0-0.3,0c0,0-0.1,0-0.1,0c0-0.1,0-0.1,0-0.2c0.3,0,0.4,0,0.6,0c0.1,0,0.1,0,0.1,0c0.1,0,0.2,0,0.4,0
				c0.1,0,0.2,0,0.2,0c0,0,0,0,0,0.1c0,0,0,0.1,0,0.1c-0.1,0-0.1,0-0.2,0.1c-0.1,0-0.1,0-0.2,0.1c0,0,0,0.1,0,0.2c0,0.1,0,0.1,0,0.1
				c0,0.2,0,0.4,0,0.5c0,0.2,0,0.3,0,0.5c0,0.1,0,0.2,0,0.3c0,0.2,0,0.2,0,0.4c0,0,0,0,0,0.1c0,0,0,0,0,0c0.1,0,0.2,0,0.2,0
				c0,0,0.1,0,0.1,0c0,0,0,0.1,0,0.1c0,0,0,0,0,0.1c0,0,0,0,0,0c0,0-0.1,0-0.1,0c0,0,0,0-0.1,0c0,0-0.1,0-0.3,0c-0.1,0-0.2,0-0.4,0
				c-0.1,0-0.2,0-0.3,0C47.3,26.2,47.3,26.2,47.3,26.3z"/>
			<path class="st4" d="M48.9,25.6C49,25.6,49,25.6,48.9,25.6c0.1,0,0.1,0,0.1,0c0,0,0,0,0,0c0.1,0.1,0.1,0.2,0.2,0.2
				c0,0.1,0.1,0.1,0.1,0.1c0,0,0.1,0,0.1,0.1c0,0,0.1,0,0.1,0c0.1,0,0.2,0,0.2-0.1c0.1-0.1,0.1-0.1,0.1-0.2c0,0,0-0.1,0-0.1
				c0,0-0.1-0.1-0.1-0.1c0,0-0.1,0-0.3-0.1c-0.1,0-0.2-0.1-0.3-0.1c-0.1,0-0.1-0.1-0.2-0.1c-0.1,0-0.1-0.1-0.1-0.1
				c0-0.1-0.1-0.1-0.1-0.2c0-0.1,0-0.2,0-0.3c0-0.1,0.1-0.1,0.1-0.2c0,0,0.1-0.1,0.2-0.1c0.1,0,0.2,0,0.3-0.1c0.1,0,0.3,0,0.4,0
				c0.1,0,0.2,0,0.3,0.1c0,0,0,0.1,0,0.2c0,0.1,0,0.2,0,0.2c0,0,0,0,0,0c0,0-0.1,0-0.1,0c0,0,0,0-0.1,0c0,0,0,0-0.1-0.1
				c-0.1-0.1-0.1-0.2-0.2-0.3c-0.1,0-0.2-0.1-0.3-0.1c-0.1,0-0.2,0-0.2,0.1c0,0-0.1,0.1-0.1,0.2c0,0,0,0.1,0.1,0.1
				c0.1,0,0.1,0.1,0.3,0.1c0.2,0,0.3,0.1,0.4,0.1c0.1,0.1,0.2,0.1,0.3,0.2c0.1,0.1,0.1,0.2,0.1,0.3c0,0.2-0.1,0.3-0.2,0.4
				c-0.1,0.1-0.3,0.2-0.5,0.2c0,0-0.1,0-0.2,0c-0.1,0-0.1,0-0.2,0c0,0-0.1,0-0.2-0.1c0,0,0,0,0,0c0,0,0-0.1,0-0.2
				C48.9,25.7,48.9,25.6,48.9,25.6z"/>
			<path class="st4" d="M50.5,26c0,0,0.1,0,0.1,0c0.1,0,0.2,0,0.2,0c0,0,0-0.1,0-0.2c0-0.2,0-0.3,0-0.6c0-0.1,0-0.1,0-0.1
				c0-0.2,0-0.2,0-0.4c0-0.2,0-0.3,0-0.5c0,0,0,0,0-0.1c0-0.1,0-0.2,0-0.2c0,0-0.1,0-0.2,0c0,0-0.1,0-0.1,0c0,0,0-0.1,0-0.1
				c0,0,0,0,0,0c0.1,0,0.2,0,0.4-0.1c0.1,0,0.2-0.1,0.3-0.1c0,0,0,0,0.1,0c0,0,0,0,0.1,0c0,0.5,0,0.8,0,1c0,0.1,0,0.1,0,0.1
				c0,0,0,0,0,0c0,0,0,0,0,0c0,0.4,0,0.5,0,0.9c0,0.1,0,0.2,0,0.3c0,0,0,0,0,0c0,0.1,0,0.1,0,0.1c0,0,0,0,0.1,0c0,0,0.1,0,0.2,0
				c0,0,0,0.1,0,0.1c0,0,0,0,0,0.1c-0.1,0-0.1,0-0.2,0c-0.1,0-0.2,0-0.3,0c0,0,0,0-0.1,0c-0.1,0-0.2,0-0.3,0
				C50.6,26.1,50.6,26.1,50.5,26C50.5,26.1,50.5,26.1,50.5,26z"/>
			<path class="st4" d="M53.5,26C53.5,26,53.5,26,53.5,26C53.6,26,53.6,26.1,53.5,26C53.6,26.1,53.6,26.1,53.5,26
				c0,0.2,0,0.3-0.1,0.3c-0.1,0-0.1,0.1-0.2,0c-0.1,0-0.1,0-0.2-0.1c-0.1-0.1-0.1-0.1-0.1-0.2c-0.1,0.1-0.2,0.2-0.3,0.2
				c-0.1,0-0.2,0.1-0.4,0c-0.1,0-0.2-0.1-0.3-0.1c-0.1-0.1-0.1-0.1-0.1-0.2c0,0,0-0.1,0-0.1c0,0,0.1-0.1,0.1-0.1
				c0,0,0.1-0.1,0.2-0.1c0,0,0.1,0,0.2-0.1c0.2-0.1,0.3-0.1,0.5-0.1c0-0.1,0-0.1,0-0.2c0-0.2,0-0.3,0-0.4c0,0-0.1-0.1-0.1-0.1
				c-0.1,0-0.1,0-0.2,0c-0.1,0-0.1,0-0.1,0.1c0,0,0,0.1-0.1,0.2c0,0.1,0,0.1,0,0.1c0,0-0.1,0-0.1,0.1c-0.1,0-0.1,0-0.1,0
				c-0.1,0-0.1,0-0.2,0c0,0,0,0,0-0.1c0-0.1,0-0.1,0.1-0.2c0.1-0.1,0.1-0.1,0.3-0.2s0.2-0.1,0.3-0.1c0.1,0,0.3,0,0.5,0
				c0.1,0,0.2,0,0.3,0.1c0.1,0,0.1,0.1,0.1,0.2c0,0.1,0,0.2,0,0.4c0,0.1,0,0.2,0,0.3c0,0.1,0,0.1,0,0.2c0,0,0,0,0,0.1
				c0,0.1,0,0.1,0,0.1c0,0,0,0,0.1,0c0,0,0,0,0,0C53.4,26.1,53.4,26,53.5,26C53.5,26,53.5,26,53.5,26z M52.9,25.4
				c-0.1,0-0.2,0-0.3,0.1c-0.1,0-0.2,0.1-0.2,0.2c0,0-0.1,0.1-0.1,0.2c0,0.1,0,0.1,0,0.1c0,0,0.1,0.1,0.1,0.1c0.1,0,0.1,0,0.2,0
				c0.1,0,0.1-0.1,0.1-0.1c0,0,0-0.1,0.1-0.3C52.9,25.6,52.9,25.5,52.9,25.4z"/>
			<path class="st4" d="M53.7,26.3c0,0,0.1,0,0.1,0c0.1,0,0.1,0,0.1,0c0,0,0,0,0,0c0,0,0-0.1,0-0.2c0-0.1,0-0.1,0-0.2
				c0-0.1,0-0.1,0-0.1c0-0.1,0-0.1,0-0.2c0-0.1,0-0.1,0-0.1c0-0.1,0-0.2,0-0.2c0,0,0,0,0-0.1c0,0-0.1-0.1-0.2-0.1c0,0,0-0.1,0-0.1
				c0,0,0,0,0.1,0c0,0,0.1,0,0.2,0c0.1,0,0.1,0,0.2,0c0,0,0,0,0,0c0,0,0,0,0.1,0c0,0,0.1-0.1,0.2-0.1c0,0,0.1,0,0.1,0
				c0,0.1,0,0.1,0,0.2c0,0,0,0,0,0.1c0,0,0,0,0,0.1C54.7,25,54.9,25,55,25c0.1,0,0.3,0,0.4,0c0.1,0,0.2,0.1,0.3,0.2
				c0.1,0.1,0.1,0.2,0.2,0.3c0,0.1,0,0.3-0.1,0.5c-0.1,0.3-0.1,0.4-0.2,0.6c0,0,0,0.1,0,0.1c0,0,0,0,0.1,0.1c0,0,0.1,0,0.1,0
				c0,0,0,0,0,0.1c0,0,0,0,0,0.1c-0.2,0-0.2-0.1-0.4-0.1c0,0-0.1,0-0.1,0c0,0-0.1,0-0.1,0c-0.1,0-0.2,0-0.3,0c0,0,0,0-0.1,0
				c0,0,0,0,0,0c0,0,0-0.1,0-0.1c0,0,0.1,0,0.1,0c0,0,0,0,0.1,0c0,0,0,0,0.1,0c0,0,0-0.1,0-0.1c0-0.1,0-0.2,0.1-0.3
				c0-0.1,0-0.1,0-0.2c0.1-0.3,0.1-0.5,0.1-0.5c0-0.1-0.1-0.2-0.2-0.2c-0.1,0-0.2,0-0.3,0c-0.1,0-0.2,0.1-0.3,0.1c0,0,0,0,0,0
				c0,0.1,0,0.1,0,0.1c0,0.1,0,0.1,0,0.1c0,0.1,0,0.2,0,0.3c0,0,0,0,0,0c0,0.2-0.1,0.3,0,0.4c0,0,0.1,0.1,0.2,0.1c0,0,0,0,0,0.1
				c0,0,0,0,0,0.1c0,0-0.1,0-0.1,0c0,0-0.1,0-0.1,0c-0.1,0-0.1,0-0.2,0c-0.1,0-0.3,0-0.5-0.1C53.7,26.4,53.7,26.4,53.7,26.3
				C53.7,26.4,53.7,26.3,53.7,26.3z"/>
			<path class="st4" d="M56.8,25.5c0.1,0,0.2,0,0.2,0c0.1,0,0.2,0,0.3,0c0,0,0.1,0,0.1,0c0.2,0,0.3,0.1,0.4,0.3c0,0,0,0,0,0
				c0-0.1,0-0.1,0-0.1c0-0.1,0-0.1,0.1-0.2C58,25.2,58,25,58,24.9c0,0,0-0.1-0.1-0.1c-0.1,0-0.1,0-0.1-0.1c0,0,0-0.1,0-0.1
				c0,0,0.1,0,0.1,0c0,0,0.1,0,0.3,0c0,0,0,0,0.1,0c0.1,0,0.1,0,0.2,0c0,0,0.1,0,0.1,0c0,0,0,0,0,0c0,0,0,0.1,0,0.1c0,0,0,0,0,0
				c0,0,0,0,0,0c0,0,0,0.1-0.1,0.3c0,0,0,0.1,0,0.1c0,0,0,0,0,0.1c0,0,0,0.1,0,0.1c0,0.1,0,0.1-0.1,0.2c0,0,0,0.1,0,0.1
				c0,0.1,0,0.1-0.1,0.2c0,0,0,0,0,0c0,0,0,0,0,0.1c0,0,0,0,0,0c0,0,0,0,0,0.1c0,0,0,0.1,0,0.1c0,0,0,0,0,0c0,0,0,0.1-0.1,0.2
				c0,0.1,0,0.1-0.1,0.2c0,0,0,0,0,0.1c0,0.1,0,0.1,0,0.1c0,0-0.1,0.1,0,0.2c0,0,0.1,0.1,0.2,0.1c0,0,0.1,0,0.1,0c0,0,0,0,0,0
				c0,0,0,0,0,0c-0.1,0-0.1,0-0.2,0c-0.2,0-0.3,0-0.4,0c0,0-0.1,0-0.1,0c0,0,0,0,0,0c0,0,0,0,0,0c0-0.1,0-0.1,0-0.2c0,0-0.1,0-0.1,0
				c-0.1,0-0.2,0-0.3,0c-0.1,0-0.2,0-0.3,0c-0.2,0-0.3-0.1-0.4-0.2c-0.1-0.1-0.2-0.3-0.2-0.4c0-0.1,0-0.3,0-0.4
				C56.3,25.8,56.5,25.6,56.8,25.5z M57,26.9C57.1,26.9,57.1,26.9,57,26.9c0.1,0,0.2,0,0.2,0c0.1,0,0.1,0,0.2,0c0,0,0-0.1,0-0.1
				c0.1-0.4,0.2-0.7,0.2-0.7c0-0.1,0-0.2-0.1-0.3c-0.1-0.1-0.1-0.1-0.2-0.2c-0.1,0-0.1,0-0.2,0c-0.1,0-0.1,0-0.2,0.1
				c-0.1,0-0.1,0.1-0.2,0.2c-0.1,0.1-0.1,0.2-0.1,0.3c-0.1,0.2-0.1,0.4,0,0.5C56.8,26.8,56.9,26.9,57,26.9z"/>
			<path class="st4" d="M60.3,25.4c0.1,0,0.1,0,0.1,0.1c0,0,0,0,0,0c0,0.1,0,0.1,0,0.2c0,0,0.1,0.1,0.3,0.1c0.1,0,0.2,0.1,0.3,0.1
				c0,0,0,0,0,0c0.1,0,0.2,0.1,0.3,0.1c0.2,0.1,0.3,0.1,0.5,0.2c0.3,0.1,0.4,0.2,0.6,0.3c0.1,0,0.1,0,0.1,0c0,0,0.1,0,0.1-0.1
				c0,0,0,0,0,0c0,0,0.1,0,0.1,0c0,0,0,0,0.1,0c0,0.1-0.1,0.2-0.2,0.4c0,0.1,0,0.1-0.1,0.2c0,0,0,0.1,0,0.1c0,0,0,0.1,0,0.1
				c-0.1,0-0.1,0-0.2,0c0-0.1,0-0.2,0-0.3c0-0.1,0-0.2,0-0.2c0,0,0,0,0-0.1c0,0-0.2-0.1-0.4-0.2c0,0-0.1-0.1-0.1-0.1
				c0,0-0.1,0.1-0.1,0.1c0,0.1-0.1,0.1-0.1,0.2c-0.1,0.2-0.1,0.3-0.2,0.5c-0.1,0.2-0.2,0.3-0.3,0.6c0,0.1-0.1,0.1-0.1,0.2
				c0,0.1-0.1,0.2-0.1,0.2c0,0,0.1,0,0.1,0.1c0,0,0.1,0,0.1,0.1c0,0,0.1,0.1,0.1,0.1c0,0,0,0.1,0,0.1c0,0,0,0,0,0c0,0-0.1,0-0.1,0
				c-0.1-0.1-0.2-0.1-0.3-0.2c-0.1-0.1-0.2-0.1-0.5-0.2c0,0-0.2-0.1-0.3-0.1c-0.1,0-0.1,0-0.1-0.1c0,0,0,0,0,0c0,0,0,0,0,0
				c0,0,0,0,0,0c0,0,0.1,0,0.2,0c0.1,0,0.3,0,0.3,0c0,0,0,0,0.1-0.1c0.1-0.1,0.2-0.4,0.3-0.7c0.1-0.3,0.2-0.4,0.3-0.7
				c0.1-0.2,0.1-0.3,0.1-0.4c0,0,0,0,0,0c0,0,0,0,0,0c0,0-0.2-0.1-0.4-0.2c-0.1-0.1-0.2-0.1-0.3-0.1c-0.1,0-0.2,0.1-0.4,0.1
				c-0.1,0-0.1,0-0.1,0c-0.1-0.1-0.1-0.1-0.1-0.1c0.1-0.1,0.2-0.2,0.4-0.4C60.2,25.4,60.3,25.4,60.3,25.4z"/>
			<path class="st4" d="M63.7,28.4c0,0.1,0.1,0.2,0,0.4c0,0.1,0,0.2-0.1,0.3c-0.1,0.2-0.2,0.3-0.3,0.3c-0.2,0.1-0.3,0.1-0.5,0.1
				c-0.2,0-0.3-0.1-0.5-0.1C62.2,29.3,62,29.2,62,29c-0.1-0.2-0.1-0.3-0.1-0.4c0-0.1,0-0.3,0.1-0.4c0-0.1,0.1-0.2,0.2-0.2
				c0.1-0.1,0.1-0.1,0.2-0.2c0.1,0,0.2-0.1,0.2-0.1c0.1,0,0.2,0,0.3,0c0.1,0,0.2,0.1,0.3,0.1C63.5,28,63.7,28.2,63.7,28.4z
				 M62.4,28.4c-0.1,0.1-0.1,0.2-0.1,0.3c0,0.1,0,0.2,0,0.2c0,0,0,0.1,0.1,0.2c0,0.1,0.1,0.1,0.2,0.1c0.1,0,0.2,0.1,0.3,0
				c0.1,0,0.2-0.1,0.3-0.2c0.1-0.1,0.1-0.2,0.2-0.4c0.1-0.2,0.2-0.4,0.1-0.5c0-0.1-0.1-0.2-0.2-0.3c-0.1-0.1-0.2-0.1-0.3-0.1
				c-0.1,0-0.2,0.1-0.3,0.2C62.6,28.1,62.5,28.2,62.4,28.4z"/>
			<path class="st4" d="M64.3,28.6C64.3,28.6,64.3,28.6,64.3,28.6c0.3,0.2,0.4,0.2,0.6,0.4c0,0,0,0,0,0c0,0,0,0.1-0.1,0.1
				c0,0.1-0.1,0.1-0.1,0.2c0,0,0,0.1-0.1,0.1c-0.1,0.1-0.1,0.2-0.2,0.3c0,0.1-0.1,0.1-0.1,0.2c-0.1,0.1-0.1,0.2-0.2,0.3
				c0,0.1,0,0.1,0,0.2s0.1,0.1,0.1,0.1c0.1,0,0.1,0.1,0.1,0.1c0,0,0.1,0,0.2,0c0.1,0,0.1,0,0.1,0c0.1,0,0.1,0,0.1,0
				c0.1-0.2,0.2-0.2,0.3-0.4c0,0,0.1-0.1,0.1-0.1c0,0,0-0.1,0.1-0.1c0,0,0-0.1,0-0.1c0,0,0,0,0-0.1c0,0,0,0,0,0c0,0-0.1-0.1-0.1-0.1
				c0,0-0.1-0.1-0.1-0.1c0,0,0,0,0,0c0,0,0,0,0-0.1c0,0,0,0,0-0.1c0,0,0.1,0,0.1,0.1c0.1,0.1,0.2,0.1,0.3,0.2
				c0.1,0.1,0.2,0.1,0.3,0.2c0,0-0.1,0.1-0.1,0.1c0,0.1-0.1,0.1-0.1,0.2c-0.1,0.1-0.1,0.1-0.1,0.2c-0.1,0.1-0.1,0.2-0.2,0.3
				c0,0-0.1,0.1-0.1,0.1c0,0,0,0.1-0.1,0.1c0,0.1-0.1,0.1-0.1,0.1c0,0,0,0.1,0,0.1c0,0,0,0,0,0c0.1,0,0.1,0.1,0.2,0.1c0,0,0,0,0,0
				c0,0,0,0.1,0,0.1c0,0,0,0,0,0c0,0-0.1-0.1-0.1-0.1c-0.1-0.1-0.3-0.1-0.5-0.2c0,0,0,0-0.1-0.1c0.1-0.1,0.1-0.2,0.2-0.3
				c0,0-0.1,0-0.1,0c-0.2,0-0.3,0-0.4,0c-0.1,0-0.2-0.1-0.3-0.1c-0.1-0.1-0.2-0.1-0.2-0.2c0-0.1-0.1-0.2-0.1-0.2
				c0-0.1,0-0.1,0.1-0.2c0,0,0.1-0.1,0.2-0.3c0,0,0,0,0-0.1c0.1-0.1,0.1-0.2,0.2-0.2c0.1-0.1,0.1-0.2,0.1-0.2c0,0,0,0,0-0.1
				c0,0,0,0-0.1-0.1c-0.1-0.1-0.1-0.1-0.1-0.1C64.2,28.7,64.2,28.7,64.3,28.6C64.2,28.6,64.2,28.6,64.3,28.6
				C64.3,28.6,64.3,28.6,64.3,28.6z"/>
			<path class="st4" d="M65.5,31.2C65.5,31.2,65.5,31.2,65.5,31.2c0.1,0,0.2,0.1,0.3,0.1c0,0,0.1-0.1,0.2-0.2
				c0.2-0.3,0.3-0.5,0.4-0.6c0,0,0,0,0-0.1c0,0-0.1-0.1-0.1-0.1c0,0,0,0,0-0.1c0,0,0,0,0-0.1c0.1,0.1,0.2,0.1,0.3,0.1s0.2,0,0.3,0
				c0,0,0.1,0,0.1,0c0.1,0,0.1,0.1,0.1,0.1c0,0,0,0.1,0,0.1c0,0,0,0,0,0c0,0-0.1,0.1-0.1,0.1c0,0,0,0.1-0.1,0.1
				c0.1,0,0.2-0.1,0.2-0.1c0,0,0.1,0,0.2,0c0.1,0,0.1,0,0.2,0.1c0.1,0.1,0.1,0.1,0.1,0.2c0,0.1,0,0.1,0,0.2c0,0-0.1,0.1-0.2,0.1
				c-0.1,0-0.1,0-0.2-0.1c0,0-0.1-0.1-0.1-0.2c0,0,0-0.1-0.1-0.1c0,0,0,0,0,0c0,0-0.1,0-0.1,0c-0.1,0-0.1,0.1-0.2,0.1c0,0,0,0,0,0
				c-0.1,0.1-0.2,0.3-0.4,0.6c0,0,0,0.1,0,0.1c0,0,0,0.1,0,0.1c0,0,0,0.1,0.1,0.1c0,0,0.1,0.1,0.1,0.1c0,0,0,0,0,0.1c0,0,0,0,0,0
				c-0.1-0.1-0.1-0.1-0.2-0.1c-0.1-0.1-0.2-0.2-0.3-0.3c-0.1-0.1-0.2-0.1-0.2-0.2c0,0,0,0,0,0C65.6,31.4,65.5,31.4,65.5,31.2
				C65.4,31.3,65.4,31.3,65.5,31.2C65.4,31.2,65.5,31.2,65.5,31.2z"/>
			<path class="st4" d="M67.1,31.9C67.1,32,67.2,32,67.1,31.9c0.1,0.1,0.1,0.1,0.1,0.1c0,0,0,0,0,0c0,0.1,0,0.2,0,0.3
				c0,0.1,0,0.1,0,0.2c0,0,0,0.1,0.1,0.2c0,0,0.1,0.1,0.1,0.1c0.1,0.1,0.1,0.1,0.2,0.1c0.1,0,0.1,0,0.2-0.1c0,0,0-0.1,0-0.1
				c0,0,0-0.1,0-0.2c0,0-0.1-0.1-0.2-0.2c-0.1-0.1-0.1-0.2-0.2-0.2c0-0.1-0.1-0.1-0.1-0.2s0-0.1,0-0.2c0-0.1,0-0.1,0.1-0.2
				c0.1-0.1,0.1-0.1,0.2-0.2c0.1,0,0.1,0,0.2,0c0.1,0,0.1,0,0.2,0.1s0.2,0.1,0.2,0.2c0.1,0.1,0.2,0.2,0.3,0.3
				c0.1,0.1,0.1,0.2,0.2,0.3c0,0-0.1,0.1-0.1,0.2s-0.1,0.1-0.1,0.2c0,0,0,0,0,0c0,0-0.1,0-0.1-0.1c0,0,0,0,0,0c0,0,0-0.1,0-0.1
				c0-0.1,0-0.3,0-0.3c0-0.1-0.1-0.2-0.1-0.2c-0.1-0.1-0.2-0.1-0.3-0.1c-0.1,0-0.1,0-0.2,0.1c0,0,0,0.1,0,0.2c0,0.1,0.1,0.2,0.1,0.3
				c0.1,0.2,0.2,0.3,0.2,0.4c0.1,0.1,0.1,0.2,0.1,0.3c0,0.1-0.1,0.2-0.1,0.2c-0.1,0.1-0.2,0.2-0.4,0.1c-0.2,0-0.3-0.1-0.5-0.3
				c0,0-0.1-0.1-0.2-0.2c0,0-0.1-0.1-0.1-0.2c0,0,0-0.1-0.1-0.1c0,0,0,0,0,0c0,0,0-0.1,0.1-0.1C67,32.1,67.1,32,67.1,31.9z"/>
		</g>
	</g>
	<g>
		<path class="st4" d="M62,41.2l2.6-3.9l-3.9,2.6C61.2,40.3,61.6,40.8,62,41.2z"/>
		<path class="st4" d="M38.8,39.8l-3.7-2.4l2.4,3.7C37.9,40.6,38.3,40.2,38.8,39.8z"/>
		<path class="st4" d="M60.7,64.3l3.9,2.6L62,62.9C61.6,63.4,61.2,63.9,60.7,64.3z"/>
		<path class="st4" d="M37.5,63.1l-2.4,3.7l3.7-2.4C38.3,64,37.9,63.6,37.5,63.1z"/>
	</g>
	<rect id="white_rectangle_bg_2_" x="24.2" y="47.2" class="st0" width="50.9" height="9.8"/>
	<g>
		<g>
			<path class="st5" d="M43.7,43.5l-1.1,2.3c-0.4,0.9-0.7,1.6-1,2.2h-0.1c-0.1-0.2-0.4-0.8-0.8-1.7l-1.3-2.7v2.8c0,0.7,0,1,0.1,1.1
				c0.1,0.1,0.2,0.1,0.5,0.1H40V48c-0.3,0-0.6,0-0.8,0c-0.2,0-0.5,0-0.9,0v-0.2h0.2c0.2,0,0.3,0,0.3-0.1c0.1,0,0.1-0.1,0.1-0.3
				c0-0.3,0-0.7,0-1.1v-2.1c0-0.5,0-0.8,0-1c0-0.1,0-0.1-0.1-0.2c-0.1,0-0.2-0.1-0.4-0.1h-0.2v-0.2c0.4,0,0.7,0,0.8,0
				c0.1,0,0.3,0,0.6,0c0.3,0.7,0.6,1.4,1,2.2l1,2l0.9-1.8c0.3-0.6,0.7-1.4,1.1-2.3c0.3,0,0.5,0,0.6,0c0.1,0,0.4,0,0.8,0V43h-0.2
				c-0.2,0-0.3,0-0.4,0.1c0,0.1-0.1,0.3-0.1,0.8v2.7c0,0.6,0,0.9,0.1,1c0.1,0.1,0.2,0.1,0.4,0.1h0.2V48c-0.3,0-0.7,0-1,0
				c-0.3,0-0.7,0-1.1,0v-0.2h0.2c0.2,0,0.3,0,0.4-0.1c0-0.1,0.1-0.4,0.1-1.1V43.5z"/>
			<path class="st1" d="M41.6,48.1h-0.3l0-0.1c-0.1-0.2-0.4-0.8-0.8-1.7L39.4,44v2.5c0,0.9,0,1.1,0.1,1.1c0,0,0.1,0.1,0.4,0.1h0.2
				V48L40,48c-0.3,0-0.6,0-0.8,0c-0.2,0-0.5,0-0.9,0l-0.1,0v-0.4h0.3c0.2,0,0.3,0,0.3,0c0,0,0.1-0.1,0.1-0.2c0-0.3,0-0.7,0-1.1v-2.1
				c0-0.5,0-0.8,0-1c0-0.1,0-0.1-0.1-0.1c0,0-0.1-0.1-0.3-0.1h-0.3v-0.4l0.1,0c0.4,0,0.7,0,0.8,0c0.1,0,0.3,0,0.6,0l0.1,0l0,0.1
				c0.3,0.7,0.6,1.4,1,2.2l0.9,1.8l0.8-1.7c0.3-0.6,0.7-1.4,1.1-2.3l0-0.1l0.1,0c0.3,0,0.5,0,0.6,0c0.1,0,0.4,0,0.8,0l0.1,0V43h-0.3
				c-0.3,0-0.3,0.1-0.3,0.1c0,0-0.1,0.1-0.1,0.8v2.7c0,0.8,0,1,0.1,1c0,0,0.1,0.1,0.3,0.1h0.3V48l-0.1,0c-0.3,0-0.7,0-1,0
				c-0.3,0-0.7,0-1.1,0l-0.1,0v-0.4h0.3c0.2,0,0.3,0,0.3-0.1c0,0,0.1-0.2,0.1-1.1v-2.6l-0.9,1.9C42.3,46.7,41.9,47.4,41.6,48.1
				L41.6,48.1z M41.5,47.9L41.5,47.9c0.3-0.6,0.6-1.4,1-2.2l1.3-2.6v3.4c0,0.9,0,1.1-0.1,1.1c-0.1,0.1-0.2,0.2-0.4,0.2h-0.2v0.1
				c0.3,0,0.7,0,1,0c0.3,0,0.6,0,0.9,0v-0.1h-0.1c-0.3,0-0.4-0.1-0.5-0.2c0-0.1-0.1-0.3-0.1-1.1v-2.7c0-0.6,0-0.8,0.1-0.9
				c0.1-0.1,0.2-0.2,0.5-0.2H45v-0.1c-0.3,0-0.6,0-0.7,0c-0.1,0-0.3,0-0.6,0c-0.4,0.9-0.7,1.6-1.1,2.3l-1,2l-1-2.2
				c-0.4-0.8-0.7-1.5-1-2.1c-0.2,0-0.4,0-0.5,0c-0.1,0-0.3,0-0.7,0v0.1h0.1c0.2,0,0.3,0,0.4,0.1C39,43,39,43.1,39,43.2
				c0,0.2,0,0.5,0,1v2.1c0,0.4,0,0.8,0,1.1c0,0.1-0.1,0.2-0.1,0.3s-0.2,0.1-0.4,0.1h-0.2v0.1c0.4,0,0.7,0,0.8,0c0.2,0,0.4,0,0.7,0
				v-0.1h-0.1c-0.3,0-0.5-0.1-0.6-0.2c0-0.1-0.1-0.3-0.1-1.2v-3.2l1.5,3.1C41.1,47.1,41.4,47.7,41.5,47.9z"/>
		</g>
		<g>
			<path class="st5" d="M45.6,45.4l0-0.2l0-0.3l0.4-0.2c0.2-0.1,0.3-0.2,0.5-0.2c0.1,0,0.3-0.1,0.4-0.1c0.3,0,0.6,0.1,0.8,0.2
				c0.2,0.2,0.3,0.3,0.4,0.6c0,0.2,0,0.6,0.1,1.3c0,0.7,0,1,0,1.1c0,0.1,0.1,0.1,0.2,0.1h0.3V48c-0.3,0-0.5,0-0.6,0
				c-0.1,0-0.3,0-0.6,0l0-0.3c0-0.1,0-0.2,0-0.3l-0.8,0.6c-0.1,0.1-0.1,0.1-0.2,0.1c-0.1,0-0.2,0-0.3,0c-0.3,0-0.6-0.1-0.7-0.2
				c-0.2-0.2-0.3-0.4-0.3-0.6c0-0.2,0.1-0.5,0.2-0.6c0.1-0.2,0.3-0.3,0.5-0.4c0.2-0.1,0.7-0.2,1.5-0.3c0-0.3-0.1-0.5-0.2-0.7
				c-0.2-0.2-0.4-0.3-0.7-0.3c-0.1,0-0.2,0-0.3,0c-0.1,0-0.2,0.1-0.3,0.1c-0.1,0.2-0.1,0.3-0.2,0.5L45.6,45.4z M47.5,46
				c-0.7,0.1-1.1,0.3-1.3,0.4s-0.3,0.3-0.3,0.6c0,0.2,0.1,0.3,0.2,0.4c0.1,0.1,0.2,0.2,0.4,0.2c0.2,0,0.4-0.1,0.5-0.2
				c0.2-0.1,0.3-0.3,0.5-0.5l0-0.8L47.5,46z"/>
			<path class="st1" d="M46.3,48.1c-0.3,0-0.6-0.1-0.8-0.3c-0.2-0.2-0.3-0.4-0.3-0.7c0-0.3,0.1-0.5,0.2-0.7c0.1-0.2,0.3-0.3,0.5-0.4
				c0.2-0.1,0.7-0.2,1.5-0.3c0-0.3-0.1-0.4-0.2-0.6c-0.2-0.2-0.4-0.3-0.6-0.3c-0.1,0-0.2,0-0.3,0c-0.1,0-0.2,0.1-0.2,0.1
				c-0.1,0.2-0.1,0.3-0.2,0.5l0,0.1l-0.3-0.1l0-0.3l0-0.3l0.4-0.3c0.2-0.1,0.4-0.2,0.5-0.2c0.1,0,0.3-0.1,0.5-0.1
				c0.4,0,0.6,0.1,0.9,0.2c0.2,0.2,0.4,0.4,0.4,0.6c0,0.2,0,0.6,0.1,1.3c0,0.9,0,1,0,1.1c0,0,0,0,0.1,0h0.4V48l-0.1,0
				c-0.3,0-0.5,0-0.6,0c-0.1,0-0.3,0-0.5,0l-0.1,0l0-0.4c0,0,0-0.1,0-0.1L46.8,48c-0.1,0.1-0.2,0.1-0.2,0.1
				C46.5,48.1,46.4,48.1,46.3,48.1z M46.6,44.7c0.3,0,0.6,0.1,0.8,0.3c0.1,0.2,0.2,0.4,0.2,0.8l0,0.1l-0.1,0
				c-0.8,0.1-1.3,0.3-1.5,0.3c-0.2,0.1-0.4,0.2-0.5,0.4c-0.1,0.2-0.2,0.4-0.2,0.6c0,0.2,0.1,0.4,0.2,0.6c0.1,0.1,0.4,0.2,0.7,0.2
				c0.1,0,0.2,0,0.3,0c0.1,0,0.1,0,0.2-0.1l0.9-0.7l0,0.2c0,0.1,0,0.2,0,0.3l0,0.2c0.2,0,0.3,0,0.5,0c0.1,0,0.3,0,0.5,0v-0.1h-0.2
				c-0.2,0-0.2-0.1-0.3-0.2c0,0,0-0.1,0-1.1c0-0.7,0-1.1-0.1-1.3c0-0.2-0.1-0.4-0.3-0.5c-0.2-0.1-0.4-0.2-0.8-0.2
				c-0.1,0-0.3,0-0.4,0.1c-0.1,0-0.3,0.1-0.5,0.2l-0.4,0.2l0,0.2l0,0.2l0.1,0c0.1-0.1,0.1-0.3,0.2-0.4l0,0l0,0
				c0.1-0.1,0.2-0.1,0.3-0.1C46.3,44.7,46.5,44.7,46.6,44.7z M46.5,47.7c-0.2,0-0.3-0.1-0.5-0.2c-0.1-0.1-0.2-0.3-0.2-0.5
				c0-0.3,0.1-0.5,0.3-0.7c0.2-0.1,0.6-0.3,1.3-0.4l0.1,0l0,0.3l0,0.8l0,0c-0.2,0.2-0.3,0.4-0.5,0.5C46.9,47.6,46.7,47.7,46.5,47.7z
				 M47.4,46.1c-0.6,0.1-1,0.3-1.2,0.4C46.1,46.6,46,46.8,46,47c0,0.2,0,0.3,0.1,0.4c0.1,0.1,0.2,0.1,0.3,0.1c0.2,0,0.3,0,0.5-0.1
				c0.2-0.1,0.3-0.2,0.4-0.4L47.4,46.1L47.4,46.1z"/>
		</g>
		<g>
			<path class="st5" d="M50,45.2c0.1-0.1,0.2-0.2,0.3-0.4c0.1-0.2,0.3-0.3,0.4-0.4c0.1-0.1,0.2-0.1,0.4-0.1c0.1,0,0.2,0,0.3,0
				c0,0,0.1,0,0.1,0.1l0,0c0,0.2-0.1,0.5-0.1,0.8h-0.2c-0.1-0.1-0.1-0.2-0.2-0.3c-0.1-0.1-0.2-0.1-0.3-0.1c-0.1,0-0.3,0-0.4,0.1
				c-0.1,0.1-0.2,0.2-0.2,0.4c0,0.2-0.1,0.5-0.1,1c0,0.3,0,0.6,0,0.9c0,0.1,0,0.1,0.1,0.2c0.1,0.1,0.2,0.1,0.4,0.1h0.2V48
				c-0.4,0-0.7,0-1.1,0c-0.3,0-0.6,0-1,0v-0.2l0.4,0c0.1,0,0.2,0,0.2-0.1s0.1-0.2,0.1-0.4c0-0.4,0-0.8,0-1.3c0-0.6,0-0.9-0.1-1
				c0-0.1-0.1-0.1-0.3-0.1h-0.3v-0.2c0.2,0,0.5-0.1,0.6-0.1c0.2,0,0.4-0.1,0.5-0.2c0,0,0.1,0,0.1,0c0,0,0,0,0.1,0c0,0,0,0,0,0.1
				L50,45.2z"/>
			<path class="st1" d="M48.7,48v-0.4l0.4,0c0.2,0,0.2,0,0.2,0c0,0,0-0.1,0-0.3c0-0.3,0-0.8,0-1.3c0-0.8,0-1-0.1-1c0,0,0,0-0.2,0
				h-0.4v-0.4l0.1,0c0.2,0,0.4-0.1,0.6-0.1c0.2,0,0.3-0.1,0.5-0.2c0,0,0.1,0,0.1,0c0.1,0,0.1,0,0.1,0.1c0,0,0,0.1,0,0.1l0,0.5
				c0.1-0.1,0.1-0.1,0.2-0.2c0.1-0.2,0.3-0.3,0.4-0.4c0.1-0.1,0.3-0.1,0.4-0.1c0.1,0,0.3,0,0.3,0.1c0.1,0,0.1,0.1,0.1,0.1l0,0
				c0,0.2-0.1,0.5-0.1,0.8l0,0.1h-0.3l0-0.1c0-0.1-0.1-0.2-0.2-0.2c-0.1,0-0.1-0.1-0.2-0.1c-0.1,0-0.2,0-0.3,0.1
				c-0.1,0.1-0.2,0.2-0.2,0.4c0,0.2-0.1,0.5-0.1,1c0,0.3,0,0.6,0,0.8c0,0.1,0,0.1,0,0.1c0.1,0,0.2,0.1,0.4,0.1h0.3V48l-0.1,0
				C50,48,49.4,48,48.7,48L48.7,48z M49.7,47.8c0.3,0,0.6,0,1,0v0h-0.1c-0.2,0-0.3,0-0.5-0.1c-0.1,0-0.1-0.1-0.1-0.2
				c0-0.2,0-0.5,0-0.9c0-0.5,0-0.9,0.1-1.1c0-0.2,0.1-0.3,0.3-0.5c0.1-0.1,0.3-0.2,0.5-0.2c0.1,0,0.2,0,0.3,0.1
				c0.1,0.1,0.1,0.1,0.2,0.3h0c0-0.3,0-0.6,0.1-0.8l0,0c-0.1,0-0.2,0-0.3,0c-0.1,0-0.2,0-0.3,0.1c-0.1,0.1-0.2,0.2-0.4,0.3
				c-0.1,0.2-0.2,0.3-0.3,0.4l-0.1,0.1l0-0.9c0,0,0,0,0,0c0,0,0,0,0,0c-0.2,0.1-0.3,0.1-0.5,0.2c-0.2,0-0.4,0.1-0.6,0.1v0.1h0.2
				c0.2,0,0.3,0,0.4,0.1c0,0.1,0.1,0.3,0.1,1.1c0,0.5,0,0.9,0,1.3c0,0.3,0,0.4-0.1,0.4c0,0.1-0.1,0.1-0.3,0.1l-0.3,0v0
				C49.1,47.9,49.4,47.8,49.7,47.8z"/>
		</g>
		<g>
			<path class="st5" d="M52.8,44.4L52.8,44.4c0.1,0.2,0.1,0.4,0.1,0.7c0,0.7,0,1.2,0,1.6c0,0.3,0,0.6,0,0.8c0,0.1,0,0.1,0.1,0.2
				c0,0,0.1,0.1,0.3,0.1l0.3,0V48c-0.4,0-0.7,0-1,0c-0.3,0-0.6,0-0.9,0v-0.2l0.3,0c0.1,0,0.2,0,0.2-0.1c0,0,0-0.2,0.1-0.4
				c0-0.3,0-0.7,0-1.3c0-0.4,0-0.7,0-0.9c0-0.1,0-0.1-0.1-0.2c0,0-0.1,0-0.3,0h-0.3v-0.2c0.3,0,0.5-0.1,0.7-0.1
				C52.4,44.5,52.6,44.5,52.8,44.4z M52.5,42.8c0.1,0,0.2,0,0.3,0.1c0.1,0.1,0.1,0.2,0.1,0.3c0,0.1,0,0.2-0.1,0.3
				c-0.1,0.1-0.2,0.1-0.3,0.1c-0.1,0-0.2,0-0.3-0.1c-0.1-0.1-0.1-0.2-0.1-0.3c0-0.1,0-0.2,0.1-0.3C52.3,42.8,52.4,42.8,52.5,42.8z"
				/>
			<path class="st1" d="M51.5,48v-0.4l0.4,0c0.1,0,0.2,0,0.2,0c0,0,0-0.1,0-0.3c0-0.3,0-0.7,0-1.3c0-0.4,0-0.7,0-0.9
				c0,0,0-0.1,0-0.1c0,0,0,0-0.2,0h-0.4v-0.4l0.1,0c0.3,0,0.5-0.1,0.7-0.1c0.1,0,0.3-0.1,0.5-0.2l0,0l0.2,0.1l0,0.1
				c0,0.2,0,0.4,0,0.6c0,0.7,0,1.2,0,1.6c0,0.3,0,0.6,0,0.8c0,0.1,0,0.1,0,0.1c0,0,0,0,0.2,0.1l0.3,0V48l-0.1,0c-0.4,0-0.7,0-1,0
				C52.2,48,51.9,48,51.5,48L51.5,48z M52.5,47.8c0.3,0,0.6,0,0.9,0v0l-0.2,0c-0.2,0-0.3-0.1-0.3-0.1c-0.1,0-0.1-0.1-0.1-0.2
				c0-0.2,0-0.5,0-0.8c0-0.3,0-0.9,0-1.6c0-0.2,0-0.4,0-0.6l0,0c-0.2,0.1-0.4,0.1-0.5,0.2c-0.1,0-0.3,0.1-0.6,0.1v0.1h0.2
				c0.2,0,0.3,0,0.3,0.1c0.1,0,0.1,0.1,0.1,0.2c0,0.2,0,0.5,0,0.9c0,0.5,0,1,0,1.3c0,0.3,0,0.4-0.1,0.4c0,0.1-0.1,0.1-0.3,0.1
				l-0.2,0v0C52,47.9,52.2,47.8,52.5,47.8z M52.5,43.7c-0.1,0-0.3,0-0.4-0.1c-0.1-0.1-0.1-0.2-0.1-0.4c0-0.1,0-0.3,0.1-0.4
				c0.1-0.1,0.2-0.1,0.4-0.1c0.1,0,0.3,0.1,0.4,0.1C53,42.9,53,43,53,43.2c0,0.1,0,0.3-0.1,0.4C52.8,43.6,52.7,43.7,52.5,43.7z
				 M52.5,42.8c-0.1,0-0.2,0-0.2,0.1c-0.1,0.1-0.1,0.1-0.1,0.2c0,0.1,0,0.2,0.1,0.2c0.1,0.1,0.3,0.1,0.5,0c0.1-0.1,0.1-0.1,0.1-0.2
				c0-0.1,0-0.2-0.1-0.2C52.7,42.9,52.6,42.8,52.5,42.8z"/>
		</g>
		<g>
			<path class="st5" d="M54.7,45.1l0.6-0.5c0.1-0.1,0.1-0.1,0.2-0.1c0.2-0.1,0.3-0.1,0.5-0.1c0.3,0,0.5,0.1,0.7,0.2s0.3,0.2,0.4,0.4
				c0.1,0.2,0.1,0.4,0.1,0.8l0,1.2c0,0.4,0,0.6,0.1,0.7c0,0.1,0.1,0.1,0.3,0.1h0.3V48c-0.3,0-0.5,0-0.7,0c-0.2,0-0.4,0-0.6,0
				c0-0.5,0.1-1.1,0.1-1.9c0-0.3,0-0.6-0.1-0.7c-0.1-0.1-0.2-0.2-0.3-0.3c-0.1-0.1-0.3-0.1-0.5-0.1c-0.2,0-0.4,0.1-0.6,0.2
				c-0.2,0.1-0.3,0.3-0.3,0.4c0,0.1,0,0.3,0,0.8c0,0.4,0,0.9,0,1.3c0,0.1,0,0.2,0.1,0.2c0.1,0.1,0.2,0.1,0.3,0.1h0.3V48
				c-0.4,0-0.7,0-1,0c-0.3,0-0.6,0-0.9,0v-0.2h0.3c0.2,0,0.3,0,0.3-0.1c0-0.1,0-0.6,0-1.5c0-0.4,0-0.7,0-1c0-0.1,0-0.1-0.1-0.2
				c0,0-0.1,0-0.3,0h-0.3v-0.2c0.2,0,0.4-0.1,0.6-0.1c0.2,0,0.4-0.1,0.6-0.2c0,0,0,0,0.1,0c0,0,0.1,0,0.1,0.1l0,0.1L54.7,45.1z"/>
			<path class="st1" d="M56.4,48l0-0.1c0-0.5,0.1-1.1,0.1-1.9c0-0.3,0-0.5-0.1-0.7c-0.1-0.1-0.1-0.2-0.3-0.3
				c-0.1-0.1-0.3-0.1-0.4-0.1c-0.2,0-0.4,0.1-0.6,0.2c-0.1,0.1-0.2,0.2-0.3,0.4c0,0.1,0,0.2,0,0.7c0,0.4,0,0.9,0,1.2
				c0,0.1,0,0.2,0,0.2c0,0,0.1,0.1,0.2,0.1h0.3V48l-0.1,0c-0.4,0-0.7,0-1,0c-0.3,0-0.6,0-0.9,0l-0.1,0v-0.4h0.4c0.1,0,0.2,0,0.2-0.1
				c0,0,0-0.3,0-1.5c0-0.4,0-0.7,0-1c0-0.1,0-0.1,0-0.1c0,0,0,0-0.2,0h-0.4v-0.4l0.1,0c0.2,0,0.4-0.1,0.6-0.1c0.2,0,0.3-0.1,0.5-0.2
				c0,0,0.1,0,0.1,0c0.1,0,0.1,0,0.1,0.2l0,0.4l0.4-0.4c0.1-0.1,0.2-0.1,0.2-0.1c0.2-0.1,0.3-0.1,0.5-0.1c0.3,0,0.5,0.1,0.7,0.2
				c0.2,0.1,0.4,0.3,0.4,0.5c0.1,0.2,0.1,0.5,0.1,0.8l0,1.2c0,0.5,0,0.6,0,0.6c0,0,0,0.1,0.2,0.1h0.3V48l-0.1,0c-0.3,0-0.5,0-0.7,0
				c-0.2,0-0.4,0-0.6,0L56.4,48z M54.4,47.8c0.2,0,0.5,0,0.9,0v0h-0.2c-0.2,0-0.3,0-0.4-0.1c-0.1,0-0.1-0.1-0.1-0.3
				c0-0.4,0-0.8,0-1.3c0-0.4,0-0.7,0-0.8c0-0.2,0.2-0.3,0.3-0.4c0.2-0.1,0.4-0.2,0.7-0.2c0.2,0,0.4,0,0.5,0.1
				c0.2,0.1,0.3,0.2,0.3,0.4c0.1,0.1,0.1,0.4,0.1,0.7c0,0.8,0,1.4-0.1,1.8c0.2,0,0.3,0,0.5,0c0.2,0,0.4,0,0.6,0v0h-0.2
				c-0.2,0-0.3-0.1-0.3-0.2c0-0.1-0.1-0.2-0.1-0.7l0-1.2c0-0.3,0-0.6-0.1-0.8c-0.1-0.2-0.2-0.3-0.4-0.4c-0.2-0.1-0.4-0.1-0.6-0.1
				c-0.2,0-0.3,0-0.5,0.1c-0.1,0-0.1,0.1-0.2,0.1l-0.7,0.6l0-0.8c0,0,0,0,0,0c-0.2,0.1-0.4,0.2-0.6,0.2c-0.1,0-0.3,0.1-0.5,0.1v0.1
				h0.2c0.2,0,0.3,0,0.3,0.1c0.1,0,0.1,0.1,0.1,0.2c0,0.2,0,0.6,0,1c0,1.4,0,1.5-0.1,1.6c0,0.1-0.2,0.2-0.4,0.2h-0.2v0
				C53.9,47.9,54.2,47.8,54.4,47.8z M54.7,44.4L54.7,44.4L54.7,44.4z"/>
		</g>
		<g>
			<path class="st5" d="M58.5,46.2c0,0.5,0.1,0.8,0.4,1.1c0.2,0.3,0.5,0.4,0.9,0.4c0.2,0,0.3,0,0.5-0.1c0.2-0.1,0.3-0.1,0.5-0.3
				l0.1,0.1l-0.1,0.3c-0.2,0.1-0.4,0.2-0.6,0.3C59.9,48,59.7,48,59.5,48c-0.5,0-0.9-0.2-1.2-0.5c-0.3-0.3-0.5-0.7-0.5-1.3
				c0-0.4,0.1-0.8,0.3-1.1c0.1-0.2,0.3-0.4,0.6-0.6c0.3-0.2,0.6-0.3,0.9-0.3c0.4,0,0.8,0.1,1,0.4c0.3,0.3,0.4,0.6,0.4,1.1l0,0.2
				c-0.2,0-0.3,0.1-0.5,0.1c-0.3,0-0.6,0-1.1,0H58.5z M58.5,45.9c0.4,0,0.8,0,1.3,0c0.2,0,0.4,0,0.5,0v-0.2c0-0.2,0-0.4-0.1-0.6
				c-0.1-0.1-0.1-0.2-0.3-0.3c-0.1-0.1-0.3-0.1-0.5-0.1c-0.3,0-0.5,0.1-0.7,0.3C58.6,45.2,58.5,45.5,58.5,45.9z"/>
			<path class="st1" d="M59.5,48.1c-0.5,0-0.9-0.2-1.3-0.5c-0.3-0.3-0.5-0.8-0.5-1.3c0-0.4,0.1-0.8,0.3-1.1c0.1-0.2,0.3-0.4,0.7-0.6
				c0.3-0.2,0.6-0.3,0.9-0.3c0.5,0,0.8,0.1,1.1,0.4c0.3,0.3,0.4,0.7,0.4,1.1l0,0.3l-0.1,0c-0.2,0-0.3,0.1-0.5,0.1
				c-0.3,0-0.6,0-1.1,0h-0.8c0,0.4,0.1,0.7,0.3,1c0.2,0.2,0.5,0.3,0.9,0.3c0.2,0,0.3,0,0.5-0.1c0.2-0.1,0.3-0.1,0.5-0.2l0.1,0
				l0.2,0.1l-0.1,0.4l0,0c-0.2,0.1-0.4,0.2-0.6,0.3C60,48.1,59.7,48.1,59.5,48.1z M59.6,44.5c-0.3,0-0.6,0.1-0.8,0.2
				c-0.3,0.2-0.5,0.3-0.6,0.5c-0.2,0.3-0.2,0.6-0.2,1c0,0.5,0.1,0.9,0.4,1.2c0.3,0.3,0.7,0.4,1.1,0.4c0.2,0,0.4,0,0.6-0.1
				c0.2-0.1,0.4-0.1,0.6-0.2l0.1-0.2c-0.1,0.1-0.3,0.1-0.4,0.2c-0.2,0.1-0.4,0.1-0.5,0.1c-0.4,0-0.7-0.1-1-0.4
				c-0.2-0.3-0.4-0.7-0.4-1.2l0-0.1h1c0.5,0,0.8,0,1.1,0c0.1,0,0.3,0,0.4-0.1l0-0.2c0-0.4-0.1-0.8-0.4-1
				C60.3,44.6,60,44.5,59.6,44.5z M59.8,46c-0.5,0-0.9,0-1.3,0l-0.1,0l0-0.1c0-0.4,0.1-0.8,0.3-1c0.2-0.2,0.4-0.3,0.7-0.3
				c0.2,0,0.4,0,0.5,0.1c0.1,0.1,0.3,0.2,0.3,0.3c0.1,0.2,0.1,0.4,0.1,0.6V46l-0.1,0C60.2,46,60,46,59.8,46z M58.6,45.8
				c0.4,0,0.7,0,1.2,0c0.2,0,0.3,0,0.4,0v-0.1c0-0.2,0-0.4-0.1-0.6c0-0.1-0.1-0.2-0.2-0.3c-0.1-0.1-0.3-0.1-0.4-0.1
				c-0.3,0-0.4,0.1-0.6,0.3C58.7,45.2,58.6,45.5,58.6,45.8z"/>
		</g>
		<g>
			<path class="st5" d="M37.4,52.4v1c0,0.2,0,0.4,0,0.6c0,0.3,0,0.5,0,0.6c0,0,0,0.1,0.1,0.1c0.1,0,0.2,0.1,0.3,0.1h0.3V55
				c-0.3,0-0.6,0-0.9,0c-0.3,0-0.7,0-1.2,0v-0.2h0.2c0.3,0,0.4,0,0.5-0.1c0-0.1,0.1-0.5,0.1-1.2v-2.2c0-0.6,0-1-0.1-1.1
				c0-0.1-0.2-0.1-0.4-0.1H36v-0.2c0.4,0,0.8,0,1.1,0c0.4,0,0.7,0,1,0V50H38c-0.2,0-0.4,0-0.4,0.1c-0.1,0-0.1,0.1-0.1,0.2
				c0,0.1,0,0.5,0,1V52c0.4,0,1,0,1.7,0c0.6,0,1,0,1.4,0v-0.7c0-0.4,0-0.8,0-1.1c0-0.1,0-0.2-0.1-0.2C40.3,50,40.1,50,40,50h-0.3
				v-0.2c0.4,0,0.7,0,1.1,0c0.4,0,0.7,0,1.1,0V50h-0.3c-0.2,0-0.3,0-0.4,0.1c-0.1,0-0.1,0.1-0.1,0.2c0,0.1,0,0.5,0,1.1v2
				c0,0.8,0,1.2,0.1,1.3c0,0.1,0.2,0.1,0.4,0.1h0.3V55c-0.3,0-0.7,0-1,0c-0.4,0-0.8,0-1.2,0v-0.2H40c0.2,0,0.3,0,0.4-0.1
				c0.1,0,0.1-0.1,0.1-0.2c0-0.3,0-0.6,0-1.1v-1c-0.3,0-0.8,0-1.3,0C38.4,52.3,37.8,52.4,37.4,52.4z"/>
			<path class="st1" d="M38.2,55.1L38.2,55.1c-0.4,0-0.7,0-1,0c-0.3,0-0.7,0-1.2,0l-0.1,0v-0.4h0.3c0.3,0,0.4-0.1,0.4-0.1
				c0,0,0.1-0.2,0.1-1.2v-2.2c0-0.8,0-1-0.1-1.1c0,0-0.1-0.1-0.3-0.1h-0.4v-0.4l0.1,0c0.8,0,1.5,0,2.1,0l0.1,0v0.4H38
				c-0.3,0-0.4,0-0.4,0c0,0-0.1,0.1-0.1,0.1c0,0.1,0,0.5,0,1V52c0.4,0,1,0,1.6,0c0.5,0,1,0,1.3,0v-0.6c0-0.4,0-0.8,0-1
				c0-0.1,0-0.1-0.1-0.2c0,0-0.1,0-0.3,0h-0.4v-0.4l0.1,0c0.4,0,0.7,0,1.1,0c0.4,0,0.7,0,1.1,0l0.1,0v0.4h-0.4c-0.2,0-0.3,0-0.3,0
				c0,0-0.1,0.1-0.1,0.2c0,0.1,0,0.5,0,1v2c0,1,0,1.2,0.1,1.2c0,0,0.1,0.1,0.3,0.1H42v0.4l-0.1,0c-0.3,0-0.7,0-1,0
				c-0.4,0-0.8,0-1.1,0l-0.1,0v-0.4H40c0.2,0,0.3,0,0.3,0c0,0,0.1-0.1,0.1-0.2c0-0.3,0-0.6,0-1.1v-0.9c-0.3,0-0.7,0-1.2,0
				c-0.7,0-1.3,0-1.7,0v0.9c0,0.2,0,0.4,0,0.6c0,0.4,0,0.5,0,0.5c0,0,0,0,0.1,0.1c0,0,0.1,0,0.3,0h0.3V55.1z M36,54.8L36,54.8
				c0.5,0,0.9,0,1.1,0c0.3,0,0.6,0,0.8,0v-0.1h-0.2c-0.2,0-0.3,0-0.3-0.1c-0.1,0-0.1-0.1-0.1-0.2c0,0,0-0.1,0-0.6c0-0.2,0-0.4,0-0.6
				v-1.1l0.1,0c0.4,0,1,0,1.7,0c0.5,0,1,0,1.3,0l0.1,0v1c0,0.5,0,0.9,0,1.1c0,0.1-0.1,0.2-0.1,0.3c-0.1,0.1-0.2,0.1-0.4,0.1h-0.2
				v0.1c0.6,0,1.4,0,2,0v-0.1h-0.2c-0.3,0-0.4-0.1-0.5-0.2c0-0.1-0.1-0.3-0.1-1.3v-2c0-0.6,0-0.9,0-1.1c0-0.1,0.1-0.2,0.1-0.3
				c0.1-0.1,0.2-0.1,0.4-0.1h0.2v-0.1c-0.4,0-0.7,0-1,0c-0.3,0-0.6,0-1,0v0.1H40c0.2,0,0.3,0,0.4,0.1c0.1,0.1,0.1,0.2,0.1,0.3
				c0,0.3,0,0.6,0,1.1v0.8l-0.1,0c-0.4,0-0.8,0-1.4,0c-0.7,0-1.2,0-1.7,0l-0.1,0v-0.9c0-0.5,0-0.9,0-1c0-0.1,0.1-0.2,0.1-0.2
				c0,0,0.1-0.1,0.5-0.1H38v-0.1c-0.6,0-1.2,0-2,0v0.1h0.2c0.3,0,0.4,0.1,0.5,0.2c0,0.1,0.1,0.3,0.1,1.1v2.2c0,1,0,1.2-0.1,1.2
				c-0.1,0.1-0.2,0.2-0.5,0.2H36z"/>
		</g>
		<g>
			<path class="st5" d="M42.8,53.2c0,0.5,0.1,0.8,0.4,1.1c0.2,0.3,0.5,0.4,0.9,0.4c0.2,0,0.3,0,0.5-0.1c0.2-0.1,0.3-0.1,0.5-0.3
				l0.1,0.1L45,54.7c-0.2,0.1-0.4,0.2-0.6,0.3c-0.2,0.1-0.4,0.1-0.7,0.1c-0.5,0-0.9-0.2-1.2-0.5c-0.3-0.3-0.5-0.7-0.5-1.3
				c0-0.4,0.1-0.8,0.3-1.1c0.1-0.2,0.3-0.4,0.6-0.6c0.3-0.2,0.6-0.3,0.9-0.3c0.4,0,0.8,0.1,1,0.4c0.3,0.3,0.4,0.6,0.4,1.1l0,0.2
				c-0.2,0-0.3,0.1-0.5,0.1c-0.3,0-0.6,0-1.1,0H42.8z M42.8,52.9c0.4,0,0.8,0,1.3,0c0.2,0,0.4,0,0.5,0v-0.2c0-0.2,0-0.4-0.1-0.6
				c-0.1-0.1-0.1-0.2-0.3-0.3c-0.1-0.1-0.3-0.1-0.5-0.1c-0.3,0-0.5,0.1-0.7,0.3C42.9,52.2,42.8,52.5,42.8,52.9z"/>
			<path class="st1" d="M43.7,55.1c-0.5,0-0.9-0.2-1.3-0.5c-0.3-0.3-0.5-0.8-0.5-1.3c0-0.4,0.1-0.8,0.3-1.1c0.1-0.2,0.3-0.4,0.7-0.6
				c0.3-0.2,0.6-0.3,0.9-0.3c0.5,0,0.8,0.1,1.1,0.4c0.3,0.3,0.4,0.7,0.4,1.1l0,0.3l-0.1,0c-0.2,0-0.3,0.1-0.5,0.1
				c-0.3,0-0.6,0-1.1,0h-0.8c0,0.4,0.1,0.7,0.3,1c0.2,0.2,0.5,0.3,0.9,0.3c0.2,0,0.3,0,0.5-0.1c0.2-0.1,0.3-0.1,0.5-0.2l0.1,0
				l0.2,0.1l-0.1,0.4l0,0c-0.2,0.1-0.4,0.2-0.6,0.3C44.2,55.1,44,55.1,43.7,55.1z M43.8,51.5c-0.3,0-0.6,0.1-0.8,0.2
				c-0.3,0.2-0.5,0.3-0.6,0.5c-0.2,0.3-0.2,0.6-0.2,1c0,0.5,0.1,0.9,0.4,1.2c0.3,0.3,0.7,0.4,1.1,0.4c0.2,0,0.4,0,0.6-0.1
				c0.2-0.1,0.4-0.1,0.6-0.2l0.1-0.2c-0.1,0.1-0.3,0.1-0.4,0.2c-0.2,0.1-0.4,0.1-0.5,0.1c-0.4,0-0.7-0.1-1-0.4
				c-0.2-0.3-0.4-0.7-0.4-1.2l0-0.1h1c0.5,0,0.8,0,1.1,0c0.1,0,0.3,0,0.4-0.1l0-0.2c0-0.4-0.1-0.8-0.4-1
				C44.6,51.6,44.3,51.5,43.8,51.5z M44,53c-0.5,0-0.9,0-1.3,0l-0.1,0l0-0.1c0-0.4,0.1-0.8,0.3-1c0.2-0.2,0.4-0.3,0.7-0.3
				c0.2,0,0.4,0,0.5,0.1c0.1,0.1,0.3,0.2,0.3,0.3c0.1,0.2,0.1,0.4,0.1,0.6V53l-0.1,0C44.4,53,44.2,53,44,53z M42.9,52.8
				c0.4,0,0.7,0,1.2,0c0.2,0,0.3,0,0.4,0v-0.1c0-0.2,0-0.4-0.1-0.6c0-0.1-0.1-0.2-0.2-0.3c-0.1-0.1-0.3-0.1-0.4-0.1
				c-0.2,0-0.4,0.1-0.6,0.3C43,52.2,42.9,52.5,42.9,52.8z"/>
		</g>
		<g>
			<path class="st5" d="M46.7,52.3c0.1-0.1,0.2-0.2,0.3-0.4c0.1-0.2,0.3-0.3,0.4-0.4c0.1-0.1,0.2-0.1,0.4-0.1c0.1,0,0.2,0,0.3,0
				c0,0,0.1,0,0.1,0.1l0,0c0,0.2-0.1,0.5-0.1,0.8h-0.2c-0.1-0.1-0.1-0.2-0.2-0.3c-0.1-0.1-0.2-0.1-0.3-0.1c-0.1,0-0.3,0-0.4,0.1
				c-0.1,0.1-0.2,0.2-0.2,0.4c0,0.2-0.1,0.5-0.1,1c0,0.3,0,0.6,0,0.9c0,0.1,0,0.1,0.1,0.2c0.1,0.1,0.2,0.1,0.4,0.1h0.2V55
				c-0.4,0-0.7,0-1.1,0c-0.3,0-0.6,0-1,0v-0.2l0.4,0c0.1,0,0.2,0,0.2-0.1c0,0,0.1-0.2,0.1-0.4c0-0.4,0-0.8,0-1.3c0-0.6,0-0.9-0.1-1
				c0-0.1-0.1-0.1-0.3-0.1h-0.3v-0.2c0.2,0,0.5-0.1,0.6-0.1c0.2,0,0.4-0.1,0.5-0.2c0,0,0.1,0,0.1,0c0,0,0,0,0.1,0c0,0,0,0,0,0.1
				L46.7,52.3z"/>
			<path class="st1" d="M45.3,55.1v-0.4l0.4,0c0.2,0,0.2,0,0.2,0c0,0,0-0.1,0-0.3c0-0.3,0-0.8,0-1.3c0-0.8,0-1-0.1-1
				c0,0-0.1,0-0.2,0h-0.4v-0.4l0.1,0c0.2,0,0.4-0.1,0.6-0.1c0.2,0,0.3-0.1,0.5-0.2c0.1-0.1,0.2,0,0.2,0c0,0,0,0.1,0,0.1l0,0.5
				c0.1-0.1,0.1-0.1,0.2-0.2c0.1-0.2,0.3-0.3,0.4-0.4c0.1-0.1,0.3-0.1,0.4-0.1c0.1,0,0.3,0,0.3,0.1c0.1,0,0.1,0.1,0.1,0.1l0,0
				c0,0.2-0.1,0.5-0.1,0.8l0,0.1h-0.3l0-0.1c0-0.1-0.1-0.2-0.2-0.2c-0.1,0-0.1-0.1-0.2-0.1c-0.1,0-0.2,0-0.3,0.1s-0.2,0.2-0.2,0.4
				c0,0.2-0.1,0.5-0.1,1c0,0.3,0,0.6,0,0.8c0,0.1,0,0.1,0,0.1c0.1,0,0.2,0.1,0.4,0.1h0.3v0.4l-0.1,0C46.7,55,46.1,55,45.3,55.1
				L45.3,55.1z M46.4,54.9c0.3,0,0.6,0,1,0v0h-0.1c-0.2,0-0.3,0-0.5-0.1c-0.1,0-0.1-0.1-0.1-0.2c0-0.2,0-0.5,0-0.9
				c0-0.5,0-0.9,0.1-1.1c0-0.2,0.1-0.3,0.3-0.5c0.1-0.1,0.3-0.2,0.5-0.2c0.1,0,0.2,0,0.3,0.1c0.1,0.1,0.1,0.1,0.2,0.3h0
				c0-0.3,0-0.6,0.1-0.8l0,0c-0.1,0-0.2,0-0.3,0c-0.1,0-0.2,0-0.3,0.1c-0.1,0.1-0.2,0.2-0.4,0.3c-0.1,0.2-0.2,0.3-0.3,0.4l-0.1,0.1
				l0-0.9c0,0,0,0,0,0c0,0,0,0,0,0c-0.2,0.1-0.3,0.1-0.5,0.2c-0.2,0-0.4,0.1-0.6,0.1v0.1h0.2c0.2,0,0.3,0,0.4,0.1
				c0,0.1,0.1,0.3,0.1,1.1c0,0.5,0,0.9,0,1.3c0,0.3,0,0.4-0.1,0.4c0,0.1-0.1,0.1-0.3,0.1l-0.3,0v0C45.8,54.9,46.1,54.9,46.4,54.9z"
				/>
		</g>
		<g>
			<path class="st5" d="M49.5,51.4L49.5,51.4c0.1,0.2,0.1,0.4,0.1,0.7c0,0.7,0,1.2,0,1.6c0,0.3,0,0.6,0,0.8c0,0.1,0,0.1,0.1,0.2
				c0,0,0.1,0.1,0.3,0.1l0.3,0V55c-0.4,0-0.7,0-1,0c-0.3,0-0.6,0-0.9,0v-0.2l0.3,0c0.1,0,0.2,0,0.2-0.1c0,0,0-0.2,0.1-0.4
				c0-0.3,0-0.7,0-1.3c0-0.4,0-0.7,0-0.9c0-0.1,0-0.1-0.1-0.2c0,0-0.1,0-0.3,0h-0.3v-0.2c0.3,0,0.5-0.1,0.7-0.1
				C49.1,51.6,49.3,51.5,49.5,51.4z M49.2,49.8c0.1,0,0.2,0,0.3,0.1c0.1,0.1,0.1,0.2,0.1,0.3c0,0.1,0,0.2-0.1,0.3
				c-0.1,0.1-0.2,0.1-0.3,0.1c-0.1,0-0.2,0-0.3-0.1c-0.1-0.1-0.1-0.2-0.1-0.3c0-0.1,0-0.2,0.1-0.3C49,49.8,49.1,49.8,49.2,49.8z"/>
			<path class="st1" d="M48.2,55.1v-0.4l0.4,0c0.1,0,0.2,0,0.2,0c0,0,0-0.1,0-0.3c0-0.3,0-0.7,0-1.3c0-0.4,0-0.7,0-0.9
				c0,0,0-0.1,0-0.1c0,0,0,0-0.2,0h-0.4v-0.4l0.1,0c0.3,0,0.5-0.1,0.7-0.1c0.1,0,0.3-0.1,0.5-0.2l0,0l0.2,0.1l0,0.1
				c0,0.2,0,0.4,0,0.6c0,0.7,0,1.2,0,1.6c0,0.3,0,0.6,0,0.8c0,0.1,0,0.1,0,0.1c0,0,0,0,0.2,0.1l0.3,0v0.4l-0.1,0c-0.4,0-0.7,0-1,0
				C48.9,55,48.6,55,48.2,55.1L48.2,55.1z M49.1,54.9c0.3,0,0.6,0,0.9,0v0l-0.2,0c-0.2,0-0.3-0.1-0.3-0.1c-0.1,0-0.1-0.1-0.1-0.2
				c0-0.2,0-0.5,0-0.8c0-0.3,0-0.9,0-1.6c0-0.2,0-0.4,0-0.6l0,0c-0.2,0.1-0.4,0.1-0.5,0.2c-0.1,0-0.3,0.1-0.6,0.1v0.1h0.2
				c0.2,0,0.3,0,0.3,0.1c0.1,0,0.1,0.1,0.1,0.2c0,0.2,0,0.5,0,0.9c0,0.5,0,1,0,1.3c0,0.3,0,0.4-0.1,0.4c0,0.1-0.1,0.1-0.3,0.1
				l-0.2,0v0C48.6,54.9,48.9,54.9,49.1,54.9z M49.2,50.7c-0.1,0-0.3,0-0.4-0.1s-0.1-0.2-0.1-0.4c0-0.1,0-0.3,0.1-0.4
				c0.1-0.1,0.2-0.1,0.4-0.1c0.1,0,0.3,0.1,0.4,0.1c0.1,0.1,0.1,0.2,0.1,0.4c0,0.1,0,0.3-0.1,0.4S49.3,50.7,49.2,50.7z M49.2,49.9
				c-0.1,0-0.2,0-0.2,0.1c-0.1,0.1-0.1,0.1-0.1,0.2c0,0.1,0,0.2,0.1,0.2c0.1,0.1,0.3,0.1,0.5,0c0.1-0.1,0.1-0.1,0.1-0.2
				c0-0.1,0-0.2-0.1-0.2C49.3,49.9,49.3,49.9,49.2,49.9z"/>
		</g>
		<g>
			<path class="st5" d="M51.5,52.1v1.4c0,0.4,0,0.6,0,0.7c0,0.1,0.1,0.2,0.1,0.2c0.1,0.1,0.2,0.1,0.3,0.1c0.1,0,0.1,0,0.2,0
				c0.1,0,0.1-0.1,0.2-0.1l0.1,0.1L52.1,55c-0.1,0-0.2,0-0.2,0.1s-0.1,0-0.2,0c-0.2,0-0.3,0-0.5-0.1c-0.1-0.1-0.2-0.1-0.3-0.3
				c-0.1-0.1-0.1-0.3-0.1-0.5l0-0.7v-1.4c-0.2,0-0.4,0-0.6,0V52c0.2-0.1,0.4-0.2,0.6-0.3c0-0.4,0-0.7,0-1.1c0.3-0.1,0.5-0.2,0.6-0.3
				l0.1,0.1c0,0.2,0,0.6-0.1,1.4c0.3,0,0.5,0,0.7,0l0.3,0l0,0.4l-0.2,0l-0.7,0H51.5z"/>
			<path class="st1" d="M51.6,55.1c-0.2,0-0.4,0-0.5-0.1c-0.1-0.1-0.2-0.2-0.3-0.3c-0.1-0.1-0.1-0.3-0.1-0.5l0-0.7v-1.3
				c-0.2,0-0.3,0-0.5,0l-0.1,0v-0.3l0.1,0c0.2-0.1,0.4-0.1,0.5-0.2c0-0.3,0-0.7,0-1.1l0-0.1l0.1,0c0.3-0.1,0.5-0.2,0.6-0.3l0,0
				l0.2,0.1l0,0c0,0.2,0,0.6-0.1,1.3c0.3,0,0.5,0,0.6,0l0.4,0l-0.1,0.6l-0.2,0l-0.7,0v1.4c0,0.5,0,0.6,0,0.7c0,0.1,0.1,0.2,0.1,0.2
				c0.1,0,0.1,0.1,0.2,0.1c0.1,0,0.1,0,0.2,0c0.1,0,0.1-0.1,0.2-0.1l0.1-0.1l0.2,0.3L52.1,55l0,0c-0.1,0-0.2,0.1-0.2,0.1
				C51.8,55.1,51.7,55.1,51.6,55.1z M50.8,52L50.8,52l0.1,1.5l0,0.7c0,0.2,0,0.3,0.1,0.4c0,0.1,0.1,0.2,0.2,0.2
				c0.2,0.1,0.4,0.1,0.6,0.1c0.1,0,0.1,0,0.2-0.1l0.3-0.3l0,0c-0.1,0-0.1,0.1-0.2,0.1c-0.1,0-0.2,0-0.2,0c-0.1,0-0.2,0-0.3-0.1
				c-0.1-0.1-0.2-0.2-0.2-0.3c0-0.1,0-0.4,0-0.7V52l1,0l0-0.2l-0.2,0c-0.2,0-0.4,0-0.7,0h-0.1l0-0.1c0-0.7,0-1.1,0.1-1.3l0,0
				c-0.1,0.1-0.3,0.1-0.5,0.2c0,0.4,0,0.8,0,1.1l0,0.1l0,0c-0.2,0.1-0.3,0.2-0.5,0.2v0C50.5,52,50.7,52,50.8,52z"/>
		</g>
		<g>
			<path class="st5" d="M52.9,52.4l0-0.2l0-0.3l0.4-0.2c0.2-0.1,0.3-0.2,0.5-0.2c0.1,0,0.3-0.1,0.4-0.1c0.3,0,0.6,0.1,0.8,0.2
				c0.2,0.2,0.3,0.3,0.4,0.6c0,0.2,0,0.6,0.1,1.3c0,0.7,0,1,0,1.1c0,0.1,0.1,0.1,0.2,0.1H56V55c-0.3,0-0.5,0-0.6,0
				c-0.1,0-0.3,0-0.6,0l0-0.3c0-0.1,0-0.2,0-0.3l-0.8,0.6C54,55,53.9,55,53.9,55c-0.1,0-0.2,0-0.3,0c-0.3,0-0.6-0.1-0.7-0.2
				c-0.2-0.2-0.3-0.4-0.3-0.6c0-0.2,0.1-0.5,0.2-0.6c0.1-0.2,0.3-0.3,0.5-0.4c0.2-0.1,0.7-0.2,1.5-0.3c0-0.3-0.1-0.5-0.2-0.7
				c-0.2-0.2-0.4-0.3-0.7-0.3c-0.1,0-0.2,0-0.3,0c-0.1,0-0.2,0.1-0.3,0.1c-0.1,0.2-0.1,0.3-0.2,0.5L52.9,52.4z M54.8,53
				c-0.7,0.1-1.1,0.3-1.3,0.4c-0.2,0.1-0.3,0.3-0.3,0.6c0,0.2,0.1,0.3,0.2,0.4c0.1,0.1,0.2,0.2,0.4,0.2c0.2,0,0.4-0.1,0.5-0.2
				c0.2-0.1,0.3-0.3,0.5-0.5l0-0.8L54.8,53z"/>
			<path class="st1" d="M53.6,55.1c-0.3,0-0.6-0.1-0.8-0.3c-0.2-0.2-0.3-0.4-0.3-0.7c0-0.3,0.1-0.5,0.2-0.7c0.1-0.2,0.3-0.3,0.5-0.4
				c0.2-0.1,0.7-0.2,1.5-0.3c0-0.3-0.1-0.4-0.2-0.6c-0.2-0.2-0.4-0.3-0.6-0.3c-0.1,0-0.2,0-0.3,0c-0.1,0-0.2,0.1-0.2,0.1
				c-0.1,0.2-0.1,0.3-0.2,0.5l0,0.1l-0.3-0.1l0-0.3l0-0.3l0.4-0.3c0.2-0.1,0.4-0.2,0.5-0.2c0.1,0,0.3-0.1,0.5-0.1
				c0.4,0,0.6,0.1,0.9,0.2c0.2,0.2,0.4,0.4,0.4,0.6c0,0.2,0,0.6,0.1,1.3c0,0.9,0,1,0,1.1c0,0,0,0,0.1,0H56v0.4l-0.1,0
				c-0.3,0-0.5,0-0.6,0c-0.1,0-0.3,0-0.5,0l-0.1,0l0-0.4c0,0,0-0.1,0-0.1L54.1,55C54,55,54,55.1,53.9,55.1
				C53.8,55.1,53.7,55.1,53.6,55.1z M53.9,51.7c0.3,0,0.6,0.1,0.8,0.3c0.1,0.2,0.2,0.4,0.2,0.8l0,0.1l-0.1,0
				c-0.8,0.1-1.3,0.3-1.5,0.3c-0.2,0.1-0.4,0.2-0.5,0.4c-0.1,0.2-0.2,0.4-0.2,0.6c0,0.2,0.1,0.4,0.2,0.6c0.1,0.1,0.4,0.2,0.7,0.2
				c0.1,0,0.2,0,0.3,0c0.1,0,0.1,0,0.2-0.1l0.9-0.7l0,0.2c0,0.1,0,0.2,0,0.3l0,0.2c0.2,0,0.3,0,0.5,0c0.1,0,0.3,0,0.5,0v-0.1h-0.2
				c-0.2,0-0.2-0.1-0.3-0.2c0,0,0-0.1,0-1.1c0-0.7,0-1.1-0.1-1.3c0-0.2-0.1-0.4-0.3-0.5c-0.2-0.1-0.4-0.2-0.8-0.2
				c-0.1,0-0.3,0-0.4,0.1c-0.1,0-0.3,0.1-0.5,0.2L53,52l0,0.2l0,0.2l0.1,0c0.1-0.1,0.1-0.3,0.2-0.4l0,0l0,0c0.1-0.1,0.2-0.1,0.3-0.1
				C53.7,51.7,53.8,51.7,53.9,51.7z M53.8,54.7c-0.2,0-0.3-0.1-0.5-0.2c-0.1-0.1-0.2-0.3-0.2-0.5c0-0.3,0.1-0.5,0.3-0.7
				c0.2-0.1,0.6-0.3,1.3-0.4l0.1,0l0,0.3l0,0.8l0,0c-0.2,0.2-0.3,0.4-0.5,0.5C54.2,54.6,54,54.7,53.8,54.7z M54.7,53.1
				c-0.6,0.1-1,0.3-1.2,0.4c-0.2,0.1-0.2,0.3-0.2,0.5c0,0.2,0,0.3,0.1,0.4c0.1,0.1,0.2,0.1,0.3,0.1c0.2,0,0.3,0,0.5-0.1
				c0.2-0.1,0.3-0.2,0.4-0.4L54.7,53.1L54.7,53.1z"/>
		</g>
		<g>
			<path class="st5" d="M59.2,52.1c0.1,0.2,0.1,0.3,0.1,0.4c0,0.2-0.1,0.4-0.2,0.6c-0.1,0.2-0.3,0.4-0.6,0.5
				c-0.2,0.1-0.5,0.2-0.8,0.2l-0.2,0c-0.2,0.1-0.3,0.2-0.3,0.3c0,0.1-0.1,0.1-0.1,0.2c0,0.1,0,0.2,0.1,0.2c0.1,0.1,0.3,0.1,0.6,0.1
				c0.1,0,0.3,0,0.5,0c0.3,0,0.5,0,0.7,0c0.2,0,0.3,0,0.4,0.1c0.1,0.1,0.2,0.2,0.3,0.3c0.1,0.2,0.1,0.3,0.1,0.5
				c0,0.3-0.1,0.5-0.3,0.8c-0.2,0.3-0.4,0.5-0.7,0.6c-0.3,0.2-0.7,0.2-1.1,0.2c-0.5,0-0.9-0.1-1.2-0.3c-0.3-0.2-0.4-0.5-0.4-0.8
				c0-0.2,0.1-0.4,0.2-0.6c0.3-0.1,0.5-0.2,0.6-0.4c-0.2-0.1-0.3-0.1-0.4-0.2c-0.1-0.1-0.1-0.1-0.1-0.2c0-0.1,0-0.2,0.1-0.3
				c0-0.1,0.1-0.1,0.2-0.2l0.4-0.3c-0.3-0.1-0.5-0.2-0.6-0.3c-0.2-0.2-0.3-0.4-0.3-0.7c0-0.2,0.1-0.5,0.2-0.7
				c0.1-0.2,0.3-0.4,0.6-0.5c0.3-0.1,0.6-0.2,0.9-0.2c0.2,0,0.4,0,0.5,0.1c0.1,0,0.3,0.1,0.4,0.3h0.3c0.3,0,0.6,0,0.7,0l0,0.1
				C60,51.9,60,52,59.9,52.1H59.2z M57.7,55c-0.2,0-0.3,0-0.4,0.1c-0.2,0.1-0.3,0.2-0.4,0.3c-0.1,0.1-0.1,0.3-0.1,0.5
				c0,0.3,0.1,0.5,0.3,0.7c0.2,0.2,0.5,0.3,0.8,0.3c0.3,0,0.5-0.1,0.7-0.2c0.2-0.1,0.4-0.2,0.5-0.4c0.1-0.2,0.2-0.4,0.2-0.5
				c0-0.2,0-0.3-0.1-0.4c-0.1-0.1-0.2-0.2-0.3-0.2c-0.1,0-0.2,0-0.4,0H57.7z M58.7,52.7c0-0.3-0.1-0.6-0.2-0.7
				c-0.2-0.2-0.4-0.3-0.6-0.3c-0.2,0-0.4,0.1-0.6,0.2c-0.1,0.2-0.2,0.4-0.2,0.6c0,0.3,0.1,0.6,0.2,0.8c0.2,0.2,0.4,0.3,0.6,0.3
				c0.2,0,0.4-0.1,0.6-0.2C58.6,53.2,58.7,53,58.7,52.7z"/>
			<path class="st1" d="M57.8,57.2c-0.5,0-0.9-0.1-1.2-0.3c-0.3-0.2-0.4-0.5-0.4-0.9c0-0.2,0.1-0.4,0.2-0.7l0,0l0,0
				c0.2-0.1,0.3-0.2,0.5-0.3c-0.1,0-0.2-0.1-0.3-0.1c-0.1-0.1-0.1-0.2-0.1-0.3c0-0.1,0-0.2,0.1-0.3c0-0.1,0.1-0.2,0.3-0.3l0.2-0.1
				c-0.2-0.1-0.4-0.2-0.5-0.3c-0.2-0.2-0.3-0.5-0.3-0.8c0-0.3,0.1-0.5,0.2-0.7c0.1-0.2,0.3-0.4,0.6-0.5c0.3-0.2,0.6-0.2,1-0.2
				c0.2,0,0.4,0,0.5,0.1c0.1,0,0.3,0.1,0.4,0.2h0.3c0.3,0,0.6,0,0.7,0l0.1,0l0.1,0.2l0,0C60.1,51.9,60,52,60,52.1l0,0h-0.6
				c0,0.1,0.1,0.2,0.1,0.3c0,0.2-0.1,0.5-0.2,0.7c-0.1,0.2-0.3,0.4-0.6,0.5c-0.3,0.1-0.5,0.2-0.8,0.2l-0.1,0
				c-0.2,0.1-0.2,0.2-0.3,0.2c0,0,0,0.1,0,0.1c0,0,0,0.1,0.1,0.1c0.1,0,0.2,0.1,0.5,0.1c0.1,0,0.3,0,0.5,0c0.3,0,0.5,0,0.7,0
				c0.2,0,0.4,0,0.5,0.1c0.1,0.1,0.2,0.2,0.3,0.4c0.1,0.2,0.1,0.4,0.1,0.6c0,0.3-0.1,0.6-0.3,0.8c-0.2,0.3-0.4,0.5-0.8,0.6
				C58.6,57.1,58.2,57.2,57.8,57.2z M56.5,55.4c-0.1,0.2-0.2,0.4-0.2,0.5c0,0.3,0.1,0.5,0.4,0.7c0.3,0.2,0.6,0.3,1.1,0.3
				c0.4,0,0.8-0.1,1.1-0.2c0.3-0.1,0.5-0.3,0.7-0.6c0.2-0.2,0.2-0.5,0.2-0.7c0-0.2,0-0.3-0.1-0.5c-0.1-0.1-0.1-0.2-0.2-0.3
				c-0.1-0.1-0.2-0.1-0.4-0.1c-0.1,0-0.4,0-0.7,0c-0.2,0-0.4,0-0.5,0c-0.3,0-0.5,0-0.6-0.1c-0.2-0.1-0.2-0.2-0.2-0.3
				c0-0.1,0-0.1,0.1-0.2c0,0,0.1-0.1,0.1-0.1L57,54.1c-0.2,0.1-0.2,0.2-0.2,0.2c-0.1,0.1-0.1,0.2-0.1,0.3c0,0.1,0,0.1,0.1,0.1
				c0,0,0.1,0.1,0.4,0.2l0.2,0.1L57.1,55C57,55.2,56.8,55.3,56.5,55.4z M58.1,51.5c-0.3,0-0.6,0.1-0.9,0.2c-0.2,0.1-0.4,0.3-0.5,0.5
				c-0.1,0.2-0.2,0.4-0.2,0.6c0,0.3,0.1,0.5,0.2,0.6c0.1,0.1,0.3,0.2,0.6,0.3l0.2,0c0,0,0,0,0,0l0,0l0.2,0c0.3,0,0.5-0.1,0.8-0.2
				c0.2-0.1,0.4-0.3,0.5-0.5c0.1-0.2,0.2-0.4,0.2-0.6c0-0.1,0-0.2-0.1-0.4l0-0.1h0.7c0-0.1,0.1-0.2,0.1-0.2c-0.2,0-0.4,0-0.7,0H59
				l0,0c-0.1-0.1-0.3-0.2-0.4-0.2C58.4,51.5,58.3,51.5,58.1,51.5z M57.9,56.9c-0.4,0-0.7-0.1-0.9-0.3c-0.2-0.2-0.3-0.4-0.3-0.7
				c0-0.2,0-0.4,0.1-0.5c0.1-0.1,0.2-0.2,0.4-0.3c0.1-0.1,0.2-0.1,0.4-0.1h0.9c0.3,0,0.4,0,0.4,0c0.1,0,0.2,0.1,0.3,0.3
				c0.1,0.1,0.1,0.3,0.1,0.5c0,0.2-0.1,0.4-0.2,0.6c-0.1,0.2-0.3,0.3-0.5,0.4C58.5,56.8,58.2,56.9,57.9,56.9z M57.7,55.1
				c-0.2,0-0.3,0-0.3,0c-0.3,0.2-0.3,0.3-0.3,0.3c-0.1,0.1-0.1,0.3-0.1,0.4c0,0.2,0.1,0.4,0.3,0.6c0.2,0.2,0.4,0.2,0.8,0.2
				c0.3,0,0.5,0,0.7-0.1c0.2-0.1,0.3-0.2,0.4-0.4c0.1-0.2,0.2-0.3,0.2-0.5c0-0.1,0-0.3-0.1-0.4c-0.1-0.1-0.1-0.2-0.2-0.2
				c0,0-0.1,0-0.4,0H57.7z M57.9,53.7c-0.3,0-0.5-0.1-0.7-0.3c-0.2-0.2-0.3-0.5-0.3-0.8c0-0.3,0.1-0.5,0.2-0.7
				c0.2-0.2,0.4-0.3,0.6-0.3c0.3,0,0.5,0.1,0.7,0.3c0.2,0.2,0.3,0.5,0.3,0.8c0,0.3-0.1,0.5-0.2,0.7C58.4,53.6,58.1,53.7,57.9,53.7z
				 M57.8,51.7c-0.2,0-0.4,0.1-0.5,0.2c-0.1,0.1-0.2,0.3-0.2,0.6c0,0.3,0.1,0.5,0.2,0.7c0.1,0.2,0.3,0.2,0.5,0.2
				c0.2,0,0.4-0.1,0.5-0.2c0.1-0.1,0.2-0.3,0.2-0.6c0-0.3-0.1-0.5-0.2-0.7C58.2,51.8,58.1,51.7,57.8,51.7z"/>
		</g>
		<g>
			<path class="st5" d="M60.8,53.2c0,0.5,0.1,0.8,0.4,1.1c0.2,0.3,0.5,0.4,0.9,0.4c0.2,0,0.3,0,0.5-0.1c0.2-0.1,0.3-0.1,0.5-0.3
				l0.1,0.1l-0.1,0.3c-0.2,0.1-0.4,0.2-0.6,0.3c-0.2,0.1-0.4,0.1-0.7,0.1c-0.5,0-0.9-0.2-1.2-0.5c-0.3-0.3-0.5-0.7-0.5-1.3
				c0-0.4,0.1-0.8,0.3-1.1c0.1-0.2,0.3-0.4,0.6-0.6c0.3-0.2,0.6-0.3,0.9-0.3c0.4,0,0.8,0.1,1,0.4c0.3,0.3,0.4,0.6,0.4,1.1l0,0.2
				c-0.2,0-0.3,0.1-0.5,0.1c-0.3,0-0.6,0-1.1,0H60.8z M60.9,52.9c0.4,0,0.8,0,1.3,0c0.2,0,0.4,0,0.5,0v-0.2c0-0.2,0-0.4-0.1-0.6
				c-0.1-0.1-0.1-0.2-0.3-0.3c-0.1-0.1-0.3-0.1-0.5-0.1c-0.3,0-0.5,0.1-0.7,0.3C60.9,52.2,60.9,52.5,60.9,52.9z"/>
			<path class="st1" d="M61.8,55.1c-0.5,0-0.9-0.2-1.3-0.5c-0.3-0.3-0.5-0.8-0.5-1.3c0-0.4,0.1-0.8,0.3-1.1c0.1-0.2,0.3-0.4,0.7-0.6
				c0.3-0.2,0.6-0.3,0.9-0.3c0.5,0,0.8,0.1,1.1,0.4c0.3,0.3,0.4,0.7,0.4,1.1l0,0.3l-0.1,0c-0.2,0-0.3,0.1-0.5,0.1
				c-0.3,0-0.6,0-1.1,0h-0.8c0,0.4,0.1,0.7,0.3,1c0.2,0.2,0.5,0.3,0.9,0.3c0.2,0,0.3,0,0.5-0.1c0.2-0.1,0.3-0.1,0.5-0.2l0.1,0
				l0.2,0.1l-0.1,0.4l0,0c-0.2,0.1-0.4,0.2-0.6,0.3C62.3,55.1,62,55.1,61.8,55.1z M61.9,51.5c-0.3,0-0.6,0.1-0.8,0.2
				c-0.3,0.2-0.5,0.3-0.6,0.5c-0.2,0.3-0.2,0.6-0.2,1c0,0.5,0.1,0.9,0.4,1.2c0.3,0.3,0.7,0.4,1.1,0.4c0.2,0,0.4,0,0.6-0.1
				c0.2-0.1,0.4-0.1,0.6-0.2l0.1-0.2c-0.1,0.1-0.3,0.1-0.4,0.2c-0.2,0.1-0.4,0.1-0.5,0.1c-0.4,0-0.7-0.1-1-0.4
				c-0.2-0.3-0.4-0.7-0.4-1.2l0-0.1h1c0.5,0,0.8,0,1.1,0c0.1,0,0.3,0,0.4-0.1l0-0.2c0-0.4-0.1-0.8-0.4-1
				C62.6,51.6,62.3,51.5,61.9,51.5z M62.1,53c-0.5,0-0.9,0-1.3,0l-0.1,0l0-0.1c0-0.4,0.1-0.8,0.3-1c0.2-0.2,0.4-0.3,0.7-0.3
				c0.2,0,0.4,0,0.5,0.1c0.1,0.1,0.3,0.2,0.3,0.3c0.1,0.2,0.1,0.4,0.1,0.6V53l-0.1,0C62.5,53,62.3,53,62.1,53z M60.9,52.8
				c0.4,0,0.7,0,1.2,0c0.2,0,0.3,0,0.4,0v-0.1c0-0.2,0-0.4-0.1-0.6c0-0.1-0.1-0.2-0.2-0.3c-0.1-0.1-0.3-0.1-0.4-0.1
				c-0.2,0-0.4,0.1-0.6,0.3C61,52.2,61,52.5,60.9,52.8z"/>
		</g>
		<g>
			<path class="st5" d="M42.7,57c-0.1,0.3-0.1,0.6-0.1,1h-0.3v-0.3c0-0.2,0-0.3-0.1-0.4c-0.1-0.1-0.2-0.1-0.4-0.2
				C41.6,57,41.4,57,41.1,57c-0.4,0-0.7,0.1-0.9,0.3c-0.2,0.2-0.3,0.5-0.3,0.8c0,0.2,0,0.4,0.1,0.5c0.1,0.1,0.2,0.2,0.4,0.3
				c0.2,0.1,0.5,0.1,1,0.2c0.5,0,0.8,0.1,1,0.2c0.2,0.1,0.3,0.2,0.4,0.4c0.1,0.2,0.2,0.4,0.2,0.6c0,0.5-0.2,0.9-0.6,1.3
				c-0.4,0.4-1,0.5-1.6,0.5c-0.2,0-0.5,0-0.7-0.1c-0.2,0-0.5-0.1-0.7-0.2c0-0.3,0.1-0.7,0.1-1.1h0.3v0.2c0,0.2,0,0.4,0,0.4
				c0,0.1,0.1,0.1,0.2,0.2c0.1,0.1,0.3,0.2,0.5,0.2c0.2,0.1,0.4,0.1,0.6,0.1c0.5,0,0.8-0.1,1.1-0.3c0.3-0.2,0.4-0.5,0.4-0.8
				c0-0.2,0-0.4-0.1-0.5c-0.1-0.1-0.2-0.2-0.4-0.3c-0.2-0.1-0.4-0.1-0.9-0.2c-0.6,0-0.9-0.1-1.1-0.2c-0.2-0.1-0.4-0.2-0.5-0.4
				c-0.1-0.2-0.2-0.4-0.2-0.7c0-0.5,0.2-0.9,0.5-1.2c0.3-0.3,0.8-0.5,1.4-0.5c0.2,0,0.5,0,0.7,0.1C42.2,56.8,42.4,56.9,42.7,57z"/>
			<path class="st1" d="M40.7,62.2c-0.2,0-0.5,0-0.7-0.1c-0.2,0-0.5-0.1-0.7-0.2l-0.1,0l0-0.1c0-0.3,0.1-0.7,0.1-1.1l0-0.1h0.4v0.3
				c0,0.3,0,0.4,0,0.4c0,0,0,0.1,0.1,0.1c0.1,0.1,0.3,0.2,0.5,0.2c0.2,0,0.4,0.1,0.6,0.1c0.4,0,0.8-0.1,1-0.3
				c0.2-0.2,0.3-0.5,0.3-0.8c0-0.2,0-0.3-0.1-0.5c-0.1-0.1-0.2-0.2-0.3-0.3c-0.1-0.1-0.4-0.1-0.8-0.1c-0.6,0-0.9-0.1-1.2-0.2
				c-0.2-0.1-0.4-0.2-0.5-0.5c-0.1-0.2-0.2-0.5-0.2-0.8c0-0.5,0.2-0.9,0.5-1.2c0.4-0.3,0.9-0.5,1.5-0.5c0.2,0,0.5,0,0.8,0.1
				c0.3,0.1,0.5,0.1,0.8,0.2l0.1,0l0,0.1c-0.1,0.2-0.1,0.6-0.1,1l0,0.1h-0.4v-0.4c0-0.2,0-0.3-0.1-0.3c0,0-0.1-0.1-0.4-0.2
				c-0.2-0.1-0.4-0.1-0.7-0.1c-0.4,0-0.7,0.1-0.9,0.3c-0.2,0.2-0.3,0.4-0.3,0.7c0,0.2,0,0.3,0.1,0.5c0.1,0.1,0.2,0.2,0.3,0.3
				c0.1,0.1,0.5,0.1,1,0.2c0.5,0.1,0.9,0.1,1.1,0.2c0.2,0.1,0.3,0.2,0.5,0.4c0.1,0.2,0.2,0.4,0.2,0.7c0,0.5-0.2,1-0.6,1.3
				C42,62,41.4,62.2,40.7,62.2z M39.4,61.7c0.2,0.1,0.4,0.1,0.6,0.2c0.2,0,0.5,0.1,0.7,0.1c0.7,0,1.2-0.2,1.6-0.5
				c0.4-0.3,0.6-0.7,0.6-1.2c0-0.2,0-0.4-0.1-0.6c-0.1-0.2-0.2-0.3-0.4-0.4c-0.2-0.1-0.5-0.1-1-0.2c-0.5,0-0.9-0.1-1-0.2
				c-0.2-0.1-0.3-0.2-0.4-0.3c-0.1-0.2-0.2-0.3-0.2-0.6c0-0.3,0.1-0.6,0.4-0.8c0.2-0.2,0.6-0.3,1-0.3c0.2,0,0.5,0,0.7,0.1
				c0.2,0.1,0.4,0.2,0.4,0.2c0.1,0.1,0.1,0.2,0.1,0.4v0.2h0.1c0-0.4,0-0.6,0.1-0.9c-0.2-0.1-0.4-0.2-0.7-0.2
				c-0.2-0.1-0.5-0.1-0.7-0.1c-0.6,0-1.1,0.1-1.4,0.4c-0.3,0.3-0.5,0.7-0.5,1.1c0,0.3,0.1,0.5,0.2,0.7c0.1,0.2,0.2,0.3,0.4,0.4
				c0.2,0.1,0.6,0.1,1.1,0.2c0.4,0,0.7,0.1,0.9,0.2c0.2,0.1,0.3,0.2,0.4,0.3c0.1,0.1,0.1,0.3,0.1,0.5c0,0.4-0.1,0.7-0.4,0.9
				c-0.3,0.2-0.6,0.3-1.1,0.3c-0.2,0-0.4,0-0.6-0.1c-0.2-0.1-0.4-0.1-0.5-0.2c-0.1-0.1-0.2-0.1-0.2-0.2c0,0,0-0.1,0-0.5v-0.1h-0.1
				C39.4,61.1,39.4,61.5,39.4,61.7z"/>
		</g>
		<g>
			<path class="st5" d="M43.2,60.2c0-0.3,0.1-0.6,0.2-0.9c0.2-0.3,0.4-0.5,0.7-0.6c0.3-0.2,0.6-0.2,1-0.2c0.5,0,0.9,0.2,1.3,0.5
				c0.3,0.3,0.5,0.7,0.5,1.2c0,0.6-0.2,1.1-0.6,1.4c-0.4,0.3-0.8,0.5-1.3,0.5c-0.5,0-0.9-0.2-1.2-0.5C43.3,61.2,43.2,60.8,43.2,60.2
				z M43.9,60c0,0.5,0.1,0.9,0.3,1.3c0.2,0.4,0.5,0.5,0.9,0.5c0.3,0,0.5-0.1,0.7-0.3c0.2-0.2,0.3-0.6,0.3-1c0-0.4-0.1-0.7-0.2-1
				c-0.1-0.3-0.3-0.5-0.4-0.6c-0.2-0.1-0.4-0.2-0.6-0.2c-0.2,0-0.4,0-0.5,0.1c-0.2,0.1-0.3,0.2-0.3,0.4C43.9,59.5,43.9,59.7,43.9,60
				z"/>
			<path class="st1" d="M44.8,62.2c-0.5,0-0.9-0.2-1.3-0.5c-0.3-0.3-0.5-0.8-0.5-1.4c0-0.4,0.1-0.7,0.2-1c0.2-0.3,0.4-0.5,0.7-0.7
				c0.3-0.2,0.6-0.2,1-0.2c0.5,0,1,0.2,1.3,0.5c0.3,0.3,0.5,0.8,0.5,1.3c0,0.6-0.2,1.1-0.6,1.5C45.8,62,45.4,62.2,44.8,62.2z
				 M45,58.5c-0.3,0-0.7,0.1-0.9,0.2c-0.3,0.1-0.5,0.4-0.6,0.6c-0.1,0.3-0.2,0.6-0.2,0.9c0,0.5,0.1,1,0.4,1.3
				c0.3,0.3,0.7,0.5,1.1,0.5c0.5,0,0.9-0.2,1.3-0.5c0.4-0.3,0.6-0.8,0.6-1.4c0-0.5-0.1-0.9-0.4-1.2C45.9,58.7,45.5,58.5,45,58.5z
				 M45.1,61.9c-0.4,0-0.7-0.2-1-0.6c-0.2-0.4-0.3-0.8-0.3-1.3c0-0.3,0.1-0.5,0.2-0.8c0.1-0.2,0.2-0.3,0.4-0.4
				c0.2-0.1,0.4-0.2,0.6-0.2c0.2,0,0.5,0.1,0.6,0.2c0.2,0.1,0.3,0.3,0.5,0.6c0.1,0.3,0.2,0.6,0.2,1c0,0.5-0.1,0.8-0.3,1.1
				C45.7,61.8,45.4,61.9,45.1,61.9z M44.9,58.8c-0.2,0-0.3,0-0.5,0.1c-0.1,0.1-0.2,0.2-0.3,0.4C44,59.5,44,59.7,44,60
				c0,0.5,0.1,0.9,0.3,1.3c0.2,0.3,0.5,0.5,0.8,0.5c0.3,0,0.5-0.1,0.7-0.3c0.2-0.2,0.3-0.5,0.3-1c0-0.4-0.1-0.7-0.2-0.9
				c-0.1-0.3-0.2-0.4-0.4-0.6C45.3,58.8,45.1,58.8,44.9,58.8z"/>
		</g>
		<g>
			<path class="st5" d="M49.8,61.5L49.8,61.5l-0.1,0.3c-0.2,0.1-0.3,0.2-0.5,0.2s-0.4,0.1-0.5,0.1c-0.4,0-0.7-0.1-0.9-0.2
				c-0.3-0.1-0.4-0.3-0.6-0.6C47.1,61,47,60.7,47,60.3c0-0.3,0.1-0.6,0.2-0.8c0.1-0.2,0.3-0.4,0.4-0.6c0.2-0.1,0.4-0.3,0.7-0.4
				c0.2-0.1,0.4-0.1,0.7-0.1c0.2,0,0.4,0,0.5,0s0.3,0.1,0.4,0.2c-0.1,0.3-0.1,0.6-0.1,1h-0.2v-0.2c0-0.2,0-0.3-0.1-0.3
				c0-0.1-0.1-0.1-0.3-0.2c-0.2-0.1-0.3-0.1-0.5-0.1c-0.3,0-0.6,0.1-0.8,0.3c-0.2,0.2-0.3,0.5-0.3,0.9c0,0.5,0.1,0.9,0.4,1.2
				c0.2,0.3,0.5,0.4,0.9,0.4c0.1,0,0.3,0,0.4-0.1C49.5,61.6,49.7,61.5,49.8,61.5z"/>
			<path class="st1" d="M48.7,62.2c-0.4,0-0.7-0.1-1-0.2c-0.3-0.1-0.5-0.4-0.6-0.6c-0.1-0.3-0.2-0.6-0.2-1c0-0.3,0.1-0.6,0.2-0.9
				c0.1-0.2,0.3-0.4,0.5-0.6c0.2-0.1,0.4-0.3,0.7-0.4c0.2-0.1,0.4-0.1,0.7-0.1c0.2,0,0.4,0,0.5,0c0.1,0,0.3,0.1,0.5,0.2l0.1,0l0,0.1
				c-0.1,0.3-0.1,0.6-0.1,1l0,0.1h-0.4v-0.3c0-0.2,0-0.2-0.1-0.3c0,0-0.1-0.1-0.3-0.2c-0.2-0.1-0.3-0.1-0.5-0.1
				c-0.3,0-0.5,0.1-0.7,0.3c-0.2,0.2-0.2,0.5-0.2,0.8c0,0.5,0.1,0.9,0.4,1.2c0.2,0.3,0.5,0.4,0.9,0.4c0.1,0,0.3,0,0.4-0.1
				c0.1,0,0.3-0.1,0.4-0.2l0.1,0l0.2,0.2l-0.2,0.3l0,0c-0.2,0.1-0.4,0.2-0.5,0.2C49.1,62.1,48.9,62.2,48.7,62.2z M49,58.5
				c-0.2,0-0.4,0-0.6,0.1c-0.3,0.1-0.5,0.3-0.7,0.4c-0.2,0.1-0.3,0.3-0.4,0.5c-0.1,0.2-0.2,0.5-0.2,0.8c0,0.3,0.1,0.6,0.2,0.9
				c0.1,0.2,0.3,0.4,0.5,0.6c0.2,0.1,0.5,0.2,0.9,0.2c0.2,0,0.4,0,0.5-0.1c0.2,0,0.3-0.1,0.5-0.2l0.1-0.2l0,0
				c-0.1,0.1-0.3,0.1-0.4,0.1c-0.1,0-0.3,0.1-0.5,0.1c-0.4,0-0.7-0.2-1-0.5c-0.3-0.3-0.4-0.8-0.4-1.3c0-0.4,0.1-0.7,0.3-1
				c0.2-0.2,0.5-0.3,0.8-0.3c0.2,0,0.4,0,0.6,0.1c0.2,0.1,0.3,0.1,0.3,0.2c0.1,0.1,0.1,0.2,0.1,0.4v0.1h0.1c0-0.3,0-0.6,0.1-0.8
				c-0.1-0.1-0.3-0.1-0.4-0.1C49.3,58.5,49.2,58.5,49,58.5z"/>
		</g>
		<g>
			<path class="st5" d="M51.4,58.4L51.4,58.4c0.1,0.2,0.1,0.4,0.1,0.7c0,0.7,0,1.2,0,1.6c0,0.3,0,0.6,0,0.8c0,0.1,0,0.1,0.1,0.2
				c0,0,0.1,0.1,0.3,0.1l0.3,0V62c-0.4,0-0.7,0-1,0c-0.3,0-0.6,0-0.9,0v-0.2l0.3,0c0.1,0,0.2,0,0.2-0.1c0,0,0-0.2,0.1-0.4
				c0-0.3,0-0.7,0-1.3c0-0.4,0-0.7,0-0.9c0-0.1,0-0.1-0.1-0.2c0,0-0.1,0-0.3,0h-0.3v-0.2c0.3,0,0.5-0.1,0.7-0.1
				C51,58.6,51.2,58.5,51.4,58.4z M51.1,56.8c0.1,0,0.2,0,0.3,0.1c0.1,0.1,0.1,0.2,0.1,0.3c0,0.1,0,0.2-0.1,0.3
				c-0.1,0.1-0.2,0.1-0.3,0.1c-0.1,0-0.2,0-0.3-0.1c-0.1-0.1-0.1-0.2-0.1-0.3c0-0.1,0-0.2,0.1-0.3C50.9,56.8,51,56.8,51.1,56.8z"/>
			<path class="st1" d="M50.1,62.1v-0.4l0.4,0c0.1,0,0.2,0,0.2,0c0,0,0-0.1,0-0.3c0-0.3,0-0.7,0-1.3c0-0.4,0-0.7,0-0.9
				c0,0,0-0.1,0-0.1c0,0,0,0-0.2,0h-0.4v-0.4l0.1,0c0.3,0,0.5-0.1,0.7-0.1c0.1,0,0.3-0.1,0.5-0.2l0,0l0.2,0.1l0,0.1
				c0,0.2,0,0.4,0,0.6c0,0.7,0,1.2,0,1.6c0,0.3,0,0.6,0,0.8c0,0.1,0,0.1,0,0.1c0,0,0,0,0.2,0.1l0.3,0v0.4l-0.1,0c-0.4,0-0.7,0-1,0
				C50.8,62.1,50.5,62.1,50.1,62.1L50.1,62.1z M51.1,61.9c0.3,0,0.6,0,0.9,0v0l-0.2,0c-0.2,0-0.3-0.1-0.3-0.1
				c-0.1,0-0.1-0.1-0.1-0.2c0-0.2,0-0.5,0-0.8c0-0.3,0-0.9,0-1.6c0-0.2,0-0.4,0-0.6l0,0c-0.2,0.1-0.4,0.1-0.5,0.2
				c-0.1,0-0.3,0.1-0.6,0.1v0.1h0.2c0.2,0,0.3,0,0.3,0.1c0.1,0,0.1,0.1,0.1,0.2c0,0.2,0,0.5,0,0.9c0,0.5,0,1,0,1.3
				c0,0.3,0,0.4-0.1,0.4c0,0.1-0.1,0.1-0.3,0.1l-0.2,0v0C50.5,61.9,50.8,61.9,51.1,61.9z M51.1,57.7c-0.1,0-0.3,0-0.4-0.1
				s-0.1-0.2-0.1-0.4c0-0.1,0-0.3,0.1-0.4c0.1-0.1,0.2-0.1,0.4-0.1c0.1,0,0.3,0.1,0.4,0.1c0.1,0.1,0.1,0.2,0.1,0.4
				c0,0.1,0,0.3-0.1,0.4S51.2,57.7,51.1,57.7z M51.1,56.9c-0.1,0-0.2,0-0.2,0.1c-0.1,0.1-0.1,0.1-0.1,0.2c0,0.1,0,0.2,0.1,0.2
				c0.1,0.1,0.3,0.1,0.5,0c0.1-0.1,0.1-0.1,0.1-0.2c0-0.1,0-0.2-0.1-0.2C51.3,56.9,51.2,56.9,51.1,56.9z"/>
		</g>
		<g>
			<path class="st5" d="M52.9,60.2c0,0.5,0.1,0.8,0.4,1.1c0.2,0.3,0.5,0.4,0.9,0.4c0.2,0,0.3,0,0.5-0.1c0.2-0.1,0.3-0.1,0.5-0.3
				l0.1,0.1l-0.1,0.3c-0.2,0.1-0.4,0.2-0.6,0.3c-0.2,0.1-0.4,0.1-0.7,0.1c-0.5,0-0.9-0.2-1.2-0.5c-0.3-0.3-0.5-0.7-0.5-1.3
				c0-0.4,0.1-0.8,0.3-1.1c0.1-0.2,0.3-0.4,0.6-0.6c0.3-0.2,0.6-0.3,0.9-0.3c0.4,0,0.8,0.1,1,0.4c0.3,0.3,0.4,0.6,0.4,1.1l0,0.2
				c-0.2,0-0.3,0.1-0.5,0.1c-0.3,0-0.6,0-1.1,0H52.9z M52.9,59.9c0.4,0,0.8,0,1.3,0c0.2,0,0.4,0,0.5,0v-0.2c0-0.2,0-0.4-0.1-0.6
				c-0.1-0.1-0.1-0.2-0.3-0.3c-0.1-0.1-0.3-0.1-0.5-0.1c-0.3,0-0.5,0.1-0.7,0.3C53,59.2,52.9,59.5,52.9,59.9z"/>
			<path class="st1" d="M53.9,62.2c-0.5,0-0.9-0.2-1.3-0.5c-0.3-0.3-0.5-0.8-0.5-1.3c0-0.4,0.1-0.8,0.3-1.1c0.1-0.2,0.3-0.4,0.7-0.6
				c0.3-0.2,0.6-0.3,0.9-0.3c0.5,0,0.8,0.1,1.1,0.4c0.3,0.3,0.4,0.7,0.4,1.1l0,0.3l-0.1,0c-0.2,0-0.3,0.1-0.5,0.1
				c-0.3,0-0.6,0-1.1,0H53c0,0.4,0.1,0.7,0.3,1c0.2,0.2,0.5,0.3,0.9,0.3c0.2,0,0.3,0,0.5-0.1c0.2-0.1,0.3-0.1,0.5-0.2l0.1,0l0.2,0.1
				l-0.1,0.4l0,0c-0.2,0.1-0.4,0.2-0.6,0.3C54.3,62.1,54.1,62.2,53.9,62.2z M54,58.5c-0.3,0-0.6,0.1-0.8,0.2
				c-0.3,0.2-0.5,0.3-0.6,0.5c-0.2,0.3-0.2,0.6-0.2,1c0,0.5,0.1,0.9,0.4,1.2c0.3,0.3,0.7,0.4,1.1,0.4c0.2,0,0.4,0,0.6-0.1
				c0.2-0.1,0.4-0.1,0.6-0.2l0.1-0.2c-0.1,0.1-0.3,0.1-0.4,0.2c-0.2,0.1-0.4,0.1-0.5,0.1c-0.4,0-0.7-0.1-1-0.4
				c-0.2-0.3-0.4-0.7-0.4-1.2l0-0.1h1c0.5,0,0.8,0,1.1,0c0.1,0,0.3,0,0.4-0.1l0-0.2c0-0.4-0.1-0.8-0.4-1
				C54.7,58.6,54.4,58.5,54,58.5z M54.2,60.1c-0.5,0-0.9,0-1.3,0l-0.1,0l0-0.1c0-0.4,0.1-0.8,0.3-1c0.2-0.2,0.4-0.3,0.7-0.3
				c0.2,0,0.4,0,0.5,0.1c0.1,0.1,0.3,0.2,0.3,0.3c0.1,0.2,0.1,0.4,0.1,0.6V60l-0.1,0C54.5,60,54.4,60.1,54.2,60.1z M53,59.9
				c0.4,0,0.7,0,1.2,0c0.2,0,0.3,0,0.4,0v-0.1c0-0.2,0-0.4-0.1-0.6c0-0.1-0.1-0.2-0.2-0.3c-0.1-0.1-0.3-0.1-0.4-0.1
				c-0.3,0-0.4,0.1-0.6,0.3C53.1,59.2,53,59.5,53,59.9z"/>
		</g>
		<g>
			<path class="st5" d="M56.8,59.1v1.4c0,0.4,0,0.6,0,0.7s0.1,0.2,0.1,0.2c0.1,0.1,0.2,0.1,0.3,0.1c0.1,0,0.1,0,0.2,0
				c0.1,0,0.1-0.1,0.2-0.1l0.1,0.1L57.4,62c-0.1,0-0.2,0-0.2,0.1c-0.1,0-0.1,0-0.2,0c-0.2,0-0.3,0-0.5-0.1c-0.1-0.1-0.2-0.1-0.3-0.3
				c-0.1-0.1-0.1-0.3-0.1-0.5l0-0.7v-1.4c-0.2,0-0.4,0-0.6,0V59c0.2-0.1,0.4-0.2,0.6-0.3c0-0.4,0-0.7,0-1.1c0.3-0.1,0.5-0.2,0.6-0.3
				l0.1,0.1c0,0.2,0,0.6-0.1,1.4c0.3,0,0.5,0,0.7,0l0.3,0l0,0.4l-0.2,0l-0.7,0H56.8z"/>
			<path class="st1" d="M57,62.2c-0.2,0-0.4,0-0.5-0.1c-0.1-0.1-0.2-0.2-0.3-0.3c-0.1-0.1-0.1-0.3-0.1-0.5l0-0.7v-1.3
				c-0.2,0-0.3,0-0.5,0l-0.1,0v-0.3l0.1,0c0.2-0.1,0.4-0.1,0.5-0.2c0-0.3,0-0.7,0-1.1l0-0.1l0.1,0c0.3-0.1,0.5-0.2,0.6-0.3l0,0
				l0.2,0.1l0,0c0,0.2,0,0.6-0.1,1.3c0.3,0,0.5,0,0.6,0l0.4,0l-0.1,0.6l-0.2,0l-0.7,0v1.4c0,0.5,0,0.6,0,0.7c0,0.1,0.1,0.2,0.1,0.2
				c0.1,0.1,0.3,0.1,0.4,0c0.1,0,0.1-0.1,0.2-0.1l0.1-0.1l0.2,0.3l-0.4,0.5l0,0c-0.1,0-0.2,0.1-0.2,0.1C57.1,62.1,57,62.2,57,62.2z
				 M56.2,59.1L56.2,59.1l0.1,1.5l0,0.7c0,0.2,0,0.3,0.1,0.4c0,0.1,0.1,0.2,0.2,0.2c0.2,0.1,0.4,0.1,0.6,0.1c0.1,0,0.1,0,0.2-0.1
				l0.3-0.3l0,0c-0.1,0-0.1,0.1-0.2,0.1c-0.1,0-0.2,0-0.2,0c-0.1,0-0.2,0-0.3-0.1c-0.1-0.1-0.2-0.2-0.2-0.3c0-0.1,0-0.4,0-0.7V59
				l1,0l0-0.2l-0.2,0c-0.2,0-0.4,0-0.7,0h-0.1l0-0.1c0-0.7,0-1.1,0.1-1.3l0,0c-0.1,0.1-0.3,0.1-0.5,0.2c0,0.4,0,0.7,0,1.1l0,0.1l0,0
				c-0.2,0.1-0.3,0.2-0.5,0.2v0C55.8,59.1,56,59.1,56.2,59.1z"/>
		</g>
		<g>
			<path class="st5" d="M57.9,64l0.2-0.6h0.1c0.1,0.1,0.1,0.1,0.2,0.2c0.1,0,0.1,0.1,0.2,0.1c0.2,0,0.3-0.1,0.4-0.2s0.3-0.6,0.6-1.2
				c-0.1-0.3-0.3-0.8-0.6-1.6l-0.3-0.8l-0.3-0.6c-0.1-0.2-0.2-0.3-0.4-0.3h-0.1v-0.2c0.3,0,0.5,0,0.7,0c0.2,0,0.5,0,1.1,0v0.2h-0.3
				c-0.1,0-0.2,0-0.2,0c0,0-0.1,0.1-0.1,0.1c0,0,0,0.1,0.1,0.3c0.2,0.7,0.5,1.4,0.9,2.2c0.3-0.7,0.6-1.4,0.8-2.1
				c0.1-0.2,0.1-0.3,0.1-0.4c0-0.1-0.1-0.1-0.3-0.2l-0.3,0v-0.2c0.3,0,0.5,0,0.8,0c0.2,0,0.4,0,0.6,0v0.2h-0.1c-0.1,0-0.1,0-0.2,0
				c-0.1,0-0.1,0.1-0.1,0.1c-0.1,0.1-0.3,0.6-0.7,1.4c-0.1,0.2-0.4,0.8-0.8,1.9c-0.4,0.8-0.6,1.3-0.6,1.4c-0.1,0.2-0.2,0.3-0.4,0.4
				c-0.1,0.1-0.3,0.1-0.5,0.1c-0.1,0-0.1,0-0.2,0C58,64,58,64,57.9,64z"/>
			<path class="st1" d="M58.3,64.2c-0.1,0-0.2,0-0.2,0c-0.1,0-0.2-0.1-0.2-0.1l-0.1,0l0.2-0.7h0.2l0,0c0.1,0.1,0.1,0.1,0.2,0.2
				c0.1,0,0.1,0,0.2,0c0.1,0,0.2-0.1,0.4-0.2c0.1-0.1,0.3-0.5,0.6-1.2c-0.1-0.3-0.3-0.8-0.6-1.6l-0.3-0.8l-0.3-0.6
				c-0.1-0.3-0.3-0.3-0.3-0.3h-0.2v-0.4l0.1,0c0.3,0,0.5,0,0.7,0c0.2,0,0.5,0,1.1,0l0.1,0v0.4h-0.4c-0.1,0-0.1,0-0.2,0c0,0,0,0,0,0
				c0,0,0,0.1,0.1,0.2c0.2,0.6,0.5,1.3,0.8,2c0.3-0.6,0.5-1.3,0.8-1.9c0.1-0.3,0.1-0.3,0.1-0.3c0,0,0-0.1-0.2-0.1l-0.3-0.1v-0.4
				l0.1,0c0.3,0,0.5,0,0.8,0c0.2,0,0.4,0,0.6,0l0.1,0v0.4h-0.2c0,0-0.1,0-0.1,0c0,0-0.1,0.1-0.1,0.1c-0.1,0.1-0.3,0.6-0.7,1.4
				c-0.1,0.2-0.4,0.8-0.8,1.9c-0.4,0.9-0.6,1.3-0.6,1.4c-0.1,0.2-0.2,0.3-0.4,0.4C58.7,64.1,58.5,64.2,58.3,64.2z M58,63.9
				c0.1,0,0.1,0,0.1,0.1c0.2,0.1,0.4,0,0.6-0.1c0.1-0.1,0.2-0.2,0.3-0.3c0-0.1,0.2-0.3,0.6-1.4c0.4-1,0.7-1.6,0.8-1.9
				c0.4-0.8,0.6-1.3,0.7-1.4c0-0.1,0.1-0.1,0.2-0.2c0.1,0,0.1-0.1,0.2-0.1h0v0c-0.4,0-0.8,0-1.2,0v0l0.2,0c0.2,0,0.3,0.1,0.3,0.2
				c0,0,0,0.1-0.1,0.4c-0.2,0.7-0.5,1.4-0.8,2.1l-0.1,0.2l-0.1-0.2c-0.3-0.8-0.6-1.5-0.9-2.2c-0.1-0.2-0.1-0.2-0.1-0.3
				c0-0.1,0-0.1,0.1-0.2c0.1,0,0.1-0.1,0.3-0.1h0.2v0c-0.5,0-0.8,0-1,0c-0.2,0-0.4,0-0.6,0v0h0.1c0.2,0,0.4,0.1,0.5,0.4l0.3,0.6
				l0.3,0.8c0.3,0.8,0.5,1.3,0.6,1.6l0,0l0,0c-0.3,0.7-0.5,1.1-0.6,1.3c-0.1,0.2-0.3,0.3-0.5,0.3c-0.1,0-0.2,0-0.2-0.1
				c-0.1,0-0.1-0.1-0.2-0.2L58,63.9z"/>
		</g>
	</g>
	<g id="bottom_point_2_">
		<g>
			<polygon class="st0" points="46.2,68.2 49.7,68.7 53.3,68.2 49.7,85.4 			"/>
			<path d="M53.1,68.3l-3.4,16.4l-3.3-16.4l3.2,0.5l0,0l0,0L53.1,68.3 M53.4,68l-3.8,0.5L46.1,68l3.6,18L53.4,68L53.4,68z"/>
		</g>
		<polygon class="st4" points="49.7,68.5 49.7,85.8 53.4,68 		"/>
		<path d="M53,68.4l-3.3,15.9l-3.2-15.9l3.1,0.3l0,0l0,0L53,68.4 M53.4,68l-3.8,0.3L46.1,68l3.6,18L53.4,68L53.4,68z"/>
	</g>
	<g id="inner_circle_2_">
		<g>
			<path d="M49.7,68.8c-3.6,0-7.1-1.1-10-3.3c-2.8-2.1-4.8-5-5.9-8.2h-9.6v-0.5h10l0.1,0.2c2.1,6.8,8.3,11.4,15.5,11.4
				S63,63.7,65.1,56.9l0.1-0.2h10v0.5h-9.6c-1.1,3.3-3.1,6.2-5.9,8.2C56.7,67.6,53.3,68.8,49.7,68.8z"/>
		</g>
		<g>
			<path d="M75.1,47.5h-10l-0.1-0.2c-2.1-6.8-8.3-11.4-15.5-11.4s-13.3,4.6-15.5,11.4l-0.1,0.2h-10v-0.5h9.6
				c1.1-3.3,3.1-6.2,5.9-8.2c2.9-2.2,6.4-3.3,10-3.3s7.1,1.1,10,3.3c2.8,2.1,4.8,5,5.9,8.2h9.6V47.5z"/>
		</g>
	</g>
</g>
</svg>
