<?xml version="1.0" encoding="utf-8"?>
<!-- Generator: Adobe Illustrator 21.0.2, SVG Export Plug-In . SVG Version: 6.00 Build 0)  -->
<svg version="1.1" id="Layer_1" xmlns="http://www.w3.org/2000/svg" xmlns:xlink="http://www.w3.org/1999/xlink" x="0px" y="0px"
	 viewBox="0 0 227 326" style="enable-background:new 0 0 227 326;" xml:space="preserve">
<style type="text/css">
	.st0{fill:#FFFFFF;}
	.st1{fill:#A1202F;}
</style>
<g>
	<path d="M2.4,310.3c0.1,0,0.1,0.1,0.2,0.1c-0.1-0.1-0.2-0.1-0.3-0.2C2.3,310.2,2.4,310.3,2.4,310.3z"/>
	<polygon class="st0" points="149,24.3 33.5,69.5 149,48 	"/>
	<polygon class="st0" points="182,77 182,52 47.9,77 	"/>
	<polygon class="st0" points="10,297.7 10,302.9 30,312.9 30,85.1 10,75.1 	"/>
	<path class="st0" d="M169,181c3.9,0,7-3.1,7-7v-36c0-3.9-3.1-7-7-7H88c-3.9,0-7,3.1-7,7v36c0,3.9,3.1,7,7,7H169z"/>
	<path class="st1" d="M222,77h-30V46c0-1.5-0.7-2.9-1.8-3.8c-1.1-0.9-2.6-1.3-4.1-1.1l-27.1,5V17c0-1.7-0.8-3.2-2.2-4.1
		c-1.4-0.9-3.1-1.1-4.6-0.5L123,23.9V5c0-1.8-0.9-3.4-2.4-4.3c-1.5-0.9-3.4-1-4.9-0.1l-113,62c0,0-0.1,0.1-0.1,0.1
		c-0.1,0-0.1,0.1-0.2,0.1c-0.1,0-0.1,0.1-0.1,0.1C2.1,62.9,2.1,63,2,63c-0.1,0.1-0.2,0.1-0.3,0.2c-0.1,0.1-0.2,0.1-0.2,0.2
		c-0.1,0.1-0.2,0.2-0.2,0.3C1.2,63.8,1.1,63.9,1,64C1,64,0.9,64.1,0.8,64.2c-0.1,0.1-0.1,0.2-0.2,0.2c-0.1,0.1-0.1,0.2-0.2,0.3
		c0,0.1-0.1,0.2-0.1,0.3c0,0.1-0.1,0.2-0.1,0.4c0,0.1-0.1,0.2-0.1,0.3c0,0.1-0.1,0.3-0.1,0.4c0,0.1,0,0.1,0,0.2c0,0.2,0,0.4,0,0.7
		v239c0,0.2,0,0.5,0,0.7c0,0.1,0,0.1,0,0.2c0,0.1,0.1,0.3,0.1,0.4c0,0.1,0.1,0.2,0.1,0.3c0,0.1,0.1,0.2,0.1,0.4
		c0,0.1,0.1,0.2,0.1,0.3c0.1,0.1,0.1,0.2,0.2,0.3c0,0.1,0.1,0.2,0.2,0.2c0.1,0.1,0.1,0.2,0.2,0.3c0.1,0.1,0.1,0.2,0.2,0.2
		c0.1,0.1,0.2,0.2,0.3,0.3c0.1,0.1,0.1,0.1,0.2,0.2c0.1,0.1,0.2,0.2,0.3,0.2c0.1,0.1,0.2,0.1,0.2,0.2c0.1,0.1,0.2,0.1,0.3,0.2
		c0.1,0,0.1,0.1,0.2,0.1l30,15c0.1,0,0.1,0.1,0.2,0.1c0.1,0,0.1,0.1,0.2,0.1c0.3,0.1,0.5,0.2,0.8,0.2c0,0,0.1,0,0.1,0
		c0.3,0.1,0.6,0.1,0.9,0.1h187c2.8,0,5-2.2,5-5V82C227,79.2,224.8,77,222,77z M81,174v-36c0-3.9,3.1-7,7-7h81c3.9,0,7,3.1,7,7v36
		c0,3.9-3.1,7-7,7H88C84.1,181,81,177.9,81,174z M182,52v25H47.9L182,52z M30,312.9l-20-10v-5.2V75.1l20,10V312.9z M33.5,69.5
		L149,24.3V48L33.5,69.5z"/>
</g>
</svg>
