<?xml version="1.0" encoding="utf-8"?>
<!-- Generator: Adobe Illustrator 21.0.2, SVG Export Plug-In . SVG Version: 6.00 Build 0)  -->
<svg version="1.1" id="Layer_1" xmlns="http://www.w3.org/2000/svg" xmlns:xlink="http://www.w3.org/1999/xlink" x="0px" y="0px"
	 viewBox="0 0 284 326" style="enable-background:new 0 0 284 326;" xml:space="preserve">
<style type="text/css">
	.st0{fill:#FFFFFF;}
	.st1{fill:#A1202F;}
</style>
<path d="M1.5,309.6c-0.1-0.1-0.2-0.2-0.3-0.3C1.3,309.4,1.4,309.5,1.5,309.6z"/>
<path d="M2.4,310.3c0.1,0,0.1,0.1,0.2,0.1c-0.1-0.1-0.2-0.1-0.3-0.2C2.3,310.2,2.4,310.3,2.4,310.3z"/>
<path d="M1.1,309.1c-0.1-0.1-0.1-0.2-0.2-0.3C0.9,308.9,1,309,1.1,309.1z"/>
<path d="M2,310c-0.1-0.1-0.2-0.2-0.3-0.2C1.8,309.9,1.9,309.9,2,310z"/>
<path d="M0.7,64.5c0-0.1,0.1-0.2,0.2-0.2C0.8,64.3,0.7,64.4,0.7,64.5z"/>
<path d="M0.7,308.5c-0.1-0.1-0.1-0.2-0.2-0.3C0.6,308.3,0.6,308.4,0.7,308.5z"/>
<path d="M1,64c0.1-0.1,0.1-0.2,0.2-0.2C1.2,63.8,1.1,63.9,1,64z"/>
<path d="M2,63c0.1-0.1,0.2-0.1,0.3-0.2C2.1,62.9,2.1,63,2,63z"/>
<path d="M1.5,63.5c0.1-0.1,0.1-0.1,0.2-0.2C1.6,63.3,1.5,63.4,1.5,63.5z"/>
<path d="M0.4,65.1c0-0.1,0.1-0.2,0.1-0.3C0.5,64.9,0.4,65,0.4,65.1z"/>
<path d="M0.4,308c-0.1-0.1-0.1-0.2-0.1-0.4C0.3,307.7,0.4,307.8,0.4,308z"/>
<g>
	<path class="st1" d="M279.6,173.6c5.6-7.6,6-18.2,0.4-26.4l-2.1-3.1L75,292.5H1v4.7c0,11.2,8.1,20.6,18.8,22.5
		c0.5,3.3,3.4,5.8,6.8,5.8H32c3.3,0,6.1-2.3,6.7-5.4h8.9c0.7,3.1,3.4,5.4,6.7,5.4h10.2c3.3,0,6.1-2.3,6.7-5.4h2.9
		c2.1,0,4.1-0.3,6.1-0.8c1.4,1.7,3.4,2.7,5.4,2.7c1.4,0,2.8-0.4,4-1.3l8.3-5.9c2.7-1.9,3.6-5.4,2.3-8.3l7.1-5.2
		c1.3,1.2,3,1.9,4.7,1.9c1.4,0,2.8-0.4,4-1.3l8.3-5.9c2.8-2,3.7-5.8,2.1-8.8l7-5.1c1.3,1.4,3.2,2.2,5.1,2.2c1.4,0,2.8-0.4,4-1.3
		l8.3-5.9c3-2.1,3.7-6.1,1.9-9.2l6.9-5.1c1.3,1.7,3.3,2.6,5.4,2.6c1.4,0,2.8-0.4,4-1.3l8.3-5.9c3.1-2.2,3.8-6.4,1.7-9.5l6.9-5.1
		c0,0,0,0,0,0c1.3,1.9,3.5,2.9,5.6,2.9c1.4,0,2.8-0.4,4-1.3l8.3-5.9c3.1-2.2,3.8-6.5,1.6-9.6c-0.1-0.1-0.1-0.2-0.2-0.3l6.9-5.1
		c0.1,0.1,0.2,0.3,0.3,0.4c1.3,1.9,3.5,2.9,5.6,2.9c1.4,0,2.8-0.4,4-1.3l8.3-5.9c3.1-2.2,3.8-6.5,1.6-9.6c-0.2-0.2-0.3-0.4-0.5-0.6
		l7-5.1c0.1,0.3,0.3,0.5,0.5,0.8c1.3,1.9,3.5,2.9,5.6,2.9c1.4,0,2.8-0.4,4-1.3l8.3-5.9c3.1-2.2,3.8-6.5,1.6-9.6
		c-0.3-0.4-0.5-0.7-0.8-1l7.1-5.2c0.2,0.4,0.4,0.8,0.7,1.2c1.3,1.9,3.5,2.9,5.6,2.9c1.4,0,2.8-0.4,4-1.3l4.4-3.1
		c3.1-2.2,3.8-6.5,1.6-9.6C281.1,174.7,280.4,174.1,279.6,173.6z"/>
	<path class="st1" d="M153,165.5c0.7,3.5-1.6,6.8-5.1,7.5l-75.3,14.7L61.8,211c-2.7,5.8-7.7,10.2-13.8,12.2l-31.2,10
		C7.4,236.3,1,245.1,1,255v24.7h69.8l199.9-146.1L199.1,28.8c-1.3-2-1.6-4.5-0.7-6.6l5.3-12.6c1.6-4-0.6-8.4-4.8-9.5
		c-4.1-1-8.2,1.8-8.7,6.1l-1.7,17.3c-0.3,2.6-1.9,4.8-4.3,5.8L95.5,65l-0.2,28.4l50.2-9.8c3.5-0.7,6.8,1.6,7.5,5.1
		c0.7,3.5-1.6,6.8-5.1,7.5l-52.7,10.3l-0.2,23.4l50.4-9.8c3.5-0.7,6.8,1.6,7.5,5.1c0.7,3.5-1.6,6.8-5.1,7.5l-54.7,10.7l-13.9,30.1
		l66.2-12.9C149,159.7,152.3,162,153,165.5z"/>
</g>
</svg>
