<?xml version="1.0" encoding="utf-8"?>
<!-- Generator: Adobe Illustrator 21.0.2, SVG Export Plug-In . SVG Version: 6.00 Build 0)  -->
<svg version="1.1" id="Layer_1" xmlns="http://www.w3.org/2000/svg" xmlns:xlink="http://www.w3.org/1999/xlink" x="0px" y="0px"
	 viewBox="0 0 221 326" style="enable-background:new 0 0 221 326;" xml:space="preserve">
<style type="text/css">
	.st0{fill:#FFFFFF;}
	.st1{fill:#A1202F;}
</style>
<g>
	<path class="st1" d="M110,0C49.2,0,0,49.2,0,110c0,39.9,21.3,74.9,53.1,94.1l52,119.1c1.7,3.8,7,3.8,8.7,0l51.6-118.2
		c32.6-19.1,54.5-54.5,54.5-95C219.9,49.2,170.7,0,110,0z M110,150.1c-5.1,0-10-1-14.5-2.7c-15-5.8-25.6-20.4-25.6-37.4
		c0-22.2,18-40.1,40.1-40.1s40.1,18,40.1,40.1c0,17.3-11,32.1-26.4,37.7C119.4,149.2,114.8,150.1,110,150.1z"/>
	<path class="st0" d="M123.7,147.7c15.4-5.6,26.4-20.4,26.4-37.7c0-22.2-18-40.1-40.1-40.1s-40.1,18-40.1,40.1
		c0,17.1,10.6,31.6,25.6,37.4c4.5,1.7,9.4,2.7,14.5,2.7C114.8,150.1,119.4,149.2,123.7,147.7z"/>
</g>
</svg>
