<?xml version="1.0" encoding="utf-8"?>
<!-- Generator: Adobe Illustrator 21.0.2, SVG Export Plug-In . SVG Version: 6.00 Build 0)  -->
<svg version="1.1" id="Capa_1" xmlns="http://www.w3.org/2000/svg" xmlns:xlink="http://www.w3.org/1999/xlink" x="0px" y="0px"
	 viewBox="0 0 455.7 455.7" style="enable-background:new 0 0 455.7 455.7;" xml:space="preserve">
<style type="text/css">
	.st0{fill:#FFFFFF;}
</style>
<g>
	<polygon class="st0" points="169.9,238.4 113.3,238.4 113.3,255.8 132.4,255.8 132.4,360 150.8,360 150.8,255.8 169.9,255.8 	"/>
	<path class="st0" d="M200.4,337.1c0,0.6,0,1.3-0.3,1.6c-2.1,2.7-4.6,5-7.9,6.2c-2.9,1-5.1-0.2-5.7-3.2c-0.2-1.2-0.3-2.4-0.3-3.6
		c0-22-0.1-67.3-0.1-67.8h-16.3c0,0.6,0,63.6,0,75.5c0,3.2,0.3,6.4,1.7,9.4c1.4,3.2,3.8,5.3,7.4,5.9c2.6,0.5,5.2,0.2,7.6-0.7
		c5.1-1.8,9.1-5.1,12.6-9c0.3-0.4,0.6-0.7,1.2-1.3v9.9h16.3v-43.2c0-15,0-46.5,0-46.5l-16.3,0V337.1z"/>
	<path class="st0" d="M277.5,277.3c-3.4-7.3-10.7-9.3-16.9-7.7c-3.8,1-6.9,3.2-9.4,6c-0.8,1-1.8,2.8-1.8,2.8s0-27.1,0-40h-16.3
		v121.5h16.3v-6.8c0,0,1.2,1.2,1.6,1.7c3.8,4.1,8.3,6.3,13.9,6.3c6.9,0.1,11.7-3.3,13.9-9.8c1-3,1.3-6.2,1.3-9.4c0-17,0-34,0-51
		C280.1,286.3,279.5,281.7,277.5,277.3z M263.3,339.9c0,0.9-0.1,1.8-0.3,2.7c-0.8,3.6-3.5,5.2-7.3,4.4c-2.3-0.5-4.2-1.8-5.7-3.5
		c-0.1-0.1-0.5-0.7-0.5-0.7v0v-1.3l0-54l0,0v0c0,0,0.3-1,1.1-1.7c1.9-1.7,4-2.8,6.7-2.5c2.3,0.2,4.1,1.3,4.9,3.3
		c0.6,1.6,1.1,3.4,1.1,5.1c0.1,15.9,0.1,31.9,0,47.8C263.3,339.7,263.3,339.8,263.3,339.9z"/>
	<path class="st0" d="M218.8,171.4c3.8,0,6.9-3.1,6.9-6.9v-48.8c0-3.8-3.1-6.9-6.9-6.9c-3.8,0-6.9,3.1-6.9,6.9v48.8
		C211.8,168.3,214.9,171.4,218.8,171.4z"/>
	<path class="st0" d="M324.2,328.1v11.5c0,4-3.3,7.3-7.3,7.3c-4,0-7.3-3.3-7.3-7.3v-22.4h31.3c0,0,0.2-15.7,0-22.8
		c0-3-0.3-6.1-0.9-9.1c-1.6-7.7-5.8-13.5-13.5-16c-2.3-0.8-4.7-1.1-7.1-1.3c-8-0.5-14.9,1.8-20.3,7.9c-4.8,5.3-6.4,11.8-6.4,18.7
		c0,13.3-0.1,26.6,0,39.9c0,3.4,0.4,6.9,1.2,10.2c1.7,7.1,5.5,12.7,12.4,15.7c5,2.3,10.3,2.4,15.6,1.6c8.6-1.3,14.4-5.9,17.3-14.1
		c2.1-6.2,1.9-19.8,1.9-19.8H324.2z M309.6,290.7c0-4,3.3-7.3,7.3-7.3c4,0,7.3,3.3,7.3,7.3v12.6h-14.6V290.7z"/>
	<path class="st0" d="M0,0v455.7h455.7V0H0z M256.7,95h16.6v68.8c0,0.9,0.1,1.8,0.2,2.7c0.5,2.8,2.6,4.2,5.3,3.2
		c3.3-1.2,5.9-3.5,8-6.2c0.3-0.4,0.3-1.1,0.3-1.7V95h16.7l0,90.2h-16.7l0-9.7c-1.8,1.8-3.4,3.5-5.2,5.1c-3.1,2.7-6.6,4.7-10.6,5.5
		c-6.3,1.2-11.6-0.8-13.6-7.2c-0.7-2.2-1.1-4.5-1.1-6.7V95z M218.8,92.7c13.2,0,23.9,10.7,23.9,23.9v46.9
		c0,13.2-10.7,23.9-23.9,23.9s-23.9-10.7-23.9-23.9v-46.9C194.8,103.5,205.5,92.7,218.8,92.7z M154.3,63.1c0,0,7.6,32.3,11.2,47.6h0
		c3.6-15.3,11.2-47.6,11.2-47.6h19c0,0-14.6,48.5-21.2,70.1c-0.2,0.8-0.3,1.6-0.3,2.5l0,49.6h-17.5l0-49.6c0-0.8-0.1-1.7-0.3-2.5
		c-6.5-21.6-21.2-70.1-21.2-70.1H154.3z M363.6,350.9c0,22.2-17.7,40.3-39.9,40.8c-63.9,1.4-127.8,1.4-191.7,0
		c-22.2-0.5-39.9-18.6-39.9-40.8v-99.8c0-22.2,17.7-40.3,39.9-40.8c63.9-1.4,127.8-1.4,191.7,0c22.2,0.5,39.9,18.6,39.9,40.8V350.9z
		"/>
</g>
</svg>
